<?xml version="1.0" encoding="UTF-8" standalone="no"?>
<!-- Created with Inkscape (http://www.inkscape.org/) -->

<svg
   xmlns:dc="http://purl.org/dc/elements/1.1/"
   xmlns:cc="http://creativecommons.org/ns#"
   xmlns:rdf="http://www.w3.org/1999/02/22-rdf-syntax-ns#"
   xmlns:svg="http://www.w3.org/2000/svg"
   xmlns="http://www.w3.org/2000/svg"
   xmlns:sodipodi="http://sodipodi.sourceforge.net/DTD/sodipodi-0.dtd"
   xmlns:inkscape="http://www.inkscape.org/namespaces/inkscape"
   width="50mm"
   height="70mm"
   viewBox="0 0 50 70"
   version="1.1"
   id="svg1891"
   inkscape:version="0.92.4 (5da689c313, 2019-01-14)"
   sodipodi:docname="backBug.svg">
  <defs
     id="defs1885" />
  <sodipodi:namedview
     id="base"
     pagecolor="#ffffff"
     bordercolor="#666666"
     borderopacity="1.0"
     inkscape:pageopacity="0.0"
     inkscape:pageshadow="2"
     inkscape:zoom="2.8"
     inkscape:cx="74.513373"
     inkscape:cy="125.75368"
     inkscape:document-units="mm"
     inkscape:current-layer="layer1"
     showgrid="false"
     inkscape:window-width="1920"
     inkscape:window-height="1017"
     inkscape:window-x="-8"
     inkscape:window-y="-8"
     inkscape:window-maximized="1" />
  <metadata
     id="metadata1888">
    <rdf:RDF>
      <cc:Work
         rdf:about="">
        <dc:format>image/svg+xml</dc:format>
        <dc:type
           rdf:resource="http://purl.org/dc/dcmitype/StillImage" />
        <dc:title></dc:title>
      </cc:Work>
    </rdf:RDF>
  </metadata>
  <g
     inkscape:label="Layer 1"
     inkscape:groupmode="layer"
     id="layer1"
     transform="translate(0,-227)">
    <path
       style="fill:#000000;fill-opacity:1;stroke:none;stroke-width:0.26458332;stroke-opacity:1"
       id="path2436"
       d="m 12.806936,257.67503 c 0.22401,-0.35791 0.478838,-0.69434 0.745484,-1.02123 0.279932,-0.35687 0.615591,-0.6593 0.957046,-0.95503 0.298186,-0.26113 0.594413,-0.52483 0.889615,-0.78942 0.370436,-0.30787 0.706949,-0.65115 1.048804,-0.98938 0.498761,-0.4929 1.12088,-0.81013 1.729612,-1.14725 0.365275,-0.19429 0.72858,-0.39238 1.088478,-0.59649 0.07014,-0.0397 0.139658,-0.0805 0.210432,-0.11906 0.07338,-0.04 0.148629,-0.0765 0.221982,-0.1165 0.07479,-0.0408 0.296957,-0.1672 0.222391,-0.12599 -1.074814,0.59414 -0.234716,0.11827 -0.02337,-0.0107 0.753399,-0.50047 1.567478,-0.85091 2.422486,-1.12622 0.517407,-0.17508 1.052663,-0.27474 1.588902,-0.36891 0.530069,-0.0849 1.052553,-0.20691 1.578489,-0.31296 0.293732,-0.0558 0.607039,-0.0859 0.90243,-0.0239 0.116877,0.0308 0.06188,0.01 0.165537,0.0619 0,0 -0.70222,0.4659 -0.70222,0.4659 v 0 c -0.09373,-0.037 -0.04331,-0.0209 -0.151977,-0.0459 -0.29011,-0.042 -0.586989,-0.0187 -0.872993,0.0412 -0.525636,0.10556 -1.048662,0.22336 -1.578001,0.30996 -0.533494,0.093 -1.063886,0.20242 -1.578288,0.37551 -0.400903,0.13244 -0.799027,0.27533 -1.181552,0.45529 -0.09146,0.043 -0.352398,0.19599 -0.271004,0.13605 0.139229,-0.10252 0.297319,-0.17659 0.445978,-0.26489 -0.672127,0.41122 -1.349209,0.81449 -2.042491,1.18906 -0.36211,0.20372 -0.726847,0.40268 -1.09285,0.59929 -0.05352,0.0299 -0.213218,0.12093 -0.160563,0.0896 0.179359,-0.10683 0.359031,-0.21317 0.540719,-0.31598 0.05812,-0.0329 -0.115046,0.0681 -0.169899,0.10615 -0.186173,0.12926 -0.359052,0.27934 -0.528444,0.42926 -0.343886,0.33485 -0.67177,0.68614 -1.044069,0.99093 -0.292052,0.26846 -0.593889,0.52696 -0.889101,0.79178 -0.343751,0.29129 -0.683167,0.58897 -0.965161,0.94273 -0.265335,0.32075 -0.52106,0.65027 -0.737902,1.00621 0,0 -0.768505,0.33895 -0.768505,0.33895 z"
       inkscape:connector-curvature="0" />
    <path
       style="fill:#000000;fill-opacity:1;stroke:none;stroke-width:0.26458332;stroke-opacity:1"
       id="path2438"
       d="m 10.541871,260.8157 c 0.105523,-0.4342 0.274945,-0.84441 0.473964,-1.24294 0.167927,-0.33026 0.401411,-0.61947 0.584911,-0.94018 0.196796,-0.40145 0.349854,-0.82239 0.52115,-1.235 0.149534,-0.3847 0.367794,-0.73553 0.609726,-1.0679 0.223209,-0.26561 0.47712,-0.50162 0.699599,-0.76832 0.265784,-0.32241 0.497323,-0.67042 0.727322,-1.01863 0.170284,-0.27935 0.365578,-0.53847 0.601622,-0.76496 0.249921,-0.22694 0.506777,-0.44581 0.768688,-0.65873 0.908486,-0.67637 1.941619,-1.19934 2.913793,-1.75971 0.670432,-0.37534 1.65962,-0.93024 -1.454689,0.8413 -0.05084,0.0289 0.09894,-0.0624 0.14776,-0.0946 0.10618,-0.0701 0.203113,-0.13912 0.307438,-0.21221 0.872574,-0.7022 1.850122,-1.19102 2.827245,-1.75846 0.361002,-0.16112 0.710388,-0.35068 1.083696,-0.48163 0.42293,-0.15785 0.855864,-0.28851 1.292412,-0.40347 0.368555,-0.11782 0.739528,-0.24153 1.080611,-0.42621 0.279854,-0.15905 0.57712,-0.28379 0.858829,-0.43943 0.272397,-0.13646 0.545666,-0.27035 0.838991,-0.35437 0.256379,-0.1148 0.540623,-0.11641 0.811549,-0.17105 0.3028,-0.0578 0.610756,-0.0679 0.917903,-0.0784 0.324641,-0.0156 0.645689,-0.007 0.968134,0.0298 0.296725,0.044 0.598578,0.03 0.894686,0.0736 0.350766,0.0335 0.694751,0.10814 1.04026,0.1742 0.377057,0.0799 0.737243,0.22213 1.085077,0.38559 0.225343,0.0986 0.447061,0.19862 0.68966,0.24387 0.310645,0.0773 0.623446,0.14444 0.931199,0.23363 0.384918,0.14219 0.732321,0.3632 1.090644,0.55908 0.250105,0.12312 0.476165,0.28327 0.710247,0.4324 0.235466,0.13082 0.447879,0.2957 0.651754,0.4705 0.233259,0.20033 0.442881,0.42433 0.644729,0.65554 0.245864,0.29633 0.430307,0.63572 0.611499,0.97359 0.171567,0.37293 0.338897,0.74901 0.463958,1.14034 0.128592,0.41272 0.212047,0.83747 0.271962,1.26507 0.05073,0.40542 0.09071,0.81148 0.09393,1.22023 0.0073,0.43174 -0.0415,0.85945 -0.104447,1.28561 -0.05317,0.44641 -0.132487,0.88823 -0.234085,1.32594 -0.101838,0.44295 -0.267692,0.86554 -0.451136,1.27999 -0.258558,0.54312 -0.543504,1.07271 -0.828114,1.6024 -0.294909,0.57911 -0.662096,1.1158 -1.008184,1.66439 -0.402211,0.64513 -0.800669,1.29221 -1.232556,1.91805 -0.456044,0.63127 -0.904153,1.26874 -1.373799,1.88999 -0.445349,0.61314 -1.034804,1.08127 -1.63368,1.53383 -0.691838,0.52569 -1.357699,1.08418 -2.043054,1.61824 -1.173859,0.93419 -2.50049,1.63518 -3.794829,2.38431 -0.691907,0.38792 -1.438665,0.66395 -2.181486,0.93643 -0.714697,0.22951 -1.448355,0.3904 -2.18697,0.51984 -0.728763,0.12645 -1.467205,0.10135 -2.199344,0.0271 -0.798105,-0.0886 -1.564837,-0.32869 -2.307346,-0.62522 -0.722225,-0.29023 -1.342929,-0.75993 -1.96121,-1.22163 -0.643616,-0.49955 -1.194391,-1.10041 -1.728834,-1.7116 -0.315724,-0.37832 -0.68465,-0.70938 -1.005089,-1.08317 -0.168815,-0.19692 -0.273477,-0.35106 -0.424804,-0.56073 -0.369403,-0.56524 -0.629852,-1.19293 -0.846407,-1.83007 -0.202776,-0.56827 -0.275013,-1.16379 -0.314579,-1.76192 -0.03497,-0.57905 -0.03268,-1.1586 0.01774,-1.73641 0.02415,-0.36352 0.105613,-0.71417 0.235378,-1.05315 0.12868,-0.31911 0.268549,-0.63307 0.387689,-0.95599 0.08279,-0.26415 0.144481,-0.53443 0.213534,-0.80244 0.07072,-0.24804 0.226627,-0.45726 0.361787,-0.67307 0.09336,-0.14237 0.04719,-0.073 0.138402,-0.20805 0,0 2.046706,-0.89965 2.046706,-0.89965 v 0 c -0.08727,0.1427 -0.04065,0.0731 -0.139965,0.20883 -0.133018,0.20154 -0.268822,0.40304 -0.384257,0.61495 -0.09346,0.2666 -0.143802,0.54735 -0.225479,0.81771 -0.105783,0.32787 -0.246954,0.6415 -0.374589,0.96092 -0.134065,0.3272 -0.261558,0.65481 -0.289637,1.01232 -0.07046,0.56714 -0.07403,1.13755 -0.04303,1.708 0.03427,0.58024 0.09599,1.16016 0.286039,1.71345 0.199295,0.62002 0.44576,1.23057 0.805187,1.77674 0.152979,0.2118 0.239711,0.34095 0.409632,0.53994 0.320486,0.37532 0.683361,0.71353 0.998325,1.09395 0.522836,0.60226 1.066454,1.18983 1.706637,1.67085 0.605431,0.44945 1.220012,0.89688 1.927315,1.17496 0.732579,0.28223 1.489879,0.50234 2.275214,0.57256 0.725155,0.0564 1.453755,0.0603 2.171244,-0.0787 0.729475,-0.13583 1.455759,-0.29783 2.156663,-0.54514 0.737797,-0.27855 1.478308,-0.56055 2.158964,-0.9643 -3.295708,1.91331 -0.546208,0.34837 0.108789,-0.22201 0.688668,-0.52659 1.353775,-1.08205 2.034876,-1.61816 0.593749,-0.44227 1.197991,-0.88217 1.650399,-1.47773 0.483825,-0.61131 0.920417,-1.25871 1.38607,-1.88389 0.43493,-0.61417 0.826604,-1.25578 1.217203,-1.89873 0.33832,-0.5504 0.716441,-1.07721 1.014984,-1.65144 0.277534,-0.52399 0.558572,-1.04564 0.814967,-1.58054 0.184427,-0.40062 0.351525,-0.81018 0.459015,-1.23906 0.111781,-0.43076 0.199829,-0.86572 0.24815,-1.30867 0.0583,-0.41599 0.122422,-0.832 0.110355,-1.25374 0.0051,-0.4011 -0.02794,-0.7989 -0.07444,-1.19713 -0.05127,-0.41664 -0.134745,-0.82817 -0.258964,-1.22956 -0.113602,-0.38042 -0.279934,-0.74136 -0.44182,-1.10329 -0.175101,-0.32239 -0.353928,-0.64608 -0.594556,-0.9254 -0.196659,-0.22251 -0.407725,-0.43055 -0.634206,-0.62291 -0.201305,-0.16682 -0.414194,-0.31646 -0.641236,-0.44663 -0.223136,-0.15343 -0.453774,-0.29324 -0.688835,-0.4278 -0.337463,-0.19821 -0.677368,-0.40356 -1.055222,-0.51536 -0.313684,-0.078 -0.630732,-0.1412 -0.945184,-0.21605 -0.244819,-0.07 -0.475057,-0.1783 -0.704575,-0.28759 -0.336132,-0.15304 -0.681593,-0.28452 -1.047853,-0.34518 -0.344842,-0.0658 -0.691369,-0.12117 -1.041265,-0.15254 -0.296878,-0.0221 -0.594328,-0.037 -0.890011,-0.0736 -0.315907,-0.027 -0.632933,-0.0164 -0.949475,-0.005 -0.303623,0.0151 -0.606029,0.045 -0.904434,0.10509 -0.270605,0.0409 -0.536886,0.0934 -0.791673,0.19738 -0.278148,0.10684 -0.545757,0.2394 -0.809544,0.37758 -0.288493,0.14532 -0.578736,0.28713 -0.865636,0.43559 -0.353494,0.15345 -0.718579,0.281 -1.090445,0.3822 -0.43302,0.1251 -0.864561,0.25668 -1.283118,0.42503 -0.362591,0.15642 -0.721763,0.32338 -1.069261,0.51108 3.324549,-1.93837 1.640732,-1.02437 0.959814,-0.45381 -0.86448,0.6586 -1.842161,1.14624 -2.788938,1.67648 3.360417,-1.94907 1.602954,-0.96585 0.869948,-0.45844 -0.263447,0.20251 -0.512486,0.42117 -0.762139,0.64022 -0.245544,0.20903 -0.472136,0.43657 -0.633786,0.71954 -0.236487,0.34714 -0.459523,0.7043 -0.720738,1.03386 -0.205946,0.27858 -0.436604,0.53335 -0.695399,0.7642 -0.254877,0.31306 -0.49056,0.64794 -0.646783,1.02209 -0.176351,0.41145 -0.334005,0.83004 -0.501812,1.24497 -0.158799,0.34175 -0.396835,0.62824 -0.595613,0.94696 -0.205708,0.37117 -0.388755,0.75556 -0.469391,1.1756 0,0 -2.018017,0.97325 -2.018017,0.97325 z"
       inkscape:connector-curvature="0" />
    <path
       style="fill:#000000;fill-opacity:1;stroke:none;stroke-width:0.26458332;stroke-opacity:1"
       id="path2440"
       d="m 21.838669,247.51633 c -0.286329,-0.73407 -0.658564,-1.43246 -1.037719,-2.1221 -0.295965,-0.52474 -0.597095,-1.04649 -0.906642,-1.56332 -0.07159,-0.19511 -0.280367,-0.34996 -0.307733,-0.5638 -0.0072,-0.0559 3.18e-4,-0.11277 4.5e-4,-0.16915 0.103066,-0.55773 0.444213,-1.02437 0.772013,-1.47243 0.377181,-0.47887 0.780527,-0.93628 1.169158,-1.40585 0.25678,-0.28129 0.460644,-0.59956 0.645447,-0.93059 0.06769,-0.0977 0.128444,-0.3968 0.08013,-0.0842 3.316328,-2.03229 1.85782,-1.09915 1.16682,-0.5102 -0.252133,0.21443 -0.455062,0.47641 -0.648598,0.74281 -0.193485,0.28853 -0.439245,0.53166 -0.684198,0.77522 -0.172076,0.15998 -0.296868,0.35277 -0.402184,0.56054 -0.09981,0.19441 -0.205051,0.38297 -0.348337,0.54857 -0.1347,0.10291 -0.229532,0.21441 -0.276054,0.37777 -0.02491,0.27372 0.09122,0.55043 0.180536,0.80509 0.139505,0.42499 0.339894,0.825 0.575538,1.204 0.269629,0.44044 0.614466,0.82621 0.933601,1.23009 0.416148,0.5551 0.744481,1.16873 1.065221,1.78195 0.259395,0.51569 0.490359,1.04471 0.722941,1.57276 0.07603,0.15428 0.150138,0.30924 0.219898,0.46644 0,0 -1.944593,1.0895 -1.944593,1.0895 v 0 c -0.06236,-0.16064 -0.129775,-0.31897 -0.20208,-0.47544 -0.213402,-0.531 -0.430423,-1.06095 -0.685018,-1.57398 -0.310591,-0.60295 -0.634519,-1.20353 -1.059301,-1.7355 -0.330636,-0.40602 -0.681501,-0.79847 -0.953576,-1.24817 -0.245674,-0.39044 -0.459747,-0.79995 -0.614685,-1.23549 -0.108782,-0.29104 -0.217967,-0.59104 -0.257778,-0.89996 0.02272,-0.19357 0.06094,-0.38272 0.219822,-0.5129 0.179507,-0.12033 0.282138,-0.28621 0.381961,-0.47431 0.114736,-0.21727 0.205043,-0.45146 0.387713,-0.62437 0.231351,-0.25147 0.507572,-0.4611 0.699702,-0.74803 0.196643,-0.2735 0.387276,-0.5527 0.628735,-0.78993 0.87165,-0.77103 1.352234,-1.0718 2.670291,-1.7004 0.04819,0.0186 0.101403,0.0274 0.144565,0.0557 0.163632,0.10748 0.102553,0.35244 0.0347,0.4899 -0.185353,0.3493 -0.39018,0.69112 -0.658974,0.98383 -0.393753,0.47058 -0.796496,0.93327 -1.191236,1.40294 -0.313216,0.40947 -0.640564,0.83507 -0.771052,1.34288 -0.0095,0.0304 -0.0247,0.0595 -0.02854,0.0911 -0.01702,0.13988 0.220498,0.38882 0.253559,0.52766 0.28604,0.53187 0.566076,1.067 0.855611,1.59704 0.377499,0.69844 0.736718,1.4065 1.114636,2.10474 0,0 -1.944748,1.08965 -1.944748,1.08965 z"
       inkscape:connector-curvature="0" />
    <path
       style="fill:#000000;fill-opacity:1;stroke:none;stroke-width:0.26458332;stroke-opacity:1"
       id="path2442"
       d="m 16.178519,256.81161 c -0.330314,-0.31249 -0.692685,-0.59119 -1.050479,-0.87164 -0.320729,-0.27547 -0.63609,-0.55672 -0.957278,-0.83171 -0.271181,-0.21956 -0.516805,-0.46689 -0.777875,-0.69807 -0.246146,-0.19754 -0.479165,-0.41381 -0.771662,-0.53973 -0.327882,-0.15643 -0.355123,-0.3847 -0.413671,-0.71907 -0.07464,-0.53218 -0.02388,-1.07174 0.01809,-1.60458 0.08889,-0.79422 0.205448,-1.58523 0.314646,-2.3769 0.100294,-0.67836 0.215225,-1.35423 0.350601,-2.02647 0.08767,-0.41643 0.167517,-0.83486 0.266992,-1.2487 0,0 2.009393,-0.96039 2.009393,-0.96039 v 0 c -0.115535,0.41496 -0.213534,0.83472 -0.302956,1.25609 -0.155564,0.66968 -0.273183,1.34651 -0.383191,2.02498 -0.115591,0.78338 -0.224652,1.56845 -0.306744,2.35603 -0.03322,0.51124 -0.07066,1.02849 -0.0071,1.53865 0.05116,0.29833 0.04328,0.39662 0.321467,0.53253 0.28777,0.16484 0.533771,0.38741 0.788993,0.59742 0.259438,0.23211 0.515188,0.46813 0.779837,0.69426 0.311696,0.27716 0.614034,0.56451 0.93185,0.8346 0.362026,0.28688 0.72565,0.57155 1.092259,0.85258 0,0 -1.903158,1.19012 -1.903158,1.19012 z"
       inkscape:connector-curvature="0" />
    <path
       style="fill:#000000;fill-opacity:1;stroke:none;stroke-width:0.26458332;stroke-opacity:1"
       id="path2444"
       d="m 11.24761,261.12212 c -0.49322,-0.20699 -0.989893,-0.40164 -1.473062,-0.63174 -0.464437,-0.21892 -0.909883,-0.47456 -1.361715,-0.71777 -0.306999,-0.18084 -0.6142833,-0.35894 -0.9613201,-0.44818 -0.2050216,-0.0233 -0.4028696,-0.0797 -0.6076179,-0.10584 -0.2585559,-0.0698 -0.3502129,-0.17104 -0.464325,-0.41172 -0.1842114,-0.46618 -0.2486737,-0.96768 -0.2986297,-1.46308 -0.04053,-0.64933 3.175e-4,-1.29932 0.065466,-1.94543 0.057756,-0.59086 0.1411693,-1.17881 0.2468367,-1.76292 0.06889,-0.30653 0.1063284,-0.61824 0.1526413,-0.92851 0,0 2.0036347,-0.97536 2.0036347,-0.97536 v 0 c -0.06896,0.31214 -0.09342,0.63307 -0.174271,0.94324 -0.129007,0.57776 -0.21434,1.16536 -0.27659,1.75387 -0.06606,0.63142 -0.1101622,1.26597 -0.07741,1.90113 0.04939,0.46467 0.110562,0.93667 0.294236,1.37039 0.09822,0.16645 0.17132,0.20216 0.363367,0.22917 0.207534,0.0396 0.416052,0.0798 0.619013,0.13824 0.340153,0.12705 0.648177,0.31732 0.960977,0.49959 0.44477,0.24485 0.887322,0.4943 1.345467,0.71375 0.482314,0.2275 0.978138,0.42988 1.490475,0.5797 0,0 -1.84717,1.26147 -1.84717,1.26147 z"
       inkscape:connector-curvature="0" />
    <path
       style="fill:#000000;fill-opacity:1;stroke:none;stroke-width:0.26458332;stroke-opacity:1"
       id="path2446"
       d="m 37.680786,261.1778 c 0.282188,0.5412 0.636132,1.03999 0.956529,1.55865 0.474261,0.7746 0.898028,1.5784 1.320062,2.38217 0.305626,0.56561 0.529447,1.17868 0.872805,1.72367 0.02064,0.0178 0.04334,0.0734 0.06188,0.0534 0.03006,-0.0324 0.05079,-0.15148 0.01111,-0.13205 -0.629907,0.30863 -1.214115,0.70394 -1.836944,1.02662 -0.04626,0.024 0.06716,-0.0801 0.09496,-0.12414 0.05003,-0.0793 0.155262,-0.30138 0.192868,-0.37843 0.250121,-0.56501 0.616429,-1.0638 0.998262,-1.5452 0.548198,-0.66639 1.14069,-1.2948 1.716678,-1.93703 0.426632,-0.47472 0.861157,-0.94452 1.23077,-1.46597 0.140517,-0.20608 0.270179,-0.42014 0.379359,-0.64451 0,0 2.045343,-0.91726 2.045343,-0.91726 v 0 c -0.13512,0.22636 -0.243636,0.46932 -0.402577,0.68161 -0.370847,0.54435 -0.821869,1.02513 -1.265261,1.51049 -0.574058,0.63625 -1.161722,1.26151 -1.709449,1.92059 -0.372972,0.46048 -0.740471,0.93937 -0.98189,1.48413 -0.01624,0.0339 -0.236212,0.54213 -0.240533,0.545 -0.675679,0.44829 -1.527347,1.64752 -2.153192,1.13194 -0.03103,-0.0256 -0.04551,-0.0663 -0.06826,-0.0995 -0.292248,-0.57788 -0.500285,-1.19745 -0.808165,-1.76865 -0.416591,-0.80034 -0.842475,-1.59689 -1.330542,-2.35662 -0.329636,-0.51789 -0.678754,-1.02291 -1.027588,-1.5279 0,0 1.943764,-1.12108 1.943764,-1.12108 z"
       inkscape:connector-curvature="0" />
    <path
       style="fill:#000000;fill-opacity:1;stroke:none;stroke-width:0.26458332;stroke-opacity:1"
       id="path2448"
       d="m 35.736194,262.43351 c -0.246264,-0.43001 -0.505505,-0.85256 -0.743056,-1.28767 -0.192794,-0.39118 -0.423588,-0.7606 -0.661046,-1.12563 -0.587121,-0.74154 -0.313404,-0.28197 1.840783,-1.21789 0.04747,-0.0206 0.04178,0.0947 0.06402,0.14145 0.02762,0.058 0.05703,0.1152 0.08554,0.17279 0.203639,0.39041 0.397957,0.78587 0.610002,1.1718 0.116531,0.20967 0.227103,0.42221 0.350494,0.62797 0,0 -1.927331,1.11409 -1.927331,1.11409 v 0 c -0.120145,-0.21077 -0.225047,-0.42904 -0.342162,-0.64146 -0.206658,-0.38974 -0.401804,-0.78557 -0.615368,-1.17168 -0.03148,-0.0567 -0.06261,-0.11363 -0.09444,-0.17015 -0.02678,-0.0476 -0.12505,-0.10939 -0.08135,-0.1421 2.120236,-1.58678 1.506884,-1.80791 2.033524,-1.00481 0.227412,0.37639 0.442968,0.75948 0.638725,1.15344 0.234966,0.42674 0.485259,0.84607 0.772613,1.24 0,0 -1.93095,1.13985 -1.93095,1.13985 z"
       inkscape:connector-curvature="0" />
    <path
       style="fill:#000000;fill-opacity:1;stroke:none;stroke-width:0.26458332;stroke-opacity:1"
       id="path2450"
       d="m 29.463097,268.2986 c 0.181769,0.49058 0.430014,0.95174 0.66203,1.41938 0.258114,0.50062 0.546336,0.98465 0.801915,1.48657 0.200912,0.39595 0.382844,0.80089 0.572045,1.20242 0.10047,0.21804 0.183198,0.44318 0.280689,0.66233 0.06175,0.15027 0.08727,0.31025 0.149106,0.46057 0.05351,0.13084 0.130696,0.25503 0.231304,0.35481 0.169013,0.11023 0.155009,0.13579 0.353084,0.0474 0.04417,-0.0178 0.08912,-0.0337 0.132503,-0.0533 0.117851,-0.0533 0.452382,-0.25095 0.340034,-0.18688 -3.116402,1.77725 -1.867156,1.07861 -1.19453,0.67095 0.996667,-0.59691 0.08937,-0.0557 2.431987,-1.40644 0.524192,-0.30225 -2.09704,1.20854 -1.573417,0.90531 0.895676,-0.5187 1.787761,-1.02582 2.683315,-1.53814 0.298762,-0.16468 0.592481,-0.34175 0.909145,-0.47023 0,0 -1.747224,1.38457 -1.747224,1.38457 v 0 c -0.29496,0.14341 -0.581768,0.30311 -0.867431,0.46408 -0.08187,0.0456 -0.163729,0.0913 -0.245597,0.13687 -2.012955,1.12174 6.363296,-3.67827 -0.853694,0.48766 -0.435035,0.25112 2.458712,-1.42676 1.304523,-0.75438 -0.242882,0.15306 -0.234942,0.15122 -0.473048,0.2897 -0.387287,0.22524 -1.757866,1.21146 -2.633144,1.41383 -0.04896,-7.9e-4 -0.0983,0.004 -0.146876,-0.003 -0.136964,-0.0173 -0.241874,-0.14054 -0.342691,-0.22201 -0.107579,-0.12648 -0.203459,-0.26468 -0.266234,-0.41922 -0.06899,-0.14972 -0.100264,-0.3068 -0.147682,-0.46349 -0.09163,-0.22133 -0.168736,-0.44788 -0.259676,-0.66967 -0.174056,-0.40536 -0.348358,-0.81095 -0.544544,-1.20622 -0.254392,-0.50333 -0.539657,-0.98975 -0.797727,-1.49118 -0.233143,-0.46948 -0.474051,-0.93505 -0.708517,-1.40387 0,0 1.950352,-1.0988 1.950352,-1.0988 z"
       inkscape:connector-curvature="0" />
    <path
       style="fill:#000000;fill-opacity:1;stroke:none;stroke-width:0.26458332;stroke-opacity:1"
       id="path2452"
       d="m 21.977421,271.54011 c -0.03855,0.62593 -0.03343,1.25307 -0.01007,1.87939 0.02503,0.63268 0.05945,1.26489 0.07942,1.89776 -0.0018,0.40354 -0.04178,0.80547 -0.05936,1.20843 0.02134,0.11949 -0.02653,0.28396 0.03365,0.39746 0.05188,0.0979 0.308553,0.14418 0.388669,0.17035 0.716366,0.18607 1.437932,0.35358 2.157726,0.5268 0.771816,0.17382 1.537872,0.36299 2.281915,0.6329 0.255151,0.0465 0.792686,0.38672 1.039804,0.32025 0.003,-0.0138 0.006,-0.0276 0.009,-0.0414 0,0 -1.794418,1.37432 -1.794418,1.37432 v 0 c -0.01572,-0.009 -0.03142,-0.0179 -0.04714,-0.0269 -0.341974,-0.12702 -0.67305,-0.28015 -1.015235,-0.40671 -0.730915,-0.26642 -1.483896,-0.45774 -2.242296,-0.62955 -0.739631,-0.17278 -1.485009,-0.32268 -2.219988,-0.51294 -0.203448,-0.0774 -0.417762,-0.14577 -0.529531,-0.35265 -0.07038,-0.13028 -0.01868,-0.31587 -0.04598,-0.45352 0.02232,-0.40139 0.05491,-0.80187 0.08181,-1.20293 -0.0035,-0.63714 -0.01281,-1.27436 -0.04354,-1.91086 -0.02651,-0.61715 -0.03775,-1.23443 -0.06388,-1.85147 0,0 1.999485,-1.01878 1.999485,-1.01878 z"
       inkscape:connector-curvature="0" />
    <path
       style="fill:#000000;fill-opacity:1;stroke:#000000;stroke-width:0.26458332px;stroke-linecap:butt;stroke-linejoin:miter;stroke-opacity:1"
       d="m 10.205357,264.39955 c 0.336514,-3.58385 2.626022,-6.24788 4.568136,-8.94726 1.942114,-2.69938 9.985464,-6.69236 9.985464,-6.69236 H 30.1436 c 0,0 6.610427,2.1988 6.610427,3.81653 0,1.61773 -2.178137,10.10819 -3.167774,11.82229 -0.989637,1.7141 -9.868247,8.31628 -9.868247,8.31628 0,0 -4.252232,1.98437 -7.559524,-0.47247 -3.307292,-2.45685 -6.995378,-3.43165 -5.953125,-7.27604 1.042253,-3.8444 1.042253,-3.8444 1.042253,-3.8444 l 1.559326,-3.44709"
       id="path2454"
       inkscape:connector-curvature="0" />
    <path
       style="fill:#000000;fill-opacity:1;stroke:none;stroke-width:0.26458332;stroke-opacity:1"
       id="path2456"
       d="m 16.324269,253.98852 c 0.786064,-0.74429 1.798922,-1.18947 2.725557,-1.72423 0.732148,-0.3942 0.265832,-0.14476 -1.648698,0.95353 -0.03635,0.0208 0.07277,-0.0417 0.107748,-0.0648 0.101088,-0.0667 0.188958,-0.14775 0.27732,-0.22992 0.01509,-0.004 0.120151,-0.14452 0.131052,-0.12991 0.550959,0.73846 -2.362937,1.66572 1.874772,-0.76428 -0.962129,0.58163 1.882095,-1.13654 -2.194624,1.27441 -0.581261,0.34376 2.352836,-1.32607 1.754802,-1.0124 -0.769499,0.4036 -1.524152,0.95006 -2.342579,1.30454 -0.223992,0.0936 -0.445897,0.17324 -0.68732,0.20525 -0.182928,-0.007 -0.269777,-0.19051 -0.206339,-0.35904 0.02372,-0.063 0.143793,-0.16173 0.189452,-0.20329 0.685209,-0.48442 1.531076,-0.88945 2.202993,-1.26173 0.107512,-0.0596 0.171111,0.17416 0.189455,0.21441 -0.01431,0.0465 -0.02002,0.0965 -0.04294,0.13936 -0.09192,0.17193 -0.374949,0.3811 -0.536413,0.49195 -0.673096,0.39004 -1.346192,0.78008 -2.019289,1.17011 -0.03794,0.0141 -0.07713,0.0252 -0.113813,0.0422 -0.03165,0.0147 -0.05851,0.0387 -0.09042,0.0529 -0.02627,0.0116 -0.05551,0.0149 -0.08281,0.0239 -0.01657,0.005 -0.03983,0.0343 -0.04864,0.0192 -0.05711,-0.0976 -0.08313,-0.21029 -0.124696,-0.31544 0.88299,-0.51399 1.761615,-1.05132 2.696254,-1.46975 0.712802,-0.44415 -0.01798,0.013 -1.696814,0.97063 -0.0339,0.0193 0.06587,-0.0419 0.09777,-0.0644 0.08587,-0.0606 0.165561,-0.12411 0.255802,-0.17837 0.168515,-0.11958 0.233102,-0.15074 0.292915,0.18214 0.005,0.028 -0.04937,0.0282 -0.07406,0.0423 3.394142,-1.97073 1.821683,-1.08119 1.079579,-0.58178 -0.235242,0.1608 -0.462465,0.33225 -0.685051,0.51001 -0.07234,0.0575 -0.133787,0.12746 -0.201182,0.18975 -0.0089,0.008 -0.02403,0.01 -0.0304,0.0199 -0.0053,0.009 0.0046,0.0388 -5.82e-4,0.0302 -0.05598,-0.0928 -0.102634,-0.19093 -0.15395,-0.2864 -2.604201,1.50728 -2.319533,1.61461 -1.800776,0.99506 0.138265,-0.16513 0.272324,-0.33342 0.412579,-0.49695 0.173715,-0.20404 0.378323,-0.37682 0.592235,-0.53663 0.200388,-0.13411 0.355189,-0.31854 0.518984,-0.49244 0.197574,-0.21093 0.436237,-0.36869 0.675573,-0.52669 0.244029,-0.14426 0.461079,-0.32638 0.686894,-0.49612 0.06187,-0.0459 0.127607,-0.0973 0.194372,-0.13636 0.668402,-0.39069 1.34898,-0.76092 2.008476,-1.16647 0.596431,-0.36677 -2.439189,1.3755 -1.819219,1.05009 0.716213,-0.37592 1.40354,-0.80448 2.106309,-1.20497 0.128728,-0.0818 0.274603,-0.11169 0.414929,-0.16347 0.06492,-0.024 0.125523,-0.0585 0.189889,-0.0839 0.122437,-0.0388 0.220479,-0.067 0.288907,0.0653 0.02229,0.0431 0.04979,0.0888 0.04845,0.13728 -0.0013,0.0488 -0.03733,0.0903 -0.05599,0.1354 -0.266031,0.24257 -0.590302,0.40818 -0.898468,0.59007 -0.284221,0.16163 -0.554864,0.34331 -0.809361,0.54831 -0.216249,0.17837 -0.437013,0.35107 -0.644466,0.53979 -0.01148,0.008 -0.02296,0.0166 -0.03444,0.025 -0.03724,-0.0975 -0.01453,-0.33037 -0.111714,-0.2924 -0.653425,0.25534 -1.214096,0.70334 -1.824555,1.04902 -0.04746,0.0269 0.08996,-0.0617 0.135088,-0.0923 0.188596,-0.12804 0.130953,-0.0892 0.328966,-0.21708 0.691888,-0.39754 1.383776,-0.79508 2.075664,-1.19262 0.0632,-0.0296 0.127386,-0.0571 0.189592,-0.0887 0.127371,-0.0647 0.25611,-0.12674 0.38243,-0.19346 0.06105,-0.0323 0.23772,-0.14061 0.177812,-0.10627 -0.573187,0.3285 -1.145117,0.65919 -1.717676,0.98878 0.841259,-0.51608 1.706477,-0.9899 2.55504,-1.49481 0.581756,-0.34616 -2.351994,1.34157 -1.759062,1.01493 0.685559,-0.37768 1.357996,-0.7787 2.036994,-1.16804 0.06076,0.0168 0.22559,-0.0861 0.288842,-0.0698 0.02422,0.006 0.04531,0.0247 0.06023,0.0448 0.115349,0.1552 0.08524,0.12562 0.04162,0.29931 -0.271901,0.21279 -0.517075,0.45374 -0.758316,0.69988 -0.161874,0.17184 -0.32773,0.33923 -0.50106,0.49948 0,0 -2.058274,0.83959 -2.058274,0.83959 v 0 c 0.17759,-0.15475 0.353708,-0.31003 0.510417,-0.48666 0.234186,-0.24422 0.461083,-0.49846 0.729911,-0.7056 0.03359,0.01 0.07349,0.008 0.10076,0.0301 0.0045,0.004 0.104434,0.12796 0.08555,0.14948 -0.03181,0.0362 -0.214419,0.0417 -0.236072,0.0969 4.61566,-2.67097 -0.115686,0.0674 -0.267701,0.15342 -0.584416,0.33078 1.160698,-0.67576 1.742696,-1.01078 0.05571,-0.0321 -0.109384,0.0676 -0.163756,0.10188 -0.278698,0.1758 -0.05201,0.0382 -0.34158,0.2108 -0.690252,0.3989 -1.379053,0.80032 -2.070757,1.1967 -0.183617,0.10522 -0.378868,0.19389 -0.567061,0.29062 -0.06174,0.0317 -0.244838,0.13086 -0.185048,0.0956 0.569105,-0.33582 1.142163,-0.6649 1.713244,-0.99735 -0.150698,0.093 -0.294715,0.20185 -0.446535,0.29191 -0.801241,0.47531 -1.687012,1.87675 -2.22203,0.93892 -0.01113,-0.0195 0.02455,-0.0376 0.03683,-0.0564 0.214395,-0.1863 0.422562,-0.3802 0.651627,-0.54896 0.249602,-0.21981 0.513323,-0.42278 0.805199,-0.58427 0.296705,-0.18313 0.606196,-0.34486 0.897557,-0.53637 0.03097,-0.003 0.0642,-0.0195 0.0929,-0.008 0.02953,0.0122 0.04373,0.0468 0.06298,0.0723 0.01419,0.0188 0.03269,0.0371 0.03698,0.0602 8.2e-4,0.004 -0.112052,0.0474 -0.164138,0.0696 -0.199254,0.0815 -0.402653,0.15203 -0.587044,0.2665 -0.03199,0.0166 -0.127154,0.068 -0.09598,0.0498 0.606912,-0.35256 2.430395,-1.40551 1.823304,-1.05325 -6.567066,3.81041 1.362054,-0.80741 -0.397248,0.231 -0.229402,0.17028 -0.448341,0.35371 -0.686036,0.51274 -0.238281,0.14871 -0.484338,0.28875 -0.687402,0.48435 -0.183174,0.15903 -0.317433,0.36416 -0.506761,0.51613 -0.210745,0.16158 -0.432718,0.30729 -0.619375,0.49872 -0.107934,0.12059 -0.214994,0.24162 -0.316787,0.36751 -0.03057,0.0378 -0.06102,0.0757 -0.09023,0.11458 -0.02324,0.0309 -0.03437,0.074 -0.06705,0.0947 -0.648215,0.40977 -1.311932,0.7945 -1.967897,1.19175 -0.05663,-0.0933 -0.118221,-0.18378 -0.169888,-0.27992 -0.0044,-0.008 0.01767,0.0161 0.02536,0.011 0.015,-0.01 0.01541,-0.0332 0.02788,-0.0462 0.01732,-0.018 0.04191,-0.0277 0.05988,-0.045 0.218025,-0.21033 -0.09356,0.0553 0.153377,-0.14897 0.204118,-0.20954 0.45431,-0.36698 0.686241,-0.54306 0.870575,-0.61255 1.801759,-1.12453 2.736639,-1.63672 0.03098,-0.0156 0.06463,-0.0668 0.09293,-0.0467 0.245555,0.17387 0.228738,0.30022 0.02755,0.40733 -0.08494,0.0665 -0.179478,0.10628 -0.265023,0.17202 -0.681545,0.52373 -1.443112,0.9446 -2.223436,1.30809 -0.805177,0.38869 -2.318092,1.15124 1.152961,-0.72806 -0.06881,-0.089 -0.14954,-0.17 -0.206418,-0.26708 -0.0074,-0.0125 0.02759,-0.009 0.04065,-0.0159 0.02227,-0.0109 0.04287,-0.0251 0.06513,-0.036 0.681253,-0.33482 1.530976,-0.81413 -1.603839,0.94766 0.120856,-0.0747 0.245715,-0.14132 0.355497,-0.23253 0.0036,-0.003 0.186913,-0.17299 0.202341,-0.18246 0.02263,-0.0139 0.05109,-0.0145 0.07663,-0.0218 0.0061,0.008 0.105984,0.12662 0.102517,0.15308 -0.0016,0.0123 -0.04383,0.0234 -0.03306,0.0172 3.253646,-1.87423 2.339159,-1.30041 1.636376,-0.95411 -0.03739,0.0228 -0.07544,0.0445 -0.112166,0.0683 -0.03208,0.0208 -0.05743,0.0549 -0.09416,0.0655 -0.03639,0.0106 -0.184176,-0.0532 -0.123092,-0.083 0.0186,-0.009 0.04023,-0.01 0.06035,-0.0146 0.222439,-0.0572 0.433865,-0.14774 0.643851,-0.23979 0.09304,-0.0454 0.367487,-0.19044 0.278206,-0.13804 -0.583266,0.34234 -2.34272,1.35276 -1.755028,1.01807 0.685195,-0.39022 1.36341,-0.79259 2.04755,-1.18466 0.585642,-0.33563 -1.166882,0.67888 -1.752055,1.01532 -0.04661,0.0268 0.09083,-0.0575 0.136241,-0.0863 0.677132,-0.3908 1.331231,-0.82455 2.031396,-1.1724 0.116579,-0.0579 0.220364,0.1492 0.238523,0.2119 0.02231,0.077 -0.117993,0.12822 -0.126534,0.19617 -0.700979,0.72681 -1.624779,1.14125 -2.535023,1.59206 3.340957,-1.94201 1.738862,-1.10781 1.078758,-0.53111 0,0 -2.071921,0.85821 -2.071921,0.85821 z"
       inkscape:connector-curvature="0" />
  </g>
</svg>
