<?xml version="1.0" encoding="UTF-8" standalone="no"?>
<!-- Created with Inkscape (http://www.inkscape.org/) -->

<svg
   xmlns:dc="http://purl.org/dc/elements/1.1/"
   xmlns:cc="http://creativecommons.org/ns#"
   xmlns:rdf="http://www.w3.org/1999/02/22-rdf-syntax-ns#"
   xmlns:svg="http://www.w3.org/2000/svg"
   xmlns="http://www.w3.org/2000/svg"
   xmlns:sodipodi="http://sodipodi.sourceforge.net/DTD/sodipodi-0.dtd"
   xmlns:inkscape="http://www.inkscape.org/namespaces/inkscape"
   width="50mm"
   height="70mm"
   viewBox="0 0 50.000001 70"
   version="1.1"
   id="svg8"
   inkscape:version="0.92.4 (5da689c313, 2019-01-14)"
   sodipodi:docname="card3.svg">
  <defs
     id="defs2" />
  <sodipodi:namedview
     id="base"
     pagecolor="#ffffff"
     bordercolor="#666666"
     borderopacity="1.0"
     inkscape:pageopacity="0.0"
     inkscape:pageshadow="2"
     inkscape:zoom="1.979899"
     inkscape:cx="120.46444"
     inkscape:cy="67.444702"
     inkscape:document-units="mm"
     inkscape:current-layer="layer2"
     showgrid="false"
     inkscape:snap-center="true"
     inkscape:window-width="1920"
     inkscape:window-height="1017"
     inkscape:window-x="-8"
     inkscape:window-y="-8"
     inkscape:window-maximized="1"
     fit-margin-top="0"
     fit-margin-left="0"
     fit-margin-right="0"
     fit-margin-bottom="0" />
  <metadata
     id="metadata5">
    <rdf:RDF>
      <cc:Work
         rdf:about="">
        <dc:format>image/svg+xml</dc:format>
        <dc:type
           rdf:resource="http://purl.org/dc/dcmitype/StillImage" />
        <dc:title></dc:title>
      </cc:Work>
    </rdf:RDF>
  </metadata>
  <g
     inkscape:label="Vrstva 1"
     inkscape:groupmode="layer"
     id="layer1"
     style="display:inline"
     transform="translate(-30.284733,-28.864605)" />
  <g
     inkscape:groupmode="layer"
     id="layer2"
     inkscape:label="Vrstva 2"
     transform="translate(-30.284733,-28.864605)">
    <path
       style="fill:#000000;fill-opacity:1;stroke:none;stroke-width:0.26458332;stroke-opacity:1"
       id="path4557"
       d="m 76.089966,91.792097 c 0.01119,-0.40798 0.0064,-0.816205 0.004,-1.224277 -0.0019,-0.299302 -0.0029,-0.598612 -0.0034,-0.897919 0.01857,-0.242652 -0.01328,-0.478306 -0.0445,-0.71731 -0.0044,-0.213484 0.02022,-0.426415 0.03082,-0.639582 0.01101,-0.259056 0.0122,-0.518388 0.01331,-0.777632 7.94e-4,-0.267623 5.29e-4,-0.535249 2.65e-4,-0.802873 -1.19e-4,-0.267414 -1.62e-4,-0.534831 -1.86e-4,-0.802245 -0.0159,-0.296048 0.04412,-0.586502 0.0445,-0.881867 -0.03148,-0.295355 0.0043,-0.586939 0.03956,-0.879721 0.03289,-0.298437 0.04198,-0.598681 0.04745,-0.898644 0.0033,-0.311761 0.0056,-0.623536 0.0058,-0.935316 -5.29e-4,-0.312737 -0.0021,-0.625475 -0.003,-0.938212 -0.0084,-0.295495 0.06092,-0.584983 0.09472,-0.877165 0.04722,-0.480859 0.05007,-0.962692 0.01289,-1.443982 -0.03718,-0.418235 -0.07433,-0.836391 -0.09505,-1.255813 0.0011,-0.327647 0.01111,-0.6549 0.0073,-0.98306 0.01402,-0.381158 -0.05493,-0.75651 -0.05947,-1.136631 0.0097,-0.345678 0.02622,-0.691063 0.03359,-1.036812 0.0053,-0.297003 0.0056,-0.594061 0.0058,-0.891104 0.02519,-0.292782 0.08124,-0.580988 0.107161,-0.874014 0.02527,-0.323289 0.02635,-0.647813 0.02756,-0.971894 0.0021,-0.333933 0.0024,-0.667887 0.0016,-1.001829 -0.02365,-0.29659 -0.07852,-0.589232 -0.107955,-0.885364 -0.03219,-0.259358 -0.02733,-0.514001 0.02117,-0.770081 0.05108,-0.236312 0.06704,-0.477498 0.07707,-0.718396 0.0078,-0.284877 0.0091,-0.569905 0.0092,-0.854877 -0.02058,-0.317468 0.03461,-0.629552 0.07468,-0.94293 0.0365,-0.287232 0.04785,-0.576614 0.05411,-0.865809 0.0041,-0.26811 0.0034,-0.536263 0.0031,-0.804397 -2.65e-4,-0.266999 -5.3e-4,-0.534001 -7.94e-4,-0.801002 -8.7e-5,-0.26724 -8.7e-5,-0.534477 -9e-5,-0.801717 0,-0.267271 3e-6,-0.534543 5e-6,-0.801817 0,-0.267269 0,-0.53454 0,-0.801809 0.0028,-0.30389 0.0016,-0.607798 7.94e-4,-0.911693 -1.96e-4,-0.280911 -0.0019,-0.561822 2.65e-4,-0.842727 0.0011,-0.301329 -4.5e-5,-0.60266 -5.3e-4,-0.903992 -5.29e-4,-0.272335 -5.29e-4,-0.544671 -5.29e-4,-0.817009 -7.94e-4,-0.287515 0.0016,-0.575014 0.0016,-0.862529 0.0082,-0.289316 -0.0567,-0.573458 -0.09273,-0.8592 -0.01476,-0.290451 -0.07846,-0.573913 -0.11426,-0.861832 -0.04628,-0.399608 0.009,-0.802749 0.03808,-1.202021 0.02437,-0.419764 0.04659,-0.840435 0.02606,-1.260678 -0.03515,-0.364705 -0.08428,-0.727647 -0.105552,-1.093563 -0.01794,-0.330303 -0.01744,-0.661128 -0.01895,-0.991793 -0.02408,-0.292989 -0.07797,-0.582147 -0.106828,-0.874784 -0.04976,-0.26787 -0.104082,-0.533826 -0.133773,-0.804937 -0.02511,-0.268941 -0.02718,-0.539255 -0.02898,-0.809135 -7.94e-4,-0.267407 -8.8e-5,-0.534816 2.64e-4,-0.802222 0.01548,-0.265864 -0.0085,-0.525539 -0.0523,-0.787144 -0.05164,-0.281646 -0.06543,-0.567322 -0.07359,-0.852858 0.01283,-0.301368 0.06849,-0.598532 0.09778,-0.898551 0.02339,-0.26725 0.02652,-0.535652 0.02874,-0.803738 0.02191,-0.271267 0.07742,-0.537935 0.105584,-0.808717 0.02222,-0.27018 0.01773,-0.540171 0.05918,-0.808461 0.05603,-0.264279 0.06905,-0.534239 0.102944,-0.80141 0.05507,-0.262207 0.09476,-0.526217 0.11592,-0.793231 0.02246,-0.313198 0.01122,-0.627253 0.03288,-0.940353 0.05027,-0.302065 0.02553,-0.607679 0.0092,-0.91131 -0.01439,-0.316976 -0.01275,-0.632399 -0.0527,-0.947547 -0.0344,-0.329729 -0.11321,-0.651738 -0.16842,-0.978125 -0.07173,-0.291613 -0.137898,-0.583102 -0.174366,-0.881396 -0.03013,-0.343966 -0.08469,-0.686297 -0.18742,-1.016304 -0.08387,-0.251304 -0.175125,-0.502864 -0.300077,-0.737052 -0.08431,-0.163484 -0.199838,-0.313907 -0.334484,-0.439272 -0.152702,-0.151681 -0.31106,-0.2994 -0.454343,-0.460343 C 74.55268,33.974903 74.392829,33.832891 74.204038,33.740025 73.948065,33.57506 73.690776,33.41047 73.425182,33.260843 73.133471,33.08443 72.876484,32.868281 72.5463,32.768094 c -0.25835,-0.04449 -0.515684,-0.056 -0.773258,-0.106318 -0.260885,-0.05108 -0.526516,-0.06485 -0.791562,-0.07317 -0.330751,0.01381 -0.65531,-0.04068 -0.98283,-0.0774 -0.334412,-0.0379 -0.67066,-0.05212 -1.006932,-0.05856 -0.272259,-0.0035 -0.544552,-0.0026 -0.816827,-0.0021 -0.266531,5.29e-4 -0.533062,5.29e-4 -0.799595,7.93e-4 -0.267144,8e-5 -0.534291,7.7e-5 -0.801436,7.7e-5 -0.267274,-3e-6 -0.534546,-5e-6 -0.80182,-5e-6 -0.267271,-3e-6 -0.534543,-3e-6 -0.801814,-3e-6 -0.274807,0.0204 -0.540107,-0.05487 -0.810268,-0.09253 -0.271566,-0.02029 -0.536853,-0.03827 -0.803714,-0.09224 -0.261464,-0.05386 -0.528058,-0.06924 -0.794147,-0.07832 -0.276551,-0.06674 -0.556983,-0.102904 -0.84032,-0.122168 -0.351723,0.0049 -0.696695,-0.04879 -1.044863,-0.0894 -0.394872,-0.06707 -0.781952,-0.167481 -1.17452,-0.245104 -0.370848,-0.05126 -0.750295,-0.104458 -1.123913,-0.05998 -0.344437,-0.01069 -0.682336,-0.01291 -1.024329,0.02993 -0.301,0.03821 -0.616323,0.07315 -0.896472,0.195665 -0.235545,0.08837 -0.463002,0.186391 -0.710398,0.238029 -0.250547,0.0093 -0.48392,0.0759 -0.726511,0.128196 -0.192567,0.106701 -0.408874,0.158208 -0.617749,0.22419 -0.258893,0.05786 -0.518973,0.08587 -0.77742,0.145296 -0.267079,0.05874 -0.540438,0.07329 -0.812864,0.08225 -0.277762,0.03163 -0.542975,-0.02302 -0.814562,-0.06946 -0.264946,-0.05405 -0.520562,-0.05343 -0.784505,-0.0076 -0.266396,0.0485 -0.536687,0.06504 -0.806797,0.07486 -0.300852,0.01976 -0.595156,0.004 -0.891879,-0.04403 -0.280606,-0.07087 -0.502147,-0.04801 -0.778946,-0.0026 -0.245203,0.03723 -0.493456,0.04424 -0.740979,0.04965 -0.268412,-0.0041 -0.539356,0.02609 -0.804283,-0.02236 -0.172445,-0.05874 -0.350269,-0.0016 -0.525584,-0.0075 -0.02302,-7.93e-4 -0.252013,-0.03287 -0.276463,-0.03624 -0.243229,0.0415 -0.481195,-0.01103 -0.722739,-0.03647 -0.252185,-0.0231 -0.505608,-0.02508 -0.758629,-0.02852 -0.348837,0.0752 -0.705422,0.03775 -1.058532,0.02294 -0.363892,-0.01577 -0.728115,-0.02109 -1.092306,-0.02344 -0.300889,-0.0011 -0.601784,-2.65e-4 -0.902673,2.1e-5 -0.268571,2.64e-4 -0.537144,5.29e-4 -0.805715,5.29e-4 -0.223062,0.05625 -0.448085,0.124989 -0.678868,0.09222 -0.222162,-0.04921 -0.44836,-0.06931 -0.675063,-0.08159 -0.2604,-0.01103 -0.521102,-0.01095 -0.781685,-0.01138 -0.267509,-4.8e-5 -0.535019,2.64e-4 -0.802529,5.29e-4 -0.390474,0.004 -0.779796,0.07658 -1.152551,0.190712 -0.321289,0.127217 -0.633048,0.280821 -0.962128,0.38686 -0.268679,0.07637 -0.5485,0.08615 -0.825836,0.09238 -0.259996,0.02984 -0.502825,-0.0232 -0.754359,-0.07584 -0.213879,-0.05204 -0.414176,-0.133339 -0.634654,-0.16537 -0.238519,0.0053 -0.447423,0.101524 -0.671377,0.166188 -0.633738,0.392022 0.144722,-0.09098 1.532758,-0.870376 0.02574,-0.01447 -0.04929,0.03325 -0.07012,0.05419 -0.0651,0.06546 -0.117827,0.152315 -0.165071,0.230814 -0.129005,0.251571 -0.08194,0.505423 -0.03036,0.770459 0.06444,0.354663 0.137562,0.706572 0.217143,1.058058 0.08258,0.284959 0.05465,0.571259 0.02111,0.86029 -0.03606,0.300384 -0.03892,0.602226 -0.08464,0.901443 -0.05175,0.273151 -0.07961,0.54932 -0.09451,0.826646 -0.01122,0.265975 -0.01085,0.532252 -0.01103,0.798407 -0.0223,0.303207 0.03153,0.60067 0.07409,0.899231 0.03527,0.270685 0.06594,0.542727 0.02977,0.814438 -0.06607,0.229827 -0.04164,0.457528 -0.01733,0.690758 0.02918,0.26561 0.03877,0.532688 0.04464,0.79965 0.0044,0.268058 0.004,0.536163 0.004,0.804249 -1.67e-4,0.267335 -2.65e-4,0.53467 -5.3e-4,0.802002 -7.9e-5,0.267261 -8.4e-5,0.534522 -9e-5,0.801783 -2e-6,0.267269 0,0.534538 0,0.801804 -7.93e-4,0.312711 -0.0024,0.625422 -0.0028,0.938136 7.94e-4,0.313788 0.01344,0.626409 -0.0291,0.937926 -0.04835,0.265396 -0.07607,0.533236 -0.09095,0.802371 -0.01159,0.265273 -0.0114,0.53087 -0.01169,0.79634 -0.0011,0.325623 -0.0019,0.651251 -0.0033,0.976876 -0.0024,0.399785 -0.0013,0.799579 7.94e-4,1.199364 7.94e-4,0.331922 0.0011,0.663845 0.0021,0.99577 0.0028,0.312801 -0.0013,0.625583 -0.0019,0.938379 -0.0045,0.426913 0.05609,0.851305 0.09076,1.276265 0.03199,0.391756 0.0366,0.784966 0.04193,1.177772 -0.01212,0.317603 0.01384,0.63014 0.05698,0.944176 0.04981,0.375211 0.06167,0.753637 0.07115,1.131541 0.0085,0.342744 0.0096,0.685559 0.0071,1.028375 -0.0013,0.379166 -0.0016,0.758333 -0.0011,1.137499 5.29e-4,0.321233 0.0037,0.642461 0.0021,0.963692 -2.65e-4,0.370094 -0.0034,0.740182 -0.0033,1.110276 0.01741,0.449268 -0.03717,0.895202 -0.07749,1.341602 -0.03306,0.360703 -0.04471,0.722709 -0.05225,1.084672 -0.0013,0.413271 -0.06514,0.822791 -0.0992,1.234088 -0.01587,0.429266 -0.04339,0.856015 -0.09376,1.282613 -0.04051,0.334838 -0.05938,0.67156 -0.06897,1.008523 -0.006,0.27169 -0.0053,0.543467 -0.0051,0.815205 0.0013,0.279463 -1.51e-4,0.558916 -7.94e-4,0.838375 -0.0013,0.328419 -7.93e-4,0.656836 8e-5,0.985258 0.0011,0.282389 0.0013,0.564784 0.0016,0.847177 -0.0011,0.325726 -0.0024,0.651454 -0.0039,0.97718 -0.03091,0.410694 -0.08256,0.819108 -0.108119,1.230403 -0.02074,0.362582 -0.02323,0.725765 -0.02384,1.088821 -0.0016,0.320648 5.29e-4,0.641302 -5.3e-4,0.961948 0.0055,0.357719 -0.06107,0.71111 -0.09396,1.066469 -0.03019,0.347507 -0.03535,0.69636 -0.03796,1.044943 -0.0011,0.28248 -5e-5,0.564962 5.29e-4,0.847442 0.0024,0.316778 -0.02551,0.63151 -0.02249,0.94837 0.0062,0.36671 0.01389,0.733359 0.01593,1.100127 0.0027,0.335449 0.0051,0.670901 0.0064,1.006358 0.0069,0.305324 -0.06084,0.605219 -0.09454,0.907571 -0.0352,0.378241 -0.03818,0.75836 -0.04258,1.137894 -0.0013,0.369657 -7.94e-4,0.739312 0.0013,1.108967 2.6e-5,0.340484 2.64e-4,0.680963 5.29e-4,1.021447 -0.0024,0.373444 -2.65e-4,0.746895 -0.0013,1.120341 -0.0027,0.357738 0.01214,0.715778 -0.01188,1.072881 -0.03969,0.363331 -0.09482,0.725707 -0.09175,1.091837 0.02596,0.319397 0.06617,0.637201 0.08818,0.956972 -1.22e-4,0.30022 0.05203,0.595169 0.09301,0.891463 0.03917,0.285379 0.05099,0.573275 0.05762,0.860925 -0.01572,0.268039 0.03655,0.529394 0.0769,0.792596 0.01976,0.270314 0.08333,0.5333 0.130238,0.799439 0.07611,0.261781 0.118965,0.530603 0.17621,0.796472 0.04903,0.259535 0.12722,0.50664 0.238911,0.745271 0.07488,0.187708 0.175368,0.367861 0.314118,0.515707 0.120637,0.171193 0.285861,0.273362 0.483074,0.332975 0.199252,0.115862 0.419404,0.154081 0.645178,0.175126 0.260848,0.02939 0.515978,0.09397 0.778431,0.121994 0.264655,0.02339 0.530564,0.02447 0.796039,0.02582 0.305414,-0.06577 0.603594,-0.09612 0.913894,-0.06611 0.274336,0.03347 0.550024,0.05033 0.826112,0.05927 0.341249,0.0047 0.674827,0.102524 0.997778,0.205881 0.426077,0.117438 0.864065,0.180401 1.294291,0.280723 0.431387,0.07964 0.842481,0.233206 1.262732,0.353544 0.363363,0.07743 0.746956,0.01786 1.116523,0.0029 0.518126,-0.09002 1.043136,-0.06612 1.566103,-0.05418 0.444066,0.01045 0.888201,0.01738 1.332381,0.01998 0.415428,-0.04819 0.831167,-0.08991 1.248873,-0.111488 0.375867,-0.01868 0.752274,-0.02037 1.128514,-0.02259 0.305149,0.01146 0.602885,-0.0016 0.903735,-0.04899 0.342191,-0.04728 0.688858,-0.08808 1.033589,-0.05437 0.44499,-0.01823 0.887333,0.03992 1.330875,0.06858 0.489683,0.02941 0.980311,0.03496 1.470721,0.0389 0.526815,0.0029 1.05364,0.0024 1.58046,0.0021 0.532796,-0.04397 1.065157,-0.08804 1.59917,-0.114858 0.545434,-0.019 1.091253,-0.01834 1.636935,-0.01889 0.570796,-0.01333 1.142265,0.02498 1.707142,0.106521 0.53966,0.06808 1.072841,0.173368 1.613567,0.233532 0.542277,0.05019 1.087255,0.05706 1.631452,0.05995 0.509305,0.05701 1.019641,0.0946 1.531623,0.115554 0.615765,0.02032 1.231934,0.0205 1.847961,0.0208 0.525185,0.01405 1.045763,-0.07323 1.555332,-0.192442 0.554569,-0.114244 1.119058,-0.164089 1.679718,-0.238855 0.491072,-0.05605 0.982903,-0.08612 1.473062,-0.148757 0.445371,-0.06924 0.888455,-0.145568 1.337503,-0.191098 0.345292,-0.02745 0.693767,-0.02572 1.034011,-0.08948 0.253058,-0.05191 0.510884,-0.06803 0.768384,-0.07782 0.264718,-0.01913 0.523912,-0.08529 0.789432,-0.113152 0.261078,-0.06857 0.518065,-0.151895 0.780674,-0.216252 0.278919,-0.05309 0.54955,-0.15377 0.803762,-0.27954 0.22474,-0.09404 0.04975,-0.01106 0.247306,-0.130395 0.03658,-0.02209 0.149371,-0.08314 0.11234,-0.0618 -2.633327,1.517774 -1.994736,1.19839 -1.426658,0.795787 0.175565,-0.125061 0.290428,-0.285644 0.38222,-0.478187 0.125066,-0.292306 0.09337,-0.602689 0.06686,-0.910508 -0.02886,-0.294349 -0.08532,-0.592124 -0.174416,-0.87472 -0.04995,-0.193503 -0.12592,-0.348202 -0.279198,-0.477393 -0.146045,-0.152472 -0.265624,-0.322959 -0.342064,-0.52006 -0.01053,-0.03883 -0.02106,-0.07766 -0.03157,-0.116483 0,0 1.747221,-0.945081 1.747221,-0.945081 v 0 c 0.0073,0.03228 0.01466,0.06455 0.02199,0.09683 0.05975,0.170098 0.169883,0.312248 0.296521,0.439333 0.162742,0.162599 0.273251,0.340595 0.326514,0.566915 0.09756,0.295375 0.14895,0.611838 0.183439,0.919908 0.03116,0.331036 0.08943,0.662845 -0.01413,0.987552 -0.06818,0.207807 -0.159637,0.432467 -0.342657,0.562978 -0.08069,0.08648 -0.06457,0.08139 -0.16765,0.142592 -0.700739,0.416057 -1.399691,0.901996 -2.158185,1.232657 -0.268087,0.106198 -0.540724,0.196842 -0.823675,0.25528 -0.263146,0.07533 -0.527,0.154226 -0.797999,0.195469 -0.26575,0.03796 -0.528643,0.101208 -0.798412,0.102325 -0.254407,0.01699 -0.506582,0.0495 -0.7582,0.09064 -0.342178,0.0296 -0.684578,0.04999 -1.026917,0.07728 -0.446622,0.05041 -0.887061,0.13698 -1.33296,0.191926 -0.487612,0.05906 -0.978837,0.07706 -1.465554,0.145264 -0.559133,0.07442 -1.122791,0.123857 -1.672952,0.25376 -0.51925,0.104367 -1.044168,0.17758 -1.575613,0.154699 -0.617683,-0.0028 -1.235532,-0.0054 -1.852906,-0.02672 -0.512903,-0.02191 -1.023284,-0.06909 -1.535107,-0.105767 -0.547209,-0.0099 -1.095198,-0.02267 -1.63993,-0.07966 -0.539578,-0.06841 -1.074012,-0.170254 -1.613998,-0.236218 -0.560901,-0.06666 -1.124667,-0.103219 -1.689822,-0.08673 -0.545812,0.0024 -1.091904,0.0048 -1.637207,0.03079 -0.534784,0.02763 -1.06752,0.08247 -1.602523,0.105042 -0.527696,2.57e-4 -1.055402,0.0011 -1.58309,-0.0024 -0.492836,-0.0048 -0.98594,-0.01212 -1.477719,-0.04762 -0.446206,-0.02994 -0.891669,-0.06684 -1.339299,-0.05967 -0.339879,-0.0024 -0.67786,0.03579 -1.013659,0.08675 -0.305207,0.03677 -0.611137,0.02768 -0.918115,0.02694 -0.372358,0.0013 -0.744847,0.0055 -1.116674,0.02734 -0.419954,0.02861 -0.837702,0.0826 -1.258152,0.101383 -0.4416,-0.0057 -0.883105,-0.01503 -1.324549,-0.02826 -0.523078,-0.0092 -1.044051,-0.0034 -1.56342,0.0682 -0.387403,0.01968 -0.786223,0.07213 -1.161873,-0.05259 -0.41107,-0.130387 -0.820618,-0.266849 -1.245438,-0.347459 -0.437425,-0.09162 -0.880494,-0.160131 -1.309648,-0.287325 -0.319625,-0.08815 -0.643073,-0.167227 -0.977376,-0.160199 -0.276334,-0.01389 -0.551506,-0.03994 -0.827082,-0.064 -0.306732,-0.0088 -0.60352,0.06526 -0.909357,0.07598 -0.270156,-0.0039 -0.540917,-0.0096 -0.809231,-0.04436 -0.260837,-0.03732 -0.517438,-0.09961 -0.780428,-0.121264 -0.235107,-0.03783 -0.457518,-0.106831 -0.671558,-0.212596 -0.212918,-0.09322 -0.399261,-0.223456 -0.538477,-0.412924 -0.142701,-0.169503 -0.261491,-0.359103 -0.339294,-0.567349 -0.115901,-0.251328 -0.206222,-0.509069 -0.256667,-0.782254 -0.0663,-0.267475 -0.09223,-0.544541 -0.182152,-0.806995 -0.0433,-0.26825 -0.117171,-0.530643 -0.132173,-0.802896 -0.03893,-0.271243 -0.1064,-0.539335 -0.08851,-0.81534 -0.004,-0.281208 -0.01079,-0.562841 -0.0445,-0.842368 -0.03842,-0.300857 -0.104908,-0.598617 -0.101016,-0.903152 -0.0173,-0.322247 -0.05093,-0.642866 -0.08521,-0.963692 -0.02405,-0.372933 0.03863,-0.744122 0.08151,-1.114166 0.03781,-0.351091 0.01093,-0.705262 0.02011,-1.057928 -7.94e-4,-0.372981 0.0011,-0.745969 -0.0013,-1.11895 -8.2e-5,-0.340389 -5e-6,-0.680778 -5.29e-4,-1.021167 0.0013,-0.370975 5.29e-4,-0.74195 0.0028,-1.112919 0.0013,-0.383821 0.0039,-0.768099 0.03062,-1.151144 0.02363,-0.298241 0.08616,-0.591312 0.09933,-0.888889 0.0011,-0.336087 0.0028,-0.672182 7.94e-4,-1.008269 -0.004,-0.365749 -0.008,-0.731528 -0.01881,-1.097156 -0.0065,-0.318172 0.01389,-0.630936 0.0164,-0.94834 -1.27e-4,-0.283721 -5.29e-4,-0.567447 0.0021,-0.851157 0.0042,-0.353716 0.0092,-0.707821 0.0351,-1.060728 0.02909,-0.35044 0.08989,-0.698526 0.09893,-1.049419 -0.0019,-0.320823 -7.94e-4,-0.641673 -7.94e-4,-0.962496 0.003,-0.367438 0.0066,-0.735095 0.02572,-1.102104 0.02421,-0.407278 0.06046,-0.81335 0.110715,-1.218303 -0.0016,-0.324408 -0.0029,-0.648821 -0.0039,-0.97323 2.12e-4,-0.282919 5.29e-4,-0.565835 0.0016,-0.848751 0.0011,-0.328375 0.0013,-0.656741 -1.69e-4,-0.985113 -7.94e-4,-0.278884 -0.0029,-0.55776 -0.0024,-0.836649 -2.62e-4,-0.273759 -0.0011,-0.54755 0.0045,-0.821267 0.0093,-0.343673 0.02844,-0.687065 0.06987,-1.028547 0.04912,-0.424987 0.09619,-0.847418 0.09909,-1.276066 0.02716,-0.407774 0.09347,-0.812607 0.09947,-1.22096 0.003,-0.36749 0.01323,-0.734989 0.05048,-1.10087 0.04137,-0.440719 0.10459,-0.880592 0.0835,-1.324372 1.01e-4,-0.368962 -0.003,-0.737918 -0.0033,-1.106879 -0.0016,-0.321988 0.0016,-0.64397 0.0024,-0.965957 7.94e-4,-0.379026 0.0011,-0.758052 2.65e-4,-1.137079 -0.0021,-0.34182 5e-6,-0.683641 -0.0033,-1.025453 -0.0067,-0.370218 -0.01728,-0.741164 -0.06521,-1.108771 -0.04515,-0.322641 -0.09005,-0.641212 -0.06565,-0.968491 -0.0013,-0.389607 -0.0062,-0.779394 -0.03118,-1.168326 -0.03026,-0.429406 -0.09353,-0.856718 -0.102926,-1.286838 -7.93e-4,-0.312156 -0.0047,-0.624301 -0.0019,-0.936464 0.0011,-0.332608 0.0013,-0.665215 0.0021,-0.99782 0.0021,-0.399942 0.0031,-0.799889 2.65e-4,-1.199828 -0.0019,-0.324315 -0.0032,-0.648631 -0.0048,-0.972944 -6.9e-5,-0.268253 -7.94e-4,-0.536578 0.0075,-0.804733 0.01119,-0.275442 0.03083,-0.550815 0.08293,-0.822028 0.05342,-0.30298 0.05365,-0.605052 0.047,-0.912675 -2.64e-4,-0.311759 -0.0021,-0.623512 -0.0028,-0.935268 -3e-6,-0.267269 -5e-6,-0.534538 -3e-6,-0.801807 0,-0.267279 3e-6,-0.534558 6.4e-5,-0.801838 7.6e-5,-0.26734 2.14e-4,-0.534678 5.29e-4,-0.802018 1.59e-4,-0.266941 7.94e-4,-0.533895 -0.0024,-0.800825 -0.0042,-0.261631 -0.0105,-0.523536 -0.03761,-0.783995 -0.02647,-0.24661 -0.07947,-0.494564 -0.0094,-0.738706 0.05519,-0.254167 0.03896,-0.504939 0.0028,-0.762537 -0.04051,-0.306668 -0.105921,-0.611108 -0.08859,-0.922195 -1.51e-4,-0.268938 -0.0011,-0.53795 0.0071,-0.806799 0.0114,-0.284485 0.03204,-0.56887 0.08651,-0.848868 0.05364,-0.296039 0.06494,-0.59173 0.08639,-0.891574 0.03187,-0.269391 0.08769,-0.535459 0.01225,-0.803513 -0.07468,-0.353994 -0.150977,-0.706454 -0.211836,-1.063234 -0.06562,-0.296981 -0.144307,-0.577265 -0.04024,-0.876535 0.295275,-0.829808 1.291019,-1.189636 2.082094,-1.453811 0.23523,-0.0762 0.479242,-0.129638 0.727586,-0.08971 0.215733,0.04707 0.419295,0.132691 0.637442,0.168913 0.239895,0.04887 0.479189,0.05666 0.723807,0.03864 0.267446,-0.01466 0.535292,-0.0416 0.787546,-0.138573 0.320418,-0.124674 0.634357,-0.267872 0.963554,-0.368776 0.391004,-0.09227 0.790543,-0.161668 1.193728,-0.156501 0.267693,-2.14e-4 0.535387,-7.94e-4 0.80308,1.3e-4 0.263546,0.0016 0.527335,0.0029 0.790395,0.02077 0.225483,0.01831 0.448291,0.05593 0.673497,0.07409 0.225411,-0.0231 0.443867,-0.09302 0.671303,-0.09475 0.268359,-6.1e-5 0.536715,-1.9e-4 0.805072,1.3e-5 0.29968,5.3e-4 0.599363,0.0013 0.899019,0.0052 0.365059,0.0052 0.730055,0.01286 1.094825,0.02892 0.355137,0.01376 0.706689,0.008 1.060048,-0.03066 0.258477,0.0033 0.517239,0.01095 0.774221,0.04106 0.240416,0.02796 0.478388,0.03664 0.720156,0.03856 0.267618,0.02281 0.537705,-0.01209 0.802889,0.04497 0.262255,0.01288 0.525102,0.0033 0.787487,-0.0024 0.244478,-0.01045 0.488466,-0.02865 0.730213,-0.06818 0.272103,-0.03191 0.537475,0.0029 0.806371,0.05155 0.290131,0.03569 0.581189,0.02593 0.87273,0.0114 0.267081,-0.01619 0.532477,-0.04622 0.796804,-0.08808 0.275058,-0.02585 0.547822,0.0072 0.81915,0.05565 0.262628,0.0436 0.523954,0.0585 0.790098,0.03492 0.266714,-0.01614 0.532466,-0.04488 0.792544,-0.108887 0.255873,-0.05325 0.519869,-0.0704 0.766686,-0.162764 0.209571,-0.07196 0.419343,-0.145081 0.630433,-0.210275 0.238863,-0.05732 0.482624,-0.0732 0.721278,-0.13109 0.237194,-0.07309 0.464275,-0.174376 0.700963,-0.249497 0.30162,-0.07489 0.605761,-0.134501 0.916472,-0.155993 0.343297,-0.02986 0.68607,-0.01087 1.030023,-0.02381 0.386294,-0.0044 0.772951,0.03151 1.152392,0.104772 0.386416,0.08422 0.771234,0.176752 1.163432,0.231495 0.348358,0.04069 0.696163,0.06595 1.04663,0.07952 0.282009,0.0263 0.558509,0.08195 0.839399,0.114556 0.271843,0.01606 0.542581,0.04456 0.809471,0.100537 0.265089,0.04428 0.534522,0.0427 0.799902,0.08659 0.263406,0.042 0.525031,0.08791 0.79335,0.06846 0.267272,0 0.534543,0 0.801815,3e-6 0.267274,0 0.534546,5e-6 0.80182,0 0.267134,-1.3e-5 0.534268,-2.7e-5 0.801404,-1.77e-4 0.266528,-1.78e-4 0.533056,-5.3e-4 0.799581,-7.94e-4 0.272834,2.9e-5 0.545727,-2.36e-4 0.818463,0.008 0.337243,0.01259 0.673896,0.03634 1.008999,0.07724 0.327527,0.03645 0.654476,0.05895 0.984178,0.0599 0.270849,0.01487 0.540859,0.04102 0.807061,0.09515 0.264213,0.04383 0.537295,0.03991 0.791578,0.133977 0.322538,0.133406 0.587433,0.353388 0.887436,0.527841 0.265745,0.153273 0.532601,0.304819 0.791957,0.468752 0.19514,0.120809 0.378338,0.264459 0.541747,0.425651 0.144828,0.155318 0.295497,0.305803 0.450408,0.450948 0.141153,0.147624 0.273349,0.30798 0.363212,0.492554 0.128329,0.24656 0.222695,0.510122 0.30666,0.774681 0.106064,0.339159 0.179039,0.692513 0.212223,1.046115 0.02932,0.296487 0.08789,0.587068 0.165904,0.874681 0.05077,0.329551 0.138028,0.651626 0.169254,0.98412 0.04388,0.318878 0.06038,0.637011 0.06524,0.958874 0.0154,0.312224 0.05082,0.629131 -7.94e-4,0.939294 -0.03772,0.309491 -0.01019,0.621962 -0.02939,0.933051 -0.01611,0.272494 -0.04387,0.54433 -0.10771,0.81039 -0.05572,0.263702 -0.0396,0.538487 -0.102571,0.802206 -0.04967,0.263919 -0.05718,0.526309 -0.06567,0.794763 -0.02201,0.266774 -0.06094,0.530826 -0.113221,0.793395 -0.0013,0.273119 -0.0028,0.5465 -0.02228,0.81906 -0.02458,0.294683 -0.06986,0.586203 -0.110484,0.878946 0.0071,0.276461 0.01799,0.553585 0.06378,0.826868 0.04584,0.271701 0.09034,0.53934 0.0679,0.816488 -2.65e-4,0.267044 -0.0011,0.534091 -7.94e-4,0.801138 7.94e-4,0.264226 0.0011,0.528775 0.02027,0.792453 0.02458,0.272434 0.07233,0.540475 0.134025,0.806979 0.02445,0.299149 0.07281,0.594702 0.110916,0.892239 -4.8e-5,0.327551 0.0013,0.655227 0.01378,0.982578 0.01945,0.366551 0.05637,0.731432 0.0967,1.096234 0.03358,0.42653 0.0095,0.855539 -0.01114,1.282457 -0.02508,0.387586 -0.08631,0.777997 -0.05127,1.165881 0.03642,0.28801 0.110416,0.569423 0.11984,0.860396 0.03259,0.293968 0.101899,0.585076 0.100955,0.881258 5.8e-5,0.286965 0.0026,0.573919 0.0016,0.860886 -6.6e-5,0.272552 -1.77e-4,0.545105 -5.29e-4,0.81766 -5.29e-4,0.301522 -0.0016,0.603046 -5.29e-4,0.904568 0.0021,0.2808 5.29e-4,0.561607 2.64e-4,0.842412 -5.29e-4,0.303583 -0.0019,0.607179 7.94e-4,0.910757 0,0.267269 0,0.53454 -2e-6,0.801809 0,0.267272 -3e-6,0.534543 -6e-6,0.801815 3e-6,0.267216 0,0.534432 6.9e-5,0.801647 9e-5,0.266957 2.49e-4,0.533914 5.29e-4,0.80087 2.65e-4,0.269431 0.0011,0.538875 -0.0019,0.808295 -0.0049,0.295814 -0.014,0.591904 -0.04836,0.886034 -0.03691,0.306548 -0.102138,0.610563 -0.08488,0.920623 2.64e-4,0.28631 0.0038,0.572648 -0.0021,0.858927 -0.0065,0.249304 -0.01521,0.499637 -0.06063,0.745503 -0.04873,0.241798 -0.09238,0.472959 -0.05027,0.721731 0.02492,0.302852 0.0743,0.602067 0.111665,0.903462 -2.65e-4,0.33383 0.0013,0.667655 0.0019,1.001485 -0.0021,0.328612 -0.0062,0.657291 -0.02175,0.985591 -0.02096,0.288573 -0.05226,0.575212 -0.111522,0.858769 -7.93e-4,0.299048 -0.0021,0.598106 -0.0087,0.897096 -0.0078,0.344773 -0.01929,0.689343 -0.03458,1.033865 -0.0098,0.380486 0.0625,0.752872 0.05364,1.133872 0.0089,0.326744 0.01564,0.652364 -0.0052,0.977497 0.01259,0.419569 0.03853,0.838518 0.07723,1.256525 0.0387,0.488839 0.05075,0.977752 0.01587,1.467572 -0.02178,0.288536 -0.08678,0.570318 -0.09882,0.858124 -5.29e-4,0.313555 -0.0019,0.627107 -0.0019,0.940662 5.29e-4,0.311984 0.0047,0.623978 5.29e-4,0.93595 -0.0049,0.305375 -0.01349,0.610873 -0.04108,0.915184 -0.0267,0.286549 -0.08908,0.569737 -0.0503,0.858586 0.0082,0.298047 -0.04577,0.585216 -0.04036,0.882755 1.6e-5,0.267402 3.7e-5,0.534803 1.3e-4,0.802207 9.7e-5,0.267816 2.64e-4,0.535635 4.7e-5,0.803454 -5.29e-4,0.261144 -0.0011,0.52233 -0.008,0.7834 -0.0068,0.206438 -0.01754,0.412615 -0.03701,0.618292 -0.0021,0.242223 0.08586,0.485692 0.04456,0.732541 -5.29e-4,0.300453 -0.0013,0.600906 -0.0034,0.901356 -0.0024,0.406701 -0.0072,0.813564 0.004,1.220171 0,0 -1.76731,0.900491 -1.76731,0.900491 z"
       inkscape:connector-curvature="0" />
  </g>
</svg>
