<?xml version="1.0" encoding="UTF-8" standalone="no"?>
<!-- Created with Inkscape (http://www.inkscape.org/) -->

<svg
   xmlns:dc="http://purl.org/dc/elements/1.1/"
   xmlns:cc="http://creativecommons.org/ns#"
   xmlns:rdf="http://www.w3.org/1999/02/22-rdf-syntax-ns#"
   xmlns:svg="http://www.w3.org/2000/svg"
   xmlns="http://www.w3.org/2000/svg"
   xmlns:sodipodi="http://sodipodi.sourceforge.net/DTD/sodipodi-0.dtd"
   xmlns:inkscape="http://www.inkscape.org/namespaces/inkscape"
   width="50mm"
   height="70mm"
   viewBox="0 0 50 70"
   version="1.1"
   id="svg8"
   inkscape:version="0.92.4 (5da689c313, 2019-01-14)"
   sodipodi:docname="card1.svg">
  <defs
     id="defs2" />
  <sodipodi:namedview
     id="base"
     pagecolor="#ffffff"
     bordercolor="#666666"
     borderopacity="1.0"
     inkscape:pageopacity="0.0"
     inkscape:pageshadow="2"
     inkscape:zoom="1.979899"
     inkscape:cx="63.261199"
     inkscape:cy="167.50154"
     inkscape:document-units="mm"
     inkscape:current-layer="layer2"
     showgrid="false"
     inkscape:snap-center="true"
     inkscape:window-width="1920"
     inkscape:window-height="1017"
     inkscape:window-x="-8"
     inkscape:window-y="-8"
     inkscape:window-maximized="1" />
  <metadata
     id="metadata5">
    <rdf:RDF>
      <cc:Work
         rdf:about="">
        <dc:format>image/svg+xml</dc:format>
        <dc:type
           rdf:resource="http://purl.org/dc/dcmitype/StillImage" />
        <dc:title></dc:title>
      </cc:Work>
    </rdf:RDF>
  </metadata>
  <g
     inkscape:label="Vrstva 1"
     inkscape:groupmode="layer"
     id="layer1"
     style="display:inline"
     transform="translate(0,-227)" />
  <g
     inkscape:groupmode="layer"
     id="layer2"
     inkscape:label="Vrstva 2"
     transform="translate(0,-227)">
    <g
       id="g4570"
       transform="translate(-28.731474,196.71038)">
      <path
         inkscape:connector-curvature="0"
         d="m 75.154524,93.930252 c 0.01119,-0.407977 0.0064,-0.816205 0.004,-1.224277 -7.94e-4,-0.331788 -0.0011,-0.663581 -0.0021,-0.995371 -7.93e-4,-0.279093 -0.0013,-0.558191 -0.0013,-0.837287 0.01685,-0.28661 -0.0358,-0.568428 -0.07305,-0.85121 -0.03824,-0.291422 -0.05073,-0.585142 -0.05771,-0.878689 -0.0047,-0.269533 -0.0039,-0.539123 -0.0037,-0.808688 -5.29e-4,-0.287462 0.0021,-0.574905 0.0024,-0.862365 -2.64e-4,-0.289893 -7.93e-4,-0.579784 -0.0013,-0.869677 -2.65e-4,-0.268975 -2.65e-4,-0.537951 -2.65e-4,-0.806929 -1.3e-5,-0.267023 -5e-6,-0.534048 -3e-6,-0.801071 0.01513,-0.265856 -0.009,-0.525523 -0.05275,-0.787106 -0.04865,-0.274349 -0.06678,-0.552376 -0.07401,-0.83048 -0.01508,-0.320746 0.05275,-0.636823 0.08705,-0.954336 0.0373,-0.34154 -0.02125,-0.683876 -0.05042,-1.02408 -0.02674,-0.312351 -0.03647,-0.625719 -0.04158,-0.939054 -0.0034,-0.29773 -7.94e-4,-0.595479 -0.0011,-0.893225 -0.0013,-0.304123 0.0011,-0.608233 7.94e-4,-0.912355 -5e-5,-0.287303 0.01061,-0.573358 -0.03213,-0.85806 -0.05106,-0.269589 -0.07758,-0.542303 -0.09246,-0.815983 -0.01159,-0.268218 -0.01146,-0.536755 -0.01175,-0.805169 -7.94e-4,-0.287719 0.0021,-0.575419 0.0024,-0.863137 -1.9e-4,-0.289928 -7.93e-4,-0.579856 -0.0011,-0.869786 -0.0019,-0.302395 0.0021,-0.604764 0.0029,-0.907151 -0.0049,-0.303418 0.0038,-0.607671 0.04694,-0.908306 0.04487,-0.24357 0.06441,-0.490141 0.07546,-0.737203 0.009,-0.263864 0.0086,-0.527929 0.0088,-0.791912 -1.25e-4,-0.267393 -5.29e-4,-0.534786 -5.29e-4,-0.802182 -1.49e-4,-0.267327 -1.64e-4,-0.534657 -1.78e-4,-0.801984 0.0035,-0.270875 -0.0094,-0.542115 0.01077,-0.812395 0.05159,-0.29623 0.08645,-0.594145 0.106328,-0.89409 0.01931,-0.28602 0.007,-0.5729 0.02999,-0.858518 0.04401,-0.299381 0.08238,-0.599061 0.103298,-0.900983 0.01587,-0.270182 0.01683,-0.540922 0.0177,-0.811477 2.65e-4,-0.266954 -2.33e-4,-0.533908 -5.29e-4,-0.800859 -2.38e-4,-0.267203 -2.65e-4,-0.534403 -2.65e-4,-0.801606 -2.1e-5,-0.267268 -1.3e-5,-0.53454 -1.3e-5,-0.801809 0.0024,-0.260985 -0.01423,-0.521951 0.02797,-0.780378 0.05426,-0.230999 0.07993,-0.466092 0.09432,-0.702461 0.01527,-0.299024 0.01344,-0.598606 0.0132,-0.897927 -5.29e-4,-0.2756 -0.0013,-0.551203 -0.0016,-0.826804 0.0063,-0.266634 -0.05736,-0.527955 -0.09152,-0.791194 -0.03204,-0.269158 -0.03781,-0.540369 -0.04165,-0.811099 -0.0024,-0.267626 -0.0016,-0.535268 -0.0013,-0.802899 0.0019,-0.263877 0.01021,-0.526058 -0.02987,-0.787408 -0.05152,-0.268142 -0.07755,-0.539581 -0.09232,-0.8119 0.0031,-0.294336 -0.02125,-0.5837 -0.06407,-0.874533 -0.05935,-0.438938 -0.06115,-0.882753 -0.06452,-1.324832 -0.03027,-0.63885 -0.07788,-1.276721 -0.1138,-1.915287 -0.01556,-0.432134 -0.04415,-0.865039 -0.01921,-1.297165 0.04264,-0.36459 0.08111,-0.729057 0.102994,-1.095528 0.0173,-0.374888 0.01897,-0.750253 0.01863,-1.125469 0.01342,-0.305919 -0.0078,-0.606057 -0.05681,-0.907508 -0.04975,-0.276288 -0.07525,-0.552574 -0.04469,-0.83191 0.06179,-0.36575 0.07012,-0.736947 0.104164,-1.105496 0.04472,-0.336738 0.08757,-0.673409 0.110408,-1.012415 0.04698,-0.270018 0.08638,-0.530651 0.06934,-0.804873 -0.02418,-0.267306 -0.03871,-0.535186 -0.04681,-0.803412 -0.01193,-0.264314 0.0053,-0.529638 -0.01738,-0.793282 -0.04702,-0.267383 -0.08415,-0.535599 -0.104677,-0.806312 -0.01699,-0.268844 -0.01786,-0.538335 -0.01881,-0.807604 -2.65e-4,-0.267369 1.88e-4,-0.534739 5.29e-4,-0.802105 -0.0088,-0.403104 -0.04133,-0.802905 -0.03288,-1.206736 0.0328,-0.303006 -0.0078,-0.600982 -0.04527,-0.90084 -0.05504,-0.257061 -0.10406,-0.51539 -0.186811,-0.765141 -0.06185,-0.204486 -0.157187,-0.402449 -0.275474,-0.580321 -0.12737,-0.19739 -0.290478,-0.361106 -0.416195,-0.560115 -0.227176,-0.356896 -0.462655,-0.709115 -0.817914,-0.94774 -0.208553,-0.158594 -0.450845,-0.269632 -0.701355,-0.343747 -0.204719,-0.116162 -0.42718,-0.16194 -0.658294,-0.18501 -0.214963,-0.07983 -0.438605,-0.115054 -0.665877,-0.133775 -0.256585,-0.01593 -0.513818,-0.01524 -0.770784,-0.01558 -0.269242,-0.01254 -0.528772,2.64e-4 -0.79225,0.05204 -0.250086,0.0199 -0.474517,0.126714 -0.719169,0.1738 -0.121671,0.08715 -0.273452,0.09042 -0.408763,0.136083 -0.06462,0.0218 -0.123055,0.05912 -0.186496,0.08416 -0.285102,0.08887 -0.587968,0.07479 -0.883172,0.08259 -0.33475,0.0076 -0.669602,0.0079 -1.004419,0.008 -0.273243,-1.62e-4 -0.546483,-5.29e-4 -0.819727,-5.29e-4 -0.266586,-1.22e-4 -0.533175,-1.33e-4 -0.799761,-1.43e-4 -0.267134,-6e-6 -0.534265,0 -0.801399,0 -0.275175,0.01273 -0.541248,-2.65e-4 -0.81112,-0.05133 -0.262136,-0.05179 -0.528854,-0.06804 -0.795274,-0.0775 -0.272182,-0.01341 -0.486333,-0.01773 -0.750803,0.0488 -0.206589,0.02045 -0.414514,0.04799 -0.624353,0.06321 -0.252746,0.01479 -0.506023,0.0158 -0.759116,0.01704 -0.267396,7.94e-4 -0.534797,2.65e-4 -0.802193,8.8e-5 -0.250293,-0.0024 -0.491424,-0.02783 -0.742185,-0.01738 -0.244036,0.01058 -0.488297,0.01355 -0.732523,0.01564 -0.265639,0.0019 -0.531283,0.0016 -0.796925,0.0016 -0.348165,0.02109 -0.68938,-0.03149 -1.033653,-0.07288 -0.319614,-0.03901 -0.641302,-0.05285 -0.962964,-0.05936 -0.27087,-0.0038 -0.541779,-0.0028 -0.812668,-0.0024 -0.270102,-0.02635 -0.52638,0.02946 -0.790062,0.07445 -0.267745,0.04297 -0.539032,0.0522 -0.809627,0.05812 -0.238916,-0.008 -0.46636,-0.04923 -0.706345,-0.03313 -0.254407,0.01908 -0.509418,0.02663 -0.764429,0.03138 -0.264925,0.01527 -0.534257,-0.02305 -0.795197,0.02938 -0.264875,0.05942 -0.534953,0.08409 -0.805437,0.0984 -0.268806,0.09462 -0.532572,0.0788 -0.809995,0.05351 -0.304417,-0.01691 -0.603255,-0.03578 -0.90302,-0.09134 -0.27449,-0.05404 -0.553548,-0.07227 -0.832528,-0.08204 -0.262609,0.05373 -0.527288,0.09076 -0.794411,0.111561 -0.268441,0.0172 -0.537557,0.01783 -0.806432,0.01871 -0.267406,2.65e-4 -0.53481,-2.64e-4 -0.802214,-5.29e-4 -0.27655,0.0254 -0.540829,-0.02845 -0.811228,-0.07437 -0.239133,-0.0638 -0.467781,0.0056 -0.704982,0.03722 -0.251008,0.02876 -0.503907,0.03263 -0.756256,0.03597 -0.238924,0.07837 -0.480399,0.04416 -0.72498,0.02601 -0.24861,-0.01741 -0.497871,-0.02109 -0.746985,-0.02381 -0.27011,0.0026 -0.539353,-0.0066 -0.805349,-0.05 -0.260876,-0.0398 -0.528772,0.01085 -0.791369,0.02816 -0.247113,-0.01318 -0.47512,0.07665 -0.715743,0.115596 -0.251602,0.03333 -0.505849,0.03593 -0.759224,0.03879 -0.266528,-0.05451 -0.534596,-0.09508 -0.805738,-0.116612 -0.265417,-0.01714 -0.531522,-0.01752 -0.797372,-0.01828 -0.269211,-0.02056 -0.527953,0.05619 -0.792626,0.09292 -0.18025,0.01913 -0.09006,0.01087 -0.270584,0.02482 0,0 1.592755,-1.18037 1.592755,-1.18037 v 0 c 0.176101,-0.01987 0.08812,-0.0087 0.263953,-0.03346 0.269179,-0.04377 0.536911,-0.08875 0.811152,-0.0682 0.269396,0.0026 0.539194,0.0062 0.807535,0.03263 0.264887,0.02933 0.526576,0.08717 0.792892,0.09784 0.248232,-0.007 0.497621,-0.01659 0.741649,-0.06671 0.240683,-0.05157 0.479205,-0.09727 0.727043,-0.0954 0.27115,-0.02008 0.543779,-0.05006 0.813527,0.0027 0.264322,0.02088 0.527966,0.03871 0.793446,0.03233 0.251928,0.0046 0.503822,0.01209 0.75519,0.03041 0.24094,0.01378 0.473667,-0.0077 0.712666,-0.03828 0.24892,-0.0071 0.498173,-0.01802 0.744627,-0.05622 0.248518,-0.03579 0.490498,-0.04763 0.737645,0.01368 0.2632,0.04389 0.525349,0.05865 0.792398,0.04746 0.267105,2.64e-4 0.534212,0.0011 0.801314,-7.94e-4 0.265602,-0.0027 0.531599,-0.0064 0.796142,-0.03258 0.270264,-0.02994 0.538274,-0.08994 0.810805,-0.08876 0.283398,0.01712 0.565354,0.04843 0.844196,0.103251 0.296293,0.04619 0.595765,0.04847 0.894268,0.07381 0.270817,0.01392 0.526811,-0.03609 0.793713,-0.07593 0.268321,-0.0226 0.533273,-0.06544 0.799224,-0.106564 0.268726,-0.01296 0.537916,-0.0052 0.80682,-0.01434 0.255548,-0.0076 0.510688,-0.02246 0.766091,-0.03323 0.235143,0.0026 0.467928,0.04992 0.703606,0.03394 0.265819,-0.01106 0.531477,-0.03034 0.79339,-0.07955 0.268909,-0.04494 0.537226,-0.05854 0.809964,-0.04807 0.271618,3.7e-5 0.543303,-2.65e-4 0.814821,0.0082 0.323348,0.01251 0.646105,0.03597 0.967074,0.07814 0.34182,0.04054 0.68281,0.06411 1.027369,0.04834 0.265374,-2.33e-4 0.530762,-5.29e-4 0.796118,-0.0039 0.244665,-0.0039 0.489209,-0.01143 0.733782,-0.01897 0.247787,-7.93e-4 0.493617,0.03505 0.741833,0.02323 0.26711,1.43e-4 0.534228,5.29e-4 0.801331,-0.0019 0.250949,-0.0033 0.502282,-0.0072 0.752213,-0.03217 0.20462,-0.02257 0.410315,-0.03658 0.611698,-0.07948 0.257175,-0.03759 0.517848,-0.01505 0.776713,-0.0081 0.271264,0.01625 0.541203,0.0453 0.808358,0.09638 0.262908,0.03691 0.527613,0.02312 0.792509,0.02476 0.267144,-5e-6 0.534286,-1.3e-5 0.801431,-1.1e-5 0.266618,1.1e-5 0.533233,1.6e-5 0.799848,2.65e-4 0.272675,2.64e-4 0.545346,0.0011 0.818018,0.0019 0.33128,7.94e-4 0.66266,0.0019 0.993807,-0.0092 0.290433,-0.01315 0.585266,-0.02365 0.855123,-0.144301 0.199302,-0.07583 0.407937,-0.131517 0.610727,-0.196641 0.239381,-0.06557 0.475665,-0.137507 0.724286,-0.161885 0.269568,-0.03704 0.540959,-0.02495 0.812496,-0.02537 0.261614,0.0019 0.523867,0.0032 0.784296,0.03105 0.227105,0.02996 0.446122,0.08834 0.66906,0.138335 0.237318,0.04041 0.460243,0.115448 0.678709,0.216709 0.260628,0.09795 0.512072,0.219541 0.727874,0.398463 0.35188,0.275211 0.603234,0.637984 0.852445,1.005184 0.140976,0.187814 0.305832,0.357203 0.427951,0.558638 0.124587,0.194056 0.235881,0.403297 0.300066,0.625422 0.08668,0.262708 0.136287,0.532826 0.201904,0.801555 0.03698,0.310394 0.09456,0.618035 0.0514,0.931691 -0.01691,0.401929 0.0011,0.797166 0.0392,1.196766 -2.28e-4,0.267171 -7.94e-4,0.534342 -7.94e-4,0.801513 2.64e-4,0.265369 1.29e-4,0.530892 0.01281,0.796028 0.01622,0.267832 0.0465,0.534085 0.09988,0.79733 0.03999,0.267821 0.01453,0.539385 0.02601,0.809543 0.0062,0.265514 0.01701,0.530942 0.04264,0.795395 0.02331,0.283218 0.02445,0.554226 -0.05906,0.829824 -0.02056,0.343553 -0.0612,0.684913 -0.115493,1.024802 -0.04605,0.366686 -0.0344,0.738431 -0.09111,1.104535 -0.04206,0.262454 -0.03367,0.518279 0.0172,0.780595 0.0505,0.312571 0.08932,0.621342 0.06538,0.939295 -0.0019,0.378023 -1.66e-4,0.7562 -0.01402,1.134028 -0.01577,0.36867 -0.04988,0.735975 -0.102772,1.101246 -0.04223,0.425349 -0.0057,0.854694 -0.0031,1.281356 0.02238,0.641421 0.06351,1.281662 0.115197,1.921383 0.0093,0.431186 0.01508,0.863973 0.07138,1.292201 0.04324,0.296037 0.08799,0.589634 0.07616,0.890077 0.01093,0.265361 0.03024,0.530598 0.08147,0.791718 0.04768,0.271401 0.05528,0.540596 0.04518,0.816218 -2.65e-4,0.266888 -0.0011,0.533778 2.27e-4,0.800666 0.0024,0.264113 0.0051,0.52868 0.03146,0.791726 0.03121,0.271431 0.09937,0.539345 0.102556,0.812533 6.6e-5,0.275958 2.09e-4,0.551913 -4.8e-5,0.827868 -5.29e-4,0.301786 -0.0013,0.603583 -0.006,0.905338 -0.0097,0.243874 -0.0236,0.488799 -0.07955,0.727279 -0.05825,0.247271 -0.05457,0.493246 -0.04814,0.747146 -3e-6,0.267263 -8e-6,0.534527 5e-6,0.801791 2.1e-5,0.267149 4.8e-5,0.534302 2.54e-4,0.801452 2.3e-4,0.267157 7.94e-4,0.534315 7.94e-4,0.801473 -5.29e-4,0.274349 -5.29e-4,0.548836 -0.01357,0.822944 -0.01765,0.304826 -0.04945,0.608301 -0.100738,0.909463 -0.03912,0.281395 -0.01243,0.56693 -0.03383,0.850175 -0.01704,0.3024 -0.04086,0.605523 -0.09891,0.903205 -0.04492,0.260594 -0.01074,0.527722 -0.02122,0.791226 8e-6,0.267301 1.1e-5,0.534599 1.22e-4,0.801897 1.32e-4,0.267422 2.65e-4,0.534844 7.94e-4,0.802267 1.58e-4,0.266059 7.93e-4,0.532159 -0.0048,0.798173 -0.0075,0.253731 -0.01892,0.508085 -0.06375,0.758487 -0.05223,0.292113 -0.07909,0.586748 -0.06911,0.884086 7.93e-4,0.30139 0.0049,0.602761 0.0029,0.904161 -2.65e-4,0.290415 -0.0011,0.580829 -0.0016,0.871246 -1.08e-4,0.287092 0.0021,0.574173 7.94e-4,0.861267 -5.8e-5,0.265612 -7.94e-4,0.531299 0.0074,0.796816 0.01101,0.267092 0.03083,0.533948 0.08142,0.796917 0.05006,0.295 0.05292,0.588336 0.04387,0.887466 -2.17e-4,0.304025 0.0019,0.608044 -6.6e-5,0.912069 -5.29e-4,0.296704 2.65e-4,0.593389 0.0016,0.89009 0.0024,0.310017 0.007,0.62021 0.02967,0.929539 0.02776,0.350904 0.09215,0.703157 0.06868,1.055048 -0.02844,0.310967 -0.09475,0.618796 -0.09608,0.930616 0.0082,0.269182 0.01823,0.539033 0.0634,0.805114 0.04586,0.271613 0.09042,0.539178 0.06828,0.816252 5e-6,0.267023 1.3e-5,0.534046 2e-6,0.801069 -2.1e-5,0.269084 -4.2e-5,0.538168 -2.64e-4,0.807252 -2.65e-4,0.290364 -0.0011,0.580726 -0.0013,0.87109 -2.4e-5,0.286943 0.0024,0.573876 0.0011,0.860822 -2.64e-4,0.268478 -0.0013,0.536964 0.0013,0.805434 0.0042,0.287454 0.01148,0.575289 0.04502,0.861107 0.03618,0.290381 0.104764,0.57784 0.08795,0.871932 -1.62e-4,0.279559 -5.29e-4,0.559118 -0.0013,0.838674 -0.0011,0.332531 -0.0013,0.665059 -0.0021,0.997587 -0.0024,0.406702 -0.0072,0.813568 0.004,1.220174 0,0 -1.767311,0.900488 -1.767311,0.900488 z"
         id="path4543"
         style="fill:#000000;fill-opacity:1;stroke:none;stroke-width:0.26458332;stroke-opacity:1" />
      <path
         inkscape:connector-curvature="0"
         d="m 38.892937,34.322451 c -0.406476,-0.01474 -0.808873,-0.01249 -1.211458,0.04488 -0.30022,0.04941 -0.603329,0.07236 -0.907071,0.08341 -0.268063,0.0072 -0.536255,0.0063 -0.804389,0.0061 -0.266763,-5.29e-4 -0.53353,-7.94e-4 -0.800293,-7.94e-4 -0.241157,-0.0033 -0.473782,-0.07904 -0.713843,-0.107429 -0.251566,-0.02405 -0.50455,-0.02524 -0.757034,-0.02697 -0.266716,-7.94e-4 -0.533437,-1.83e-4 -0.800156,1.48e-4 -0.115218,-0.004 -0.244885,0.0095 -0.353025,0.05491 -0.06148,0.02582 -0.114171,0.06916 -0.173453,0.09969 0.541557,-0.309203 1.083114,-0.618406 1.624671,-0.927608 -0.171638,0.09333 -0.280961,0.240382 -0.388876,0.397949 -0.109522,0.163314 -0.252662,0.286896 -0.412377,0.398745 -0.173739,0.118558 -0.29976,0.279845 -0.431239,0.440534 -0.116115,0.172419 -0.203486,0.368475 -0.269561,0.565637 -0.05532,0.225348 -0.08064,0.461587 -0.06255,0.693198 0.04786,0.232397 0.0838,0.465828 0.103547,0.702276 0.0011,0.242419 0.02347,0.477644 0.07234,0.714597 0.052,0.24656 0.06581,0.498374 0.07489,0.749472 -0.0026,0.233878 0.064,0.460152 0.09778,0.690229 0.0066,0.232386 0.06919,0.45452 0.114226,0.680842 0.04912,0.349673 0.04839,0.70545 0.05526,1.058169 5.29e-4,0.296312 0.02323,0.593328 -0.0226,0.887137 -0.05334,0.22688 -0.06559,0.460428 -0.121639,0.686422 -0.06865,0.217241 -0.07978,0.445624 -0.1347,0.6657 -0.06874,0.223411 -0.09226,0.455236 -0.106545,0.687371 0.007,0.271092 -0.04337,0.535903 -0.08537,0.80218 -0.03742,0.378039 -0.06101,0.755502 -0.113885,1.132104 -0.04415,0.286428 -0.06344,0.575445 -0.07333,0.864793 -0.0213,0.235048 -0.08126,0.46349 -0.109728,0.697871 -0.02556,0.255021 -0.02716,0.511598 -0.02914,0.767643 0.01275,0.275146 -0.0085,0.545095 -0.05339,0.816166 -0.04725,0.261011 -0.06424,0.525655 -0.07408,0.790273 -0.0055,0.272452 0.0019,0.543412 -0.03763,0.81357 -0.05767,0.285147 -0.08725,0.56968 -0.0614,0.85957 0.03837,0.28479 0.0662,0.570458 0.08133,0.857388 0.01172,0.269224 0.01209,0.53876 0.01259,0.808183 1.17e-4,0.26711 -2.64e-4,0.53422 -5.29e-4,0.80133 -0.0016,0.263859 -0.0099,0.526029 0.03021,0.787353 0.03703,0.338254 0.08366,0.673375 0.144738,1.008157 0.05503,0.288621 0.07591,0.581597 0.08702,0.874679 -0.01273,0.267909 0.03943,0.529126 0.07981,0.792231 0.04523,0.265213 0.03776,0.535202 0.06685,0.801722 0.05113,0.267425 0.08785,0.536461 0.108279,0.807894 0.01672,0.268843 0.01741,0.538322 0.01828,0.807575 0.0021,0.273529 0.0085,0.545552 -0.03148,0.816655 -0.04013,0.210571 -0.039,0.42877 -0.02177,0.642016 0.02761,0.227677 0.03912,0.456624 0.04624,0.685708 0.0064,0.264686 0.0063,0.529471 0.0066,0.794218 -0.01579,0.248208 0.01791,0.494165 0.02365,0.741503 0.0033,0.235746 -0.02733,0.471826 -0.008,0.707059 0.04715,0.231122 0.08105,0.46351 0.09977,0.698603 0.01696,0.263999 0.01752,0.52867 0.01847,0.793099 0.02262,0.264666 0.08624,0.522881 0.09551,0.788856 -0.01987,0.23509 -0.05835,0.467677 -0.07696,0.70305 -0.01707,0.259811 -0.01826,0.520301 -0.01955,0.780561 -0.01,0.234587 0.05746,0.462018 0.09161,0.69243 0.04055,0.338519 0.03344,0.680879 0.03743,1.021326 0.01633,0.357093 -0.0026,0.710409 -0.05067,1.064036 -0.02326,0.287337 -0.09208,0.566584 -0.146487,0.848714 -0.04748,0.25949 -0.05718,0.523425 -0.06343,0.786493 0.01508,0.274497 -0.03474,0.542816 -0.07671,0.812429 -0.04615,0.318212 -0.05365,0.640313 -0.05888,0.9613 0.0079,0.341191 -0.0082,0.678064 -0.05597,1.015738 -0.05614,0.269986 -0.05464,0.534845 -0.01894,0.806183 0.0408,0.26816 0.05831,0.538729 0.06836,0.809522 -0.01236,0.267581 0.0405,0.528404 0.08108,0.791122 0.04035,0.26919 0.05049,0.54138 0.05676,0.813091 0.0044,0.267846 0.0035,0.535742 0.0033,0.803614 -2.64e-4,0.267248 -5.29e-4,0.534496 -7.94e-4,0.801743 0.02651,0.265668 0.07789,0.527683 0.105019,0.793533 0.0035,0.269402 0.05968,0.531829 0.102417,0.796547 0.03946,0.266097 0.04138,0.534405 0.08795,0.79942 0.06045,0.264324 0.06818,0.53595 0.105844,0.803288 0.05775,0.267407 0.09512,0.537604 0.116067,0.810178 0.01691,0.268875 0.01738,0.538403 0.01815,0.807699 1.82e-4,0.267348 -2.65e-4,0.534699 -7.94e-4,0.802047 -0.0019,0.263877 -0.01003,0.526066 0.03011,0.787408 0.05156,0.268142 0.07759,0.539589 0.09237,0.811914 0.01699,0.264951 -5.29e-4,0.531124 0.02225,0.795536 0.0469,0.267385 0.08385,0.535614 0.104275,0.806317 0.01513,0.265523 0.0078,0.530069 0.04915,0.793256 0.0475,0.270578 0.134218,0.53101 0.183105,0.801666 0.04986,0.324194 0.03437,0.652944 0.06232,0.978641 0.0079,0.304554 0.06219,0.604872 0.09301,0.907428 0.04375,0.27455 -0.0026,0.544788 -0.04284,0.815959 -0.0391,0.261239 -0.04981,0.525293 -0.0564,0.788977 -0.0048,0.266592 -0.004,0.533241 -0.0039,0.799865 2.65e-4,0.267295 5.3e-4,0.53459 5.3e-4,0.801885 -0.01505,0.265909 0.0091,0.525635 0.05286,0.787268 0.02426,0.212495 0.08804,0.416946 0.221557,0.585772 0.170021,0.104388 0.381003,0.153469 0.576101,0.197771 0.254638,0.03742 0.505048,0.04899 0.754944,0.11163 0.240197,0.04365 0.478001,0.07232 0.715822,0.127876 0.297966,0.05266 0.598107,0.08626 0.897528,0.130743 0.35148,0.05209 0.706059,0.07459 1.060897,0.08531 0.271632,0.05343 0.552717,0.02312 0.827974,0.01468 0.257939,0.01117 0.50751,-0.04062 0.764018,-0.0349 0.238181,0.0105 0.476483,0.01659 0.714857,0.02013 0.26361,0.0032 0.527243,0.0033 0.790869,0.0035 0.280921,0.03591 0.540382,0.148739 0.8159,0.20932 0.260345,0.04956 0.525971,0.0546 0.790094,0.05865 0.270296,0.02878 0.526513,-0.0281 0.790252,-0.07359 0.272606,-0.02278 0.531487,-0.108058 0.801129,-0.1511 0.238358,-0.04324 0.464135,-0.12296 0.707271,-0.152853 0.256937,-0.02455 0.515358,-0.02461 0.773216,-0.02569 0.267189,-2.64e-4 0.534379,5.29e-4 0.801571,0.0011 0.26742,2.65e-4 0.534839,5.3e-4 0.802259,5.3e-4 0.266864,0.05564 0.535533,0.09582 0.807233,0.117009 0.257622,-0.01188 0.499631,0.04164 0.749094,0.09343 0.238064,0.04395 0.480668,0.04993 0.722016,0.05517 0.370342,0.0057 0.740669,0.0075 1.111057,0.0064 0.337539,-0.0016 0.675079,-0.0033 1.012624,-0.0041 0.272788,0.01177 0.535892,7.94e-4 0.80287,-0.05169 0.285022,-0.05827 0.575897,-0.06698 0.865629,-0.07609 0.296167,-0.0072 0.592453,-0.0079 0.888688,-0.0065 0.30325,-0.0042 0.601636,-0.07475 0.903772,-0.105598 0.253227,0.0069 0.487135,-0.0841 0.733967,-0.124031 0.240271,-0.09744 0.496639,-0.132654 0.752964,-0.155083 0.273008,-0.01826 0.546828,-0.01828 0.820312,-0.01707 0.336449,-0.07031 0.677185,-0.04104 1.017159,-0.02355 0.280403,0.01543 0.561186,0.0205 0.841952,0.02326 0.303667,0.0032 0.607351,0.0021 0.911029,0.003 0.333576,-5.29e-4 0.667149,2.28e-4 1.000725,-2.17e-4 0.354685,2.33e-4 0.709359,0.0011 1.064046,2.65e-4 0.298781,-7.94e-4 0.597562,-0.0016 0.896345,-0.0019 0.304295,0.0016 0.608597,7.93e-4 0.912894,5.29e-4 0.341342,-0.05296 0.683977,-0.113528 1.029798,-0.09015 0.338545,0.02357 0.676418,0.09057 1.015612,0.05606 0.297148,-0.04079 0.599215,0.0021 0.897628,0.01699 0.273999,0.01275 0.548322,0.01495 0.822565,0.01638 0.267314,7.94e-4 0.534628,5.29e-4 0.801939,2.65e-4 0.335386,-0.0092 0.66512,0.0011 0.996749,0.05008 0.289523,0.04807 0.582102,0.06841 0.875054,0.07858 0.267187,0.0068 0.53449,0.0059 0.80174,0.0057 0.268936,0.01998 0.52741,-0.05651 0.791845,-0.0931 0.236186,-0.05203 0.464037,0.07778 0.698582,0.03775 0.133387,-0.04447 0.28066,-0.02667 0.415502,-0.05737 0.06678,-0.01521 0.128167,-0.04842 0.193185,-0.06992 0.231125,-0.0645 0.472165,-0.07361 0.710518,-0.08196 0.329792,-0.09308 0.675322,-0.07243 1.009134,-0.140636 0.279347,-0.02344 0.512781,-0.156377 0.760997,-0.269155 -3.135376,1.679707 -1.643015,1.126717 -1.177158,0.560892 0.165185,-0.163581 0.22565,-0.367032 0.25917,-0.590158 0.04243,-0.226351 0.100396,-0.447752 0.128247,-0.67686 0.02495,-0.255981 0.02585,-0.513474 0.02743,-0.770419 7.94e-4,-0.267277 4.5e-5,-0.534553 -2.64e-4,-0.80183 -0.01241,-0.329277 0.0078,-0.655169 0.04122,-0.982522 0.0033,-0.08001 0.0066,-0.160018 0.0099,-0.240025 0,0 1.752402,-0.887087 1.752402,-0.887087 v 0 c -0.0011,0.08371 -0.0021,0.167418 -0.0031,0.251126 -0.02656,0.319379 -0.04539,0.637511 -0.0341,0.958252 2.64e-4,0.267571 7.93e-4,0.535141 7.93e-4,0.802712 -5.29e-4,0.262316 -2.64e-4,0.524904 -0.01712,0.786799 -0.0191,0.230796 -0.05043,0.460063 -0.127185,0.679855 -0.02164,0.245925 -0.05243,0.496274 -0.208005,0.698206 -0.201152,0.215474 0.04812,-0.06088 -0.145381,0.186346 -0.500279,0.63916 -1.852988,0.387739 -2.060236,1.259256 -0.250203,0.117234 -0.512009,0.187126 -0.786765,0.220742 -0.343416,0.04062 -0.686753,0.07799 -1.028541,0.129037 -0.232485,0.01696 -0.463889,0.04533 -0.685782,0.120872 -0.208156,0.05356 -0.426627,0.07105 -0.640511,0.08591 -0.226793,-0.02331 -0.451946,-0.07489 -0.679178,-0.02085 -0.2687,0.04365 -0.535937,0.08844 -0.809688,0.0694 -0.268894,-5.29e-4 -0.537927,-5.29e-4 -0.80658,-0.01349 -0.295129,-0.01722 -0.588684,-0.04924 -0.88079,-0.09523 -0.327779,-0.03831 -0.656532,-0.02765 -0.986049,-0.02553 -0.267597,6.3e-5 -0.535202,2.64e-4 -0.802791,-0.0019 -0.275637,-0.0031 -0.551307,-0.0084 -0.826545,-0.0245 -0.294222,-0.01654 -0.588949,-0.03832 -0.882949,-0.0036 -0.341865,-0.0024 -0.679736,-0.05343 -1.021098,-0.06765 -0.346591,0.01164 -0.68671,0.07764 -1.032568,0.09671 -0.304666,-2.65e-4 -0.609333,-0.0013 -0.913993,5.29e-4 -0.297151,-2.65e-4 -0.594302,-7.94e-4 -0.891453,-0.0019 -0.355015,-7.94e-4 -0.710017,1.05e-4 -1.065032,5.29e-4 -0.333632,-2.65e-4 -0.667261,5.29e-4 -1.000893,2.64e-4 -0.305577,0.0011 -0.61119,5.3e-4 -0.916754,-0.0024 -0.281255,-0.0051 -0.562383,-0.01445 -0.843227,-0.03087 -0.339149,-0.01572 -0.67428,-0.006 -1.011799,0.03262 -0.270139,0.0034 -0.541091,0.0042 -0.809728,0.03644 -0.253955,0.03649 -0.498115,0.106116 -0.746469,0.168076 -0.24471,0.05304 -0.487651,0.100534 -0.739034,0.109675 -0.304247,0.03829 -0.607499,0.09914 -0.915673,0.08658 -0.294576,0.0016 -0.589269,5.29e-4 -0.883663,0.01273 -0.286673,0.01453 -0.57186,0.04221 -0.853855,0.09779 -0.272392,0.03718 -0.546606,0.02331 -0.820928,0.02466 -0.334471,-5.29e-4 -0.668936,-0.0016 -1.003404,-0.0026 -0.37533,-7.94e-4 -0.75075,0.0053 -1.125974,-0.0034 -0.249623,-0.01029 -0.499779,-0.02652 -0.744193,-0.08195 -0.242684,-0.05117 -0.486138,-0.06287 -0.733475,-0.07714 -0.266341,-0.02925 -0.529061,-0.08623 -0.796478,-0.101899 -0.267465,-9.3e-5 -0.534932,-2.46e-4 -0.802397,-7.94e-4 -0.266816,-5.29e-4 -0.533641,-0.0016 -0.800449,0.0011 -0.252976,0.004 -0.50727,0.008 -0.757296,0.0509 -0.235447,0.0474 -0.462957,0.127569 -0.702659,0.154326 -0.266835,0.05455 -0.531347,0.118197 -0.802484,0.149378 -0.270026,0.0454 -0.539514,0.05996 -0.813366,0.04276 -0.273267,-0.0098 -0.547677,-0.02614 -0.813919,-0.09349 -0.260332,-0.0692 -0.515776,-0.171897 -0.789239,-0.170531 -0.264525,-5.3e-4 -0.529066,-0.0011 -0.79356,-0.0054 -0.237902,-0.0046 -0.475739,-0.01445 -0.713692,-0.01408 -0.252918,0.01183 -0.505145,0.03953 -0.758989,0.03549 -0.27854,0.0074 -0.556773,0.01119 -0.833572,-0.02776 -0.35678,-0.01884 -0.712412,-0.05277 -1.065824,-0.106032 -0.305811,-0.04167 -0.614958,-0.06357 -0.915773,-0.136384 -0.238424,-0.04974 -0.482624,-0.06499 -0.71872,-0.127598 -0.25019,-0.05146 -0.508719,-0.04743 -0.755994,-0.116978 -0.233209,-0.06581 -0.482944,-0.12365 -0.652809,-0.308523 -0.143145,-0.199093 -0.237619,-0.425421 -0.26253,-0.671158 -0.04587,-0.271647 -0.09042,-0.539244 -0.06834,-0.816353 -9e-5,-0.267264 -2.43e-4,-0.53453 -5.29e-4,-0.801793 -2.64e-4,-0.267899 -0.0011,-0.535808 0.0019,-0.803696 0.0045,-0.2706 0.01138,-0.5417 0.04574,-0.810487 0.03547,-0.257911 0.103212,-0.512718 0.06418,-0.774372 -0.02614,-0.303197 -0.08195,-0.603748 -0.08714,-0.908291 -0.03871,-0.320326 -0.01775,-0.644454 -0.06137,-0.964843 -0.04283,-0.272545 -0.129609,-0.532307 -0.183264,-0.801952 -0.04781,-0.269349 -0.05561,-0.536882 -0.0584,-0.810361 -0.01614,-0.267806 -0.04625,-0.534053 -0.09945,-0.797298 -0.03984,-0.267385 -0.01394,-0.538448 -0.02892,-0.808085 -0.01093,-0.265356 -0.03025,-0.53059 -0.0815,-0.791702 -0.04772,-0.271391 -0.05539,-0.540586 -0.04542,-0.81621 2.39e-4,-0.26719 7.94e-4,-0.534379 7.94e-4,-0.801569 -1.74e-4,-0.265329 2.65e-4,-0.530812 -0.01204,-0.795917 -0.01614,-0.266943 -0.04592,-0.532561 -0.107008,-0.79344 -0.04985,-0.264464 -0.04246,-0.536916 -0.104196,-0.80033 -0.05113,-0.266954 -0.06442,-0.533895 -0.0906,-0.804196 -0.04015,-0.268957 -0.109252,-0.533559 -0.108136,-0.807069 -0.02336,-0.272259 -0.06869,-0.540721 -0.113659,-0.810085 8.7e-5,-0.267293 2.33e-4,-0.534583 5.29e-4,-0.801876 2.65e-4,-0.266671 0.0013,-0.533355 -0.0013,-0.800018 -0.0041,-0.26393 -0.0099,-0.52846 -0.04475,-0.790498 -0.03896,-0.269999 -0.106593,-0.536654 -0.09194,-0.811398 -0.0072,-0.264594 -0.01961,-0.529386 -0.05864,-0.791538 -0.04058,-0.288144 -0.06944,-0.56892 -0.0038,-0.857258 0.05081,-0.330655 0.09179,-0.65769 0.06989,-0.993685 0.0047,-0.327684 0.0082,-0.655833 0.0423,-0.98212 0.03693,-0.263136 0.105857,-0.522007 0.08777,-0.789659 0.004,-0.272175 0.0098,-0.545203 0.04995,-0.814941 0.04734,-0.282728 0.131866,-0.557125 0.152961,-0.843989 0.05196,-0.346064 0.09205,-0.688634 0.06873,-1.039884 -0.0013,-0.331086 -0.0016,-0.66307 -0.03621,-0.99273 -0.0316,-0.240297 -0.105413,-0.475607 -0.102484,-0.71869 5.29e-4,-0.263769 7.94e-4,-0.527664 0.01259,-0.791226 0.01315,-0.233423 0.03496,-0.466048 0.07928,-0.695902 0.02911,-0.263676 -0.06366,-0.523044 -0.0903,-0.784241 -5.29e-4,-0.26008 -2.48e-4,-0.520327 -0.01339,-0.780145 -0.01516,-0.232119 -0.04266,-0.462558 -0.09683,-0.689218 -0.03689,-0.240861 -0.005,-0.484801 -0.0033,-0.727668 0.0046,-0.248724 -0.03778,-0.493821 -0.02061,-0.743624 -8.7e-5,-0.26288 1.61e-4,-0.525786 -0.0052,-0.788623 -0.006,-0.224102 -0.01442,-0.448461 -0.04415,-0.67092 -0.02689,-0.228317 -0.02835,-0.464568 0.0039,-0.691816 0.04855,-0.261536 0.05547,-0.520695 0.04597,-0.786966 -2.65e-4,-0.26538 8.5e-5,-0.530908 -0.0123,-0.796063 -0.01596,-0.267367 -0.04557,-0.533312 -0.101674,-0.795586 -0.04356,-0.264483 -0.02416,-0.534601 -0.06598,-0.80006 -0.03879,-0.27042 -0.105997,-0.537562 -0.09024,-0.8127 -0.0071,-0.284924 -0.02074,-0.57023 -0.06957,-0.851598 -0.05789,-0.335444 -0.113091,-0.669555 -0.15017,-1.007986 -0.04772,-0.271354 -0.0554,-0.540517 -0.0455,-0.816105 1.62e-4,-0.266999 5.29e-4,-0.533998 5.29e-4,-0.800999 -10e-5,-0.266814 2.57e-4,-0.533699 -0.0081,-0.800415 -0.01138,-0.284049 -0.03317,-0.567404 -0.07362,-0.848958 -0.03496,-0.30407 -0.03164,-0.604306 0.03491,-0.905031 0.04823,-0.26262 0.05374,-0.52287 0.04899,-0.790096 0.0071,-0.272214 0.01847,-0.544957 0.06255,-0.814165 0.04413,-0.262512 0.09065,-0.519452 0.06711,-0.787599 7.94e-4,-0.261411 0.0011,-0.523105 0.01879,-0.784042 0.0199,-0.232201 0.05592,-0.461113 0.118377,-0.686054 0.0077,-0.296926 0.02273,-0.593982 0.06866,-0.887863 0.0568,-0.375488 0.106423,-0.749051 0.107982,-1.129913 0.0368,-0.261456 0.105603,-0.518332 0.0929,-0.784183 0.0094,-0.243128 0.02164,-0.488175 0.085,-0.724403 0.06479,-0.219808 0.08533,-0.441801 0.134612,-0.665779 0.06604,-0.221832 0.08723,-0.445629 0.129717,-0.673385 0.0649,-0.282581 0.05358,-0.566389 0.04957,-0.855755 -0.0028,-0.340977 -0.0019,-0.684067 -0.04882,-1.022419 -0.04209,-0.230344 -0.116867,-0.453835 -0.118375,-0.690168 -0.03078,-0.237734 -0.102857,-0.469694 -0.105862,-0.709703 -0.0065,-0.240234 -0.01508,-0.48155 -0.06146,-0.718074 -0.05047,-0.245155 -0.09155,-0.48583 -0.08239,-0.737838 -0.01603,-0.233913 -0.04555,-0.46582 -0.100925,-0.69406 -0.03829,-0.252053 -0.0088,-0.510249 0.02743,-0.76149 0.04964,-0.22376 0.151281,-0.422066 0.239334,-0.631819 0.113139,-0.170606 0.244002,-0.362392 0.411454,-0.481375 0.133061,-0.137047 0.325308,-0.199758 0.425677,-0.366797 0.138743,-0.139097 0.19793,-0.341943 0.368308,-0.448662 0.861047,-0.501087 1.425467,-1.13515 2.356165,-1.120736 0.267287,-2.64e-4 0.534591,-0.0011 0.801868,0.0019 0.258286,0.0042 0.517355,0.0096 0.773512,0.04614 0.231179,0.03694 0.459554,0.101836 0.695907,0.08665 0.266739,2.2e-4 0.533479,7.94e-4 0.800219,5.3e-4 0.266189,-5.3e-4 0.532508,-5.3e-4 0.798467,-0.0131 0.29872,-0.01709 0.595757,-0.04994 0.892199,-0.09047 0.410162,-0.04067 0.821391,-0.02222 1.232995,-0.03123 0,0 -1.604684,1.165873 -1.604684,1.165873 z"
         id="path4553"
         style="fill:#000000;fill-opacity:1;stroke:none;stroke-width:0.26458332;stroke-opacity:1" />
    </g>
  </g>
</svg>
