<?xml version="1.0" encoding="UTF-8" standalone="no"?>
<!-- Created with Inkscape (http://www.inkscape.org/) -->

<svg
   xmlns:dc="http://purl.org/dc/elements/1.1/"
   xmlns:cc="http://creativecommons.org/ns#"
   xmlns:rdf="http://www.w3.org/1999/02/22-rdf-syntax-ns#"
   xmlns:svg="http://www.w3.org/2000/svg"
   xmlns="http://www.w3.org/2000/svg"
   xmlns:sodipodi="http://sodipodi.sourceforge.net/DTD/sodipodi-0.dtd"
   xmlns:inkscape="http://www.inkscape.org/namespaces/inkscape"
   width="50mm"
   height="70mm"
   viewBox="0 0 50 70"
   version="1.1"
   id="svg8"
   inkscape:version="0.92.3 (2405546, 2018-03-11)"
   sodipodi:docname="card2.svg">
  <defs
     id="defs2" />
  <sodipodi:namedview
     id="base"
     pagecolor="#ffffff"
     bordercolor="#666666"
     borderopacity="1.0"
     inkscape:pageopacity="0.0"
     inkscape:pageshadow="2"
     inkscape:zoom="1.979899"
     inkscape:cx="35.812303"
     inkscape:cy="102.48968"
     inkscape:document-units="mm"
     inkscape:current-layer="layer2"
     showgrid="false"
     inkscape:snap-center="true"
     inkscape:window-width="1920"
     inkscape:window-height="1017"
     inkscape:window-x="1912"
     inkscape:window-y="-8"
     inkscape:window-maximized="1"
     fit-margin-top="0"
     fit-margin-left="0"
     fit-margin-right="0"
     fit-margin-bottom="0" />
  <metadata
     id="metadata5">
    <rdf:RDF>
      <cc:Work
         rdf:about="">
        <dc:format>image/svg+xml</dc:format>
        <dc:type
           rdf:resource="http://purl.org/dc/dcmitype/StillImage" />
        <dc:title />
      </cc:Work>
    </rdf:RDF>
  </metadata>
  <g
     inkscape:label="Vrstva 1"
     inkscape:groupmode="layer"
     id="layer1"
     style="display:inline"
     transform="translate(-28.593897,-31.037049)" />
  <g
     inkscape:groupmode="layer"
     id="layer2"
     inkscape:label="Vrstva 2"
     transform="translate(-28.593897,-31.037049)">
    <path
       style="fill:#000000;fill-opacity:1;stroke:none;stroke-width:0.26458332;stroke-opacity:1"
       id="path4555"
       d="m 75.288159,93.930253 c 0.01283,-0.440455 0.0082,-0.881169 0.0052,-1.321732 -0.0024,-0.311301 -0.0038,-0.622607 -0.0045,-0.933918 -5.29e-4,-0.26734 -5.29e-4,-0.534681 -5.29e-4,-0.802021 1.6e-5,-0.266586 3.5e-5,-0.533172 4.5e-5,-0.799759 0.0071,-0.397123 0.0069,-0.794284 0.0048,-1.191482 -0.01003,-0.311698 0.01146,-0.624943 -0.01508,-0.93585 -0.04631,-0.2683 -0.0844,-0.537167 -0.105209,-0.808675 -0.01709,-0.268166 -0.01794,-0.536993 -0.01892,-0.805592 -2.64e-4,-0.267312 1.91e-4,-0.534623 5.29e-4,-0.801931 0.02,-0.266772 -0.03294,-0.52687 -0.07329,-0.788758 -0.04048,-0.269174 -0.05092,-0.541345 -0.05734,-0.813059 -0.0056,-0.288306 -0.0021,-0.576659 -0.0019,-0.864992 0.02199,-0.295436 -0.03632,-0.584009 -0.07402,-0.875059 -0.03761,-0.304929 -0.05001,-0.612029 -0.05722,-0.918927 -0.0048,-0.272767 -0.0042,-0.545589 -0.004,-0.818388 0.0019,-0.263628 0.01026,-0.525557 -0.02979,-0.786669 -0.05151,-0.268047 -0.07751,-0.539396 -0.09228,-0.811623 -0.01159,-0.268489 -0.01146,-0.537292 -0.01175,-0.805974 6.8e-5,-0.267303 5.29e-4,-0.534609 7.93e-4,-0.801915 -7.93e-4,-0.287708 0.0019,-0.5754 0.0019,-0.863105 -2.64e-4,-0.289941 -0.0011,-0.579882 -0.0013,-0.869826 -0.0145,-0.262326 0.01632,-0.523099 0.02199,-0.784712 -0.0026,-0.283553 0.0013,-0.565893 -0.04775,-0.84582 -0.03916,-0.264157 -0.09808,-0.523792 -0.150043,-0.785447 -0.06208,-0.327387 -0.07432,-0.661032 -0.08507,-0.993222 0.0011,-0.316844 0.0403,-0.627795 0.03313,-0.945438 -0.01119,-0.361836 -0.02514,-0.723561 -0.03315,-1.085493 0.0094,-0.281093 -0.01342,-0.55621 -0.0597,-0.832866 -0.01857,-0.24488 -0.0953,-0.477015 -0.148415,-0.715071 -0.04063,-0.395176 -0.06754,-0.791906 -0.113978,-1.187452 -0.04354,-0.344358 -0.06766,-0.690513 -0.07975,-1.037262 -0.05662,-0.284658 -0.09175,-0.5675 -0.107882,-0.857584 -0.01881,-0.374705 -0.02622,-0.749834 -0.03016,-1.124947 -0.0024,-0.279837 -0.0019,-0.559686 -0.0019,-0.839531 0.0043,-0.264851 -0.009,-0.530214 0.0093,-0.794586 0.04434,-0.230106 0.08527,-0.459552 0.105838,-0.693161 0.01029,-0.266848 0.07484,-0.526933 0.111226,-0.790739 0.03673,-0.295193 0.03891,-0.592955 0.04371,-0.889923 0.01984,-0.390104 0.01601,-0.781757 0.05106,-1.17102 0.03476,-0.290576 0.0591,-0.581959 0.07164,-0.874299 0.0092,-0.265801 0.0091,-0.531802 0.0093,-0.79773 0.0019,-0.285088 -0.06349,-0.564306 -0.09025,-0.847613 -0.03474,-0.411711 -0.01982,-0.825749 -0.05099,-1.237393 -0.0416,-0.32475 -0.08527,-0.64887 -0.108741,-0.975532 -0.03191,-0.316177 -0.0059,-0.628692 0.03812,-0.941763 0.05342,-0.366681 0.06685,-0.737103 0.07516,-1.107022 -0.0084,-0.30856 0.0088,-0.612267 0.05705,-0.916795 0.04611,-0.261818 0.06342,-0.526994 0.07321,-0.79225 0.0067,-0.27873 0.0075,-0.55759 0.0082,-0.836392 0.0016,-0.353092 0.0019,-0.706197 7.94e-4,-1.059294 -0.0013,-0.301189 -0.0024,-0.602377 -0.0028,-0.903568 -2.65e-4,-0.268666 -2.65e-4,-0.537332 -2.65e-4,-0.805998 -0.0016,-0.316211 0.06764,-0.626708 0.09906,-0.940728 0.05022,-0.472284 0.03225,-0.943113 -0.0158,-1.414103 -0.02267,-0.330033 0.0098,-0.660133 0.0291,-0.98947 0.01977,-0.342945 0.02299,-0.686594 0.02477,-1.030021 -0.01778,-0.431519 0.02792,-0.860263 0.04592,-1.29037 0.0076,-0.333457 -0.03583,-0.665747 -0.0269,-0.998937 0.04189,-0.275026 0.07886,-0.549304 0.0961,-0.827193 0.0181,-0.341712 0.0173,-0.684051 0.0172,-1.026134 -5.29e-4,-0.279291 -0.0013,-0.558585 -0.0019,-0.837877 0.01376,-0.26339 -0.02064,-0.522668 -0.08437,-0.777679 -0.06145,-0.227192 -0.170328,-0.438759 -0.280342,-0.645795 -0.126793,-0.170222 -0.23387,-0.3517 -0.373523,-0.511911 -0.159221,-0.191685 -0.369927,-0.319402 -0.567676,-0.463814 -0.178721,-0.126929 -0.35918,-0.250248 -0.543888,-0.369448 -0.233003,-0.120497 -0.474578,-0.22101 -0.730946,-0.278765 -0.260125,-0.04765 -0.525428,-0.04936 -0.788982,-0.05181 -0.267148,-7.94e-4 -0.534292,7.94e-4 -0.801437,0.0016 -0.258437,0.01717 -0.526338,-0.03447 -0.779047,0.0284 -0.228629,0.06638 -0.465934,0.08497 -0.702447,0.09746 -0.26302,0.01042 -0.526312,0.0097 -0.78949,0.0098 -0.32656,7.93e-4 -0.653066,-0.0038 -0.979623,-0.0041 -0.337275,5.29e-4 -0.674547,0.0016 -1.011819,0.0024 -0.275339,-0.0088 -0.553533,0.02463 -0.825336,-0.025 -0.176136,-0.02254 -0.35396,-0.0819 -0.532985,-0.08107 -0.527939,0.0024 0.305242,0.0375 -0.261123,0.0083 -0.266837,-0.0177 -0.534072,-0.02662 -0.801412,-0.03162 -0.271793,-0.0042 -0.543626,-0.0032 -0.81544,-0.0047 -0.31319,0.0041 -0.619874,-0.0727 -0.919486,-0.155821 -0.307327,-0.08644 -0.627504,-0.09614 -0.944435,-0.107148 -0.325292,-0.04723 -0.649052,-0.126124 -0.978858,-0.09784 -0.29146,0.03897 -0.583652,0.06832 -0.877295,0.08354 -0.269637,0.01135 -0.53957,0.01146 -0.809395,0.01188 -0.146917,0.02442 -0.293565,0.09395 -0.444468,0.09493 -0.120671,7.93e-4 -0.240411,-0.02127 -0.360712,-0.03076 -0.345802,-0.03031 -0.692314,-0.04967 -1.039259,-0.05959 -0.276582,-0.0064 -0.553254,-0.006 -0.82989,-0.006 -0.266623,1.9e-4 -0.533246,5.29e-4 -0.799867,5.29e-4 -0.218149,0.01902 -0.470458,0.04552 -0.671814,0.138824 -0.220715,0.06657 -0.439158,0.141595 -0.664019,0.195067 -0.287753,0.04513 -0.576514,0.06831 -0.864698,0.111755 -0.326218,0.05091 -0.655569,0.07306 -0.985216,0.08429 -0.272198,0.01953 -0.549325,-0.02228 -0.817592,0.03121 -0.277579,0.06537 -0.563051,0.07492 -0.843975,0.11681 -0.371769,0.04423 -0.746065,0.123479 -1.121077,0.08928 -0.283155,-0.04154 -0.567113,-0.07271 -0.852861,-0.08814 -0.23968,-0.01413 -0.46927,-0.09036 -0.708689,-0.11901 -0.251174,-0.02392 -0.503769,-0.02474 -0.755846,-0.02627 -0.266723,-7.94e-4 -0.533444,1.9e-5 -0.800166,2.65e-4 -0.26747,2.64e-4 -0.53494,5.29e-4 -0.802412,5.29e-4 -0.26729,3.2e-5 -0.53458,2.4e-5 -0.80187,2.1e-5 -0.267269,-3e-6 -0.534538,-3e-6 -0.801804,-5e-6 -0.267269,0 -0.534538,0 -0.801807,0 -0.293661,-6.9e-5 -0.587314,-0.0013 -0.880977,-0.0011 -0.311166,5.3e-4 -0.622327,-5.29e-4 -0.933495,-1.27e-4 -0.285668,5.3e-4 -0.571336,7.94e-4 -0.857004,0.0011 -0.267944,1.27e-4 -0.535887,1.27e-4 -0.803834,1.32e-4 -0.267022,0 -0.534048,-5e-6 -0.801073,-8e-6 -0.411967,-0.0074 -0.824042,-0.004 -1.236049,-0.0024 -0.306223,0.0026 -0.606655,-0.0721 -0.910854,-0.104188 -0.264399,-0.02402 -0.53008,-0.02596 -0.795356,-0.02768 -0.345668,-0.0016 -0.691296,-0.0037 -1.036974,-0.0027 -0.339442,0.0021 -0.678884,0.0013 -1.018328,0.0019 -0.296617,-0.02652 -0.580004,0.02601 -0.87012,0.07465 -0.269676,0.03222 -0.541221,0.08308 -0.797308,0.175469 -0.233601,0.07701 -0.486503,0.138486 -0.696405,0.269939 -0.650303,0.31392 -0.220234,0.109059 1.523974,-0.880565 0.02595,-0.01471 -0.05161,0.03053 -0.07425,0.04994 -0.07124,0.06105 -0.111524,0.151397 -0.160218,0.229553 -0.103317,0.185576 -0.139248,0.399579 -0.133033,0.609951 0.03573,0.227669 0.07022,0.45516 0.125563,0.678982 0.06718,0.349078 0.174705,0.687991 0.260787,1.032544 0.04574,0.296924 0.135263,0.583417 0.199379,0.8762 0.07307,0.363524 0.130551,0.729366 0.166852,1.098344 0.01627,0.292279 0.08472,0.577715 0.123291,0.867365 0.02593,0.269861 0.09419,0.532656 0.132257,0.800944 0.03406,0.269086 0.03903,0.540557 0.04251,0.8114 5.29e-4,0.264213 -0.0086,0.526695 0.03122,0.788437 0.05119,0.268153 0.07707,0.539557 0.09176,0.811834 -0.0087,0.268193 0.04444,0.529598 0.0853,0.792959 0.05674,0.325607 0.03744,0.648433 -2.64e-4,0.974058 -0.02077,0.318106 -0.07774,0.627423 -0.174765,0.930643 -0.09232,0.254289 -0.132581,0.520089 -0.154033,0.788355 0.0034,0.272881 -0.04633,0.539597 -0.08847,0.807816 -0.03999,0.261503 -0.04945,0.526076 -0.05544,0.790119 -0.0042,0.266666 -0.0034,0.533377 -0.0031,0.800066 2.65e-4,0.267293 5.29e-4,0.534585 7.94e-4,0.801881 -0.0034,0.270883 0.0095,0.542131 -0.01066,0.812421 -0.05159,0.296233 -0.08645,0.594146 -0.106328,0.894094 -0.0056,0.284435 -0.07128,0.562332 -0.109011,0.843306 -0.05381,0.271941 -0.115236,0.540824 -0.147696,0.816488 -0.0098,0.273918 -0.07837,0.539859 -0.118705,0.8098 -0.03395,0.255336 -0.03825,0.51322 -0.04171,0.770387 -0.0021,0.266475 -0.0013,0.532964 -0.0011,0.799444 2.64e-4,0.26738 5.29e-4,0.53476 5.29e-4,0.80214 -0.0053,0.302932 0.0085,0.606391 -0.01246,0.908738 -0.04095,0.277561 -0.08182,0.554532 -0.103188,0.8344 -0.01757,0.270735 -0.01685,0.542153 -0.01987,0.813308 -0.0013,0.301125 1.54e-4,0.602256 0.0011,0.903383 -2.64e-4,0.344998 -0.0034,0.689986 -0.0033,1.034992 -0.01336,0.323517 0.0068,0.641585 0.05688,0.960755 0.04679,0.272679 0.06502,0.548653 0.07523,0.824738 0.0075,0.267504 0.0068,0.535149 0.0067,0.802735 5.29e-4,0.287618 -0.0021,0.57522 -0.0024,0.862835 0.0066,0.286428 -0.01236,0.574003 0.01185,0.859677 0.04647,0.269054 0.08433,0.538742 0.105116,0.811014 0.01709,0.268602 0.01796,0.537861 0.01894,0.806894 2.65e-4,0.267327 -1.88e-4,0.534654 -5.29e-4,0.801981 -2.46e-4,0.267245 -2.64e-4,0.534493 -2.64e-4,0.801738 -2.2e-5,0.267269 -1.6e-5,0.534535 -1.4e-5,0.801804 -0.0065,0.266594 0.05713,0.527918 0.09123,0.791131 0.01217,0.319767 0.07255,0.633613 0.114253,0.950134 0.04227,0.318778 0.05234,0.640064 0.05775,0.961142 0.0039,0.296259 -0.008,0.59138 0.03518,0.885108 0.04824,0.318613 0.06937,0.639789 0.121635,0.95777 0.08365,0.353417 0.05277,0.711594 0.02627,1.069094 -0.02334,0.369586 -0.05453,0.740685 -0.03297,1.110927 0.04464,0.321821 0.07984,0.644358 0.101246,0.968574 -0.0093,0.288951 0.06261,0.569629 0.08364,0.855577 -0.0082,0.299689 -0.04522,0.59471 -0.01799,0.894229 0.04258,0.306453 0.06235,0.615071 0.07582,0.923959 -0.01048,0.323371 0.04696,0.640681 0.08529,0.960191 0.03627,0.348962 0.109604,0.692185 0.147487,1.041123 0.0092,0.367209 -0.03697,0.73329 -0.06281,1.099253 -0.02019,0.322456 -0.0217,0.6456 -0.02582,0.968531 -0.0013,0.332084 -7.94e-4,0.664168 -0.0024,0.996252 -0.0048,0.403616 0.009,0.807662 -0.014,1.210754 -0.02529,0.328287 -0.09119,0.653757 -0.08764,0.983671 0.0351,0.297122 0.06648,0.594302 0.08555,0.892966 0.0227,0.322212 -0.03875,0.642496 -0.07309,0.961943 -0.03325,0.279762 -0.02572,0.562038 -0.05045,0.842208 -0.04631,0.26425 -0.08556,0.528836 -0.106257,0.79637 -5.29e-4,0.241506 -0.06928,0.473776 -0.107894,0.710329 -0.03618,0.262602 -0.04044,0.528254 -0.04438,0.792893 0.0076,0.301789 -0.05511,0.598615 -0.0917,0.896832 -0.02471,0.262908 -0.04825,0.528105 -0.02957,0.792003 0.04474,0.267042 0.08274,0.534414 0.103648,0.804424 0.01741,0.268795 0.01844,0.538268 0.0195,0.807513 -0.0061,0.266669 0.05697,0.528111 0.09084,0.791448 0.03137,0.219705 0.142664,0.414714 0.292061,0.575623 0.155384,0.114096 0.316825,0.222078 0.456223,0.355986 0.16028,0.09908 0.307139,0.216477 0.46141,0.324829 0.186867,0.134845 0.396909,0.244282 0.612873,0.3258 0.291504,0.152839 0.607393,0.247094 0.919075,0.348472 0.252518,0.06044 0.504894,0.128995 0.745035,0.229087 0.257625,0.07454 0.501782,0.183068 0.749998,0.28312 0.242512,0.153598 0.525193,0.188862 0.792795,0.271065 0.256561,0.08153 0.524021,0.107093 0.7913,0.121402 0.251965,-0.06534 0.523174,-0.05168 0.768461,-0.136769 0.234826,-0.05663 0.462357,-0.135024 0.697595,-0.190235 0.267677,-0.02598 0.525376,-0.09026 0.788837,-0.140428 0.268343,-0.04631 0.540943,-0.0543 0.812557,-0.05964 0.27592,-0.01598 0.542705,-0.0019 0.813223,0.0496 0.273934,0.05524 0.552916,0.06961 0.831427,0.07883 0.322132,0.0076 0.644379,0.0073 0.966578,0.0066 0.288092,-7.93e-4 0.576183,-0.0016 0.864277,-0.0021 0.320355,-0.02421 0.646835,-0.06167 0.963317,-0.12383 0.390876,-0.0833 0.78985,-0.112679 1.188262,-0.129249 0.36559,-0.01439 0.731483,-0.01355 1.097277,-0.01418 0.349261,-6.1e-5 0.698513,0.0019 1.047774,0.0016 0.341048,5.3e-4 0.682101,-7.93e-4 1.023149,1.9e-5 0.323202,0.02593 0.636262,-0.05638 0.955225,-0.09088 0.308073,-0.03151 0.617757,-0.03953 0.927187,-0.04385 0.293545,0.0098 0.579515,-0.0026 0.868874,-0.04944 0.309107,-0.05563 0.622673,-0.06833 0.935818,-0.07824 0.298002,-0.0074 0.596132,-0.0082 0.894209,-0.0067 0.322924,2.54e-4 0.645848,0.0016 0.968775,0.0013 0.371075,0.01217 0.737076,0.0021 1.104918,-0.04556 0.423937,-0.05338 0.85103,-0.06783 1.277705,-0.07913 0.405717,0.01767 0.810887,0.01439 1.217536,0.0067 0.413279,-0.0078 0.826611,-0.01032 1.239946,-0.01275 0.384855,-0.0041 0.766013,-0.07302 1.149651,-0.10632 0.304623,-0.0259 0.600962,-0.104132 0.905542,-0.138168 0.269907,-0.02537 0.541234,-0.02676 0.812088,-0.02819 0.285038,-0.01992 0.56728,-0.07734 0.853885,-0.10338 0.348255,-0.02593 0.697891,-0.0258 1.046927,-0.02665 0.400685,-0.01222 0.796676,-7.94e-4 1.194239,0.0472 0.393078,0.0518 0.789175,0.07025 1.185156,0.08066 0.368517,-0.04378 0.736251,-0.08756 1.106977,-0.107596 0.335904,-0.04178 0.670819,-0.04521 1.009452,-0.03725 0.307784,0.03408 0.605374,-0.01339 0.90838,-0.05825 0.285277,-0.06293 0.568037,7.94e-4 0.852483,0.0337 0.257992,-0.0011 0.500025,0.05894 0.749223,0.114125 0.227549,0.05948 0.453927,0.02093 0.684186,0.03387 0.182163,-0.07582 0.387501,-0.05191 0.566851,-0.126357 0.215591,-0.08176 0.447127,-0.09597 0.675037,-0.10835 0.226306,-0.05501 0.440169,-0.14338 0.665202,-0.201877 0.260022,-0.05831 0.527153,-0.06647 0.792459,-0.07263 0.784307,-0.1426 1.956472,-0.966806 -0.959832,0.69569 0.227502,-0.128836 0.305213,-0.343119 0.348478,-0.586774 0.03202,-0.261118 0.02753,-0.524923 0.02667,-0.78749 -0.02381,-0.212929 -0.06701,-0.423662 -0.137652,-0.625914 -0.07559,-0.202184 -0.166002,-0.393023 -0.214662,-0.604904 -0.04827,-0.244599 -0.0881,-0.493456 -0.154786,-0.733825 -0.08505,-0.231417 -0.124926,-0.472831 -0.14781,-0.717153 0,0 1.760127,-0.915424 1.760127,-0.915424 v 0 c 0.01699,0.232133 0.04726,0.462556 0.12981,0.681924 0.07322,0.242644 0.110265,0.498285 0.162828,0.745773 0.04037,0.206187 0.130558,0.386903 0.203538,0.581912 0.07941,0.223125 0.127754,0.452577 0.164566,0.686787 0.0016,0.270814 0.006,0.542118 -0.01328,0.812453 -0.0285,0.272362 -0.07501,0.544684 -0.279443,0.74495 -0.810842,0.468207 -1.537898,1.130972 -2.488247,1.193242 -0.257673,0.01302 -0.516583,0.03363 -0.763982,0.112469 -0.225216,0.07298 -0.452146,0.150932 -0.68979,0.169825 -0.223948,0.02392 -0.441864,0.06903 -0.656106,0.139449 -0.200032,0.02871 -0.398869,0.08272 -0.60145,0.07845 -0.237093,-0.0031 -0.473959,0.0021 -0.70489,-0.06499 -0.242327,-0.05626 -0.486381,-0.07783 -0.734116,-0.09889 -0.275243,-0.03261 -0.546229,-0.05549 -0.820441,0.0059 -0.308602,0.04165 -0.616373,0.05174 -0.927597,0.03327 -0.332788,-0.0045 -0.662377,0.01881 -0.993876,0.04651 -0.37325,0.02896 -0.744429,0.08604 -1.119015,0.09197 -0.398222,-0.01683 -0.795975,-0.04287 -1.191451,-0.09425 -0.393432,-0.03838 -0.787413,-0.03176 -1.182391,-0.02738 -0.347141,0.0045 -0.694962,0.0081 -1.040511,0.04533 -0.289091,0.03366 -0.575543,0.0986 -0.867907,0.09086 -0.266261,0.0041 -0.533136,0.01035 -0.797372,0.04646 -0.301422,0.0444 -0.599295,0.114943 -0.90468,0.128373 -0.384955,0.0372 -0.768783,0.100433 -1.156708,0.09035 -0.413025,0.0019 -0.826045,0.0062 -1.238975,0.01537 -0.405058,0.0075 -0.808934,-0.0084 -1.213696,-0.0068 -0.424781,0.01384 -0.849183,0.03941 -1.270842,0.09475 -0.373358,0.03721 -0.747254,0.03133 -1.12214,0.03015 -0.323392,-5.29e-4 -0.646784,3.2e-5 -0.970177,-1.22e-4 -0.296275,0.0016 -0.592658,5.29e-4 -0.888767,0.01233 -0.309822,0.01476 -0.618159,0.0439 -0.924404,0.09435 -0.29419,0.03515 -0.589208,0.02826 -0.88506,0.03165 -0.304747,0.007 -0.609798,0.01913 -0.912336,0.0589 -0.321652,0.04558 -0.64225,0.09038 -0.968452,0.0701 -0.340852,7.94e-4 -0.681709,-7.94e-4 -1.022562,-5.29e-4 -0.349422,-7.94e-4 -0.698846,-1.88e-4 -1.048268,-7.94e-4 -0.362373,1.11e-4 -0.724929,0.0019 -1.086956,0.01926 -0.395028,0.02524 -0.788025,0.06865 -1.176099,0.149087 -0.327949,0.04866 -0.658167,0.105074 -0.990466,0.102224 -0.287086,4.5e-5 -0.574169,1.41e-4 -0.861255,-5.29e-4 -0.323985,-7.94e-4 -0.648118,2.01e-4 -0.971902,-0.01281 -0.284824,-0.01418 -0.568172,-0.04125 -0.848307,-0.0968 -0.262364,-0.03705 -0.526685,-0.02426 -0.790969,-0.01805 -0.265732,0.01072 -0.531826,0.02882 -0.79225,0.08633 -0.260377,0.05551 -0.524251,0.08748 -0.782934,0.150167 -0.232423,0.06741 -0.465976,0.129394 -0.700783,0.188119 -0.265965,0.03953 -0.533887,0.09155 -0.803355,0.08598 -0.275963,-0.02522 -0.548836,-0.07018 -0.813583,-0.154628 -0.278355,-0.07087 -0.549256,-0.15638 -0.805151,-0.290026 -0.246359,-0.102375 -0.497356,-0.190331 -0.749617,-0.276823 -0.243785,-0.08192 -0.488723,-0.157766 -0.736701,-0.22575 -0.312698,-0.108024 -0.625925,-0.213313 -0.924065,-0.35854 -0.228494,-0.09563 -0.450723,-0.212241 -0.649192,-0.361585 -0.155509,-0.11776 -0.321953,-0.219892 -0.472951,-0.343106 -0.151881,-0.130038 -0.319635,-0.239975 -0.466574,-0.375962 -0.165341,-0.198493 -0.298842,-0.424014 -0.345983,-0.681313 -0.03091,-0.271306 -0.09844,-0.53916 -0.10174,-0.812165 -5.29e-4,-0.265266 -2.64e-4,-0.530688 -0.01339,-0.7957 -0.01667,-0.267967 -0.04795,-0.534181 -0.100068,-0.79778 -0.0386,-0.275658 -0.0088,-0.555138 0.0105,-0.831839 0.03178,-0.293553 0.100415,-0.583824 0.103013,-0.879083 0.0011,-0.271368 -5.29e-4,-0.54333 0.02744,-0.813637 0.02875,-0.235902 0.101084,-0.46256 0.116618,-0.698415 0.01585,-0.271248 0.04347,-0.541602 0.101127,-0.807585 0.04953,-0.276032 0.01688,-0.560562 0.05525,-0.838851 0.03141,-0.3107 0.09579,-0.620964 0.08756,-0.933418 -0.01545,-0.299458 -0.04333,-0.597519 -0.08783,-0.894165 -0.02643,-0.338841 0.04968,-0.674034 0.08556,-1.010211 0.03951,-0.396967 0.01035,-0.796684 0.01728,-1.195152 -0.0019,-0.331967 -0.0024,-0.663932 -0.0013,-0.995904 -9.5e-5,-0.32674 0.0066,-0.6535 0.02342,-0.979837 0.01976,-0.357227 0.06466,-0.712462 0.0783,-1.070044 -0.03527,-0.348528 -0.10714,-0.690483 -0.147849,-1.037749 -0.03849,-0.324022 -0.105794,-0.645414 -0.09476,-0.97328 -0.0099,-0.305049 -0.02702,-0.609888 -0.07063,-0.912278 -0.03459,-0.303345 -0.02199,-0.601737 0.0094,-0.905494 0.0049,-0.286099 -0.102108,-0.563539 -0.07812,-0.85249 -0.01667,-0.323874 -0.04823,-0.6461 -0.09711,-0.966809 -0.03514,-0.378341 0.0039,-0.759198 0.02011,-1.13801 0.02635,-0.342516 0.07435,-0.686411 -0.0056,-1.025795 -0.05515,-0.318257 -0.08283,-0.637778 -0.126966,-0.957664 -0.05007,-0.302967 -0.0508,-0.604356 -0.04486,-0.911286 -0.0043,-0.314386 -0.01148,-0.629267 -0.04658,-0.94201 -0.03922,-0.316679 -0.109493,-0.6287 -0.119849,-0.948412 -0.03117,-0.271415 -0.09919,-0.539332 -0.10246,-0.812485 -2e-6,-0.267274 -7e-6,-0.534548 3e-6,-0.801822 2.1e-5,-0.267293 4.8e-5,-0.534588 2.51e-4,-0.801884 2.28e-4,-0.267126 7.94e-4,-0.534252 7.94e-4,-0.801375 -2.64e-4,-0.265112 -1.53e-4,-0.530376 -0.01291,-0.795247 -0.01643,-0.269772 -0.04755,-0.537822 -0.100119,-0.803172 -0.04164,-0.291605 -0.01198,-0.587462 -0.01987,-0.881364 6.4e-5,-0.287063 -0.0021,-0.574114 -0.0011,-0.861179 2.54e-4,-0.265676 0.0011,-0.531384 -0.0038,-0.797029 -0.0071,-0.26888 -0.01947,-0.538061 -0.06217,-0.804068 -0.05109,-0.329925 -0.08721,-0.656394 -0.06417,-0.991402 4.5e-5,-0.343728 -0.0031,-0.687432 -0.0039,-1.031155 2.64e-4,-0.301474 7.94e-4,-0.602949 -2.46e-4,-0.904423 -0.0019,-0.274648 -7.94e-4,-0.549463 0.01196,-0.823875 0.01691,-0.282747 0.04788,-0.564036 0.102055,-0.842322 0.04366,-0.293754 0.01127,-0.592458 0.01942,-0.888635 -5.3e-5,-0.267317 -1.35e-4,-0.534633 -5.29e-4,-0.801947 -2.64e-4,-0.267131 -0.0011,-0.534265 -2.49e-4,-0.801397 0.0019,-0.264136 0.0037,-0.528793 0.03006,-0.791874 0.0324,-0.270544 0.108964,-0.532934 0.125553,-0.804322 0.01963,-0.278202 0.06515,-0.552429 0.143052,-0.820698 0.03154,-0.279416 0.100402,-0.553241 0.11652,-0.833417 0.01704,-0.3024 0.04087,-0.605522 0.09891,-0.903208 0.04492,-0.260582 0.01074,-0.527701 0.02114,-0.791196 -8.2e-5,-0.267248 -2.24e-4,-0.534496 -5.29e-4,-0.801743 -2.64e-4,-0.267854 -0.0013,-0.535716 0.0013,-0.803561 0.004,-0.271428 0.0099,-0.543423 0.04423,-0.813057 0.03707,-0.264618 0.105603,-0.524507 0.09536,-0.793504 0.01561,-0.28213 0.04353,-0.564684 0.13443,-0.83416 0.09935,-0.292586 0.186589,-0.584009 0.195146,-0.896403 0.03729,-0.309234 0.07814,-0.614045 0.01939,-0.924493 -0.03902,-0.26983 -0.106614,-0.536131 -0.09479,-0.810663 -0.01087,-0.265371 -0.03009,-0.530621 -0.08099,-0.791808 -0.04731,-0.271065 -0.05427,-0.539832 -0.04541,-0.815043 -0.0019,-0.263538 -0.0039,-0.527627 -0.03127,-0.790027 -0.03324,-0.270029 -0.103436,-0.53276 -0.132646,-0.802622 -0.0337,-0.293399 -0.105172,-0.581263 -0.121922,-0.876059 -0.02801,-0.361593 -0.07295,-0.722403 -0.162579,-1.074534 -0.05705,-0.293375 -0.149336,-0.578533 -0.185454,-0.876215 -0.08076,-0.345059 -0.201253,-0.677939 -0.269965,-1.025242 -0.06042,-0.233471 -0.100717,-0.468625 -0.143161,-0.70608 -0.03074,-0.239062 0.0034,-0.485085 0.08072,-0.713251 0.405329,-0.857282 0.933659,-0.976643 2.077249,-1.45206 0.235601,-0.0868 0.467903,-0.180562 0.712293,-0.24154 0.268518,-0.06609 0.537991,-0.122979 0.813001,-0.15489 0.294204,-0.04687 0.587997,-0.05729 0.885883,-0.04647 0.338114,2.65e-4 0.676228,-5.29e-4 1.014339,7.94e-4 0.348834,2.64e-4 0.697637,-0.0037 1.046448,-0.0011 0.269486,0.0044 0.539417,0.01154 0.807125,0.04543 0.295971,0.03943 0.590669,0.102603 0.890976,0.0895 0.414242,0.0016 0.828546,0.0048 1.242748,-0.0024 0.267031,-3e-6 0.534062,-8e-6 0.801092,-8e-6 0.267825,5e-6 0.535652,5e-6 0.803476,1.29e-4 0.284777,1.67e-4 0.56955,5.3e-4 0.854327,0.0011 0.311285,2.64e-4 0.622564,-5.29e-4 0.933847,-1.3e-4 0.294547,2.33e-4 0.589086,-7.94e-4 0.883634,-0.0011 0.267269,0 0.534537,0 0.801806,0 0.267269,2e-6 0.534535,5e-6 0.801804,5e-6 0.26728,0 0.534559,5e-6 0.801839,-6.1e-5 0.267422,-8.4e-5 0.534847,-2.27e-4 0.802272,-5.29e-4 0.267266,-2.65e-4 0.53454,-0.0013 0.801798,0.0013 0.258096,0.004 0.517078,0.0088 0.772946,0.04624 0.232386,0.03878 0.460328,0.107141 0.697677,0.108281 0.282906,0.02238 0.563417,0.06463 0.846289,0.08643 0.368408,-0.0058 0.733229,-0.06362 1.097428,-0.115441 0.284723,-0.03644 0.569256,-0.07209 0.852553,-0.118623 0.274818,-0.01294 0.550175,-0.004 0.825053,-0.01781 0.3243,-0.01622 0.647719,-0.04558 0.968394,-0.09792 0.286345,-0.04219 0.577879,-0.05685 0.857697,-0.135191 0.220858,-0.06699 0.442722,-0.129919 0.661249,-0.204314 0.233177,-0.04552 0.465177,-0.10405 0.705009,-0.08718 0.266679,-1.72e-4 0.533358,-5.29e-4 0.800034,-1.62e-4 0.27723,7.94e-4 0.554532,0.0021 0.831577,0.01347 0.345819,0.01564 0.690772,0.04322 1.036204,0.06528 0.275275,0.0064 0.533519,-0.0571 0.806019,-0.07816 0.267419,-0.0016 0.535019,-0.0036 0.801991,-0.02074 0.293312,-0.02117 0.584901,-0.0611 0.878695,-0.07468 0.331382,0.01244 0.655174,0.0785 0.984737,0.109791 0.328115,0.01802 0.657217,0.04133 0.973052,0.139642 0.290357,0.07542 0.588259,0.124772 0.889376,0.113702 0.273399,-0.0011 0.54683,5.29e-4 0.820169,0.0068 0.267284,0.0075 0.534231,0.02188 0.801425,0.03158 0.272185,-0.0016 0.537089,0.04453 0.805066,0.08833 0.269714,0.01355 0.540002,0.0031 0.809969,0.007 0.334862,7.94e-4 0.669724,0.0021 1.004589,0.003 0.329441,1.24e-4 0.658844,-0.0036 0.988287,-0.0029 0.260848,-0.0013 0.522042,-0.0021 0.782278,-0.02201 0.234484,-0.02236 0.464217,-0.06723 0.69592,-0.107918 0.264086,-0.0097 0.528471,-0.0026 0.792692,-0.0058 0.26797,-7.94e-4 0.535974,-0.0026 0.803921,0.0021 0.273833,0.0077 0.549634,0.01982 0.815845,0.0906 0.266742,0.07946 0.525801,0.187688 0.766244,0.328512 0.189751,0.117782 0.368154,0.250275 0.551429,0.3775 0.213878,0.148225 0.417591,0.309793 0.591664,0.504793 0.147783,0.172302 0.267345,0.364519 0.398174,0.549741 0.115654,0.220691 0.228549,0.446579 0.297428,0.686723 0.07683,0.267348 0.121701,0.544716 0.109146,0.823471 5.6e-5,0.27999 2.15e-4,0.559983 -7.94e-4,0.839973 -0.0019,0.345321 -0.0052,0.690649 -0.01437,1.035867 -0.0122,0.278273 -0.0236,0.557959 -0.08779,0.830228 -0.05066,0.327991 0.02899,0.664782 0.0095,0.995434 -0.008,0.428276 -0.07479,0.853977 -0.04424,1.283904 -0.0013,0.345366 -5.6e-5,0.690848 -0.01318,1.036032 -0.01863,0.322524 -0.05477,0.644324 -0.05392,0.96766 0.04509,0.481354 0.0736,0.961186 0.03213,1.444501 -0.01736,0.310049 -0.07245,0.613645 -0.09462,0.921298 -1.8e-5,0.268798 -3.2e-5,0.537596 -5.29e-4,0.806394 -5.29e-4,0.302072 -0.0016,0.604144 -0.0026,0.906216 -7.94e-4,0.352603 -1.03e-4,0.705218 0.0021,1.057812 0.0011,0.280112 0.0039,0.560253 -0.0021,0.840341 -0.007,0.272754 -0.01857,0.546005 -0.06273,0.815745 -0.0495,0.298116 -0.09254,0.591529 -0.07511,0.895556 -0.0097,0.375481 -0.01799,0.752123 -0.06353,1.125302 -0.03843,0.302054 -0.08999,0.59931 -0.05212,0.905312 0.01778,0.326712 0.05405,0.651486 0.09809,0.97568 0.0404,0.409998 0.015,0.823267 0.05441,1.233805 0.028,0.288576 0.09637,0.572278 0.104674,0.861507 6.4e-5,0.268242 5.29e-4,0.536535 -0.0064,0.804709 -0.01019,0.297267 -0.03024,0.59405 -0.07156,0.88882 -0.04591,0.383217 -0.04525,0.768588 -0.05876,1.153649 -1.43e-4,0.30271 -1.3e-5,0.606224 -0.0282,0.907873 -0.02958,0.2623 -0.09411,0.518872 -0.114297,0.781018 -0.01423,0.236943 -0.03659,0.473864 -0.09943,0.703707 -0.05497,0.251746 -0.0075,0.515803 -0.02349,0.771877 -5.3e-4,0.280112 -0.0013,0.560221 -0.0024,0.840333 -5.29e-4,0.373091 -5.29e-4,0.746384 0.01775,1.119132 0.01847,0.290338 0.0574,0.574326 0.119962,0.858488 0.0068,0.343217 0.02236,0.686337 0.06115,1.027634 0.0433,0.387577 0.08455,0.774731 0.120182,1.162661 0.04914,0.242295 0.134895,0.475665 0.149556,0.724416 0.04799,0.286438 0.09028,0.568867 0.07004,0.860853 0.0039,0.361329 0.01082,0.722683 0.02926,1.083607 0.0075,0.166814 0.02514,0.341437 0.01172,0.508344 -0.02167,0.269615 -0.02724,0.01296 -0.04394,0.281863 -0.0032,0.05178 0.0011,0.103756 0.0016,0.155636 0.0064,0.321699 0.01527,0.64476 0.07149,0.962398 0.05218,0.262747 0.120647,0.520845 0.153495,0.78736 0.05443,0.290671 0.06224,0.582211 0.06483,0.877681 0.0038,0.263414 -0.03705,0.520036 -0.02294,0.78453 -2.65e-4,0.290401 -0.0011,0.580797 -0.0013,0.871198 4.5e-5,0.287184 0.0024,0.574358 0.0016,0.861547 -1.74e-4,0.267235 -5.29e-4,0.534472 -7.93e-4,0.801709 -6.1e-5,0.265885 -7.94e-4,0.531841 0.0074,0.797631 0.01093,0.265264 0.03022,0.530405 0.08144,0.791427 0.04766,0.271166 0.05522,0.54011 0.04503,0.815496 -5.29e-4,0.271865 -0.0013,0.543738 0.0011,0.815594 0.004,0.300556 0.01093,0.60157 0.04535,0.900478 0.03871,0.298868 0.10886,0.5945 0.08568,0.897932 -2.43e-4,0.286557 0.0013,0.573112 0.0032,0.859661 0.0042,0.263966 0.01032,0.528523 0.04537,0.790567 0.0392,0.271031 0.107402,0.539038 0.08713,0.8149 -2.3e-4,0.267108 -7.94e-4,0.534215 -7.94e-4,0.801323 2.65e-4,0.264649 1.56e-4,0.529452 0.01294,0.793861 0.01648,0.269168 0.04791,0.53653 0.100021,0.801338 0.04429,0.317624 0.0082,0.640331 0.01688,0.960247 -0.0021,0.395568 -0.0024,0.791102 0.0048,1.186593 1.1e-5,0.26657 2.7e-5,0.533143 4.5e-5,0.799714 3e-6,0.267475 4e-5,0.534953 -5.29e-4,0.802428 -7.94e-4,0.312825 -0.0021,0.625647 -0.0044,0.938461 -0.0029,0.438785 -0.0077,0.877731 0.0052,1.316405 0,0 -1.76731,0.900491 -1.76731,0.900491 z"
       inkscape:connector-curvature="0" />
  </g>
</svg>
