<?xml version="1.0" encoding="UTF-8" standalone="no"?>
<!-- Created with Inkscape (http://www.inkscape.org/) -->

<svg
   xmlns:dc="http://purl.org/dc/elements/1.1/"
   xmlns:cc="http://creativecommons.org/ns#"
   xmlns:rdf="http://www.w3.org/1999/02/22-rdf-syntax-ns#"
   xmlns:svg="http://www.w3.org/2000/svg"
   xmlns="http://www.w3.org/2000/svg"
   xmlns:sodipodi="http://sodipodi.sourceforge.net/DTD/sodipodi-0.dtd"
   xmlns:inkscape="http://www.inkscape.org/namespaces/inkscape"
   width="10mm"
   height="10mm"
   viewBox="0 0 10 10"
   version="1.1"
   id="svg8"
   sodipodi:docname="card.svg"
   inkscape:version="0.92.4 (5da689c313, 2019-01-14)">
  <defs
     id="defs2" />
  <sodipodi:namedview
     id="base"
     pagecolor="#ffffff"
     bordercolor="#666666"
     borderopacity="1.0"
     inkscape:pageopacity="0.0"
     inkscape:pageshadow="2"
     inkscape:zoom="7.9195959"
     inkscape:cx="-5.5721467"
     inkscape:cy="40.62227"
     inkscape:document-units="mm"
     inkscape:current-layer="layer1"
     showgrid="false"
     inkscape:window-width="1920"
     inkscape:window-height="1017"
     inkscape:window-x="-8"
     inkscape:window-y="-8"
     inkscape:window-maximized="1" />
  <metadata
     id="metadata5">
    <rdf:RDF>
      <cc:Work
         rdf:about="">
        <dc:format>image/svg+xml</dc:format>
        <dc:type
           rdf:resource="http://purl.org/dc/dcmitype/StillImage" />
        <dc:title></dc:title>
      </cc:Work>
    </rdf:RDF>
  </metadata>
  <g
     inkscape:label="Layer 1"
     inkscape:groupmode="layer"
     id="layer1"
     transform="translate(0,-287)">
    <path
       style="fill:#ffffff;stroke:#000000;stroke-width:0.26458332px;stroke-linecap:butt;stroke-linejoin:miter;stroke-opacity:1;fill-opacity:1"
       d="m 5.2863053,295.25427 3.060972,-5.86829 -3.7599884,-1.48004 -2.6159652,6.43194 z"
       id="path1883"
       inkscape:connector-curvature="0" />
    <path
       style="fill:#000000;fill-opacity:1;stroke:none;stroke-width:0.26458332;stroke-opacity:1"
       id="path1847"
       d="m 2.0126829,293.7173 c 0.037885,-0.19208 0.079582,-0.38203 0.1392347,-0.56862 0.086332,-0.23354 0.1854573,-0.46202 0.2809963,-0.69188 0.098397,-0.24572 0.1959447,-0.49179 0.2852694,-0.74097 0.09092,-0.24455 0.1845517,-0.48789 0.2670959,-0.73543 0.074786,-0.22034 0.155489,-0.43864 0.2446829,-0.65355 0.085727,-0.19256 0.1740771,-0.3838 0.2590721,-0.57668 0.082226,-0.19108 0.1679363,-0.38086 0.240344,-0.57594 0.058856,-0.17069 0.1100135,-0.34407 0.1824326,-0.50967 0.071403,-0.14385 0.1703089,-0.27067 0.2671969,-0.39778 0.055605,-0.0725 0.101056,-0.15279 0.1381316,-0.23623 0.022543,-0.0584 0.024159,-0.12142 0.035858,-0.18233 0.012576,-0.061 0.010983,-0.12392 0.046572,-0.17694 0.2843813,-0.15748 0.2934367,-0.21437 0.546237,-0.099 0.1083107,0.0564 0.1905768,0.14915 0.2825555,0.22746 0.1071694,0.10148 0.2304428,0.18047 0.3578526,0.25359 0.1590072,0.0834 0.3160673,0.17022 0.4781751,0.24756 0.1848401,0.0913 0.3726252,0.17728 0.5661023,0.24861 0.1914453,0.0656 0.3857905,0.12073 0.5752351,0.1921 0.1696751,0.0589 0.3245067,0.15079 0.483276,0.23316 0.098446,0.0577 0.2055058,0.099 0.3152179,0.12934 0.069206,0.0157 0.135163,0.0403 0.205617,0.0507 0.077357,0.005 0.1533472,0.0202 0.2303328,0.0293 0.065078,0.009 0.1268349,-0.0109 0.1654558,0.0518 0.00784,0.12994 -0.051935,0.25016 -0.1031848,0.36587 -0.07224,0.1562 -0.1681065,0.29911 -0.2652607,0.4405 -0.061355,0.0978 -0.135147,0.18731 -0.1955199,0.28573 -0.031527,0.0514 -0.069907,0.12514 -0.098083,0.17782 -0.097294,0.19653 -0.1950397,0.39286 -0.2907252,0.59019 -0.097561,0.20539 -0.1959634,0.4098 -0.3073514,0.60813 -0.1141539,0.20819 -0.2370084,0.41126 -0.3448227,0.62287 -0.095857,0.1874 -0.1938385,0.37372 -0.2890285,0.56145 -0.082972,0.18362 -0.1784413,0.361 -0.2826924,0.53331 -0.098943,0.16685 -0.2165787,0.32134 -0.3238207,0.48276 -0.1000998,0.1447 -0.1639977,0.30862 -0.2313043,0.46993 -0.061933,0.14546 -0.1244438,0.29059 -0.180676,0.43836 -0.047618,0.10628 -0.076588,0.22121 -0.1352671,0.32225 -0.082293,0.10193 -0.2190491,0.15338 -0.3315269,0.20681 -0.024768,0.0118 -0.1295522,-0.0128 -0.157403,-0.0177 -0.1192594,-0.0277 -0.2352485,-0.0677 -0.3490804,-0.11242 -0.1544304,-0.0709 -0.3136739,-0.1283 -0.4774989,-0.17298 -0.1931482,-0.0528 -0.3914793,-0.0822 -0.5878665,-0.12 -0.229787,-0.0343 -0.4554694,-0.0892 -0.6822903,-0.13825 -0.1833235,-0.0429 -0.3685848,-0.0781 -0.5544915,-0.10782 -0.1086834,-0.0132 -0.2164164,-0.0331 -0.3221843,-0.0611 -0.06703,-0.0283 -0.1361185,-0.0476 -0.2081399,-0.0571 -0.056019,-0.0179 -0.1138028,-0.0238 -0.1652395,-0.0532 -0.00792,-0.008 -0.01831,-0.0151 -0.023751,-0.0254 -0.050439,-0.0948 -0.00622,-0.24728 0.017403,-0.34374 0.049203,-0.18061 0.1328013,-0.34922 0.2016345,-0.52276 0.033802,-0.089 0.066535,-0.17817 0.1021406,-0.26643 0,0 0.2680564,-0.12365 0.2680564,-0.12365 v 0 c -0.037093,0.0885 -0.072575,0.17737 -0.1055296,0.26753 -0.067858,0.17276 -0.1516397,0.34002 -0.2024707,0.51891 -0.01986,0.0781 -0.069371,0.23729 -0.027406,0.31461 0.00412,0.008 0.012719,0.0117 0.019078,0.0175 0.05024,0.0233 0.1060964,0.0306 0.1592421,0.0454 0.072151,0.0122 0.1408427,0.0347 0.2093254,0.0603 0.1043976,0.0276 0.2109969,0.0458 0.3178839,0.0608 0.1849433,0.0321 0.3694579,0.0676 0.5520426,0.1113 0.2265973,0.05 0.4527068,0.1023 0.6822985,0.13725 0.1975972,0.0369 0.3968924,0.0669 0.5908288,0.12092 0.1644362,0.0465 0.3244237,0.10499 0.4807718,0.17406 0.1134446,0.042 0.2279618,0.0828 0.3468409,0.10666 0.032019,0.005 0.073094,0.0125 0.1059029,0.0108 0.014732,-7.6e-4 0.055703,-0.0161 0.043569,-0.008 -0.3957966,0.27361 -0.2578783,0.1578 -0.1737241,0.0969 0.067854,-0.0952 0.090749,-0.21366 0.1409858,-0.31808 0.056234,-0.14812 0.1180002,-0.29388 0.1806395,-0.43941 0.068251,-0.1625 0.1309257,-0.32875 0.2304921,-0.47552 0.1059071,-0.16235 0.2248717,-0.3158 0.3247805,-0.48204 0.104797,-0.17129 0.2018268,-0.34733 0.283273,-0.53106 0.094822,-0.18851 0.1945444,-0.3746 0.2908929,-0.56233 0.106969,-0.21236 0.2295584,-0.41581 0.3442105,-0.62403 0.1119235,-0.19733 0.2105843,-0.40077 0.3070479,-0.60599 0.095484,-0.19762 0.1947151,-0.39342 0.2901373,-0.59108 0.016174,-0.0308 0.0772,-0.14818 0.095834,-0.17973 0.058728,-0.0995 0.1335548,-0.1882 0.1946257,-0.28613 0.096772,-0.1402 0.1938377,-0.28082 0.2670225,-0.43529 0.048262,-0.10934 0.099655,-0.21692 0.1110301,-0.3376 -0.026568,-0.0424 -0.1083429,-0.0163 -0.1490478,-0.0307 -0.077373,-0.01 -0.1543843,-0.0224 -0.2320541,-0.0297 -0.070157,-0.0132 -0.1367996,-0.038 -0.2061371,-0.0546 -0.110122,-0.0335 -0.2174621,-0.0764 -0.3165877,-0.1355 -0.1567495,-0.0829 -0.3097933,-0.17472 -0.4785966,-0.23193 -0.1897838,-0.0709 -0.3850016,-0.12401 -0.5759024,-0.19166 -0.1932247,-0.0738 -0.3814747,-0.15997 -0.567195,-0.25092 -0.1628979,-0.078 -0.3216391,-0.16398 -0.4813951,-0.24815 -0.1285822,-0.0746 -0.2524765,-0.15573 -0.3615639,-0.2576 -0.089831,-0.0768 -0.1713826,-0.16692 -0.2788328,-0.21961 -0.048499,-0.0205 -0.096192,-0.0398 -0.1491133,-0.0456 -0.1284465,-0.014 -0.2518368,0.0885 0.1237125,-0.13433 -0.050612,0.0398 -0.041521,0.10442 -0.053962,0.16254 -0.012648,0.0625 -0.015354,0.12632 -0.033313,0.18772 -0.034182,0.0872 -0.083992,0.16902 -0.1385171,0.2448 -0.097334,0.12574 -0.196365,0.25115 -0.2711854,0.39213 -0.075992,0.16374 -0.1256477,0.33766 -0.1840492,0.50817 -0.071897,0.19623 -0.1590501,0.38634 -0.2413175,0.57836 -0.084752,0.19241 -0.1709989,0.384 -0.2577547,0.57553 -0.091326,0.21442 -0.173941,0.43243 -0.2489613,0.65309 -0.082217,0.24765 -0.1742201,0.49156 -0.2661893,0.73574 -0.089504,0.24975 -0.1873512,0.49629 -0.2856069,0.74271 -0.095222,0.22867 -0.1911858,0.45707 -0.2794554,0.68855 -0.059969,0.18421 -0.1043047,0.37123 -0.1346376,0.56269 0,0 -0.2669316,0.12944 -0.2669316,0.12944 z"
       inkscape:connector-curvature="0" />
    <path
       style="fill:#000000;fill-opacity:1;stroke:none;stroke-width:0.26458332;stroke-opacity:1"
       id="path1849"
       d="m 2.6069643,294.02878 c 0.00849,-0.21281 -0.00165,-0.42546 -0.010451,-0.63806 -0.012792,-0.18106 -0.029051,-0.36183 -0.042125,-0.54287 0,0 0.2593329,-0.13427 0.2593329,-0.13427 v 0 c 0.010501,0.182 0.025588,0.36364 0.038533,0.54546 0.00925,0.21152 0.019688,0.4229 0.019807,0.63467 0,0 -0.2650967,0.13507 -0.2650969,0.13507 z"
       inkscape:connector-curvature="0" />
    <path
       style="fill:#000000;fill-opacity:1;stroke:none;stroke-width:0.26458332;stroke-opacity:1"
       id="path1851"
       d="m 3.2021174,294.1191 c -0.037615,-0.3108 -0.068222,-0.62234 -0.1025348,-0.93351 -0.031726,-0.37497 -0.082224,-0.74734 -0.1484347,-1.11763 0,0 0.2525432,-0.13415 0.2525432,-0.13415 v 0 c 0.061627,0.37217 0.1113824,0.74579 0.1441778,1.12174 0.035592,0.30848 0.066838,0.61756 0.1157666,0.92432 0,0 -0.2615181,0.13923 -0.2615181,0.13923 z"
       inkscape:connector-curvature="0" />
    <path
       style="fill:#000000;fill-opacity:1;stroke:none;stroke-width:0.26458332;stroke-opacity:1"
       id="path1853"
       d="m 3.7767953,294.35061 c 0.012814,-0.33139 -7.25e-5,-0.6624 -0.01991,-0.99319 -0.02214,-0.52201 -0.099338,-1.03884 -0.1897438,-1.55269 -0.057465,-0.32002 -0.1313686,-0.6368 -0.1934967,-0.95588 0,0 0.2592499,-0.13749 0.2592499,-0.13749 v 0 c 0.044121,0.32381 0.1252926,0.6416 0.1775547,0.96406 0.088801,0.5147 0.1670878,1.03202 0.1930244,1.55434 0.023013,0.32847 0.037508,0.65697 0.037365,0.98632 0,0 -0.264043,0.13453 -0.2640435,0.13453 z"
       inkscape:connector-curvature="0" />
    <path
       style="fill:#000000;fill-opacity:1;stroke:none;stroke-width:0.26458332;stroke-opacity:1"
       id="path1855"
       d="m 4.471717,294.31527 c -0.050226,-0.35934 -0.09639,-0.71921 -0.1434219,-1.07898 -0.064747,-0.50286 -0.1374407,-1.00471 -0.196547,-1.50828 -0.050846,-0.44784 -0.093491,-0.89663 -0.1263467,-1.34615 -0.00332,-0.0498 -0.00664,-0.0995 -0.00996,-0.14927 0,0 0.2539717,-0.13123 0.2539717,-0.13123 v 0 c 0.00238,0.0501 0.00478,0.10027 0.00718,0.15041 0.026803,0.45046 0.068272,0.89995 0.1191508,1.34832 0.058869,0.5033 0.1313612,1.00489 0.1975123,1.50728 0.048435,0.35707 0.095076,0.71467 0.1598462,1.06924 0,0 -0.2613795,0.13866 -0.2613793,0.13866 z"
       inkscape:connector-curvature="0" />
    <path
       style="fill:#000000;fill-opacity:1;stroke:none;stroke-width:0.26458332;stroke-opacity:1"
       id="path1857"
       d="m 5.0061383,294.02319 c -0.056716,-0.31873 -0.1009793,-0.6394 -0.1436177,-0.96026 -0.075385,-0.5718 -0.1473536,-1.14409 -0.2261309,-1.71543 -0.070557,-0.5263 -0.1567886,-1.05027 -0.2356016,-1.57533 -0.037551,-0.24432 -0.080023,-0.48792 -0.12475,-0.73102 0,0 0.2575311,-0.13664 0.2575311,-0.13664 v 0 c 0.03714,0.24597 0.078808,0.49123 0.1137068,0.73753 0.074642,0.52665 0.1576779,1.05211 0.2284926,1.57932 0.079103,0.57049 0.1516226,1.1419 0.2323343,1.71218 0.045319,0.31781 0.09068,0.63604 0.1596504,0.94978 0,0 -0.261615,0.13987 -0.261615,0.13987 z"
       inkscape:connector-curvature="0" />
    <path
       style="fill:#000000;fill-opacity:1;stroke:none;stroke-width:0.26458332;stroke-opacity:1"
       id="path1859"
       d="m 5.3437533,293.01127 c -0.026497,-0.35401 -0.076271,-0.70567 -0.1266222,-1.05691 -0.079264,-0.55936 -0.1621859,-1.11819 -0.2412111,-1.6776 -0.055962,-0.40383 -0.1211675,-0.80625 -0.1858902,-1.20874 0,0 0.2544236,-0.13443 0.2544236,-0.13443 v 0 c 0.056067,0.40554 0.117711,0.81029 0.1727171,1.21599 0.07763,0.55909 0.1605711,1.11737 0.2447706,1.67551 0.052694,0.34927 0.1029917,0.69882 0.1443635,1.04964 0,0 -0.2625513,0.13654 -0.2625513,0.13654 z"
       inkscape:connector-curvature="0" />
    <path
       style="fill:#000000;fill-opacity:1;stroke:none;stroke-width:0.26458332;stroke-opacity:1"
       id="path1861"
       d="m 6.0051134,292.31177 c -0.068264,-0.34085 -0.1279337,-0.68346 -0.1847209,-1.0264 -0.075098,-0.50631 -0.1510816,-1.01228 -0.2371008,-1.51687 -0.042447,-0.25391 -0.097864,-0.5055 -0.1590604,-0.75548 0,0 0.2510896,-0.13536 0.2510896,-0.13536 v 0 c 0.057424,0.25228 0.1110345,0.50566 0.1523516,0.76114 0.084155,0.50481 0.159281,1.01088 0.2375217,1.51661 0.058967,0.33989 0.1191403,0.68023 0.2001129,1.01566 0,0 -0.2601937,0.1407 -0.2601937,0.1407 z"
       inkscape:connector-curvature="0" />
    <path
       style="fill:#000000;fill-opacity:1;stroke:none;stroke-width:0.26458332;stroke-opacity:1"
       id="path1863"
       d="m 6.4459071,291.28664 c -0.012999,-0.26943 -0.049281,-0.53659 -0.086731,-0.80349 -0.047193,-0.32312 -0.1251698,-0.64015 -0.2148141,-0.95374 0,0 0.2486361,-0.13542 0.2486361,-0.13542 v 0 c 0.087693,0.3154 0.1651492,0.63375 0.2155949,0.95752 0.039644,0.26506 0.077618,0.53021 0.1005316,0.79733 0,0 -0.2632173,0.1378 -0.2632175,0.1378 z"
       inkscape:connector-curvature="0" />
    <path
       style="fill:#000000;fill-opacity:1;stroke:none;stroke-width:0.26458332;stroke-opacity:1"
       id="path1865"
       d="m 6.9810473,290.36366 c -0.011324,-0.26327 -0.060114,-0.52181 -0.1180528,-0.77814 0,0 0.2481841,-0.13355 0.2481841,-0.13355 v 0 c 0.058907,0.25602 0.1087523,0.51376 0.1318837,0.77582 0,0 -0.262015,0.13587 -0.262015,0.13587 z"
       inkscape:connector-curvature="0" />
    <path
       style="fill:#000000;fill-opacity:1;stroke:none;stroke-width:0.26458332;stroke-opacity:1"
       id="path1867"
       d="m 4.342289,289.77416 c 0.2129477,-0.18222 0.4326384,-0.3564 0.6508289,-0.53227 0.1238986,-0.10417 0.2528726,-0.20217 0.3868404,-0.29296 0,0 0.2717768,-0.10625 0.2717768,-0.10625 v 0 c -0.1374767,0.0891 -0.2687671,0.18751 -0.3941386,0.29298 -0.2155992,0.1733 -0.4325369,0.34526 -0.6412413,0.52686 0,0 -0.2740662,0.11164 -0.2740662,0.11164 z"
       inkscape:connector-curvature="0" />
    <path
       style="fill:#000000;fill-opacity:1;stroke:none;stroke-width:0.26458332;stroke-opacity:1"
       id="path1869"
       d="m 4.2125026,290.67543 c 0.2646339,-0.20822 0.5023268,-0.44823 0.7386003,-0.68743 0.1555046,-0.15757 0.2991718,-0.32663 0.4571984,-0.48167 0,0 0.270424,-0.11131 0.270424,-0.11131 v 0 c -0.1643899,0.15337 -0.3099641,0.32569 -0.4681559,0.48531 -0.2331193,0.23642 -0.466693,0.47424 -0.7237047,0.685 0,0 -0.2743621,0.1101 -0.2743621,0.1101 z"
       inkscape:connector-curvature="0" />
    <path
       style="fill:#000000;fill-opacity:1;stroke:none;stroke-width:0.26458332;stroke-opacity:1"
       id="path1871"
       d="m 3.8331065,291.68342 c 0.2110301,-0.19747 0.4033539,-0.41256 0.5925143,-0.63068 0.2670543,-0.32425 0.5503603,-0.63427 0.831968,-0.94574 0.1392899,-0.15066 0.2688458,-0.31007 0.4128849,-0.4563 0,0 0.2710059,-0.11202 0.2710059,-0.11202 v 0 c -0.1506649,0.14422 -0.281495,0.30708 -0.4239483,0.45915 -0.2825567,0.31081 -0.5675479,0.61958 -0.8329961,0.94541 -0.1849163,0.21588 -0.3724032,0.42919 -0.5772431,0.62661 0,0 -0.2741856,0.11357 -0.2741856,0.11357 z"
       inkscape:connector-curvature="0" />
    <path
       style="fill:#000000;fill-opacity:1;stroke:none;stroke-width:0.26458332;stroke-opacity:1"
       id="path1873"
       d="m 3.239322,293.05136 c 0.264363,-0.21661 0.5047009,-0.46097 0.7464322,-0.70207 0.3976341,-0.39079 0.7814344,-0.79486 1.1536196,-1.20986 0.2780064,-0.31346 0.5434724,-0.63765 0.8111003,-0.95991 0.026157,-0.0312 0.052315,-0.0623 0.078473,-0.0934 0,0 0.2656636,-0.11258 0.2656636,-0.11258 v 0 c -0.026972,0.0314 -0.053944,0.0629 -0.080916,0.0943 -0.2729871,0.32281 -0.5415757,0.64943 -0.8222671,0.96565 -0.3716612,0.41419 -0.7540453,0.81828 -1.1496225,1.20978 -0.2368642,0.23835 -0.4726712,0.47881 -0.727456,0.69823 0,0 -0.2750267,0.10993 -0.2750267,0.10993 z"
       inkscape:connector-curvature="0" />
    <path
       style="fill:#000000;fill-opacity:1;stroke:none;stroke-width:0.26458332;stroke-opacity:1"
       id="path1875"
       d="m 4.2433581,293.10504 c 0.2387772,-0.29298 0.4858289,-0.57895 0.7329664,-0.86487 0.3678121,-0.41976 0.7198686,-0.85287 1.0724409,-1.28539 0.1444049,-0.1807 0.2885618,-0.36168 0.436248,-0.53972 0,0 0.2658186,-0.11274 0.2658186,-0.11274 v 0 c -0.1533178,0.17853 -0.3014115,0.36156 -0.4491416,0.54472 -0.3538098,0.43126 -0.7053143,0.86454 -1.0712471,1.28565 -0.2424337,0.28229 -0.4863888,0.56345 -0.7156092,0.85672 0,0 -0.271476,0.11563 -0.271476,0.11563 z"
       inkscape:connector-curvature="0" />
    <path
       style="fill:#000000;fill-opacity:1;stroke:none;stroke-width:0.26458332;stroke-opacity:1"
       id="path1877"
       d="m 4.4560886,293.69733 c 0.3158802,-0.35699 0.6177235,-0.72625 0.9169411,-1.09723 0.2696612,-0.33513 0.5420542,-0.66792 0.8275698,-0.98969 0.031214,-0.0319 0.062429,-0.0639 0.093643,-0.0958 0,0 0.2654803,-0.11005 0.2654803,-0.11005 v 0 c -0.032164,0.0318 -0.064327,0.0635 -0.096491,0.0953 -0.2903672,0.32197 -0.5669724,0.65565 -0.8391935,0.99306 -0.2955544,0.36646 -0.594342,0.73031 -0.8970531,1.09088 0,0 -0.2708966,0.11348 -0.2708966,0.11348 z"
       inkscape:connector-curvature="0" />
    <path
       style="fill:#000000;fill-opacity:1;stroke:none;stroke-width:0.26458332;stroke-opacity:1"
       id="path1879"
       d="m 4.919577,294.00216 c 0.2657366,-0.26875 0.5043622,-0.56212 0.736574,-0.85978 0.1272313,-0.16407 0.2518151,-0.33018 0.3811807,-0.49257 0,0 0.2651263,-0.11314 0.2651263,-0.11314 v 0 c -0.1327677,0.16247 -0.2593062,0.32989 -0.3885208,0.49519 -0.2296734,0.29479 -0.465319,0.58548 -0.7229895,0.85651 0,0 -0.2713707,0.11379 -0.2713707,0.11379 z"
       inkscape:connector-curvature="0" />
    <path
       style="fill:#000000;fill-opacity:1;stroke:none;stroke-width:0.26458332;stroke-opacity:1"
       id="path1881"
       d="m 4.4537629,294.55274 c 0.2835434,-0.16075 0.5526493,-0.34566 0.8183401,-0.53403 0,0 0.2637198,-0.10409 0.2637198,-0.10409 v 0 c -0.2624296,0.18665 -0.528089,0.37003 -0.8065119,0.53221 0,0 -0.275548,0.10591 -0.275548,0.10591 z"
       inkscape:connector-curvature="0" />
  </g>
</svg>
