<?xml version="1.0" encoding="UTF-8" standalone="no"?>
<!-- Created with Inkscape (http://www.inkscape.org/) -->

<svg
   xmlns:dc="http://purl.org/dc/elements/1.1/"
   xmlns:cc="http://creativecommons.org/ns#"
   xmlns:rdf="http://www.w3.org/1999/02/22-rdf-syntax-ns#"
   xmlns:svg="http://www.w3.org/2000/svg"
   xmlns="http://www.w3.org/2000/svg"
   xmlns:sodipodi="http://sodipodi.sourceforge.net/DTD/sodipodi-0.dtd"
   xmlns:inkscape="http://www.inkscape.org/namespaces/inkscape"
   width="10mm"
   height="10mm"
   viewBox="0 0 10 10"
   version="1.1"
   id="svg8"
   inkscape:version="0.92.4 (5da689c313, 2019-01-14)"
   sodipodi:docname="focus.svg">
  <defs
     id="defs2" />
  <sodipodi:namedview
     id="base"
     pagecolor="#ffffff"
     bordercolor="#666666"
     borderopacity="1.0"
     inkscape:pageopacity="0.0"
     inkscape:pageshadow="2"
     inkscape:zoom="7.9195959"
     inkscape:cx="14.946577"
     inkscape:cy="40.62227"
     inkscape:document-units="mm"
     inkscape:current-layer="layer1"
     showgrid="false"
     inkscape:window-width="1920"
     inkscape:window-height="1017"
     inkscape:window-x="-8"
     inkscape:window-y="-8"
     inkscape:window-maximized="1" />
  <metadata
     id="metadata5">
    <rdf:RDF>
      <cc:Work
         rdf:about="">
        <dc:format>image/svg+xml</dc:format>
        <dc:type
           rdf:resource="http://purl.org/dc/dcmitype/StillImage" />
        <dc:title></dc:title>
      </cc:Work>
    </rdf:RDF>
  </metadata>
  <g
     inkscape:label="Layer 1"
     inkscape:groupmode="layer"
     id="layer1"
     transform="translate(0,-287)">
    <path
       style="fill:#000000;fill-opacity:1;stroke:none;stroke-width:0.3407881;stroke-opacity:1"
       id="path819"
       d="m 0.49643606,290.20408 c -9.8263e-4,0.11726 -6.0133e-4,0.23443 -4.3352e-4,0.35163 1.0995e-4,0.0942 3.3464e-4,0.18823 1.4852e-4,0.28234 -7.252e-5,0.10313 -1.5205e-4,0.20618 -6.905e-5,0.30925 0.002532,0.0826 -0.007997,0.16421 -0.006364,0.24683 -0.0154861,0.057 -0.005155,0.11463 -0.008448,0.17217 -0.0143046,0.0696 -0.0265189,0.0713 -0.17029769,0.0706 -0.003073,-1e-5 -0.009046,-0.14789 -0.009474,-0.15924 -0.004186,-0.12829 -0.004263,-0.25666 -0.004429,-0.38501 -1.6946e-4,-0.11061 -2.8919e-4,-0.22115 -3.4959e-4,-0.33171 0.001544,-0.0763 -0.0121707,-0.15169 -0.0248908,-0.22679 -0.0131062,-0.0796 -0.0161711,-0.16007 -0.0182533,-0.24041 -0.002643,-0.0851 0.0191457,-0.1684 0.0302522,-0.25238 0.009688,-0.0794 0.0156928,-0.15856 7.6911e-4,-0.23757 -0.0280357,-0.14842 -0.0648957,-0.0926 0.12607002,-0.14697 -0.004765,0.10713 -0.003834,0.21423 -0.003515,0.32136 1.1605e-4,0.10074 4.7194e-4,0.20127 6.6073e-4,0.30192 0.001874,0.0877 -0.0199918,0.17361 -0.0313377,0.26022 -0.0103073,0.0871 -0.0116131,0.17496 -0.0126569,0.26258 0.0148307,0.11463 0.0246632,0.22985 0.0401523,0.34436 0.0228359,0.1315 0.035179,0.26414 0.0427451,0.39712 0.0173342,0.11589 0.0331734,0.23181 0.0413112,0.3487 0.004743,0.12814 0.0265943,0.25495 0.0398414,0.38243 0.0181735,0.0922 0.0379693,0.18371 0.0483288,0.27703 0.007839,0.0838 0.008278,0.16794 0.008732,0.25195 -2.28e-5,0.10162 -3.8108e-4,0.20317 -4.5098e-4,0.30476 -0.001025,0.10519 -0.003869,0.20987 0.0119514,0.31422 0.0180495,0.0927 0.0249316,0.18674 0.0291042,0.28085 0.003314,0.0926 0.003486,0.18543 0.003353,0.27815 -1.3917e-4,0.11563 -5.4537e-4,0.23125 -5.9432e-4,0.34688 0.009154,0.12117 0.0268838,0.24132 0.0359579,0.36247 0.005927,0.10874 0.003804,0.21721 0.0206186,0.32512 0.0163976,0.0868 0.0247475,0.17442 0.0292257,0.26237 0.009072,0.0934 -0.0103052,0.18556 -0.0230054,0.27778 -0.0120847,0.0885 -0.0155617,0.17766 -0.0175205,0.26675 -0.0013,0.0841 -0.001038,0.16819 -9.509e-4,0.2523 -0.0104282,0.0844 -0.0269673,0.16761 -0.0355642,0.25218 -0.009172,0.0838 -0.003341,0.16829 -0.0133186,0.25188 0.005849,0.0457 -0.0392917,0.11011 0.004599,0.14384 0.0955597,0.0215 0.20436636,-0.003 0.29938608,-0.0229 0.10998003,-0.0209 0.22244353,-0.0395 0.33483163,-0.0328 0.1149879,0.008 0.2271788,0.0303 0.3404334,0.0485 0.1566376,0.0217 0.3152523,0.0238 0.4732272,0.0264 0.1785954,-0.009 0.3566171,-0.025 0.5352467,-0.0334 0.1816175,0.003 0.3626719,0.0172 0.5427695,0.0394 0.1596928,0.0181 0.3198755,0.0276 0.4774623,0.0594 0.1262638,0.029 0.2543503,0.0471 0.3837898,0.0557 0.1161465,0.007 0.2325326,0.007 0.3488164,0.007 0.118858,-8e-5 0.2377163,-3.7e-4 0.3565746,-5e-4 0.1016476,-1.5e-4 0.2032956,-2.3e-4 0.3049434,-2.8e-4 0.1100236,1.4e-4 0.2200468,1.6e-4 0.3300702,1.2e-4 0.1086018,9e-5 0.2172036,-2e-5 0.325805,-8e-5 0.09252,-0.002 0.1834114,-0.001 0.2746636,0.013 0.074606,0.006 0.1486594,-0.0113 0.2228936,-0.002 0.064718,0.0217 0.130121,0.002 0.1957811,0.006 0.080566,0.0156 0.161115,0.002 0.2417667,-0.005 0.088006,-0.008 0.1764277,-0.01 0.2647794,-0.0112 0.1205255,-0.003 0.2402768,-0.0214 0.3604622,-0.0315 0.084408,-0.0186 0.179805,0.0211 0.2551547,-0.025 -0.041123,0.0167 -0.078711,0.0483 -0.1233677,0.05 -0.017693,6.9e-4 0.015858,-0.0302 0.021888,-0.046 0.02857,-0.075 0.036778,-0.15582 0.045092,-0.23452 0.00287,-0.10767 0.013477,-0.2142 0.028003,-0.32105 0.015571,-0.11212 0.019728,-0.22511 0.022293,-0.33803 -0.00329,-0.13151 0.016613,-0.26186 0.028283,-0.39261 0.01483,-0.19469 0.016144,-0.38999 0.017857,-0.58509 0.014268,-0.24376 -0.014494,-0.48497 -0.045317,-0.72634 -0.022038,-0.21787 -0.048908,-0.43521 -0.066667,-0.65348 -0.015019,-0.20755 -0.018298,-0.41561 -0.020092,-0.6236 -8.391e-4,-0.21501 -2.553e-4,-0.43004 -1.874e-4,-0.64507 -0.00794,-0.17601 0.010501,-0.35093 0.025821,-0.52603 0.012169,-0.14144 0.01526,-0.28333 0.017127,-0.42518 -0.00427,-0.14037 0.00435,-0.27953 0.020301,-0.41898 0.0093,-0.10096 0.038139,-0.19878 0.053905,-0.29885 0.01176,-0.0833 0.013222,-0.16762 0.01426,-0.25163 0.00273,-0.0743 -0.020409,-0.14632 -0.031465,-0.21943 -0.0065,-0.0848 -0.022675,-0.16879 -0.043477,-0.25152 -0.021599,-0.0965 -0.067531,-0.18561 -0.1027431,-0.27791 -0.034838,-0.0584 -0.044272,-0.13677 -0.1071472,-0.17492 -0.062768,-0.0134 -0.1298012,0.0113 -0.1886373,0.032 -0.095526,0.0345 -0.1972963,0.0479 -0.2975103,0.0643 -0.1166422,0.0193 -0.2346194,0.0283 -0.3527753,0.0329 -0.092776,-0.003 -0.1829005,0.0161 -0.2740703,0.0287 -0.08776,0.0112 -0.1763677,0.0135 -0.26479,0.0149 -0.1044154,8.2e-4 -0.2088375,5.3e-4 -0.3132562,4.3e-4 -0.1094661,-8e-5 -0.2189319,-1.8e-4 -0.3283981,-1.6e-4 -0.095689,-7.7e-4 -0.1896435,0.0209 -0.2844848,0.0313 -0.088552,0.006 -0.1780859,0.0157 -0.2664909,0.005 -0.087955,-0.002 -0.175967,10e-4 -0.2639053,0.003 -0.088302,10e-4 -0.1766248,0.002 -0.2649437,0.002 -0.088859,7.1e-4 -0.1760396,0.0214 -0.2642463,0.0313 -0.088171,0.009 -0.1768793,0.01 -0.2654381,0.0112 -0.096378,0.007 -0.1905108,-0.006 -0.285486,-0.02 -0.1186163,-0.0125 -0.237179,-0.0177 -0.3553559,-0.0338 -0.1285723,-0.024 -0.2564482,-0.0187 -0.3858785,-0.009 -0.1228364,-0.002 -0.2466669,-0.006 -0.368462,-0.022 -0.1066384,-0.0181 -0.2139658,-0.0307 -0.3220341,-0.0374 -0.091634,-0.005 -0.1834274,-0.005 -0.2751595,-0.005 -0.099166,0.002 -0.1991288,-0.006 -0.2976529,0.007 -0.089393,0.0163 -0.1795323,0.0265 -0.2702888,0.032 -0.0882562,0.003 -0.17666119,0.005 -0.2650108,0.005 -0.0893527,-0.006 -0.17622372,0.0139 -0.26400722,0.026 -0.0755482,0.0128 -0.15468246,0.0268 -0.2267832,0.0527 -0.0632861,0.0112 -0.17056432,0.0752 0.0907757,-0.0532 0,0 -0.16016703,0.0684 -0.16016703,0.0684 v 0 c 0.0933961,-0.0608 0.12042706,-0.0978 0.20738662,-0.11727 0.0743286,-0.0221 0.15129711,-0.0399 0.22839365,-0.0501 0.0881538,-0.0127 0.17576524,-0.0303 0.26552997,-0.0241 0.088125,-2.4e-4 0.17631951,-4.2e-4 0.26432021,-0.005 0.090542,-0.006 0.1802414,-0.018 0.2697149,-0.0325 0.099228,-0.009 0.1991872,-0.002 0.2987555,-0.005 0.091984,8e-5 0.1840397,2.6e-4 0.2758892,0.005 0.1081012,0.008 0.2153308,0.0213 0.3221627,0.0386 0.1212219,0.0143 0.2440545,0.019 0.3661343,0.0192 0.130249,-0.01 0.259026,-0.0113 0.3882569,0.0113 0.1183069,0.0156 0.2372631,0.0197 0.3557842,0.0335 0.094493,0.0129 0.1884735,0.0236 0.2842171,0.0175 0.0882,-10e-4 0.1765606,-0.002 0.2642861,-0.0126 0.088384,-0.01 0.1760567,-0.031 0.265482,-0.0298 0.088248,-3e-4 0.1765019,-7.7e-4 0.2647292,-0.002 0.088366,-0.002 0.1769219,-0.006 0.2652455,-10e-4 0.087913,0.008 0.1764223,-2.9e-4 0.2641193,-0.008 0.09495,-0.0112 0.1893325,-0.0319 0.285422,-0.0295 0.1094368,9e-5 0.2188727,8e-5 0.328309,2.3e-4 0.1044985,7e-5 0.2090051,3.8e-4 0.3134958,-9.8e-4 0.088012,-0.001 0.176195,-0.005 0.2634355,-0.0166 0.091312,-0.0131 0.181993,-0.0305 0.2749286,-0.0269 0.1175276,-0.005 0.2348509,-0.0144 0.3507963,-0.0342 0.1001832,-0.0168 0.2014438,-0.0317 0.2967638,-0.067 0.063346,-0.0196 0.1340143,-0.0464 0.1988481,-0.0196 0.062174,0.0455 0.077202,0.12015 0.1116133,0.18415 0.035007,0.0931 0.081562,0.18239 0.103503,0.27953 0.021651,0.083 0.038596,0.16733 0.044843,0.25268 0.010848,0.0738 0.034557,0.14671 0.032474,0.22177 -9.088e-4,0.0846 -0.0021,0.16956 -0.013327,0.25367 -0.015177,0.10035 -0.04452,0.19792 -0.055037,0.29874 -0.016542,0.13899 -0.026496,0.27761 -0.021318,0.41766 -0.00171,0.14222 -0.00478,0.2845 -0.016858,0.42635 -0.015443,0.17494 -0.035772,0.3496 -0.027922,0.52555 -2.831e-4,0.2149 -5.943e-4,0.42982 5.245e-4,0.64473 0.00158,0.20771 0.00433,0.41555 0.019026,0.62286 0.017358,0.21809 0.045024,0.43515 0.066261,0.65288 0.030234,0.24203 0.05977,0.48382 0.046277,0.7282 -0.00122,0.19517 -0.00189,0.39054 -0.015596,0.58538 -0.011138,0.13037 -0.031104,0.26027 -0.028018,0.39134 -0.00245,0.11338 -0.00585,0.22693 -0.021329,0.33953 -0.014103,0.1068 -0.026594,0.21289 -0.028334,0.32069 -0.00519,0.0512 -0.026503,0.25579 -0.062672,0.2875 -0.05258,0.0461 -0.1153406,0.0805 -0.1730102,0.12078 -0.081628,0.0322 -0.1725416,10e-4 -0.2581931,0.019 -0.1205915,0.01 -0.2407704,0.028 -0.3618301,0.0311 -0.088097,0.001 -0.1762484,0.003 -0.2639582,0.0125 -0.081306,0.008 -0.1622623,0.0174 -0.2435868,0.003 -0.065918,-6.3e-4 -0.1312717,0.0113 -0.1962731,-0.008 -0.074415,-0.005 -0.1487743,0.01 -0.2232046,0.001 -0.090582,-0.0135 -0.1812854,-0.0113 -0.2728381,-0.0113 -0.1085319,-6e-5 -0.2170639,-1.6e-4 -0.3255959,-7e-5 -0.1101308,-6e-5 -0.2202611,-4e-5 -0.3303919,10e-5 -0.1014941,-10e-6 -0.2029895,-6e-5 -0.304484,-10e-6 -0.1188528,1.1e-4 -0.2377069,3.2e-4 -0.35656,4.6e-4 -0.1165366,-1.4e-4 -0.2332016,1.9e-4 -0.349559,-0.006 -0.129718,-0.01 -0.2578588,-0.0292 -0.384501,-0.0579 -0.1573354,-0.0304 -0.317091,-0.04 -0.4762213,-0.0588 -0.179444,-0.0221 -0.3601014,-0.0346 -0.541082,-0.0369 -0.1786891,0.009 -0.3568194,0.0252 -0.53559,0.0322 -0.1589015,-0.002 -0.3184718,-0.005 -0.4759113,-0.0276 -0.1128155,-0.0185 -0.2249898,-0.0406 -0.3396391,-0.0465 -0.1117017,-0.003 -0.22279819,0.0145 -0.33192722,0.0359 -0.0969662,0.0184 -0.21608828,0.0479 -0.31025985,0.0112 -0.048232,-0.0465 -0.0118272,-0.10025 -0.0116857,-0.15812 0.012106,-0.0832 0.004244,-0.16778 0.013555,-0.25143 0.008056,-0.0841 0.0231215,-0.16722 0.0362965,-0.25078 -9.501e-5,-0.0843 -3.6008e-4,-0.16841 8.2159e-4,-0.25261 0.001821,-0.0896 0.005048,-0.17941 0.0169268,-0.26848 0.0124256,-0.0914 0.0327117,-0.18252 0.0240999,-0.27506 -0.004114,-0.0875 -0.0118641,-0.17472 -0.0281185,-0.26102 -0.0171754,-0.10835 -0.0155861,-0.2171 -0.0208873,-0.32646 -0.008689,-0.12153 -0.025775,-0.24223 -0.0361984,-0.36365 6.493e-5,-0.1155 -1.2375e-4,-0.23102 -9.843e-5,-0.34653 -2.0952e-4,-0.0925 8.574e-5,-0.18507 -0.002987,-0.27757 -0.003886,-0.0935 -0.010556,-0.18701 -0.0283225,-0.27929 -0.016316,-0.10517 -0.014206,-0.21032 -0.0128988,-0.31648 1.5691e-4,-0.1014 2.8259e-4,-0.20294 -9.2e-7,-0.30441 -3.6357e-4,-0.0835 -6.3627e-4,-0.16723 -0.0079,-0.25056 -0.009812,-0.0935 -0.0290446,-0.18524 -0.0478085,-0.27741 -0.0125538,-0.12775 -0.0342444,-0.25473 -0.0398469,-0.38298 -0.008028,-0.11702 -0.0233597,-0.23297 -0.0414305,-0.34891 -0.006874,-0.13265 -0.0187678,-0.26499 -0.0417603,-0.39611 -0.0164945,-0.11501 -0.025517,-0.23096 -0.0421642,-0.346 7.8311e-4,-0.0882 0.001532,-0.17639 0.0115008,-0.26409 0.0108136,-0.0861 0.0330162,-0.17154 0.0324726,-0.25851 -2.503e-5,-0.10074 -6.079e-5,-0.20133 -4.9293e-4,-0.30198 -1.1397e-4,-0.10735 -4.8245e-4,-0.21479 0.002641,-0.32215 0.19342229,-0.15812 0.1495766,-0.16688 0.18416238,-0.005 0.0158896,0.0806 0.0113157,0.16093 0.001353,0.24223 -0.0105429,0.0833 -0.0324763,0.16606 -0.0313563,0.25017 0.001901,0.0796 0.004617,0.15947 0.0173432,0.23834 0.0128433,0.076 0.0273937,0.15211 0.0257385,0.22935 -2.034e-4,0.11074 -5.6983e-4,0.2214 -5.4887e-4,0.33211 2.7824e-4,0.12812 3.566e-4,0.25628 0.004414,0.38434 0.001374,0.0333 0.0162185,0.15063 0.009906,0.15658 -0.0438364,0.0413 -0.10335364,0.0642 -0.15402397,0.0977 -0.005753,0.003 0.0494754,-0.01 0.0127283,-0.0159 0.007085,-0.0566 -0.0107317,-0.11476 0.009765,-0.17083 -0.002088,-0.083 0.008517,-0.16444 0.006835,-0.24745 8.291e-5,-0.10312 3.59e-6,-0.20612 -6.905e-5,-0.30917 -1.8655e-4,-0.0942 3.914e-5,-0.18833 1.4853e-4,-0.28249 1.6765e-4,-0.11701 5.5236e-4,-0.23415 -4.3349e-4,-0.35122 0,0 0.1557617,-0.0754 0.1557617,-0.0754 z"
       inkscape:connector-curvature="0" />
    <path
       style="fill:#000000;fill-opacity:1;stroke:none;stroke-width:0.3407881;stroke-opacity:1"
       id="path823"
       d="m 7.5596112,288.82912 c 0.08326,-0.0727 0.1764795,-0.13296 0.2698066,-0.19283 0.083921,-0.0537 0.1727464,-0.0988 0.2601251,-0.1474 0.036705,-0.0205 -0.1479307,0.0797 -0.1106698,0.0603 0.06345,-0.0331 0.1263221,-0.0673 0.1892457,-0.10129 0.037739,-0.0204 -0.075793,0.0403 -0.1136904,0.0605 0.083068,-0.0511 0.1718477,-0.0937 0.2556921,-0.14332 0.037536,-0.0222 -0.076814,0.0418 -0.1162208,0.0609 -0.022173,0.0113 0.041137,-0.0267 0.060852,-0.0412 0.052112,-0.0377 0.1004184,-0.0802 0.1462787,-0.12468 0.045841,-0.0584 0.096306,-0.11086 0.1522008,-0.1607 0.054573,-0.0434 0.1054624,-0.0905 0.1598994,-0.13409 0.059891,-0.0394 0.115819,-0.0837 0.1732522,-0.12606 0.072612,-0.0538 0.1355627,-0.11789 0.202577,-0.17767 0.063348,-0.0512 0.1284309,-0.10086 0.1889236,-0.15517 0.085527,-0.0859 0.1864774,-0.13474 0.2949929,-0.19501 0.00266,-8.9e-4 0.00771,-0.005 0.008,-0.002 0.00469,0.0457 -0.065969,0.0757 -0.098113,0.10334 -0.049546,0.0506 -0.093507,0.10627 -0.1391733,0.16013 -0.038839,0.0516 -0.070125,0.10714 -0.1027325,0.16224 -0.025521,0.0567 -0.059311,0.10936 -0.100465,0.15701 -0.039774,0.0457 -0.083353,0.0887 -0.1283027,0.1301 -0.049607,0.0523 -0.1095692,0.0938 -0.1666236,0.13812 -0.063064,0.0524 -0.1242475,0.10692 -0.1926954,0.15301 -0.074871,0.0591 -0.1611178,0.0958 -0.2450807,0.14433 -0.039074,0.0226 0.07951,-0.0432 0.1196601,-0.0637 0.019791,-0.01 -0.038155,0.0228 -0.056506,0.0353 -0.059459,0.0405 -0.1198068,0.0794 -0.1797165,0.11915 -0.062926,0.0369 -0.1233108,0.0777 -0.1785864,0.12442 -0.047823,0.0398 -0.093843,0.0819 -0.1379853,0.12531 -0.044067,0.0418 -0.088935,0.0831 -0.1320593,0.12582 -0.056835,0.0602 -0.1116727,0.12193 -0.1648291,0.18498 -0.044903,0.0602 -0.083684,0.12405 -0.1265771,0.18536 -0.051705,0.0787 -0.064202,0.0878 -0.1924034,0.11451 -0.016686,0.003 0.026605,-0.0203 0.039598,-0.0308 0.01746,-0.0142 0.034498,-0.0288 0.051748,-0.0432 0.1125355,-0.0879 0.2090737,-0.191 0.3097732,-0.29032 0.07227,-0.0765 0.143465,-0.15374 0.2173912,-0.22876 0.074549,-0.0754 0.1502793,-0.14998 0.2227104,-0.22726 0.057876,-0.0622 0.1303945,-0.10872 0.1887074,-0.17041 0.06904,-0.0713 0.1303468,-0.14909 0.2023693,-0.21799 0.064973,-0.0604 0.1265732,-0.12392 0.1950738,-0.18072 0.079553,-0.0597 0.1476658,-0.13089 0.2092886,-0.20703 0.051458,-0.0611 0.1012507,-0.12354 0.1605156,-0.17818 0.053982,-0.0392 0.1091832,-0.0764 0.1607872,-0.11828 0.049675,0.001 -0.1268861,0.083 -0.095932,0.0649 0.025017,-0.0145 0.098315,-0.0603 0.076491,-0.0415 -0.02293,0.0196 -0.053777,0.0289 -0.079891,0.0446 -0.027125,0.0162 -0.05316,0.034 -0.07974,0.0511 -0.1331035,0.0899 -0.2527601,0.19577 -0.3698556,0.30349 -0.09906,0.0933 -0.185192,0.19713 -0.2850835,0.28975 -0.090452,0.0853 -0.1883916,0.16277 -0.2915974,0.23357 -0.096204,0.0611 -0.1870294,0.12912 -0.2685855,0.20713 -0.089164,0.0876 -0.1674577,0.18384 -0.233554,0.2881 -0.050646,0.0754 -0.099092,0.15303 -0.1607802,0.22102 -0.044057,0.0507 -0.09278,0.0963 -0.1496247,0.13377 -0.00456,-0.0318 -0.00979,0.0164 -0.011813,0.0113 -0.025035,-0.0614 0.044797,-0.0156 -0.1128117,0.0273 -0.021441,0.006 0.036684,-0.0241 0.055167,-0.036 0.019827,-0.0127 0.039841,-0.0252 0.059761,-0.0378 0.1381447,-0.0785 0.2654372,-0.1727 0.3837905,-0.27605 0.1141066,-0.11037 0.2350303,-0.21402 0.3597935,-0.31337 0.1516868,-0.10799 0.2963496,-0.22328 0.4299259,-0.35105 0.049478,-0.0525 0.1048873,-0.0993 0.1556645,-0.15064 0.00805,-0.008 0.011772,-0.0248 0.023521,-0.025 0.00865,-1.7e-4 -0.00171,0.0163 -0.00258,0.0245 0.037789,-0.0175 0.075576,-0.0352 0.1133639,-0.0527 -0.1427632,0.1179 -0.2904151,0.23025 -0.4332009,0.34814 -0.1600852,0.12128 -0.2981469,0.26556 -0.4553514,0.38989 -0.1042472,0.0752 -0.2093296,0.16639 -0.3452589,0.18475 -0.018329,0.002 0.027265,-0.0238 0.040899,-0.0356 0.1069714,-0.093 0.2153691,-0.1855 0.3151759,-0.28549 0.005,0.0413 -0.184858,0.10248 0.093803,-0.0304 0.022934,-0.0112 -0.041617,0.0298 -0.065706,0.0381 -0.048246,0.0168 -0.097697,0.0304 -0.1465458,0.0454 0.1235882,-0.0966 0.2599751,-0.17735 0.388994,-0.26734 0.066341,-0.0431 0.1088371,-0.0706 0.2016913,-0.0832 0.017198,-0.002 -0.026761,0.0211 -0.040558,0.0312 -0.1979235,0.1439 0.098281,-0.0754 -0.099047,0.0711 -0.083827,0.0641 -0.1363194,0.10507 -0.2515101,0.12948 -0.01573,0.003 0.025633,-0.0186 0.038203,-0.0281 0.016663,-0.0127 0.032988,-0.0258 0.049484,-0.0386 0.07283,-0.0538 0.1447245,-0.10874 0.2168093,-0.16336 0.2582595,-0.1392 0.078664,0.0213 0.01711,0.0451 -0.050697,0.0196 -0.1004407,0.0467 -0.1549147,0.0515 -0.018179,10e-4 0.022649,-0.0273 0.033977,-0.0408 0.1218969,-0.13495 0.2730729,-0.24053 0.419255,-0.34983 0.013029,-0.009 0.065492,-0.0447 0.083101,-0.0579 0.00343,-0.002 0.010941,-0.0125 0.00966,-0.009 -0.00369,0.0113 -0.029503,0.0345 -0.017218,0.0319 0.05076,-0.0113 0.1764081,-0.10432 0.036887,-0.005 -0.062413,0.0444 -0.1202506,0.0938 -0.1767449,0.14474 -0.018771,0.017 -0.03314,0.0407 -0.057123,0.05 -0.046029,0.0177 -0.09418,0.03 -0.1412701,0.0449 0.1547347,-0.12916 0.3242945,-0.24126 0.488466,-0.35921 0.093746,-0.0625 0.170721,-0.12955 0.2892628,-0.14964 0.021691,-0.003 -0.036888,0.0229 -0.054912,0.0351 -0.025681,0.0172 -0.050786,0.0351 -0.076179,0.0526 -0.161165,0.11337 -0.3090376,0.24233 -0.4645062,0.36247 -0.08114,0.0588 -0.1386502,0.0956 -0.2472431,0.114 -0.023326,0.003 0.036035,-0.0292 0.05351,-0.0445 0.042898,-0.0127 0.083835,-0.0359 0.1286965,-0.0379 0.019395,-8.9e-4 -0.030704,0.0226 -0.045897,0.0342 -0.071612,0.0542 -0.1397889,0.11212 -0.2108922,0.16687 -0.076425,0.0531 -0.1304815,0.12821 -0.2018934,0.18623 -0.059184,0.0501 -0.1152878,0.0915 -0.2067893,0.0874 -0.020305,-9.4e-4 0.028349,-0.0277 0.042888,-0.0412 0.01748,-0.0162 0.03544,-0.032 0.05316,-0.0479 0.1012761,-0.0924 0.2118144,-0.17526 0.3257649,-0.25306 0.085703,-0.0489 0.162578,-0.11024 0.2375165,-0.1727 0.069249,-0.0688 0.1422354,-0.13293 0.2186318,-0.19442 0.080149,-0.0624 0.1528977,-0.1326 0.2203966,-0.20714 0.055941,-0.0619 0.1170133,-0.11966 0.1797327,-0.17538 0.048518,-0.0477 0.099803,-0.0924 0.1525721,-0.13587 0.040448,-0.0297 0.081001,-0.0594 0.1201105,-0.0907 0,0 0.1622535,-0.0627 0.1622535,-0.0627 v 0 c -0.038082,0.0326 -0.079384,0.0619 -0.1205334,0.0908 -0.052616,0.0436 -0.1054639,0.0865 -0.1525519,0.1355 -0.064402,0.0537 -0.1237139,0.11324 -0.1810238,0.17357 -0.067131,0.0754 -0.1393086,0.14675 -0.2196083,0.20973 -0.076281,0.0614 -0.1511776,0.1233 -0.2184773,0.19382 -0.073577,0.0643 -0.1516749,0.12575 -0.2375043,0.17469 -0.1141778,0.0774 -0.2258538,0.15872 -0.3271737,0.25115 -0.017581,0.0158 -0.035274,0.0315 -0.052747,0.0475 -0.01426,0.013 -0.02544,0.0298 -0.042447,0.0393 -0.3447125,0.19351 -0.180691,0.0933 -0.1164903,0.0395 0.075624,-0.0542 0.1262681,-0.13341 0.2033076,-0.18683 0.1458179,-0.1096 0.2645701,-0.23536 0.4509837,-0.28759 -0.074023,0.0682 -0.118036,0.0742 -0.2362092,0.12392 -0.00646,0.002 0.012381,-0.006 0.018274,-0.01 0.030213,-0.019 0.058462,-0.041 0.08948,-0.0589 0.1561139,-0.11978 0.304439,-0.24846 0.4647151,-0.36338 0.042099,-0.0297 0.080214,-0.0659 0.127452,-0.0876 0.3138453,-0.14363 0.1868359,-0.0713 0.1059949,-0.018 -0.023986,0.0159 -0.048207,0.0314 -0.072312,0.0471 -0.1630266,0.11727 -0.3321556,0.22803 -0.4854629,0.3567 -0.2606399,0.11414 -0.2257761,0.1169 -0.1617224,0.0633 0.071329,-0.0597 0.1361375,-0.1265 0.2138753,-0.17936 0.077443,-0.0565 0.2161861,-0.20133 0.3031084,-0.15194 0.00499,0.002 -0.095986,0.0697 -0.094555,0.0701 -0.1452307,0.1091 -0.2978049,0.21192 -0.4193145,0.34626 -0.073444,0.0767 -0.029517,0.0397 -0.2020977,0.11463 -0.010902,0.005 0.020213,-0.0125 0.029971,-0.0188 0.093873,-0.0635 0.1480359,-0.12053 0.2786198,-0.14969 -0.067971,0.0596 -0.1486991,0.10682 -0.2187884,0.16443 -0.093752,0.0747 -0.1249452,0.091 -0.2638792,0.13987 -0.00875,0.002 0.01409,-0.0113 0.021235,-0.0173 0.046021,-0.0367 0.030876,-0.0248 0.084386,-0.0621 0.1232302,-0.0939 0.1556231,-0.11425 0.3223393,-0.1797 0.022837,-0.009 -0.1149985,0.0659 -0.062105,0.0384 -0.1278734,0.09 -0.2626386,0.1709 -0.3883656,0.26365 -0.2105321,0.0928 -0.2319465,0.10861 -0.1523732,0.0642 0.076535,-0.0426 0.1498414,-0.0909 0.2284806,-0.13005 0.032485,-0.0162 0.031971,-0.005 0.041543,0.0132 -0.098323,0.10161 -0.2096815,0.19217 -0.3151241,0.28693 -0.083176,0.0711 -0.037779,0.0392 -0.2142324,0.10823 -0.010034,0.003 0.018414,-0.0113 0.027391,-0.017 0.057891,-0.0374 0.1163594,-0.0743 0.1703393,-0.11677 0.1589723,-0.12279 0.295886,-0.26837 0.4562666,-0.38973 0.1417373,-0.11778 0.2890054,-0.22926 0.4305889,-0.34724 0.062159,-0.0375 0.1203102,-0.0819 0.1864765,-0.11261 0.00883,-0.003 0.025154,0.005 0.025415,0.0143 4.194e-4,0.0144 -0.1683992,0.15591 -0.1813282,0.17738 -0.1329807,0.12835 -0.2762458,0.24535 -0.4289092,0.35231 -0.1247575,0.0992 -0.2468545,0.20141 -0.3600946,0.31253 -0.1169012,0.10486 -0.2441807,0.19987 -0.3822661,0.27838 -0.048419,0.0305 -0.393837,0.26827 -0.3147375,0.15608 0.056506,-0.0378 0.1094357,-0.0776 0.1518058,-0.13055 0.064728,-0.0651 0.1109299,-0.14432 0.1631288,-0.2184 0.06488,-0.10572 0.1430259,-0.20298 0.231943,-0.29167 0.079868,-0.0799 0.1706917,-0.14859 0.267089,-0.20982 0.1044427,-0.069 0.2022196,-0.14704 0.2932464,-0.23148 0.100685,-0.092 0.1873341,-0.19509 0.2850383,-0.28972 0.117361,-0.10836 0.2371314,-0.21507 0.3698976,-0.30654 0.1216275,-0.08 0.2491255,-0.14772 0.3783078,-0.21698 0.011046,-0.006 0.08234,-0.0444 0.1053211,-0.0428 0.00852,5.6e-4 0.012063,0.0113 0.018088,0.0172 -0.044486,0.0486 -0.1089255,0.0794 -0.1616978,0.11914 -0.060419,0.0535 -0.1105787,0.11489 -0.1622427,0.17591 -0.06015,0.0776 -0.1280821,0.1499 -0.2075102,0.21014 -0.069286,0.0562 -0.1312692,0.11915 -0.1960134,0.17994 -0.073566,0.0672 -0.1333992,0.14534 -0.2023374,0.21648 -0.056094,0.0644 -0.1288195,0.10998 -0.1889343,0.17065 -0.07101,0.0786 -0.1490991,0.15156 -0.2228334,0.22794 -0.07421,0.075 -0.1459814,0.15186 -0.2174654,0.22913 -0.1022815,0.098 -0.1963307,0.20395 -0.309601,0.29157 -0.029432,0.025 -0.053395,0.0575 -0.088476,0.0747 -0.2774486,0.13572 -0.1825017,0.0966 -0.1312019,0.0133 0.045197,-0.0601 0.081667,-0.12597 0.1263473,-0.18639 0.052074,-0.064 0.1081395,-0.12469 0.1637967,-0.18594 0.041183,-0.0446 0.088002,-0.0841 0.1320474,-0.12586 0.042193,-0.0455 0.090282,-0.0861 0.1375928,-0.12652 0.052917,-0.0494 0.1148596,-0.09 0.1779345,-0.12666 0.059579,-0.0401 0.1196679,-0.079 0.179671,-0.11853 0.069737,-0.0532 0.1644837,-0.0971 0.2354276,-0.13734 0.038648,-0.022 -0.076916,0.0446 -0.1163078,0.0651 -0.022886,0.0125 0.090009,-0.0548 0.062861,-0.0446 0.070068,-0.0438 0.1307644,-0.0988 0.1933199,-0.15149 0.055592,-0.0454 0.1184088,-0.0839 0.1664934,-0.13721 0.046668,-0.0391 0.088639,-0.0838 0.1290177,-0.12846 0.0437,-0.0446 0.077653,-0.0977 0.1020294,-0.15377 0.032013,-0.0563 0.064814,-0.11137 0.1016894,-0.16473 0.04455,-0.0551 0.091789,-0.10861 0.1380763,-0.16228 0.012975,-0.0126 0.07531,-0.0707 0.091892,-0.0721 0.01053,-7.9e-4 0.020923,0.005 0.030101,0.009 0.00211,0.001 -0.00421,0.002 -0.00632,0.003 0.2710235,-0.15136 0.052624,-0.0316 0.00298,0.0267 -0.05844,0.0566 -0.1256615,0.10475 -0.189375,0.15573 -0.067089,0.0598 -0.1302927,0.12344 -0.2014545,0.17889 -0.05737,0.0424 -0.1125644,0.0876 -0.1734285,0.12555 -0.054781,0.0432 -0.1052854,0.0904 -0.1604646,0.13314 -0.054814,0.0504 -0.1102707,0.0984 -0.1522353,0.1597 -0.043845,0.0465 -0.094194,0.0881 -0.1455828,0.12682 -0.073166,0.059 -0.1618981,0.0979 -0.2425762,0.14656 -0.036706,0.0221 0.074555,-0.0424 0.1125951,-0.0624 0.02401,-0.0126 -0.090903,0.0549 -0.069849,0.0413 -0.5817881,0.32488 -0.032673,0.0187 -0.075474,0.0414 -0.063165,0.0335 -0.1250509,0.0694 -0.1878309,0.10356 -0.03741,0.0203 0.073932,-0.0423 0.1117202,-0.062 0.01279,-0.006 -0.024325,0.0154 -0.036649,0.0227 -0.012315,0.008 -0.024843,0.0146 -0.037263,0.0219 -0.091998,0.0609 -0.1872015,0.11777 -0.2705465,0.18982 0,0 -0.1614922,0.0635 -0.1614922,0.0635 z"
       inkscape:connector-curvature="0" />
    <path
       style="fill:#000000;fill-opacity:1;stroke:none;stroke-width:0.3407881;stroke-opacity:1"
       id="path825"
       d="m 9.585276,287.81418 c -0.018365,0.11627 -0.028167,0.2336 -0.03467,0.35098 -0.00453,0.0923 -0.00498,0.18458 -0.00519,0.27689 -4.4e-5,0.0839 1.248e-4,0.1678 2.071e-4,0.25171 7.48e-5,0.0838 8.71e-5,0.16752 9.54e-5,0.25129 5.2e-6,0.0839 3.6e-6,0.16776 2.7e-6,0.25165 -3.37e-5,0.0891 1.857e-4,0.17793 -3.369e-4,0.2669 1.675e-4,0.11689 0.00418,0.23321 -0.011904,0.34925 -0.015424,0.088 -0.024256,0.17682 -0.028867,0.26592 -0.0034,0.0836 -0.00329,0.16717 -0.00335,0.25077 -0.0015,0.0841 -0.0021,0.16711 0.012143,0.25021 0.015491,0.0797 0.020116,0.16033 0.041142,0.23902 0.010146,0.0636 7.342e-4,0.12839 -0.00304,0.19228 -0.010185,0.0994 0.00227,0.19818 0.013481,0.29699 0.012882,0.1054 0.019658,0.21111 0.023125,0.31704 0.0022,0.0856 0.00201,0.17134 0.00201,0.25702 0.011003,0.0837 0.027058,0.16633 0.035526,0.2503 5.941e-4,0.085 0.020676,0.16759 0.034473,0.25111 0.011434,0.084 0.013424,0.16807 0.029373,0.25148 0.022839,0.0762 0.014007,0.15159 0.00421,0.22856 -0.014572,0.11765 0.014065,0.23498 0.036148,0.35013 0.013175,0.0951 0.030416,0.18852 0.054001,0.28176 0.018935,0.0765 0.022944,0.15512 0.025632,0.23336 -0.0066,0.072 0.016725,0.14103 0.015854,0.21242 -0.019748,0.0923 -0.091766,0.1645 -0.1512158,0.23634 -0.1023142,0.1248 -0.1985409,0.25378 -0.3035312,0.37661 -0.120548,0.13668 -0.2400004,0.27346 -0.3732719,0.39919 -0.1049608,0.0931 -0.2079521,0.18767 -0.3085139,0.28492 -0.068783,0.0672 -0.1255835,0.1435 -0.1839807,0.21863 -0.058017,0.0751 -0.1194143,0.14742 -0.1850683,0.21659 -0.065754,0.0642 -0.1276143,0.13236 -0.1857165,0.20285 -0.062159,0.0759 -0.112694,0.1595 -0.159253,0.2446 -0.038274,0.0663 -0.082065,0.12877 -0.1377984,0.18282 -0.067554,0.0617 -0.1288867,0.12983 -0.1867655,0.19972 -0.04268,0.0538 -0.021032,0.0267 -0.064958,0.0808 0,0 -0.1598833,0.0651 -0.1598833,0.0651 v 0 c 0.044003,-0.054 0.022396,-0.0269 0.064845,-0.0808 0.056543,-0.0709 0.1186441,-0.13909 0.185235,-0.20149 0.057027,-0.0523 0.1015225,-0.11275 0.1405297,-0.17822 0.045693,-0.0861 0.096627,-0.17042 0.1580301,-0.2474 0.056753,-0.0715 0.1194142,-0.1397 0.1847857,-0.20412 0.067353,-0.0674 0.1274571,-0.14077 0.1861211,-0.21504 0.059043,-0.0753 0.1146865,-0.15285 0.1832686,-0.22093 0.1019693,-0.0965 0.2030499,-0.19379 0.3099238,-0.28566 0.1339227,-0.1248 0.2536824,-0.26071 0.3737656,-0.39747 0.1054742,-0.12229 0.2016708,-0.25101 0.3032086,-0.3762 0.058394,-0.0699 0.1251513,-0.13927 0.1540004,-0.22581 0.00287,-0.0714 -0.021671,-0.13997 -0.014888,-0.21187 -0.00249,-0.0772 -0.00593,-0.15476 -0.024082,-0.23033 -0.023346,-0.0938 -0.041075,-0.1874 -0.053326,-0.28314 -0.021999,-0.11639 -0.051739,-0.23507 -0.03977,-0.35391 0.0096,-0.0755 0.021665,-0.14933 -0.00147,-0.22426 -0.016351,-0.0836 -0.019343,-0.16753 -0.029608,-0.25188 -0.013575,-0.0839 -0.03481,-0.16667 -0.034986,-0.25201 -0.00813,-0.0845 -0.023661,-0.16775 -0.036286,-0.25167 6.12e-5,-0.0855 2.727e-4,-0.17111 -0.00161,-0.25666 -0.00301,-0.10561 -0.00908,-0.21122 -0.021731,-0.31627 -0.01135,-0.0994 -0.026171,-0.19859 -0.01597,-0.29877 0.00335,-0.0625 0.011892,-0.12542 0.00548,-0.18781 -0.021361,-0.0792 -0.026476,-0.16002 -0.041565,-0.24043 -0.014911,-0.0839 -0.015691,-0.16755 -0.013495,-0.25262 2.2e-5,-0.0839 -1.385e-4,-0.16768 0.00301,-0.25145 0.00432,-0.0897 0.012552,-0.17895 0.028572,-0.26743 0.017249,-0.11539 0.014485,-0.23098 0.013231,-0.34737 -5.243e-4,-0.0888 -3.01e-4,-0.17771 -3.346e-4,-0.26657 8e-7,-0.0839 2.5e-6,-0.16777 -3e-6,-0.25166 -8.4e-6,-0.0838 -2.07e-5,-0.16751 -9.38e-5,-0.25127 -8.04e-5,-0.084 -2.457e-4,-0.16786 -1.871e-4,-0.25179 2.453e-4,-0.0926 7.342e-4,-0.18531 0.00533,-0.27788 0.00657,-0.11764 0.016819,-0.23508 0.033122,-0.35189 0,0 0.1568565,-0.0734 0.1568565,-0.0734 z"
       inkscape:connector-curvature="0" />
    <path
       style="fill:#000000;fill-opacity:1;stroke:none;stroke-width:0.3407881;stroke-opacity:1"
       id="path827"
       d="m 9.3412589,287.6935 c -0.00957,-0.0743 -0.00479,-0.0359 -0.014238,-0.11526 0,0 0.1536632,-0.0765 0.1536632,-0.0765 v 0 c 0.00972,0.0789 0.00461,0.0408 0.015179,0.11426 0,0 -0.1546041,0.0775 -0.1546042,0.0775 z"
       inkscape:connector-curvature="0" />
    <path
       style="fill:#000000;fill-opacity:1;stroke:none;stroke-width:0.3407881;stroke-opacity:1"
       id="path829"
       d="m 9.3901042,288.90891 c 9.759e-4,-0.11715 5.944e-4,-0.23443 4.196e-4,-0.35165 -1.517e-4,-0.0924 -2.235e-4,-0.18484 -2.605e-4,-0.27726 -2.58e-5,-0.0839 -2.38e-5,-0.16782 -2.35e-5,-0.25173 4.195e-4,-0.08 0.00421,-0.15911 -0.011919,-0.23784 -0.010146,-0.0699 -0.028699,-0.13701 -0.048439,-0.2048 -0.01102,-0.0467 -0.0061,-0.0229 -0.014648,-0.0712 0,0 0.1543782,-0.0778 0.1543782,-0.0778 v 0 c 0.00803,0.047 0.0034,0.0238 0.013889,0.0696 0.019686,0.0682 0.03921,0.13552 0.048979,0.20591 0.016875,0.0797 0.014295,0.15971 0.013222,0.24086 0,0.0839 2.6e-6,0.16782 -2.32e-5,0.25174 -3.72e-5,0.0925 -1.092e-4,0.18501 -2.605e-4,0.27753 -1.676e-4,0.11701 -5.594e-4,0.23414 4.195e-4,0.35122 0,0 -0.1557615,0.0754 -0.1557615,0.0754 z"
       inkscape:connector-curvature="0" />
    <path
       style="fill:#000000;fill-opacity:1;stroke:none;stroke-width:0.3407881;stroke-opacity:1"
       id="path831"
       d="m 9.2720213,287.44506 c -0.1231485,-6.1e-4 -0.246299,-3.7e-4 -0.369448,-2.6e-4 -0.085393,0.0113 -0.1696561,0.0274 -0.2555638,0.0353 -0.085553,0.006 -0.1714281,0.006 -0.2571902,0.008 -0.088174,1.8e-4 -0.1763459,-2e-5 -0.2645183,-1.1e-4 -0.083437,-0.006 -0.1628524,0.005 -0.2440604,0.0203 -0.080036,0.0149 -0.161648,0.0181 -0.2429464,0.0203 -0.087202,0.0155 -0.1744073,0.029 -0.2627737,0.0364 -0.08836,0.006 -0.1770097,0.006 -0.2655618,0.008 -0.1246281,-0.005 -0.2494952,-0.005 -0.3736641,-0.0181 -0.09833,-0.006 -0.1938521,-0.0237 -0.2900953,-0.0423 -0.08694,-0.0163 -0.1755429,-0.0204 -0.2639009,-0.0228 -0.088086,-0.001 -0.1761976,-0.001 -0.2642965,-0.001 -0.081657,0.008 -0.159677,-0.0132 -0.23925,-0.0261 -0.081723,-0.0113 -0.1645168,-0.0138 -0.2470222,-0.0149 -0.078172,-10e-4 -0.154023,0.021 -0.2313022,0.0307 -0.08417,0.009 -0.1689718,0.01 -0.2535751,0.0112 -0.088777,10e-4 -0.1758813,0.0217 -0.2640462,0.0314 -0.088231,0.009 -0.1769916,0.01 -0.2656034,0.01 -0.089563,-0.006 -0.17619,0.007 -0.2640646,0.0202 -0.084604,0.0112 -0.1689283,0.0145 -0.2520743,0.0339 -0.077492,0.019 -0.1573844,0.0242 -0.237012,0.0276 -0.087271,0.002 -0.1746038,0.002 -0.2619092,0.002 -0.086271,0.003 -0.1737997,-0.008 -0.2592281,0.006 -0.072946,0.009 -0.1404788,0.0324 -0.2102326,0.0524 0.089768,-0.0532 -0.1786306,0.0904 -0.090754,0.0447 0.2231897,-0.11564 0.096715,-0.0471 0.040261,-0.009 -0.063451,0.0445 -0.1213937,0.0949 -0.1798939,0.14485 -0.061332,0.0506 -0.1164981,0.10735 -0.1759233,0.16005 -0.095203,0.0824 -0.1913624,0.16395 -0.2884724,0.24435 -0.081041,0.0627 -0.1581196,0.12967 -0.2338918,0.19798 -0.076648,0.08 -0.1485766,0.16392 -0.2249371,0.24425 -0.069794,0.0704 -0.1319852,0.14711 -0.2043711,0.2152 -0.07574,0.0688 -0.1545598,0.13458 -0.2254191,0.208 -0.065084,0.0674 -0.1401228,0.12454 -0.2087307,0.18866 -0.062825,0.0496 -0.1176754,0.10822 -0.1844525,0.15304 -0.0447831,0.0267 -0.0849633,0.0605 -0.12932835,0.0876 0.002207,-0.01 5.7687e-4,-0.0209 0.006601,-0.0289 0.005802,-0.008 0.017248,-0.01 0.0258723,-0.0143 -0.0391733,0.0209 -0.0779807,0.0423 -0.1175191,0.0625 -0.0124432,0.006 0.024364,-0.0138 0.0361986,-0.021 0.0318197,-0.0197 0.0536967,-0.0369 0.0848918,-0.0597 0.10285551,-0.0785 0.19766585,-0.16587 0.29249095,-0.25282 0.068694,-0.0711 0.1369753,-0.1429 0.2021064,-0.21702 0.068082,-0.0974 0.1425314,-0.19011 0.2171114,-0.28298 0.07841,-0.0818 0.1488436,-0.17081 0.2296129,-0.25064 0.074925,-0.0634 0.1422925,-0.13426 0.2209477,-0.1936 0.074331,-0.0559 0.1396828,-0.12103 0.1993887,-0.19089 0.061311,-0.0784 0.1381381,-0.14359 0.2020691,-0.21981 0.06341,-0.0747 0.1135649,-0.15821 0.1786696,-0.23152 0.086317,-0.10723 0.2058411,-0.1603 0.3288351,-0.22498 0.1072701,-0.0206 -0.073057,0.17357 -0.08267,0.18528 -0.094487,0.10464 -0.2021581,0.19733 -0.3071578,0.2921 -0.1032454,0.0818 -0.2033642,0.16747 -0.307892,0.24785 -0.085378,0.0682 -0.1772949,0.1273 -0.2722169,0.18257 -0.5024085,0.27159 -0.103134,0.0551 -0.082982,0.046 0.013771,-0.007 -0.024978,0.0165 -0.037037,0.0255 -0.040097,0.0294 -0.076638,0.0628 -0.1133943,0.0958 -0.072403,0.073 -0.1363981,0.15308 -0.1920879,0.2383 -0.048433,0.0853 -0.1202678,0.15232 -0.198614,0.21257 -0.080736,0.0643 -0.1687007,0.11891 -0.2457927,0.18722 -0.073917,0.0658 -0.15554338,0.12229 -0.23640321,0.17984 -0.0511087,0.0509 -0.14225194,0.0655 -0.18732048,0.12154 7.1669e-4,-0.002 -5.1042e-4,-0.008 0.002147,-0.009 0.0747073,-0.0462 0.18671493,-0.0668 0.25348393,-0.12406 0.0179479,-0.0156 -0.0433157,0.0205 -0.0649719,0.0307 0.16393576,-0.0986 0.31810696,-0.20986 0.46840646,-0.32613 0.1690982,-0.13391 0.3122046,-0.29411 0.46434,-0.44474 0.1187007,-0.11313 0.2471458,-0.21607 0.3740621,-0.32048 0.067727,-0.0596 0.1399809,-0.11438 0.2039111,-0.17774 0.047978,-0.0593 0.1012212,-0.11438 0.1516689,-0.17172 0.056881,-0.0725 0.1233598,-0.13652 0.1906511,-0.20002 0.011192,-0.01 0.022561,-0.019 0.033585,-0.0289 0.013174,-0.0113 0.046992,-0.0536 0.066282,-0.0591 0.1641256,-0.0473 0.1579266,-0.0601 0.096892,0.0162 -0.080637,0.10345 -0.1811977,0.19041 -0.2787799,0.27892 -0.098295,0.0887 -0.2006498,0.17324 -0.3031734,0.25749 -0.1252902,0.11426 -0.2759187,0.19232 -0.4251616,0.2744 0.2671773,-0.15424 -0.073029,0.0477 -0.1165007,0.0777 -0.094624,0.0667 -0.1582348,0.16365 -0.2213983,0.25637 -0.04172,0.0838 -0.1086058,0.14849 -0.1744115,0.21483 -0.073608,0.0728 -0.1455511,0.14736 -0.2244846,0.21503 -0.064362,0.0581 -0.1312163,0.11363 -0.19909723,0.16808 -0.0523859,0.0405 -0.11123735,0.0718 -0.16507628,0.10999 -0.0455157,0.0167 -0.0892615,0.0386 -0.13654714,0.0501 -0.016642,0.003 0.0283745,-0.0183 0.0426725,-0.0274 0.0721346,-0.0456 0.14367386,-0.0908 0.21306351,-0.14017 0.12071174,-0.0757 0.22657604,-0.16676 0.32665464,-0.26529 0.1049682,-0.10004 0.1893926,-0.21647 0.2802203,-0.3276 0.101921,-0.12951 0.2180515,-0.24698 0.3373028,-0.36198 0.1137181,-0.0961 0.22692,-0.19149 0.3313751,-0.29673 0.063362,-0.0804 0.1371587,-0.15198 0.2052776,-0.2285 0.05629,-0.0657 0.1116674,-0.13202 0.1681823,-0.19753 0.043166,-0.0472 0.090184,-0.0909 0.1354819,-0.13627 0.046053,-0.0407 0.099426,-0.0736 0.1495422,-0.10962 0.1457547,-0.0891 0.1930672,-0.12974 0.3454165,-0.1091 0.01049,0.003 0.02098,0.008 0.031468,0.0113 0,0 -0.1448373,0.0934 -0.1448373,0.0934 v 0 c -0.00985,-0.002 -0.019678,-0.005 -0.029517,-0.009 -0.031719,-0.003 -0.064238,-0.009 -0.096118,-0.002 -0.060881,0.0113 -0.1820996,0.0867 0.056322,-0.0453 -0.05097,0.0346 -0.1008111,0.0711 -0.150829,0.10659 -0.043354,0.047 -0.092708,0.0885 -0.1361833,0.13542 -0.05536,0.0667 -0.1138528,0.1309 -0.1685248,0.19808 -0.067977,0.0773 -0.1433221,0.14787 -0.2055761,0.2296 -0.1043921,0.10584 -0.21644,0.20291 -0.3322032,0.29749 -0.1192861,0.11451 -0.2361592,0.23082 -0.3378263,0.3601 -0.091255,0.11098 -0.1745824,0.22849 -0.2791235,0.32901 -0.099758,0.0992 -0.2036538,0.19271 -0.3254171,0.26766 -0.13722808,0.0992 -0.27649952,0.19257 -0.44085236,0.24749 0.0110119,-0.0457 0.13082287,-0.0797 0.1639017,-0.11689 0.0677922,-0.0549 0.13596661,-0.10898 0.19975716,-0.16797 0.08015,-0.0659 0.1509099,-0.14115 0.2245722,-0.21342 0.065435,-0.0661 0.1358062,-0.12807 0.1762702,-0.21232 0.063389,-0.0933 0.1258399,-0.19245 0.2188456,-0.2618 0.1298487,-0.0926 0.2743857,-0.16402 0.4135706,-0.24281 -0.034705,0.0194 -0.068628,0.0399 -0.1041127,0.0579 -0.015831,0.008 0.030031,-0.0187 0.045045,-0.028 0.066422,-0.0413 0.1299346,-0.0869 0.1881439,-0.13826 0.1024288,-0.0842 0.2050896,-0.16822 0.303445,-0.25673 0.097329,-0.0882 0.198602,-0.174 0.2797182,-0.27642 0.077038,-0.0972 0.029232,-0.05 0.2248269,-0.14552 0.00571,-0.002 -0.00821,0.01 -0.012962,0.0136 -0.029174,0.0252 -0.0584,0.0503 -0.088136,0.0751 -0.066288,0.064 -0.1353497,0.12505 -0.1908579,0.19834 -0.049254,0.0585 -0.1054229,0.11162 -0.1512688,0.17281 -0.063274,0.0649 -0.1358566,0.11978 -0.2042614,0.17963 -0.1265614,0.10551 -0.2574309,0.20656 -0.376622,0.31995 -0.1525338,0.15046 -0.2955246,0.31074 -0.463107,0.44637 -0.1499608,0.11703 -0.3038151,0.22884 -0.4677149,0.32782 -0.0852766,0.049 -0.20949357,0.1233 -0.30897948,0.17405 -0.0451078,0.0229 -0.12868807,0.0785 -0.18541087,0.0727 -0.00727,-7.5e-4 -0.0105786,-0.01 -0.015867,-0.0145 0.00901,-0.0538 0.14479198,-0.0919 0.18499199,-0.13123 0.0803595,-0.0579 0.16273386,-0.11301 0.23705622,-0.17807 0.0761349,-0.0698 0.16373814,-0.12456 0.24522684,-0.18852 0.078361,-0.0588 0.1527861,-0.12266 0.2010188,-0.20725 0.054625,-0.0869 0.1193853,-0.16694 0.1903857,-0.24231 0.1191196,-0.10886 0.1793892,-0.14177 0.3367917,-0.22953 0.035028,-0.0196 -0.069872,0.0393 -0.1048096,0.059 0.094876,-0.0553 0.1884311,-0.11198 0.2734462,-0.18081 0.1056237,-0.079 0.2039325,-0.16655 0.3086524,-0.24663 0.1049421,-0.0947 0.2125407,-0.18718 0.308754,-0.29011 0.00914,-0.0113 0.1223053,-0.14439 0.1249691,-0.15323 0.00202,-0.007 -0.041727,0.0268 -0.020972,0.006 0.2717993,-0.15662 0.011165,-0.0113 -0.030924,0.0573 -0.067525,0.0712 -0.1157952,0.15585 -0.1789228,0.2306 -0.062135,0.078 -0.1405115,0.14168 -0.2020969,0.22014 -0.05936,0.0707 -0.1235421,0.13714 -0.1976074,0.19445 -0.080692,0.057 -0.1462396,0.12926 -0.2221544,0.19161 -0.082801,0.0778 -0.1505069,0.1689 -0.2310367,0.24889 -0.073926,0.0933 -0.1509561,0.18441 -0.2165662,0.28346 -0.06411,0.0752 -0.1339277,0.14596 -0.2010402,0.21877 -0.096103,0.0861 -0.1894605,0.17539 -0.2922794,0.25449 -0.0965183,0.0727 -0.1917547,0.12304 -0.30096041,0.18402 -0.008783,0.005 -0.0167262,0.0133 -0.0269,0.0138 -0.011436,5.1e-4 -0.0214955,-0.008 -0.0322428,-0.0112 0.0314988,-0.0398 0.0924779,-0.0557 0.12936591,-0.091 0.0697715,-0.0409 0.12186339,-0.10248 0.18624662,-0.15024 0.0682478,-0.0647 0.14260158,-0.12204 0.20946658,-0.18789 0.069331,-0.0747 0.148558,-0.14022 0.224455,-0.2088 0.073629,-0.0672 0.1360656,-0.14358 0.2054869,-0.21454 0.07678,-0.0802 0.1496186,-0.16347 0.2243612,-0.24533 0.075479,-0.0686 0.151873,-0.13631 0.2331946,-0.19865 0.098456,-0.079 0.1931824,-0.16233 0.2892386,-0.24388 0.059041,-0.0528 0.1146033,-0.10847 0.1745517,-0.16013 0.060253,-0.0486 0.1158652,-0.10205 0.1797601,-0.1467 0.1120229,-0.0736 0.2239664,-0.14975 0.351035,-0.19832 0.069647,-0.0211 0.1389197,-0.0411 0.211846,-0.05 0.086398,-0.009 0.1736658,-10e-4 0.2604311,-0.003 0.087163,-1e-5 0.1743675,2.2e-4 0.2614767,-0.002 0.079185,-0.003 0.1583365,-0.0113 0.2352724,-0.0303 0.083311,-0.0179 0.1684167,-0.0189 0.2525062,-0.0328 0.088298,-0.014 0.175925,-0.0227 0.2656874,-0.0182 0.088255,-0.001 0.1766691,-0.002 0.2644598,-0.0125 0.08832,-0.01 0.1758813,-0.0306 0.2652013,-0.03 0.084251,-10e-4 0.1687369,-0.002 0.2524242,-0.0125 0.077419,-0.0113 0.1539495,-0.0326 0.2327971,-0.0285 0.083137,0.001 0.1665663,0.003 0.2487741,0.0171 0.078778,0.0134 0.1564055,0.0312 0.2372467,0.0238 0.088215,-9e-5 0.1764469,-4.3e-4 0.2646414,10e-4 0.088981,0.002 0.1781324,0.008 0.2655373,0.0252 0.095652,0.0187 0.1911503,0.0344 0.288729,0.0413 0.1238526,0.0125 0.2486821,0.0125 0.3730042,0.0162 0.08826,-5.3e-4 0.1766369,-10e-4 0.2646489,-0.008 0.088462,-0.009 0.1755083,-0.024 0.2634605,-0.0357 0.080876,-0.002 0.1619769,-0.008 0.2414117,-0.0227 0.081602,-0.0156 0.1624549,-0.0222 0.2458878,-0.0174 0.088154,8e-5 0.1763089,2.9e-4 0.2644624,-3e-5 0.085483,-5.6e-4 0.1711038,-10e-4 0.2563065,-0.009 0.085779,-0.009 0.170038,-0.0265 0.2559838,-0.0334 0.1234112,1.1e-4 0.246824,3.4e-4 0.3702339,-2.6e-4 0,0 -0.1414286,0.0977 -0.1414286,0.0977 z"
       inkscape:connector-curvature="0" />
  </g>
</svg>
