<?xml version="1.0" encoding="UTF-8" standalone="no"?>
<!-- Created with Inkscape (http://www.inkscape.org/) -->

<svg
   xmlns:dc="http://purl.org/dc/elements/1.1/"
   xmlns:cc="http://creativecommons.org/ns#"
   xmlns:rdf="http://www.w3.org/1999/02/22-rdf-syntax-ns#"
   xmlns:svg="http://www.w3.org/2000/svg"
   xmlns="http://www.w3.org/2000/svg"
   xmlns:sodipodi="http://sodipodi.sourceforge.net/DTD/sodipodi-0.dtd"
   xmlns:inkscape="http://www.inkscape.org/namespaces/inkscape"
   width="10mm"
   height="10mm"
   viewBox="0 0 10 10"
   version="1.1"
   id="svg8"
   sodipodi:docname="focus2.svg"
   inkscape:version="0.92.4 (5da689c313, 2019-01-14)">
  <defs
     id="defs2" />
  <sodipodi:namedview
     id="base"
     pagecolor="#ffffff"
     bordercolor="#666666"
     borderopacity="1.0"
     inkscape:pageopacity="0.0"
     inkscape:pageshadow="2"
     inkscape:zoom="7.9195959"
     inkscape:cx="14.946577"
     inkscape:cy="40.62227"
     inkscape:document-units="mm"
     inkscape:current-layer="layer1"
     showgrid="false"
     inkscape:window-width="1920"
     inkscape:window-height="1017"
     inkscape:window-x="-8"
     inkscape:window-y="-8"
     inkscape:window-maximized="1" />
  <metadata
     id="metadata5">
    <rdf:RDF>
      <cc:Work
         rdf:about="">
        <dc:format>image/svg+xml</dc:format>
        <dc:type
           rdf:resource="http://purl.org/dc/dcmitype/StillImage" />
        <dc:title></dc:title>
      </cc:Work>
    </rdf:RDF>
  </metadata>
  <g
     inkscape:label="Layer 1"
     inkscape:groupmode="layer"
     id="layer1"
     transform="translate(0,-287)">
    <path
       style="fill:#ffffff;stroke:#000000;stroke-width:0.26458332px;stroke-linecap:butt;stroke-linejoin:miter;stroke-opacity:1;fill-opacity:1"
       d="m 9.8094106,287.33675 -9.58577645,0.20059 6.02162705,8.93556 z"
       id="path839"
       inkscape:connector-curvature="0" />
    <path
       style="fill:#000000;fill-opacity:1;stroke:none;stroke-width:0.26458332;stroke-opacity:1"
       id="path837"
       d="m 8.6759115,287.59358 c -0.091762,-0.0147 -0.1846014,-0.0207 -0.2773593,-0.0246 -0.073595,-0.003 -0.1472443,-0.002 -0.2208725,-0.002 -0.06662,0.003 -0.1319062,0.02 -0.198587,0.0271 -0.067122,0.006 -0.1345587,0.006 -0.2018935,0.007 -0.066876,2e-4 -0.1337525,10e-6 -0.2006285,-7e-5 -0.066814,-8e-5 -0.1336273,-10e-5 -0.2004412,-1.1e-4 -0.081519,3.4e-4 -0.1630207,-9.2e-4 -0.244539,-9.5e-4 -0.084344,1.7e-4 -0.1686881,5.6e-4 -0.2530322,7.7e-4 -0.06822,1.5e-4 -0.1364401,1.7e-4 -0.2046602,1.8e-4 -0.066632,10e-6 -0.1332643,0 -0.1998967,0 -0.071622,0.004 -0.1410674,-0.001 -0.2115688,-0.0129 -0.076063,-0.0129 -0.1530657,-0.0172 -0.2300554,-0.0196 -0.074801,-0.0139 -0.1498947,-0.025 -0.2257798,-0.0305 -0.067084,-0.004 -0.134316,-0.004 -0.2014924,-0.004 -0.077701,-1.1e-4 -0.155403,-3.2e-4 -0.2331048,-3.2e-4 -0.085256,-9e-5 -0.1705123,4e-5 -0.2557688,2.8e-4 -0.070876,2.1e-4 -0.1417534,2.8e-4 -0.2126302,3.2e-4 -0.066789,3e-5 -0.1335784,2e-5 -0.2003677,2e-5 -0.076524,-0.007 -0.1503648,0.008 -0.2257097,0.0175 -0.084837,0.0111 -0.1703649,0.0135 -0.2558068,0.0146 -0.090762,10e-4 -0.1815319,7.7e-4 -0.2722994,6.9e-4 -0.089555,0.003 -0.1781209,0.019 -0.2677257,0.0259 -0.1044747,0.0122 -0.2077075,1.7e-4 -0.3115779,-0.0103 -0.102286,-0.003 -0.2021951,-0.0251 -0.303512,-0.0374 -0.088282,-0.01 -0.177184,-0.0109 -0.2658986,-0.0117 -0.086868,-8.2e-4 -0.1737402,-1.4e-4 -0.2606085,2.4e-4 -0.070294,-0.005 -0.1378051,0.0142 -0.2068756,0.0237 -0.065257,0.0141 -0.1264092,0.003 -0.1904008,-0.009 -0.059616,-0.0105 -0.120234,-0.0123 -0.1806026,-0.0137 -0.067397,-0.001 -0.1348057,-6.8e-4 -0.2022083,-0.001 -0.075473,-1.3e-4 -0.1509467,1.3e-4 -0.2264199,2.6e-4 -0.068215,1.2e-4 -0.1364294,1.4e-4 -0.2046442,1.5e-4 -0.060682,0.0133 -0.1182659,-0.0235 -0.1775175,-0.0165 -0.052763,0.01 -0.1064302,0.0124 -0.1599436,0.0145 -0.064821,0.005 -0.13073555,-0.005 -0.19452211,0.009 -0.0683359,0.0212 -0.13482664,0.0139 -0.20421767,0.006 -0.0686043,-0.009 -0.1198822,-0.0134 -0.18737402,0.002 -0.0605848,-0.004 -0.12105505,-0.009 -0.18173445,-0.0118 -0.0449013,0.006 -0.11764691,-0.0176 -0.15810747,0.004 -0.0065802,0.004 -0.01026218,0.0109 -0.01539327,0.0163 0.14635327,-0.0845 0.29279627,-0.16894 0.43905982,-0.25364 0.0028,-0.002 -0.006829,0.002 -0.008658,0.004 -0.004983,0.007 -0.001376,0.021 0.001471,0.0274 0.0126415,0.0286 0.0285964,0.0494 0.0461866,0.0756 0.0560107,0.0828 0.10639803,0.16942 0.15239484,0.25815 0.0487589,0.0927 0.086258,0.1904 0.1272695,0.28661 0.06039,0.12509 0.13411128,0.24316 0.21555623,0.35548 0.1055999,0.13246 0.2174226,0.25971 0.3220313,0.393 0.1139118,0.15348 0.2234305,0.3102 0.3284576,0.46989 0.104723,0.16574 0.2047018,0.33459 0.3027081,0.5044 0.087333,0.15305 0.1952315,0.2926 0.3001811,0.43365 0.1065509,0.14778 0.1901974,0.30947 0.2815637,0.46658 0.096671,0.15898 0.2068304,0.30893 0.3160245,0.45936 0.1166611,0.1494 0.2222404,0.30679 0.331602,0.46144 0.1069171,0.15439 0.2177335,0.30584 0.3278529,0.45795 0.1030933,0.15039 0.2073269,0.29994 0.3126234,0.44879 0.078071,0.1177 0.167775,0.22554 0.2648514,0.32782 0.086085,0.0871 0.1515885,0.18757 0.2094994,0.29461 0.046848,0.0996 0.1083662,0.19079 0.1691495,0.28215 0.049222,0.0755 0.1136565,0.13889 0.1709478,0.20791 0.054037,0.0592 0.1149773,0.11153 0.1682726,0.17138 0.067703,0.0833 0.1170697,0.17744 0.1637964,0.27336 0.045175,0.0994 0.094027,0.19686 0.1418556,0.29496 0.045205,0.0894 0.089521,0.17879 0.1417841,0.26439 0.063139,0.0994 0.1132118,0.20621 0.1648656,0.31181 0.051664,0.10644 0.1051107,0.21098 0.1669023,0.31193 0.044787,0.0788 0.088761,0.15733 0.1406755,0.23162 0.040643,0.0563 0.084006,0.11026 0.125784,0.16566 0.039685,0.0591 0.075595,0.12077 0.103604,0.18629 0.029967,0.0648 0.050139,0.13334 0.077423,0.19921 0.026413,0.0672 0.053552,0.13424 0.072113,0.20414 0.019791,0.0662 0.037121,0.133 0.062311,0.19743 0.011972,0.0204 0.041068,0.14092 0.054968,0.14193 -0.048664,-0.18989 0.00496,-0.01 -0.4559641,0.23536 -0.0091,0.005 0.011417,-0.0172 0.016264,-0.0263 0.00702,-0.0132 0.012951,-0.0269 0.01928,-0.0404 0.013787,-0.0294 0.027216,-0.059 0.040888,-0.0885 0.043871,-0.0972 0.095264,-0.19024 0.1360046,-0.28882 0.050436,-0.12625 0.094955,-0.2547 0.1505847,-0.37881 0.058634,-0.13438 0.1090038,-0.27214 0.1608793,-0.40921 0.05998,-0.1657 0.1244836,-0.32965 0.1934822,-0.49179 0.076764,-0.16978 0.1441733,-0.34324 0.2036378,-0.51976 0.066806,-0.21408 0.1319118,-0.42839 0.2098908,-0.63872 0.072574,-0.20067 0.1532824,-0.39821 0.2444351,-0.59114 0.086773,-0.16688 0.1690658,-0.33572 0.2415704,-0.50929 0.068173,-0.17283 0.1468622,-0.34139 0.2316228,-0.50665 0.098464,-0.17753 0.1912255,-0.35794 0.2805875,-0.54022 0.095052,-0.19992 0.1775145,-0.40544 0.2658374,-0.60836 0.070897,-0.18492 0.13598,-0.37238 0.1960629,-0.56111 0.054032,-0.18906 0.1145111,-0.37625 0.1675469,-0.56557 0.041494,-0.16118 0.091614,-0.31972 0.14332,-0.47781 0.043007,-0.13777 0.1009396,-0.26996 0.1488117,-0.40599 0.038274,-0.11798 0.075211,-0.23636 0.1153464,-0.35373 0.035385,-0.1142 0.081857,-0.22431 0.122005,-0.33684 0.044752,-0.1206 0.084492,-0.24298 0.1256143,-0.36485 0.024508,-0.0797 0.045537,-0.16044 0.068952,-0.24047 0.019497,-0.0666 0.043915,-0.13173 0.061578,-0.19886 -2.569e-4,-0.0124 0.049869,-0.13228 0.010872,-0.11671 -0.081657,0.009 -0.1646057,0.0107 -0.246857,0.0136 -0.082635,6.5e-4 -0.1636064,0.002 -0.244784,0.0174 -0.064134,0.005 -0.1215591,0.0321 -0.1842011,0.0441 -0.062912,0.01 -0.1266992,0.01 -0.1901809,0.0106 -0.066674,3.3e-4 -0.1333492,5e-5 -0.2000234,-9e-5 -0.054409,0.005 -0.1179293,0.0113 -0.1680088,0.035 -0.031925,0.0121 -0.015661,0.009 -0.048687,0.0101 0,0 0.4234084,-0.31942 0.4234084,-0.31942 v 0 c 0.026915,-0.01 0.012335,-0.005 0.043839,-0.015 0.058563,-0.0109 0.1166434,-0.0258 0.1768059,-0.021 0.066481,1e-4 0.1329722,4.3e-4 0.1994432,-9.5e-4 0.061763,-0.002 0.1239994,-0.004 0.1841772,-0.0198 0.061164,-0.0168 0.1216761,-0.0344 0.1852674,-0.0402 0.081947,-0.0107 0.1646057,-0.007 0.2470245,-0.0114 0.08861,-0.004 0.1818291,-0.0173 0.2678565,0.008 0.061153,0.0563 0.046077,0.10576 0.01996,0.17746 -0.014589,0.0695 -0.040289,0.13505 -0.060157,0.20303 -0.028582,0.0793 -0.046041,0.16244 -0.071875,0.24271 -0.042231,0.12219 -0.083684,0.24458 -0.1273524,0.36625 -0.039224,0.11237 -0.084142,0.22241 -0.1195972,0.336 -0.043907,0.11688 -0.080259,0.23647 -0.1193567,0.35505 -0.046755,0.13608 -0.1022742,0.26839 -0.1485154,0.40466 -0.051223,0.15891 -0.1086596,0.31595 -0.1495386,0.4781 -0.051021,0.18999 -0.1131379,0.37684 -0.1653741,0.56653 -0.058559,0.19122 -0.1289883,0.3789 -0.1960514,0.56725 -0.088669,0.20364 -0.1735929,0.40892 -0.266205,0.61082 -0.087242,0.18229 -0.1763175,0.36369 -0.2758538,0.53962 -0.085943,0.1638 -0.166583,0.33078 -0.2345251,0.50291 -0.070639,0.17539 -0.1507252,0.34642 -0.2411169,0.51259 -0.094659,0.19058 -0.1751552,0.38778 -0.2481868,0.5876 -0.079065,0.20925 -0.1464744,0.42208 -0.2102729,0.63647 -0.056082,0.17764 -0.1197308,0.35268 -0.1977636,0.52202 -0.06895,0.16154 -0.1371036,0.32349 -0.1944483,0.48964 -0.050671,0.13747 -0.099892,0.27552 -0.155693,0.41102 -0.057723,0.1225 -0.1045747,0.2492 -0.151941,0.37601 -0.036846,0.10069 -0.085385,0.19468 -0.1318315,0.2911 -0.085373,0.1749 -0.2484681,0.68902 -0.5517446,0.4161 -0.036574,-0.0477 -0.035541,-0.11034 -0.062402,-0.16345 -0.02723,-0.0663 -0.044877,-0.13523 -0.065998,-0.20354 -0.016113,-0.0679 -0.043033,-0.13217 -0.067915,-0.19724 -0.028208,-0.0656 -0.047702,-0.13442 -0.077737,-0.19926 -0.025233,-0.0619 -0.060058,-0.11914 -0.097317,-0.17456 -0.042434,-0.0559 -0.085092,-0.11148 -0.1263486,-0.1682 -0.051046,-0.0759 -0.09436,-0.15582 -0.1389838,-0.23567 -0.062959,-0.10221 -0.1148733,-0.20931 -0.1676421,-0.317 -0.051915,-0.10367 -0.102317,-0.20861 -0.1646677,-0.30653 -0.053288,-0.087 -0.099239,-0.17738 -0.1445984,-0.26864 -0.047549,-0.0983 -0.095119,-0.19638 -0.1405694,-0.29563 -0.044569,-0.0917 -0.09288,-0.18084 -0.159294,-0.259 -0.054298,-0.0598 -0.116862,-0.11151 -0.1688801,-0.17347 -0.058415,-0.0705 -0.1239113,-0.13557 -0.1732352,-0.21335 -0.060517,-0.0933 -0.1211429,-0.18682 -0.1694277,-0.28729 -0.055327,-0.10345 -0.1201436,-0.19886 -0.202719,-0.28303 -0.096585,-0.10551 -0.186032,-0.21648 -0.2640711,-0.33659 -0.1044565,-0.14916 -0.2076741,-0.29915 -0.3115366,-0.44871 -0.1098036,-0.15246 -0.2207635,-0.30399 -0.3267734,-0.45915 -0.1094607,-0.15452 -0.2166284,-0.31061 -0.333356,-0.45985 -0.1092754,-0.15233 -0.2191413,-0.30436 -0.3168493,-0.46454 -0.091624,-0.15482 -0.1749151,-0.31464 -0.2811566,-0.46038 -0.1056382,-0.14296 -0.2132255,-0.28496 -0.3005718,-0.44026 -0.097636,-0.1689 -0.1968009,-0.33715 -0.3021917,-0.50132 -0.1037577,-0.15869 -0.2120707,-0.31459 -0.32587259,-0.46623 -0.10563987,-0.13376 -0.22118817,-0.25908 -0.32709508,-0.39259 -0.0828438,-0.11597 -0.15859352,-0.23678 -0.22259427,-0.3643 -0.041915,-0.0945 -0.0803896,-0.19062 -0.1288969,-0.28204 -0.043516,-0.0873 -0.091691,-0.17263 -0.14706844,-0.25297 -0.01488717,-0.0207 -0.04535093,-0.0617 -0.05824016,-0.0851 -0.11523055,-0.20992 0.36690088,-0.33742 0.44709497,-0.3649 0.0623703,-0.006 0.12511641,-9.6e-4 0.18759498,10e-4 0.0583594,0.003 0.11759062,0.0111 0.17570172,0.002 0.0650254,-0.007 0.12990603,0.004 0.19468837,0.01 0.067056,0.006 0.1312832,-0.003 0.1973093,-0.0153 0.065687,-0.003 0.131517,-0.002 0.1971714,-0.006 0.054604,-0.004 0.1090689,-0.0125 0.1638256,-0.0111 0.058129,0.0102 0.1153159,0.0211 0.1748463,0.0158 0.068096,1e-5 0.1361909,3e-5 0.2042863,9e-5 0.075389,5e-5 0.1507776,1.7e-4 0.2261661,-7e-5 0.068016,-3.7e-4 0.1360543,-2.8e-4 0.2040422,0.002 0.062223,0.003 0.1244319,0.007 0.1856371,0.0194 0.06019,0.01 0.1193324,0.007 0.1794323,-0.004 0.069961,-0.0113 0.1395695,-0.0219 0.2107821,-0.017 0.08671,1.4e-4 0.1734204,3.8e-4 0.2601275,10e-4 0.089901,0.002 0.1799998,0.004 0.2691744,0.0169 0.1002456,0.0143 0.1999425,0.0322 0.3013345,0.0368 0.1023493,0.01 0.2044673,0.0141 0.3069555,0.002 0.090022,-0.009 0.1795444,-0.0257 0.2703259,-0.0222 0.090638,0 0.1812891,-3e-4 0.2719125,-0.002 0.084559,-0.003 0.1691267,-0.007 0.2529123,-0.0197 0.07683,-0.011 0.1535483,-0.0155 0.2312266,-0.0128 0.066767,0 0.1335341,0 0.2003012,3e-5 0.070583,4e-5 0.141165,1.2e-4 0.2117471,3.1e-4 0.085069,2.1e-4 0.1701361,3.2e-4 0.2552046,8e-5 0.078257,-1.4e-4 0.1565143,-6.9e-4 0.2347709,-4.9e-4 0.067996,5.9e-4 0.136086,10e-4 0.2038316,0.008 0.074742,0.008 0.1485127,0.0226 0.2233932,0.029 0.078213,0.004 0.1560494,0.011 0.2333493,0.0238 0.069171,0.008 0.1385837,0.006 0.2081667,0.006 0.066633,0 0.1332656,0 0.1998983,0 0.068054,10e-6 0.136108,3e-5 0.2041618,1.8e-4 0.083642,2.1e-4 0.1672838,6e-4 0.2509263,7.7e-4 0.082385,-3e-5 0.1647552,-0.001 0.2471415,-9.3e-4 0.066823,2e-5 0.1336468,6e-5 0.2004702,1.5e-4 0.066745,8e-5 0.1334924,2.8e-4 0.2002341,-4.7e-4 0.066241,-10e-4 0.1326173,-0.003 0.1983777,-0.0116 0.067228,-0.01 0.1340514,-0.0254 0.2024247,-0.0217 0.073687,4e-4 0.1474042,0.001 0.2209843,0.006 0.094413,0.006 0.1885426,0.0152 0.2824464,0.0267 0,0 -0.4324702,0.30493 -0.4324702,0.30493 z"
       inkscape:connector-curvature="0" />
  </g>
</svg>
