<?xml version="1.0" encoding="UTF-8" standalone="no"?>
<!-- Created with Inkscape (http://www.inkscape.org/) -->

<svg
   xmlns:dc="http://purl.org/dc/elements/1.1/"
   xmlns:cc="http://creativecommons.org/ns#"
   xmlns:rdf="http://www.w3.org/1999/02/22-rdf-syntax-ns#"
   xmlns:svg="http://www.w3.org/2000/svg"
   xmlns="http://www.w3.org/2000/svg"
   xmlns:sodipodi="http://sodipodi.sourceforge.net/DTD/sodipodi-0.dtd"
   xmlns:inkscape="http://www.inkscape.org/namespaces/inkscape"
   width="10mm"
   height="10mm"
   viewBox="0 0 10 10"
   version="1.1"
   id="svg8"
   sodipodi:docname="friend.svg"
   inkscape:version="0.92.4 (5da689c313, 2019-01-14)">
  <defs
     id="defs2" />
  <sodipodi:namedview
     id="base"
     pagecolor="#ffffff"
     bordercolor="#666666"
     borderopacity="1.0"
     inkscape:pageopacity="0.0"
     inkscape:pageshadow="2"
     inkscape:zoom="7.9195959"
     inkscape:cx="14.946577"
     inkscape:cy="40.62227"
     inkscape:document-units="mm"
     inkscape:current-layer="layer1"
     showgrid="false"
     inkscape:window-width="1920"
     inkscape:window-height="1017"
     inkscape:window-x="-8"
     inkscape:window-y="-8"
     inkscape:window-maximized="1" />
  <metadata
     id="metadata5">
    <rdf:RDF>
      <cc:Work
         rdf:about="">
        <dc:format>image/svg+xml</dc:format>
        <dc:type
           rdf:resource="http://purl.org/dc/dcmitype/StillImage" />
        <dc:title></dc:title>
      </cc:Work>
    </rdf:RDF>
  </metadata>
  <g
     inkscape:label="Layer 1"
     inkscape:groupmode="layer"
     id="layer1"
     transform="translate(0,-287)">
    <path
       style="fill:#000000;fill-opacity:1;stroke:none;stroke-width:0.26458332;stroke-opacity:1"
       id="path855"
       d="m 4.7651008,289.79155 c -0.089456,-0.0321 -0.1806287,-0.0349 -0.2741896,-0.0305 -0.073797,0.005 -0.1476647,0.008 -0.2216038,0.01 -0.044295,0.005 -0.090151,-0.004 -0.1343097,10e-4 -0.018603,0.002 -0.036273,0.009 -0.054425,0.014 -0.057397,0.004 -0.1075278,0.0248 -0.1622198,0.0384 -0.00937,0.002 -0.019047,0.002 -0.028101,0.005 -0.016293,0.005 -0.030691,0.0154 -0.046947,0.0208 -0.02703,0.009 -0.054808,0.0125 -0.082891,0.0161 -0.07604,0.0233 -0.1551744,0.0428 -0.2340946,0.0573 -0.074383,0.0126 -0.1498656,0.0147 -0.2251189,0.0158 -0.065523,0.007 -0.1266735,-0.006 -0.1900624,-0.0192 -0.059367,-0.0111 -0.1198843,-0.0127 -0.1800889,-0.014 -0.068218,0.002 -0.1340831,-10e-4 -0.2009698,-0.0137 -0.06774,-0.01 -0.1345669,-0.017 -0.2013159,-0.0321 -0.067995,-0.008 -0.1336082,-0.0256 -0.2005429,-0.0393 -0.06221,-0.004 -0.1197115,-0.028 -0.1806756,-0.0392 -0.068033,-0.004 -0.1340796,-0.0179 -0.2012389,-0.0285 -0.071283,-0.0107 -0.1433719,-0.0131 -0.2153231,-0.0145 -0.066019,0.0144 -0.1327486,0.0237 -0.200076,0.0289 -0.065265,0.0194 -0.1325318,0.0286 -0.2002009,0.0339 -0.065355,0.0193 -0.1327118,0.0283 -0.2004436,0.0335 -0.06621,0.0158 -0.13223987,0.0284 -0.1978445,0.0462 -0.061115,0.0119 -0.12202014,0.0287 -0.17896704,0.0543 -0.0600058,0.0135 -0.11079287,0.047 -0.1659858,0.0722 -0.19540902,0.0587 -0.48837814,0.25579 0.28621106,-0.1875 -0.0485457,0.0307 -0.0916813,0.0705 -0.12996225,0.11321 -0.0346198,0.0386 -0.051526,0.0853 -0.072143,0.13164 -0.0344628,0.0688 -0.0201522,0.14164 8.2286e-4,0.21227 0.0169743,0.0622 0.0555967,0.1127 0.09376,0.16316 0.0381881,0.0433 0.0928989,0.0498 0.14716339,0.0548 0.0642761,-0.0126 0.12900278,-0.0215 0.19426538,-0.0267 0.083757,-0.004 0.1678911,-0.008 0.2513182,0.002 0.096243,0.0103 0.1918948,0.0198 0.2871268,0.037 0.096959,6.3e-4 0.1946571,0.002 0.2909169,-0.0109 0.1088826,-0.0181 0.2169095,-0.0251 0.3267771,-0.0168 0.090372,0.009 0.181012,0.0138 0.2717562,0.0165 0.077171,0.002 0.1543631,0.002 0.2315495,0.002 0.067149,-0.003 0.131178,0.0192 0.1939557,0.0399 0.060858,0.019 0.1245706,0.0229 0.187819,0.0255 0.068721,-0.005 0.1344168,0.009 0.2016339,0.0201 0.06505,0.0135 0.1325671,0.005 0.1969352,0.0207 0.056423,0.0165 0.114822,0.0218 0.1732381,0.0249 0.056887,-3.9e-4 0.1120653,-0.0187 0.1691179,-0.025 0.055647,0.01 0.111201,0.0187 0.1676178,0.0229 0.064115,0.004 0.128378,0.004 0.1925873,0.004 0.0638,7.4e-4 0.1270127,-0.007 0.1880828,0.0146 0.1600583,0.17083 -0.3004061,0.25244 -0.4322686,0.32879 -0.00494,0.003 -0.099348,-0.0131 -0.1059095,-0.0139 -0.09529,7.4e-4 -0.1904053,0.007 -0.2856024,0.011 -0.07349,0.006 -0.1446673,0.004 -0.2168811,-0.01 -0.070147,-0.014 -0.1416058,-0.0171 -0.2128871,-0.0194 -0.078936,-0.002 -0.1578954,-0.002 -0.2368466,-0.002 -0.070915,0.004 -0.1433036,-0.007 -0.2131586,0.007 -0.043357,0.0136 -0.09027,0.0109 -0.1341539,0.0204 -0.018941,0.004 -0.03666,0.0126 -0.055144,0.0184 -0.067463,0.0262 -0.1374009,0.0437 -0.2032932,0.0741 -0.069006,0.0402 -0.1388776,0.0785 -0.2130098,0.10843 -0.1916417,0.0849 -0.5635599,0.31019 0.2337189,-0.14686 -0.046141,0.0303 -0.095587,0.059 -0.1286835,0.10413 -0.036522,0.0704 -0.017444,0.15098 -0.00242,0.22466 0.020446,0.0864 0.065142,0.107 0.1388874,0.14149 0.069041,0.0324 0.1456327,0.0315 0.218815,0.0459 0.078202,0.0172 0.1579165,0.0229 0.2376899,0.0263 0.074408,0.002 0.1488663,0.002 0.223302,0.002 0.098272,8e-5 0.196541,8.5e-4 0.2948133,7.2e-4 0.096811,-1.5e-4 0.1936213,-4.8e-4 0.2904318,-8.7e-4 0.079909,-0.0166 0.1609262,-0.0239 0.2422491,-0.0287 0.097325,-0.004 0.1947539,-0.004 0.2921473,-0.004 0.082165,0.003 0.1654879,-0.008 0.2467981,0.006 0.045228,0.005 0.090814,0.0207 0.1367059,0.0204 0.1268156,-9.7e-4 -0.071003,-0.009 0.065224,-0.002 0.023627,-0.007 0.051767,-0.004 0.074225,-0.0159 0.00317,-0.002 0.010239,-0.01 0.00726,-0.008 -0.4642504,0.30974 -0.2736697,0.34107 -0.4834596,0.29791 -0.078962,-0.0278 -0.1610699,-0.0428 -0.2441848,-0.0503 -0.096686,-0.007 -0.1936758,-0.006 -0.2905336,-0.006 -0.1133809,-2.3e-4 -0.226762,2.2e-4 -0.3401428,3.2e-4 -0.1008348,0.01 -0.2007098,0.0242 -0.3005553,0.0407 -0.1065681,0.0156 -0.214026,0.0285 -0.3190526,0.0528 -0.099994,0.0218 -0.1989495,0.0482 -0.2973016,0.0766 -0.081585,0.0152 -0.1599109,0.0421 -0.2321117,0.0829 0.7547915,-0.4495 0.4313652,-0.27619 0.2791773,-0.12215 -0.044945,0.0479 -0.046655,0.0818 -0.019996,0.13889 0.036456,0.062 0.1033538,0.0991 0.1587633,0.14294 0.07412,0.0613 0.1582933,0.10953 0.244683,0.1513 0.1038931,0.0444 0.2144093,0.0683 0.3259568,0.0832 0.1129009,0.007 0.2243823,0.0257 0.3369041,0.0365 0.1251309,0.006 0.2507458,-0.008 0.3759829,-0.0136 0.1460627,-0.009 0.2900757,-0.0331 0.4347313,-0.0538 0.093445,-0.0165 0.1900799,-0.0284 0.2812661,-0.0555 0.1871729,-0.0504 0.4216932,-0.25885 -0.3691847,0.23111 -0.036895,0.0229 0.057496,10e-4 -0.00461,0.0129 -0.094924,-0.042 -0.1967018,-0.0641 -0.2964733,-0.0912 -0.1229037,-0.0365 -0.2474952,-0.0292 -0.371734,-0.006 -0.1492491,0.0224 -0.2924818,0.0712 -0.437026,0.11273 -0.1242875,0.0411 -0.2486121,0.0818 -0.372908,0.12293 -0.057522,0.0242 -0.1189468,0.0384 -0.1762867,0.0631 -0.1288689,0.0554 -0.5992529,0.33853 0.2829667,-0.1656 -0.081762,0.0482 -0.1599539,0.10046 -0.2249301,0.17004 -0.044977,0.0516 -0.058053,0.11486 -0.06454,0.18085 -0.00868,0.065 0.00915,0.12162 0.040218,0.17739 0.039406,0.0706 0.1128216,0.10314 0.1826351,0.13621 0.1024297,0.0432 0.208643,0.0758 0.3174727,0.0982 0.1177597,0.0196 0.2369662,0.0237 0.3554003,0.038 0.1020432,0.006 0.2021951,0.0228 0.3031074,0.0378 0.089687,0.0111 0.1803686,0.0196 0.2704942,0.0109 0.105374,-0.009 0.2112825,-0.0231 0.3129671,-0.0529 0.084804,-0.0169 0.1659869,-0.0462 0.2508914,-0.0626 0.1897589,-0.071 0.5022945,-0.27035 -0.2772426,0.17624 0.079423,-0.0443 0.1381594,-0.11372 0.198034,-0.18038 0.061089,-0.0696 0.122142,-0.13869 0.1972326,-0.1934 0.2116738,-0.14626 0.4347533,-0.27965 0.6721544,-0.37919 0.1875525,-0.0879 0.5501823,-0.30689 -0.238964,0.14723 0.069593,-0.0414 0.1367777,-0.0863 0.2019313,-0.13433 0.1915621,-0.14209 0.3885499,-0.31304 0.6284564,-0.3471 0.026763,-0.002 0.04944,-7e-5 0.071652,-0.0154 0,0 -0.419739,0.32536 -0.419739,0.32536 v 0 c -0.024553,0.001 -0.048939,0.003 -0.072821,0.01 -0.1708338,0.0518 -0.3997039,0.22391 0.3688818,-0.22607 0.00933,-0.005 -0.019629,0.009 -0.028858,0.0148 -0.024286,0.0148 -0.035825,0.0266 -0.057441,0.0454 -0.067527,0.0448 -0.1299068,0.0973 -0.2002158,0.13811 -0.2195719,0.12677 -0.4332332,0.2663 -0.6655665,0.36907 -0.017132,0.008 -0.060417,0.0282 -0.076964,0.0365 -0.012737,0.006 -0.050166,0.027 -0.037874,0.0198 0.7355816,-0.43096 0.49595,-0.29732 0.3456445,-0.1969 -0.078914,0.0515 -0.1444027,0.10806 -0.2035114,0.18255 -0.060204,0.0674 -0.1157047,0.14076 -0.1896743,0.19385 -0.1880282,0.10846 -0.4052302,0.27632 -0.6350002,0.33287 -0.083088,0.0201 -0.164977,0.0449 -0.2485642,0.063 -0.1049567,0.0221 -0.2110483,0.0385 -0.3182638,0.0445 -0.092956,0.002 -0.1858179,-0.004 -0.2776408,-0.0194 -0.099707,-0.016 -0.1996091,-0.0277 -0.3001219,-0.0376 -0.1193249,-0.0137 -0.2400673,-0.0165 -0.3576849,-0.0427 -0.11167,-0.0261 -0.2220628,-0.059 -0.3265201,-0.10685 -0.079146,-0.0389 -0.1574084,-0.0828 -0.2024224,-0.1621 -0.035109,-0.0638 -0.06087,-0.13011 -0.054504,-0.20459 0.00404,-0.0734 0.011948,-0.14704 0.052125,-0.21081 0.058758,-0.0799 0.136208,-0.13853 0.2223548,-0.18713 0.2672536,-0.15586 0.5009403,-0.32146 0.7935576,-0.40699 0.1243608,-0.0403 0.2479598,-0.083 0.373109,-0.12085 0.1450507,-0.0425 0.290639,-0.085 0.4404585,-0.10736 0.1305018,-0.0177 0.2596338,-0.0175 0.3867801,0.0219 0.1050184,0.0273 0.2118535,0.0537 0.309626,0.10176 0.012912,0.0116 0.028129,0.0211 0.038738,0.0348 0.00633,0.008 0.019193,0.0233 0.010657,0.0292 -0.2940823,0.20157 -0.3192331,0.2468 -0.5391037,0.29826 -0.093044,0.0186 -0.186201,0.0375 -0.2805091,0.0484 -0.1448718,0.0211 -0.290027,0.0394 -0.4362164,0.0487 -0.1276765,0.007 -0.2561209,0.0226 -0.3838173,0.009 -0.1123196,-0.0126 -0.2242706,-0.0283 -0.3367654,-0.0393 -0.1154087,-0.0186 -0.2303776,-0.0452 -0.33654,-0.0956 -0.089121,-0.0442 -0.1747123,-0.0965 -0.251868,-0.1596 -0.062922,-0.0484 -0.1352101,-0.0905 -0.1739319,-0.16242 -0.030875,-0.0641 -0.050032,-0.13098 -0.0065,-0.19493 0.1600408,-0.1966 0.3972732,-0.29229 0.6198072,-0.41218 0.076279,-0.0329 0.1556455,-0.0552 0.2365003,-0.0741 0.098607,-0.0275 0.1983195,-0.0516 0.2984966,-0.0726 0.1064514,-0.0192 0.2133621,-0.0355 0.3203644,-0.0513 0.10091,-0.0169 0.2028539,-0.0295 0.3051508,-0.0334 0.1135028,-1.6e-4 0.2270056,-2.2e-4 0.3405084,-3.2e-4 0.098602,2e-4 0.1975282,-3.4e-4 0.2957254,0.01 0.084683,0.0111 0.1670346,0.0318 0.2491652,0.055 0.2693173,0.0744 -0.2832893,0.35829 -0.4603879,0.33534 -0.069027,5.6e-4 -0.1361742,-0.012 -0.2042311,-0.0223 -0.080306,-0.004 -0.1608193,-10e-4 -0.2411984,-0.002 -0.096972,4.3e-4 -0.1940473,0.001 -0.2908221,0.008 -0.081942,0.007 -0.1628439,0.022 -0.2449226,0.026 -0.096055,-3.7e-4 -0.1921095,-6.9e-4 -0.2881654,-7.4e-4 -0.099182,-1e-5 -0.1983584,9.5e-4 -0.2975396,10e-4 -0.074884,1.8e-4 -0.1498072,-5.1e-4 -0.2245935,-0.005 -0.081035,-0.005 -0.1614854,-0.0147 -0.2411125,-0.0311 -0.078128,-0.0107 -0.1563083,-0.0214 -0.2274793,-0.0582 -0.080792,-0.0404 -0.1408694,-0.0916 -0.1619974,-0.18374 -0.017606,-0.0832 -0.040056,-0.17068 -0.017196,-0.2548 0.02158,-0.0601 0.065289,-0.0984 0.1199133,-0.1303 0.2218051,-0.12939 0.4343523,-0.27133 0.6704088,-0.37162 0.072345,-0.0344 0.1411987,-0.0756 0.2144735,-0.10809 0.068846,-0.0253 0.1386364,-0.0479 0.2084626,-0.0703 0.06339,-0.0157 0.1291711,-0.0205 0.1934628,-0.0316 0.071969,-0.003 0.1440357,-9e-4 0.2160547,-10e-4 0.0794,2.4e-4 0.1588416,-8e-5 0.2381869,0.003 0.072871,0.004 0.1454748,0.01 0.2172042,0.0239 0.069658,0.009 0.1397521,0.004 0.2097905,0.002 0.09599,-0.004 0.1921303,-0.01 0.2881789,-0.005 0.2311955,0.012 0.2898759,-0.18591 -0.3428993,0.2638 -0.051027,0.0363 0.038466,0.024 0.016058,0.0268 -0.058585,-0.0104 -0.119013,-0.001 -0.1781474,-0.005 -0.06527,-6.7e-4 -0.1306335,-0.001 -0.1956731,-0.008 -0.05328,-0.006 -0.1070237,-0.019 -0.1605994,-0.0131 -0.058252,0.01 -0.1158677,0.0249 -0.1754027,0.0158 -0.059544,-0.005 -0.1180777,-0.0157 -0.1763842,-0.0289 -0.065478,-0.006 -0.1314693,-0.008 -0.1962025,-0.021 -0.065935,-0.011 -0.1317173,-0.0142 -0.1985349,-0.0154 -0.066375,-0.005 -0.1324578,-0.0141 -0.1956477,-0.0362 -0.059544,-0.0185 -0.1207369,-0.0306 -0.1834482,-0.0273 -0.077504,-2.9e-4 -0.1550449,-10e-5 -0.2324924,-0.003 -0.09033,-0.004 -0.1804541,-0.0114 -0.2705946,-0.0186 -0.1079661,-0.004 -0.2144449,0.01 -0.321443,0.0233 -0.099749,0.007 -0.2011275,0.0128 -0.3005917,1.8e-4 -0.093957,-0.0158 -0.1889929,-0.0237 -0.28374601,-0.0332 -0.0827904,-0.003 -0.16580215,-2e-4 -0.24830524,0.007 -0.0670477,0.008 -0.13435227,0.0233 -0.20197344,0.0168 -0.0660803,-0.0125 -0.12666467,-0.0347 -0.16992478,-0.0892 -0.0420342,-0.0553 -0.0814874,-0.11296 -0.10049298,-0.18081 -0.0240872,-0.0779 -0.0481102,-0.16384 -0.0206143,-0.24354 0.006298,-0.0154 0.0153485,-0.0296 0.0212882,-0.0451 0.0129907,-0.034 0.0172122,-0.0705 0.0468222,-0.0961 0.0292199,-0.055 0.0793992,-0.0907 0.12236235,-0.13453 0.2258015,-0.13005 0.39410658,-0.24963 0.6199388,-0.33254 0.054434,-0.0279 0.1111804,-0.0487 0.1689874,-0.0686 0.060072,-0.0188 0.1199155,-0.0369 0.1816903,-0.0495 0.066741,-0.0171 0.1350174,-0.0293 0.2030607,-0.0396 0.067411,-0.008 0.1332462,-0.024 0.2003936,-0.0336 0.06739,-0.008 0.1331816,-0.0244 0.2003734,-0.0336 0.067967,-0.008 0.1352536,-0.023 0.20379,-0.0235 0.073221,0.003 0.146407,0.008 0.2186873,0.0206 0.067977,0.0113 0.1364076,0.0177 0.2042395,0.0296 0.059826,0.0144 0.1187877,0.0316 0.179979,0.0399 0.066499,0.0151 0.1334915,0.0262 0.2004271,0.0391 0.066176,0.0131 0.1337075,0.017 0.1999634,0.03 0.065437,0.009 0.1313439,0.005 0.1972347,0.008 0.062371,0.003 0.1248214,0.007 0.1859005,0.0209 0.060364,0.0122 0.1206357,0.0136 0.182178,0.0102 0.073186,-0.002 0.1464834,-0.007 0.218299,-0.0222 0.079455,-0.0174 0.1575477,-0.0404 0.2368317,-0.0582 0.052684,-0.0127 0.1021882,-0.0347 0.1553562,-0.0457 0.053924,-0.0163 0.109115,-0.0242 0.1643232,-0.0352 0.063942,-0.009 0.1288243,-0.004 0.1932514,-0.007 0.073448,-0.002 0.1468054,-0.006 0.2202532,-0.009 0.097366,-3e-5 0.1919829,0.0146 0.2856161,0.0419 0,0 -0.436458,0.29891 -0.436458,0.29891 z"
       inkscape:connector-curvature="0" />
    <path
       style="fill:#000000;fill-opacity:1;stroke:none;stroke-width:0.26458332;stroke-opacity:1"
       id="path857"
       d="m 5.8143404,290.0674 c -0.00851,0.18793 -0.00661,0.37578 0.00288,0.56358 0.012943,0.20366 0.058924,0.4031 0.1021834,0.60194 0.02926,0.11817 0.056776,0.23672 0.07749,0.3567 0,0 -0.4630643,0.24496 -0.4630643,0.24496 v 0 c -0.016415,-0.12047 -0.040618,-0.23954 -0.069833,-0.35757 -0.041262,-0.2021 -0.088919,-0.40397 -0.1036889,-0.61024 -0.00982,-0.18657 -0.011591,-0.37308 -0.016145,-0.5598 0,0 0.470178,-0.23957 0.4701778,-0.23957 z"
       inkscape:connector-curvature="0" />
    <path
       style="fill:#000000;fill-opacity:1;stroke:none;stroke-width:0.26458332;stroke-opacity:1"
       id="path861"
       d="m 5.2722023,290.75097 c -0.023432,-0.0937 -0.040878,-0.18866 -0.052233,-0.28458 -0.00379,-0.0685 -0.00936,-0.13572 -0.023148,-0.20294 -0.013981,-0.0651 -0.01587,-0.13185 -0.020659,-0.19805 -0.00921,-0.0928 -0.035151,-0.18277 -0.050814,-0.27459 -0.00406,-0.0651 -0.020966,-0.12761 -0.033643,-0.19119 -0.00446,-0.0569 -0.021188,-0.11122 -0.032922,-0.16676 -0.011882,-0.063 -0.013676,-0.12727 -0.015092,-0.1912 7.144e-4,-0.0666 -0.014893,-0.13185 -0.023349,-0.19765 -0.00788,-0.063 -0.00529,-0.12648 -0.01782,-0.18884 -0.013933,-0.056 -0.024564,-0.11068 0.012816,-0.15898 0.3339713,-0.23402 0.3642804,-0.27191 0.6361528,-0.27183 0.066629,-0.002 0.1308459,-7.4e-4 0.1956591,0.0146 0.05788,0.0139 0.1174173,0.0169 0.1766615,0.0191 0.065708,0.002 0.1314466,0.001 0.1971709,0.001 0.087768,-0.003 0.1745231,0.002 0.2615488,0.0126 0.076348,0.002 0.1476142,0.0288 0.2217965,0.043 0.065785,-0.0106 0.1214454,-0.0137 0.1875184,-0.005 0.053881,-0.0104 0.1120228,-0.003 0.1635782,-0.0223 0.060987,-0.0213 0.1265811,-0.0227 0.190497,-0.0259 0.046973,-0.005 0.095136,0.002 0.1420413,-0.003 0.091755,-0.009 -0.024754,-0.006 0.064034,-0.007 0.057296,-0.0152 0.1162457,-0.0204 0.1751965,-0.0237 0.074812,-0.002 0.1496541,-0.002 0.2244899,-0.003 0.034491,-0.007 0.065933,0.01 0.099179,0.0132 0.02154,0.002 0.046862,-0.004 0.068293,-0.006 0.05286,5.3e-4 0.099763,-0.0222 0.1514864,-0.031 0.062463,-0.008 0.1256172,-0.009 0.188536,-0.01 0.038189,8.7e-4 0.064286,-0.0288 0.097581,-0.0393 0.011552,-0.004 0.024059,-0.003 0.036085,-0.005 0.034855,0.0284 0.033382,0.0642 0.035916,0.10492 0.00214,0.0343 0.00545,0.0686 0.00806,0.10286 0.00467,0.10785 0.014351,0.2148 0.02862,0.32176 0.010716,0.10134 0.030998,0.20141 0.050678,0.30131 0.031263,0.13349 0.05098,0.26929 0.076704,0.40389 0.026683,0.14562 0.061142,0.28966 0.094404,0.43388 0.0334,0.16967 0.078389,0.33648 0.1272426,0.50224 0.051667,0.18511 0.105501,0.36958 0.1555729,0.55513 0.044684,0.17928 0.078271,0.361 0.117471,0.54149 0.02832,0.14991 0.060692,0.2988 0.096862,0.44701 0.03281,0.1566 0.075943,0.31071 0.1140158,0.46607 0.01646,0.11654 0.060335,0.23032 0.062565,0.34848 -0.00502,0.0267 -0.00893,0.0743 -0.036846,0.0905 -0.4190251,0.24374 -0.3122417,0.28539 -0.545347,0.26045 -0.082261,-0.0112 -0.1662284,-6.9e-4 -0.2476995,0.013 -0.1391621,0.0177 -0.2716389,0.0663 -0.4038581,0.11085 -0.179152,0.0594 -0.3572833,0.12126 -0.5321472,0.19236 -0.1543015,0.0605 -0.3070902,0.12151 -0.4562342,0.19414 -0.085327,0.0426 -0.056171,0.0269 -0.1374704,0.0718 -0.02122,0.0117 -0.084517,0.0475 -0.063525,0.0354 0.7038435,-0.40655 0.4392912,-0.25627 0.286892,-0.15904 -0.059391,0.0394 -0.118359,0.0802 -0.1700364,0.1295 -0.039179,0.0379 -0.076707,0.0777 -0.1171225,0.11425 -0.1882064,0.12214 -0.3809312,0.33871 -0.6075519,0.25057 -0.051459,-0.0131 -0.099351,-0.035 -0.1500486,-0.0503 -0.038718,-0.0268 -0.088554,-0.0324 -0.1252763,-0.0628 -0.015126,-0.0125 -0.028135,-0.0273 -0.042203,-0.041 -0.1090904,-0.11254 -0.1694945,-0.25162 -0.2179217,-0.39806 -0.048952,-0.16641 -0.081471,-0.33695 -0.1161158,-0.50672 -0.037445,-0.19134 -0.062988,-0.38463 -0.08973,-0.57766 -0.023164,-0.1599 -0.040939,-0.32106 -0.074268,-0.47926 -0.022632,-0.14646 -0.075196,-0.28496 -0.1176755,-0.42611 -0.025342,-0.078 -0.013234,-0.039 -0.036348,-0.11702 0,0 0.4591902,-0.25052 0.4591902,-0.25052 v 0 c 0.021958,0.0775 0.01029,0.0384 0.035098,0.11754 0.040639,0.14308 0.0944,0.28265 0.1183362,0.43014 0.034621,0.15974 0.051042,0.32284 0.072197,0.48477 0.025752,0.19187 0.05103,0.38384 0.089826,0.57363 0.034967,0.16765 0.065725,0.3364 0.1137494,0.50101 0.046194,0.13708 0.1006321,0.26979 0.2085398,0.371 0.049408,0.0366 0.1035066,0.0615 0.1607754,0.0838 0.049062,0.0179 0.098458,0.034 0.148835,0.0479 0.028385,0.004 0.061972,0.0108 0.089968,0.001 0.00627,-0.002 0.023392,-0.0125 0.017664,-0.009 -0.1432366,0.0838 -0.2868062,0.16699 -0.4302093,0.25048 0.049904,-0.0237 0.079133,-0.0706 0.1221412,-0.10396 0.049225,-0.0568 0.1084271,-0.10063 0.1699033,-0.14366 0.2642893,-0.16231 0.5287946,-0.32602 0.8083049,-0.46119 0.1495904,-0.0705 0.3037362,-0.12859 0.4570405,-0.19034 0.176294,-0.069 0.355433,-0.1299 0.5346785,-0.19069 0.1354447,-0.0453 0.2717419,-0.0906 0.4143716,-0.10699 0.085479,-0.0103 0.1708803,-0.0176 0.2568405,-0.008 0.00977,-3.7e-4 0.019622,2.5e-4 0.029308,-10e-4 0.00865,-10e-4 0.03287,-0.0109 0.025405,-0.006 -0.142013,0.0863 -0.2866631,0.16816 -0.4299948,0.25223 0.01837,-0.007 0.0316,-0.009 0.044642,-0.0247 0.00588,-0.007 0.00864,-0.0166 0.012965,-0.0248 0.015187,-0.11334 -0.038932,-0.22651 -0.048748,-0.33879 -0.036847,-0.15552 -0.081338,-0.30912 -0.1144037,-0.46553 -0.037131,-0.14873 -0.070427,-0.2981 -0.095961,-0.4493 -0.038185,-0.17999 -0.07038,-0.36126 -0.1147161,-0.53994 -0.049769,-0.1852 -0.1033397,-0.36926 -0.1544506,-0.5541 -0.050434,-0.1659 -0.09895,-0.33258 -0.1324678,-0.50289 -0.034881,-0.14452 -0.067765,-0.28962 -0.09509,-0.43576 -0.0269,-0.13389 -0.046668,-0.26928 -0.080337,-0.40171 -0.020516,-0.10082 -0.042236,-0.20174 -0.053053,-0.30416 -0.013478,-0.1079 -0.025392,-0.21539 -0.028909,-0.3242 -0.00164,-0.0174 -0.031874,-0.20315 -0.00279,-0.12766 -0.044927,0.0153 -0.086637,0.0382 -0.1366435,0.0332 -0.061452,0.002 -0.1233249,0.004 -0.1834536,0.0182 -0.051777,0.0131 -0.1025774,0.0262 -0.1566135,0.0252 -0.056457,10e-4 -0.1107223,-0.0151 -0.1674008,-0.0111 -0.074352,3.2e-4 -0.1488401,3e-4 -0.2229924,0.006 -0.059028,0.006 -0.1170628,0.0181 -0.1761419,0.0228 -0.068078,0.007 -0.1364866,0.004 -0.2046774,0.01 -0.063555,0.005 -0.1257911,0.0156 -0.1871631,0.0333 -0.057222,0.005 -0.1149271,0.0137 -0.172411,0.008 -0.064053,-0.003 -0.1278538,0.0128 -0.1914392,1e-4 -0.071433,-0.0172 -0.1420816,-0.0368 -0.2160059,-0.0406 -0.086738,-0.009 -0.1733859,-0.007 -0.2604627,-0.006 -0.066328,-10e-5 -0.1326983,-6e-5 -0.1989608,-0.003 -0.061153,-0.004 -0.1219605,-0.0109 -0.1816968,-0.0251 -0.062278,-0.0102 -0.1255966,-0.005 -0.1884841,-0.006 -0.2411312,0.006 -0.3932569,0.14399 0.2852261,-0.23118 -0.068156,0.011 -0.053154,0.0438 -0.040877,0.10097 0.014092,0.064 0.014499,0.12816 0.019124,0.1934 0.00761,0.0677 0.024299,0.13433 0.025969,0.20232 9.26e-4,0.0609 0.00177,0.12208 0.011435,0.18235 0.010745,0.056 0.030229,0.10999 0.033049,0.16739 0.011602,0.0646 0.030944,0.12754 0.032464,0.19368 0.013449,0.0931 0.038227,0.18386 0.051268,0.27696 0.0097,0.064 0.0087,0.12889 0.02109,0.19259 0.013896,0.0693 0.023101,0.1377 0.023032,0.20866 0.00863,0.093 0.022069,0.18591 0.050382,0.27522 0,0 -0.4644784,0.25319 -0.4644784,0.25319 z"
       inkscape:connector-curvature="0" />
  </g>
</svg>
