<?xml version="1.0" encoding="UTF-8" standalone="no"?>
<!-- Created with Inkscape (http://www.inkscape.org/) -->

<svg
   xmlns:dc="http://purl.org/dc/elements/1.1/"
   xmlns:cc="http://creativecommons.org/ns#"
   xmlns:rdf="http://www.w3.org/1999/02/22-rdf-syntax-ns#"
   xmlns:svg="http://www.w3.org/2000/svg"
   xmlns="http://www.w3.org/2000/svg"
   xmlns:sodipodi="http://sodipodi.sourceforge.net/DTD/sodipodi-0.dtd"
   xmlns:inkscape="http://www.inkscape.org/namespaces/inkscape"
   width="50mm"
   height="50mm"
   viewBox="0 0 50 50"
   version="1.1"
   id="svg8"
   sodipodi:docname="people.svg"
   inkscape:version="0.92.4 (5da689c313, 2019-01-14)">
  <defs
     id="defs2" />
  <sodipodi:namedview
     id="base"
     pagecolor="#ffffff"
     bordercolor="#666666"
     borderopacity="1.0"
     inkscape:pageopacity="0.0"
     inkscape:pageshadow="2"
     inkscape:zoom="3.959798"
     inkscape:cx="80.971475"
     inkscape:cy="118.57642"
     inkscape:document-units="mm"
     inkscape:current-layer="layer1"
     showgrid="false"
     inkscape:window-width="1920"
     inkscape:window-height="1017"
     inkscape:window-x="-8"
     inkscape:window-y="-8"
     inkscape:window-maximized="1"
     showguides="false" />
  <metadata
     id="metadata5">
    <rdf:RDF>
      <cc:Work
         rdf:about="">
        <dc:format>image/svg+xml</dc:format>
        <dc:type
           rdf:resource="http://purl.org/dc/dcmitype/StillImage" />
        <dc:title></dc:title>
      </cc:Work>
    </rdf:RDF>
  </metadata>
  <g
     inkscape:label="Layer 1"
     inkscape:groupmode="layer"
     id="layer1"
     transform="translate(0,-247)">
    <path
       style="fill:#000000;fill-opacity:1;stroke:none;stroke-width:0.25904086;stroke-opacity:1"
       id="path916"
       d="m 11.971054,251.58401 c 0.138718,-0.17593 0.30677,-0.32077 0.490041,-0.44986 0.02685,-0.0174 0.05269,-0.0364 0.08055,-0.0521 0.322,-0.18218 0.64258,-0.36696 0.968875,-0.54163 0.02638,-0.0141 0.05817,-0.0149 0.08689,-0.0236 0.08162,-0.0246 0.163016,-0.0495 0.242632,-0.0798 0.129915,-0.0457 0.252758,-0.11399 0.371116,-0.18381 0.122692,-0.0624 0.256453,-0.0979 0.383247,-0.15003 0.09908,-0.0363 0.206921,-0.0375 0.30596,-0.0731 0.04849,-0.0175 0.09492,-0.04 0.14295,-0.0587 0.14137,-0.0767 0.299925,-0.11096 0.447651,-0.17375 -0.06746,0.0694 0.31212,-0.15675 0.213524,-0.10152 -1.442756,0.80819 -0.994358,0.5691 -0.686549,0.37861 0.163611,-0.10537 0.333868,-0.2002 0.500273,-0.30113 0.449717,-0.27871 0.915774,-0.53197 1.376529,-0.79207 -1.711118,0.98399 -0.357716,0.17984 0.24058,-0.13222 0.07206,-0.0375 0.148695,-0.064 0.222512,-0.0978 0.13337,-0.0516 0.274372,-0.0751 0.406075,-0.13139 0.131232,-0.0465 0.267508,-0.072 0.395411,-0.12787 0.145683,-0.0529 0.299034,-0.0842 0.444953,-0.13668 0.165206,-0.0451 0.319195,-0.11777 0.47726,-0.18123 0.171402,-0.0536 0.336646,-0.1242 0.508926,-0.17485 0.154167,-0.0386 0.305632,-0.0897 0.455562,-0.1423 0.178158,-0.0547 0.348464,-0.1312 0.529568,-0.17673 0.186585,-0.0464 0.373971,-0.0814 0.565415,-0.10133 0.160069,-0.027 0.314209,-0.0748 0.472963,-0.10679 0.173846,-0.0412 0.35187,-0.0617 0.52676,-0.0974 0.18105,-0.0462 0.369123,-0.045 0.552322,-0.0759 0.182888,-0.0281 0.366218,-0.045 0.548466,-0.0768 0.186496,-0.0339 0.376406,-0.0384 0.565445,-0.0433 0.211897,-0.003 0.423824,-0.003 0.635737,-0.003 0.212657,-0.004 0.423104,-0.002 0.634231,0.0232 0.200723,0.0207 0.40089,0.0351 0.600844,0.062 0.231777,0.0245 0.463674,0.0375 0.695065,0.0653 0.226734,0.0249 0.450172,0.0726 0.674056,0.11474 0.248815,0.0508 0.501342,0.0782 0.751958,0.11795 0.252244,0.0271 0.499904,0.0772 0.747109,0.13182 0.262489,0.0772 0.523346,0.1605 0.783444,0.24545 0.291347,0.0819 0.583049,0.16077 0.87371,0.24489 0.258045,0.0819 0.520044,0.15117 0.783326,0.21473 0.257124,0.0714 0.510306,0.15497 0.770925,0.21381 0.23847,0.0516 0.470452,0.12454 0.702087,0.19974 0.217915,0.0865 0.442869,0.15449 0.660089,0.24267 0.217113,0.0826 0.438786,0.1513 0.660525,0.22042 0.244742,0.0718 0.491452,0.13584 0.733118,0.21748 0.27562,0.1014 0.541747,0.22432 0.815229,0.33096 0.28531,0.11049 0.558959,0.24503 0.842743,0.35893 0.356297,0.13959 0.709175,0.28784 1.057893,0.44487 0.358974,0.16682 0.702761,0.36192 1.055539,0.54058 0.288181,0.14605 0.582176,0.28082 0.869143,0.42914 0.232521,0.14612 0.460551,0.2988 0.692698,0.44566 0.281155,0.17585 0.532641,0.39204 0.786613,0.60283 0.293836,0.27852 0.591043,0.55294 0.897051,0.81857 0.329398,0.26701 0.647951,0.54621 0.960555,0.8319 0.252279,0.24972 0.501547,0.50303 0.739689,0.76586 0.21607,0.23075 0.444725,0.4496 0.663439,0.6778 0.251262,0.27679 0.466748,0.58219 0.692297,0.87897 0.189964,0.28291 0.403784,0.54771 0.629384,0.80354 0.219303,0.26276 0.428699,0.53312 0.63312,0.80712 0.198331,0.27114 0.383794,0.551 0.57465,0.82716 0.202874,0.29095 0.346807,0.61416 0.503078,0.93005 0.149115,0.28864 0.27334,0.58875 0.386185,0.89256 0.0776,0.24842 0.167127,0.49288 0.250252,0.73954 0.06972,0.21338 0.146887,0.42412 0.226256,0.63417 0.105053,0.26772 0.239324,0.5227 0.358503,0.78449 0.139159,0.31514 0.261709,0.63687 0.384096,0.95853 0.0872,0.19348 0.150022,0.39559 0.21151,0.59795 0.06001,0.27643 0.149886,0.54472 0.232614,0.81501 0.103139,0.33604 0.201531,0.67311 0.295982,1.01161 0.08797,0.32072 0.154028,0.64667 0.203722,0.97506 0.02616,0.24715 0.07156,0.49185 0.122784,0.73502 0.0639,0.27687 0.116379,0.55588 0.168745,0.83504 0.04954,0.25537 0.06866,0.5142 0.0759,0.77358 -0.0027,0.31562 0.0097,0.63022 0.02982,0.94514 0.0224,0.30708 0.03163,0.61471 0.03632,0.92247 -0.0046,0.32675 -0.0594,0.64958 -0.0908,0.97431 -0.03422,0.39004 -0.04048,0.78174 -0.04331,1.17299 -0.0033,0.37812 -0.06545,0.75264 -0.159778,1.11837 -0.104961,0.34152 -0.229232,0.67632 -0.330331,1.01904 -0.108025,0.38982 -0.228092,0.77551 -0.371198,1.15427 -0.139111,0.36325 -0.285417,0.72379 -0.432313,1.08406 -0.149466,0.37719 -0.306121,0.75152 -0.463445,1.12561 -0.174503,0.40949 -0.391307,0.79987 -0.619477,1.18248 -0.231575,0.38209 -0.444877,0.77385 -0.647617,1.17125 -0.210069,0.42503 -0.40742,0.85588 -0.611656,1.28361 -0.201889,0.43359 -0.455281,0.84062 -0.697769,1.25277 -0.245005,0.42067 -0.480921,0.84607 -0.734787,1.26174 -0.28566,0.44711 -0.572993,0.8931 -0.861734,1.33832 -0.301678,0.45697 -0.603245,0.91401 -0.946474,1.34219 -0.323397,0.40546 -0.730608,0.73 -1.128221,1.06099 -0.416406,0.35686 -0.844061,0.70097 -1.293936,1.01637 -0.744164,0.50002 -1.539073,0.92247 -2.324656,1.35529 -0.525403,0.28372 -1.051235,0.56726 -1.582905,0.83947 -0.53214,0.2684 -1.077378,0.50884 -1.624908,0.74492 -0.529078,0.22483 -1.059619,0.4444 -1.575842,0.69691 -0.495701,0.27181 -1.006788,0.51451 -1.510235,0.77197 -0.49527,0.23565 -0.995661,0.46016 -1.482531,0.71238 -0.446925,0.24191 -0.901949,0.46646 -1.37225,0.66102 -0.42907,0.1683 -0.868649,0.30422 -1.315764,0.41687 -0.42682,0.0816 -0.85704,0.14443 -1.283996,0.2261 -0.398725,0.0772 -0.798982,0.13982 -1.205693,0.14977 -0.400372,0.012 -0.794068,-0.0556 -1.185986,-0.12519 -0.370024,-0.0798 -0.746269,-0.1252 -1.118833,-0.19128 -0.353056,-0.0487 -0.703485,-0.11152 -1.053072,-0.18007 -0.341211,-0.0701 -0.679706,-0.15188 -1.019647,-0.22748 -0.309937,-0.0588 -0.621236,-0.11057 -0.930494,-0.17278 -0.308047,-0.0738 -0.609869,-0.16985 -0.914261,-0.25655 -0.321437,-0.0947 -0.644921,-0.18325 -0.970783,-0.26204 -0.330296,-0.0722 -0.654429,-0.16694 -0.975591,-0.27141 -0.326394,-0.0958 -0.65971,-0.16389 -0.9855,-0.26168 -0.329884,-0.0971 -0.644984,-0.23127 -0.955357,-0.37605 -0.335563,-0.16025 -0.673065,-0.3182 -1.004301,-0.48709 -0.295075,-0.15632 -0.589652,-0.31319 -0.877921,-0.48133 -0.264875,-0.16752 -0.554373,-0.2913 -0.826478,-0.44557 -0.296674,-0.15889 -0.544466,-0.38151 -0.780514,-0.61537 -0.295342,-0.28931 -0.598579,-0.5702 -0.913644,-0.8387 -0.337817,-0.26786 -0.640699,-0.57297 -0.9428284,-0.87808 -0.3303717,-0.35823 -0.6707841,-0.70736 -1.0032548,-1.06365 -0.3404021,-0.37479 -0.6339116,-0.78688 -0.9470421,-1.18336 -0.3272551,-0.40612 -0.6729648,-0.79701 -1.0029926,-1.20085 -0.2385045,-0.31558 -0.4608659,-0.64207 -0.7112489,-0.94886 -0.2569898,-0.31583 -0.5216096,-0.62554 -0.7764659,-0.94307 -0.2702932,-0.35182 -0.5499694,-0.69657 -0.8187839,-1.04949 -0.237785,-0.3209 -0.4572074,-0.65429 -0.6807466,-0.98475 -0.2039561,-0.30679 -0.4213133,-0.60465 -0.6214733,-0.91391 -0.1677367,-0.28388 -0.3379711,-0.5675 -0.4788758,-0.86542 -0.1031882,-0.25321 -0.2326441,-0.49429 -0.3551121,-0.73863 -0.1057009,-0.22541 -0.1849731,-0.46049 -0.2631417,-0.69604 -0.09292,-0.30297 -0.209756,-0.59712 -0.3416839,-0.8855 -0.1098205,-0.22831 -0.2044764,-0.46227 -0.2865143,-0.70137 -0.081256,-0.24831 -0.1714,-0.49344 -0.2590498,-0.73958 -0.085044,-0.23415 -0.1799587,-0.46451 -0.26428553,-0.69896 -0.0751561,-0.20575 -0.12192187,-0.41943 -0.17338395,-0.63156 -0.0463587,-0.21759 -0.0927828,-0.43539 -0.12741694,-0.65516 -0.021207,-0.18572 -0.0472147,-0.37076 -0.0802729,-0.55483 -0.0433382,-0.25165 -0.0981644,-0.50157 -0.15781964,-0.75 -0.0548292,-0.24509 -0.10208076,-0.49213 -0.14511332,-0.73951 -0.0365752,-0.21017 -0.0439172,-0.42367 -0.0479326,-0.63641 -0.001838,-0.24201 -4.4181e-4,-0.48403 -0.001206,-0.72606 -0.001492,-0.20931 -9.595e-4,-0.41862 -8.627e-5,-0.62794 0.001087,-0.2447 0.001413,-0.48941 0.001631,-0.73412 8.5227e-4,-0.23906 0.0467242,-0.47264 0.10508997,-0.70355 0.0617222,-0.21367 0.15238349,-0.41723 0.21330996,-0.63121 0.0601615,-0.24677 0.0659352,-0.5015 0.0931032,-0.75287 0.0154577,-0.23522 0.0502165,-0.46713 0.0999712,-0.69748 0.060916,-0.27855 0.1022354,-0.55943 0.1263399,-0.84319 0.0177373,-0.27657 0.0655003,-0.54727 0.14679719,-0.81232 0.0808068,-0.22164 0.17287093,-0.43893 0.27098273,-0.65366 0.1094332,-0.22866 0.2049119,-0.46327 0.3242009,-0.68728 0.116636,-0.19728 0.2401615,-0.3898 0.3491194,-0.59143 0.1151557,-0.2195 0.238381,-0.43423 0.3448397,-0.65802 0.098611,-0.2128 0.2126638,-0.41818 0.3119957,-0.63062 0.082709,-0.1713 0.1689324,-0.34079 0.2477546,-0.51394 0.090872,-0.19595 0.190241,-0.38805 0.2878747,-0.58085 0.1125133,-0.20471 0.2173508,-0.41393 0.3439177,-0.61073 0.1283002,-0.17902 0.2738288,-0.34497 0.403367,-0.52316 0.1225998,-0.201 0.2274001,-0.41163 0.3461453,-0.61488 0.1190787,-0.19305 0.2216015,-0.39514 0.3357649,-0.59097 0.1165537,-0.1893 0.2515962,-0.36692 0.3940078,-0.53805 0.1785822,-0.20216 0.3354379,-0.42065 0.4976181,-0.63526 0.160313,-0.21832 0.3267924,-0.43212 0.5137499,-0.62916 0.1649855,-0.14648 0.3181035,-0.30072 0.4514724,-0.47553 0.1227086,-0.17078 0.2456639,-0.34135 0.3710453,-0.51026 0.1444812,-0.18331 0.2993836,-0.35831 0.4463308,-0.5397 0.113349,-0.1454 0.2274661,-0.28878 0.3559829,-0.42159 0.1278498,-0.12745 0.2599601,-0.25035 0.380622,-0.3845 0.1267699,-0.13357 0.2349717,-0.28213 0.3537883,-0.42213 0.116976,-0.11992 0.2422876,-0.23209 0.3683963,-0.34269 0.1198689,-0.0974 0.2232232,-0.21193 0.3405388,-0.31208 0.1159948,-0.10472 0.2496344,-0.18589 0.3820975,-0.26827 0.143314,-0.0923 0.2726522,-0.20373 0.3936775,-0.32246 0.1151791,-0.11746 0.2074116,-0.25307 0.3073716,-0.38253 0.10606,-0.12778 0.236733,-0.23311 0.360035,-0.34425 0.13492,-0.12229 0.265783,-0.24878 0.396323,-0.37554 0.382027,-0.3421 0.901272,-0.57219 1.32971,-0.81453 0.397747,-0.22387 -0.497687,0.28288 -0.747662,0.42238 -0.02425,0.0135 0.04699,-0.0294 0.07025,-0.0447 0.0657,-0.0427 0.131115,-0.0857 0.195129,-0.13069 0.112902,-0.0911 0.227693,-0.17946 0.345282,-0.26461 0.427333,-0.29769 0.898426,-0.54085 1.348733,-0.7972 -0.269007,0.15235 -1.07615,0.60919 -0.80702,0.45705 0.325255,-0.18386 0.649208,-0.36997 0.975394,-0.55225 0.0286,-0.016 0.05948,-0.0276 0.08876,-0.0424 0.02847,-0.0143 0.112161,-0.0605 0.08447,-0.0448 -0.269023,0.15274 -1.077575,0.60847 -0.808486,0.45583 0.322047,-0.18268 0.644904,-0.36397 0.967355,-0.54595 -1.52604,0.87311 -0.83698,0.49181 -0.508108,0.26312 0.08821,-0.0684 0.168588,-0.14509 0.26164,-0.20749 0.0758,-0.0509 0.152552,-0.0998 0.223761,-0.15674 0,0 0.96359,-0.39159 0.96359,-0.39159 v 0 c -0.06207,0.0733 -0.132971,0.12282 -0.214362,0.17397 -0.09431,0.0618 -0.183679,0.121 -0.265352,0.19836 -0.356844,0.33165 -0.967273,0.40542 -1.270572,0.76155 0.270643,-0.15377 1.084484,-0.61178 0.811929,-0.46131 -0.32558,0.17976 -0.646729,0.36714 -0.971013,0.54914 -1.015478,0.5699 2.812603,-1.60815 -0.339395,0.18507 1.545474,-0.88135 0.768168,-0.44609 0.42695,-0.22301 -0.115014,0.088 -0.235141,0.16847 -0.346412,0.26129 -0.06135,0.0551 -0.125161,0.0929 -0.193545,0.13861 -0.352398,0.23524 -0.728091,0.43535 -1.101469,0.6377 1.572664,-0.89647 0.765323,-0.46873 0.440784,-0.21697 -0.130261,0.12721 -0.260586,0.25443 -0.394113,0.37836 -0.120695,0.11098 -0.245003,0.21799 -0.365806,0.32882 -0.104713,0.12805 -0.193399,0.26725 -0.304386,0.39037 -0.112384,0.1298 -0.245661,0.24112 -0.383057,0.34477 -0.127962,0.0873 -0.269605,0.15482 -0.3863667,0.25747 -0.1214714,0.097 -0.2307147,0.20428 -0.3412416,0.31317 -0.1329449,0.10007 -0.2476343,0.22147 -0.3736483,0.32973 -0.1327116,0.12872 -0.2270822,0.28937 -0.3578032,0.42048 -0.1178178,0.13687 -0.2423008,0.26617 -0.3755579,0.3889 -0.1318801,0.13025 -0.2559415,0.26534 -0.3654842,0.41448 -0.1460084,0.18071 -0.2951086,0.35886 -0.4473295,0.53459 -0.1222443,0.17072 -0.2503516,0.33732 -0.3702681,0.5097 -0.1271535,0.18398 -0.2729518,0.35053 -0.4490177,0.49168 -0.1959509,0.18687 -0.3627918,0.40015 -0.5214367,0.61803 -0.1646644,0.21233 -0.3150025,0.43505 -0.4916911,0.63836 -0.1440877,0.16606 -0.2771628,0.34047 -0.3998486,0.52239 -0.1189975,0.19358 -0.2188894,0.39712 -0.3364764,0.5914 -0.1243665,0.20182 -0.2335733,0.4117 -0.3433157,0.62142 -0.1231497,0.18242 -0.2640397,0.35098 -0.4035401,0.52139 -0.1345709,0.18943 -0.2355935,0.3972 -0.3478777,0.59985 -0.1010185,0.18879 -0.1931763,0.38259 -0.2878842,0.57437 -0.077125,0.17482 -0.1589068,0.347 -0.2494149,0.51542 -0.095891,0.21554 -0.2147031,0.41966 -0.3141382,0.63359 -0.1077037,0.22387 -0.2223144,0.44317 -0.3419371,0.6612 -0.1057609,0.20417 -0.2233868,0.40033 -0.3484332,0.59362 -0.1280373,0.21863 -0.2210188,0.45287 -0.3295808,0.68101 -0.097689,0.21151 -0.1854605,0.42665 -0.2736364,0.64201 -0.088712,0.25813 -0.1485488,0.52152 -0.1635915,0.79457 -0.022307,0.28602 -0.057105,0.56987 -0.1135678,0.85145 -0.04864,0.22808 -0.096609,0.45584 -0.107174,0.68962 -0.028522,0.25526 -0.036742,0.51267 -0.084786,0.76538 -0.052863,0.21619 -0.1377376,0.42048 -0.2114525,0.63005 -0.060444,0.22389 -0.1156148,0.44933 -0.1201617,0.68243 2.144e-4,0.2442 5.545e-4,0.48839 0.00151,0.73259 7.143e-4,0.20958 9.169e-4,0.41916 -0.00128,0.62873 -0.00141,0.24115 -0.00167,0.48235 0.00182,0.72349 0.00395,0.20831 0.00863,0.41723 0.040394,0.62365 0.039807,0.24606 0.084543,0.49174 0.137304,0.73536 0.061631,0.24888 0.1173046,0.49942 0.1664048,0.75091 0.038322,0.18464 0.065246,0.37152 0.08138,0.55926 0.030184,0.21757 0.077793,0.43207 0.1229413,0.647 0.05144,0.20872 0.095025,0.41963 0.1662826,0.62319 0.085074,0.23453 0.1750048,0.46716 0.2617148,0.70108 0.086758,0.24651 0.1804991,0.49063 0.2619555,0.73894 0.081771,0.23602 0.1715263,0.46873 0.2764259,0.696 0.1322172,0.2916 0.2484421,0.58931 0.348644,0.89305 0.08009,0.23003 0.1589038,0.46012 0.2605592,0.68214 0.1213619,0.246 0.2451019,0.49096 0.3484833,0.74501 0.1368015,0.29502 0.3088311,0.57264 0.4718074,0.85418 0.1971997,0.31007 0.4110278,0.60932 0.6158853,0.9145 0.2216626,0.32945 0.4402524,0.66121 0.6755219,0.98157 0.2654311,0.3539 0.5443047,0.6979 0.8147393,1.04812 0.2571199,0.31613 0.5258977,0.62282 0.7831792,0.93884 0.2487563,0.30792 0.467602,0.63634 0.7031002,0.95391 0.3254728,0.40735 0.6681942,0.80061 0.9977763,1.20478 0.3145033,0.3924 0.6079006,0.80146 0.9464418,1.17459 0.3321456,0.35545 0.671172,0.70472 1.004947,1.05871 0.303186,0.30056 0.605249,0.60283 0.939561,0.87075 0.316859,0.27062 0.62364,0.55205 0.923306,0.84095 0.233056,0.22574 0.480301,0.43613 0.770085,0.59001 0.274562,0.15089 0.561615,0.27979 0.826689,0.44764 0.286229,0.16647 0.578955,0.32186 0.870668,0.47877 0.331879,0.16612 0.666565,0.32767 1.003708,0.48314 0.308031,0.14057 0.621962,0.26856 0.948364,0.36284 0.327245,0.0952 0.661709,0.1631 0.987555,0.26323 0.319675,0.10147 0.641916,0.19437 0.969833,0.26676 0.326977,0.0825 0.653221,0.16782 0.976538,0.26326 0.300682,0.0893 0.601226,0.18071 0.907502,0.25001 0.310982,0.0596 0.62344,0.11142 0.933734,0.17448 0.336677,0.0795 0.67294,0.16071 1.012449,0.2279 0.35008,0.0653 0.701007,0.12479 1.053207,0.17801 0.372381,0.0645 0.747088,0.11603 1.117229,0.19262 0.386731,0.0683 0.776452,0.12638 1.171032,0.10906 0.403697,-0.0202 0.80094,-0.0862 1.197322,-0.16233 0.425296,-0.0771 0.854168,-0.13617 1.276285,-0.22881 0.443592,-0.11523 0.879682,-0.25591 1.304471,-0.42694 0.466073,-0.19771 0.916607,-0.42594 1.362833,-0.66352 0.488605,-0.24782 0.989098,-0.47131 1.481667,-0.71129 0.504858,-0.25527 1.012859,-0.50436 1.511823,-0.77065 0.517594,-0.24725 1.048182,-0.46473 1.575409,-0.69113 0.546666,-0.23628 1.089841,-0.47987 1.620248,-0.75 0.530199,-0.27544 1.058103,-0.55536 1.582013,-0.84217 0.08569,-0.0471 0.341078,-0.19121 0.257077,-0.14127 -0.201441,0.11977 -0.406371,0.23378 -0.609496,0.35078 -0.08053,0.0464 0.161269,-0.0924 0.241703,-0.13894 0.19868,-0.11495 0.291617,-0.16773 0.485103,-0.29084 0.07978,-0.0507 0.158115,-0.10367 0.237172,-0.15552 0.451576,-0.30859 0.878328,-0.64986 1.291894,-1.00596 0.395484,-0.33081 0.809529,-0.6456 1.138221,-1.04465 0.350136,-0.42096 0.649177,-0.87792 0.951423,-1.33267 0.28805,-0.443 0.572479,-0.88799 0.856593,-1.33342 0.256329,-0.41451 0.494747,-0.83869 0.737921,-1.26067 0.238624,-0.41186 0.494525,-0.81492 0.699517,-1.24463 0.204585,-0.42765 0.402467,-0.85821 0.608851,-1.28502 0.202229,-0.39889 0.410379,-0.79441 0.64353,-1.17706 0.229119,-0.37873 0.447767,-0.76504 0.62595,-1.16973 0.155202,-0.37274 0.308838,-0.74603 0.45634,-1.12177 0.149625,-0.35979 0.296675,-0.72066 0.437902,-1.0837 0.144221,-0.37561 0.267537,-0.75739 0.371824,-1.14571 0.09784,-0.34208 0.214339,-0.67753 0.326258,-1.01534 0.103188,-0.35801 0.17207,-0.72663 0.179419,-1.09952 0.0036,-0.39249 0.0016,-0.78562 0.03264,-1.17723 0.02991,-0.32116 0.07997,-0.64037 0.09188,-0.96287 -0.0036,-0.30688 -0.01077,-0.6138 -0.02986,-0.92019 -0.01984,-0.31472 -0.04207,-0.62896 -0.03834,-0.94455 -0.0082,-0.25472 -0.0211,-0.50974 -0.06663,-0.76119 -0.05072,-0.27826 -0.104229,-0.55579 -0.169102,-0.83122 -0.05544,-0.24505 -0.104806,-0.49213 -0.124553,-0.74278 -0.04119,-0.32608 -0.107092,-0.64846 -0.190409,-0.96668 -0.09605,-0.33699 -0.192947,-0.67345 -0.29915,-1.00752 -0.08202,-0.26944 -0.179086,-0.53466 -0.24164,-0.80959 -0.06359,-0.20035 -0.121338,-0.40269 -0.202827,-0.59708 -0.11285,-0.32259 -0.233074,-0.6428 -0.375069,-0.95431 -0.121736,-0.26284 -0.263708,-0.51613 -0.371583,-0.78492 -0.08097,-0.21119 -0.158299,-0.42355 -0.227628,-0.63871 -0.07919,-0.24702 -0.170374,-0.49016 -0.244069,-0.73892 -0.109745,-0.30141 -0.227967,-0.60048 -0.374237,-0.88695 -0.154121,-0.31143 -0.299969,-0.62847 -0.49977,-0.91524 -0.189918,-0.27517 -0.372851,-0.55508 -0.57001,-0.82542 -0.203866,-0.27137 -0.412955,-0.5391 -0.632343,-0.79859 -0.225419,-0.25893 -0.437176,-0.52786 -0.628815,-0.81218 -0.222146,-0.29429 -0.435139,-0.59717 -0.688916,-0.8666 -0.222909,-0.22596 -0.449873,-0.44801 -0.665727,-0.68062 -0.235433,-0.26034 -0.479605,-0.51345 -0.727859,-0.762 -0.311209,-0.28604 -0.630673,-0.56279 -0.959145,-0.82966 -0.305173,-0.26572 -0.601311,-0.54052 -0.898935,-0.81423 -0.253607,-0.20704 -0.506316,-0.41752 -0.788363,-0.58702 -0.228912,-0.1461 -0.452896,-0.29971 -0.685825,-0.43936 -0.285297,-0.14843 -0.577194,-0.28433 -0.862522,-0.43277 -0.349376,-0.18074 -0.691134,-0.37565 -1.050236,-0.53783 -0.349077,-0.15646 -0.704064,-0.29991 -1.061029,-0.43806 -0.283657,-0.11487 -0.559831,-0.24607 -0.845649,-0.35593 -0.271298,-0.10737 -0.535265,-0.23221 -0.812049,-0.32593 -0.243342,-0.0772 -0.491601,-0.13751 -0.735296,-0.21376 -0.224583,-0.0682 -0.447119,-0.14235 -0.666125,-0.22642 -0.216642,-0.0833 -0.437346,-0.15625 -0.654746,-0.23769 -0.230483,-0.0718 -0.461059,-0.14228 -0.697325,-0.19384 -0.258637,-0.0654 -0.512343,-0.14744 -0.7703,-0.21528 -0.263348,-0.0673 -0.526603,-0.13537 -0.785188,-0.21898 -0.289696,-0.0876 -0.583088,-0.16115 -0.872942,-0.24823 -0.259869,-0.0818 -0.519268,-0.16662 -0.78341,-0.23409 -0.244675,-0.0549 -0.491632,-0.0963 -0.740641,-0.12734 -0.25299,-0.0355 -0.505504,-0.0721 -0.756533,-0.11966 -0.221964,-0.0421 -0.444337,-0.0846 -0.669171,-0.10903 -0.232237,-0.0257 -0.465826,-0.0355 -0.697663,-0.0652 -0.199818,-0.0245 -0.400906,-0.0339 -0.600625,-0.0595 -0.208563,-0.0202 -0.417743,-0.0145 -0.6271,-0.0146 -0.211505,1.6e-4 -0.423071,-9.2e-4 -0.634495,0.006 -0.187093,0.007 -0.373989,0.0205 -0.558172,0.0553 -0.182812,0.0292 -0.367543,0.0438 -0.550125,0.0747 -0.183703,0.0211 -0.36798,0.0377 -0.548604,0.079 -0.176568,0.03 -0.352193,0.0635 -0.52713,0.10178 -0.158133,0.0376 -0.315707,0.0789 -0.477795,0.0975 -0.187723,0.0247 -0.372203,0.0648 -0.554749,0.11447 -0.176779,0.057 -0.349905,0.12449 -0.52686,0.18114 -0.1518,0.0501 -0.303754,0.0998 -0.45822,0.14153 -0.168262,0.0574 -0.335905,0.11703 -0.501905,0.18043 -0.158515,0.0667 -0.319362,0.12707 -0.484466,0.17658 -0.148887,0.043 -0.298238,0.0857 -0.44276,0.14157 -0.131829,0.0431 -0.266878,0.0761 -0.395854,0.12734 -0.134453,0.0431 -0.273046,0.0751 -0.400931,0.13573 -0.07363,0.0318 -0.144646,0.0654 -0.215372,0.10319 -0.02618,0.0139 -0.104152,0.0567 -0.07843,0.042 0.480069,-0.27476 1.8621,-1.0563 -0.161875,0.0895 1.562952,-0.88854 0.75325,-0.43268 0.400358,-0.2187 -0.161911,0.10636 -0.334341,0.19566 -0.497921,0.29955 -0.417076,0.27601 -0.845522,0.54864 -1.316007,0.72632 -0.151212,0.0543 -0.302919,0.10667 -0.449134,0.17326 -0.147535,0.0541 -0.302906,0.0773 -0.449951,0.13271 -0.128502,0.0447 -0.255471,0.0956 -0.374083,0.16191 -0.123145,0.0639 -0.245346,0.13023 -0.380111,0.16827 -0.08063,0.0257 -0.163109,0.0487 -0.24208,0.0791 -0.02666,0.0101 -0.103284,0.0481 -0.07872,0.0337 0.416175,-0.24433 1.128273,-0.64027 0.727672,-0.41728 -0.181595,0.12122 -0.363258,0.2438 -0.493056,0.42165 0,0 -0.961855,0.40118 -0.961855,0.40118 z"
       inkscape:connector-curvature="0" />
    <path
       style="fill:#000000;fill-opacity:1;stroke:none;stroke-width:0.26458332;stroke-opacity:1"
       id="path1204"
       d="m 9.5448084,264.68009 c -0.061771,-0.42628 0.2074659,-0.81294 0.4359818,-1.14687 0.4785768,-0.6328 1.0855188,-0.99577 1.7977898,-1.34072 0.108111,-0.0524 0.22802,-0.0757 0.34203,-0.11349 0.77162,-0.20117 1.54896,-0.0383 2.301462,0.16182 0.652717,0.18872 1.295448,0.45691 1.827706,0.88852 0.09932,0.0805 0.189188,0.17209 0.283782,0.25814 0.452433,0.4791 0.753273,1.0698 0.860207,1.72188 0.02159,0.13164 0.02682,0.26545 0.04024,0.39817 0.01684,0.62423 -0.112794,1.26073 -0.503444,1.76388 -0.07049,0.0908 -0.155755,0.16908 -0.233632,0.25362 -0.561178,0.45218 -1.155472,0.75139 -1.875679,0.7787 -0.394601,0.015 -0.511569,-0.0226 -0.905454,-0.0827 -0.823787,-0.20071 -1.609261,-0.55683 -2.287201,-1.06949 -0.12875,-0.0974 -0.247659,-0.2071 -0.371489,-0.31065 -0.4164,-0.38783 -0.769497,-0.8433 -0.947454,-1.39017 -0.101965,-0.31335 -0.0938,-0.39957 -0.126218,-0.72059 0.0108,-0.47563 0.104367,-0.97055 0.417053,-1.34662 0.04169,-0.0501 0.09251,-0.0919 0.138764,-0.13787 0.04713,-0.0299 0.09426,-0.0599 0.141393,-0.0898 0,0 0.545171,-0.20939 0.545171,-0.20939 v 0 c -0.04964,0.0262 -0.09929,0.0523 -0.148933,0.0785 -0.04871,0.0431 -0.102224,0.0813 -0.146117,0.12926 -0.326478,0.35689 -0.427211,0.84685 -0.446523,1.31479 0.02752,0.31702 0.01752,0.39808 0.115378,0.70812 0.170385,0.53983 0.516335,0.98889 0.925177,1.3714 0.122405,0.10234 0.239899,0.21086 0.367213,0.30704 0.673361,0.50865 1.454822,0.85925 2.275669,1.04696 0.390005,0.0534 0.511742,0.09 0.901464,0.0677 0.1379,-0.008 0.275656,-0.0252 0.411004,-0.0527 0.12563,-0.0256 0.242081,-0.11874 0.369671,-0.10619 0.06645,0.007 -0.21321,0.15938 -0.154616,0.12736 0.0998,-0.0545 0.186359,-0.13041 0.279539,-0.19562 0.0792,-0.0816 0.165669,-0.15678 0.237592,-0.24489 0.398396,-0.48806 0.537252,-1.11405 0.524951,-1.7314 -0.01236,-0.13064 -0.01653,-0.26232 -0.03709,-0.39192 -0.10181,-0.64185 -0.398579,-1.2215 -0.844407,-1.69142 -0.09314,-0.0845 -0.181564,-0.17445 -0.279414,-0.25341 -0.528411,-0.42643 -1.166748,-0.68822 -1.813955,-0.8729 -0.749803,-0.19335 -1.522937,-0.34672 -2.287002,-0.13157 -0.11265,0.0401 -0.21838,0.12056 -0.337949,0.12025 -0.07003,-1.8e-4 0.234048,-0.15314 0.171987,-0.12068 -0.399085,0.2087 -0.728459,0.53085 -1.005564,0.88032 -0.216574,0.309 -0.493925,0.69008 -0.436362,1.08972 0,0 -0.5227226,0.28493 -0.5227226,0.28493 z"
       inkscape:connector-curvature="0" />
    <path
       style="fill:#000000;fill-opacity:1;stroke:none;stroke-width:0.26458332;stroke-opacity:1"
       id="path1206"
       d="m 14.290252,268.2676 c -0.03552,0.52999 0.02284,1.06064 0.09137,1.58551 0.114897,0.78037 0.264396,1.55497 0.402972,2.33132 0.09303,0.50655 0.175185,1.01508 0.25284,1.5242 0.02043,0.21075 0.06375,0.41763 0.09882,0.62607 0.03036,0.2506 0.02383,0.50377 0.0071,0.75505 -0.02312,0.28391 -0.03583,0.56846 -0.04257,0.85319 -0.01022,0.14613 0.0065,0.29144 0.0084,0.43736 0,0 -0.529773,0.26993 -0.529773,0.26993 v 0 c 0.002,-0.14747 -0.01534,-0.29389 -0.0038,-0.44148 0.0086,-0.28574 0.02188,-0.57132 0.0435,-0.85641 0.01758,-0.24649 0.02482,-0.49392 -0.0073,-0.73979 -0.03225,-0.21047 -0.07506,-0.41908 -0.08974,-0.63202 -0.06857,-0.51193 -0.146245,-1.02283 -0.235088,-1.53163 -0.132379,-0.77818 -0.283286,-1.55321 -0.403442,-2.33347 -0.074,-0.52509 -0.132696,-1.05326 -0.12646,-1.58446 0,0 0.533189,-0.26337 0.533189,-0.26337 z"
       inkscape:connector-curvature="0" />
    <path
       style="fill:#000000;fill-opacity:1;stroke:none;stroke-width:0.26458332;stroke-opacity:1"
       id="path1208"
       d="m 14.179996,278.05272 c -0.360456,0.53502 -0.667182,1.10425 -0.969043,1.67367 -0.30575,0.59644 -0.585057,1.20641 -0.842219,1.82529 -0.04977,0.17058 -0.152262,0.32585 -0.179486,0.50261 0,0 -0.532858,0.26306 -0.532858,0.26306 v 0 c 0.01977,-0.18751 0.136389,-0.34593 0.189475,-0.52502 0.265321,-0.62094 0.548362,-1.23455 0.854713,-1.83637 0.29653,-0.56443 0.599626,-1.12629 0.937196,-1.66747 0,0 0.542222,-0.23577 0.542222,-0.23577 z"
       inkscape:connector-curvature="0" />
    <path
       style="fill:#000000;fill-opacity:1;stroke:none;stroke-width:0.26458332;stroke-opacity:1"
       id="path1210"
       d="m 15.952756,278.01906 c 0.450173,0.61766 0.94704,1.19966 1.428446,1.79294 0.485952,0.59568 0.963636,1.19884 1.415421,1.82099 0.0328,0.0502 0.0656,0.10041 0.0984,0.15062 0,0 -0.503679,0.29341 -0.503679,0.29341 v 0 c -0.03059,-0.0504 -0.06119,-0.10075 -0.09178,-0.15113 -0.430919,-0.63411 -0.905843,-1.23755 -1.390394,-1.83121 -0.484873,-0.59338 -0.982616,-1.17595 -1.463516,-1.77253 0,0 0.507097,-0.30309 0.507097,-0.30309 z"
       inkscape:connector-curvature="0" />
    <path
       style="fill:#000000;fill-opacity:1;stroke:none;stroke-width:0.26458332;stroke-opacity:1"
       id="path1212"
       d="m 14.19179,277.82797 c 0.177011,-0.2196 0.309637,-0.4672 0.43626,-0.71781 0.09878,-0.2215 0.175525,-0.45732 0.218334,-0.69649 0.02513,-0.25087 -0.126418,-0.066 0.497811,-0.29847 0.02977,-0.0111 -0.0493,0.0403 -0.07111,0.0634 -0.06096,0.0645 -0.110728,0.13956 -0.162203,0.21133 -0.196847,0.28137 -0.288593,0.60841 -0.366933,0.93769 -0.05019,0.29227 -0.11584,0.57869 -0.250405,0.84408 -0.08987,0.15929 -0.212963,0.29559 -0.329163,0.43561 -0.150117,0.1824 0.0496,0.0894 -0.563479,0.23355 -0.0257,0.006 0.01906,-0.0492 0.02881,-0.0738 0.0411,-0.10337 0.03958,-0.0981 0.08527,-0.20624 0.108287,-0.28298 0.291959,-0.52318 0.474863,-0.76084 0.179684,-0.21018 0.328248,-0.44019 0.452696,-0.68644 0.06802,-0.12176 0.0845,-0.26095 0.129639,-0.3905 0.19108,-0.0695 0.373118,-0.17253 0.573241,-0.20847 0.03669,-0.007 0.03969,0.0631 0.05911,0.0949 0.124282,0.20371 0.259069,0.40007 0.389536,0.59987 0.257608,0.38899 0.491268,0.79412 0.693559,1.21453 0.06625,0.12604 0.127684,0.25372 0.180329,0.38592 0,0 -0.515814,0.28665 -0.515814,0.28665 v 0 c -0.04706,-0.13306 -0.10572,-0.26041 -0.169431,-0.38647 -0.196441,-0.4204 -0.427589,-0.82411 -0.688234,-1.20813 -0.132956,-0.19842 -0.268496,-0.39473 -0.399219,-0.59457 -0.01983,-0.0303 -0.08817,-0.0651 -0.06152,-0.0896 0.143877,-0.13247 0.331456,-0.20769 0.497184,-0.31154 -0.0079,-0.002 -0.01677,-0.009 -0.02383,-0.005 -0.04609,0.0261 -0.07346,0.31965 -0.127925,0.36937 -0.123087,0.25038 -0.267584,0.48739 -0.451652,0.69843 -0.18053,0.2341 -0.370645,0.46586 -0.47748,0.7454 -0.180662,0.43169 -0.008,0.22042 -0.674111,0.55591 -0.01513,0.008 0.133293,-0.0401 0.04131,-0.0296 0.112168,-0.14284 0.243826,-0.27126 0.338733,-0.42756 0.144594,-0.25865 0.216165,-0.54126 0.262627,-0.83302 0.07705,-0.33357 0.163108,-0.66653 0.354337,-0.95627 0.02807,-0.0414 0.173808,-0.27049 0.215691,-0.29336 0.368123,-0.20096 0.623532,-0.49398 0.589962,-0.177 -0.03924,0.24525 -0.123966,0.48593 -0.21691,0.71519 -0.124537,0.24972 -0.250693,0.50034 -0.424407,0.72047 0,0 -0.545468,0.23866 -0.545468,0.23866 z"
       inkscape:connector-curvature="0" />
    <path
       style="fill:#000000;fill-opacity:1;stroke:none;stroke-width:0.26458332;stroke-opacity:1"
       id="path1214"
       d="m 13.066645,269.41968 c -0.229136,0.48101 -0.494374,0.94345 -0.737429,1.41745 -0.294152,0.56462 -0.546162,1.14838 -0.755695,1.74916 -0.105867,0.31094 -0.206197,0.62353 -0.322935,0.93061 -0.03717,0.0832 -0.07768,0.1647 -0.115159,0.24774 0,0 -0.543168,0.24643 -0.543168,0.24643 v 0 c 0.04244,-0.0811 0.07569,-0.16672 0.122601,-0.24565 0.121526,-0.30906 0.232491,-0.6217 0.339241,-0.93622 0.213689,-0.6031 0.463968,-1.19134 0.75969,-1.75934 0.236902,-0.46823 0.498176,-0.92446 0.713499,-1.4032 0,0 0.539355,-0.24698 0.539355,-0.24698 z"
       inkscape:connector-curvature="0" />
    <path
       style="fill:#000000;fill-opacity:1;stroke:none;stroke-width:0.26458332;stroke-opacity:1"
       id="path1216"
       d="m 15.282621,269.70479 c 0.404218,0.33104 0.777565,0.6953 1.143954,1.06712 0.538312,0.53746 1.059564,1.09136 1.574839,1.65088 0.482277,0.5423 0.972661,1.07739 1.448824,1.6251 0.222182,0.2573 0.424332,0.53067 0.637223,0.79536 -0.191128,0.0747 -0.370381,0.1941 -0.573384,0.22407 -0.05272,0.008 -0.06667,-0.0831 -0.100092,-0.12466 -0.04631,-0.0575 -0.09281,-0.11484 -0.139101,-0.17235 -0.191258,-0.23761 -0.381159,-0.47631 -0.571205,-0.71489 -0.504097,-0.64494 -1.032995,-1.26975 -1.555354,-1.89983 -0.537097,-0.66738 -1.062271,-1.34428 -1.589261,-2.01965 -0.3901,-0.49194 -0.765587,-0.99907 -1.199145,-1.45428 -0.117964,-0.10601 -0.22728,-0.22181 -0.367879,-0.29747 0,0 0.498407,-0.32282 0.498407,-0.32282 v 0 c 0.136622,0.0884 0.247636,0.20696 0.364277,0.31954 0.422932,0.46585 0.795417,0.97514 1.18448,1.46895 0.524398,0.67652 1.048929,1.35311 1.586394,2.01932 0.523319,0.63022 1.053606,1.25472 1.563774,1.89574 0.239548,0.29429 0.478646,0.58889 0.725926,0.87675 0.03509,0.0408 0.135688,0.0775 0.105674,0.12219 -0.108984,0.16235 -0.296398,0.25512 -0.444597,0.38269 -0.193089,-0.27692 -0.4023,-0.54205 -0.614634,-0.80438 -0.4687,-0.55244 -0.957237,-1.08755 -1.43852,-1.62898 -0.516311,-0.55841 -1.039196,-1.1106 -1.58013,-1.64528 -0.369479,-0.37023 -0.745081,-0.73476 -1.163645,-1.05015 0,0 0.503175,-0.31297 0.503175,-0.31297 z"
       inkscape:connector-curvature="0" />
    <path
       style="fill:#000000;fill-opacity:1;stroke:none;stroke-width:0.26458332;stroke-opacity:1"
       id="path1218"
       d="m 12.998263,269.52706 c 0.164559,-0.2776 0.375229,-0.52051 0.593335,-0.75638 0,0 0.541562,-0.22661 0.541562,-0.22661 v 0 c -0.216943,0.23172 -0.43655,0.46353 -0.591815,0.74347 0,0 -0.543082,0.23952 -0.543082,0.23952 z"
       inkscape:connector-curvature="0" />
    <path
       style="fill:#000000;fill-opacity:1;stroke:none;stroke-width:0.26458332;stroke-opacity:1"
       id="path1220"
       d="m 22.633287,264.33181 c 0.43143,-0.0552 0.854956,0.007 1.275049,0.10314 0.533657,0.12852 0.99833,0.40253 1.433764,0.72684 0.39283,0.32081 0.7301,0.7017 1.015511,1.11959 0.270883,0.43122 0.381527,0.79626 0.413282,1.30039 -0.0068,0.49137 -0.215095,0.93289 -0.462208,1.34609 -0.193734,0.29017 -0.427811,0.55252 -0.714186,0.75419 -0.235004,0.1655 -0.850131,0.48512 -0.952386,0.54134 -0.332092,0.14851 -0.688354,0.24343 -1.052424,0.26528 -0.220744,0.0132 -0.335844,-0.004 -0.555599,-0.0208 -0.469145,-0.0634 -0.921901,-0.20867 -1.315364,-0.47655 -0.07961,-0.0542 -0.15356,-0.11627 -0.230341,-0.1744 -0.412421,-0.34887 -0.769266,-0.75626 -1.078534,-1.19785 -0.247743,-0.35814 -0.377272,-0.77819 -0.486735,-1.19521 -0.07958,-0.38261 -0.131378,-0.77647 -0.09982,-1.16792 0.0068,-0.0841 0.02099,-0.16748 0.03149,-0.25121 0.07008,-0.40957 0.254914,-0.77643 0.561396,-1.05957 0.0577,-0.0533 0.121674,-0.0994 0.182511,-0.1491 0.48631,-0.31338 0.990729,-0.62125 1.53899,-0.81537 0.21801,-0.0646 0.453963,-0.10622 0.67363,-0.0221 0.04898,0.0188 0.09424,0.046 0.141362,0.0691 0.04824,0.0366 0.09647,0.0732 0.144706,0.10986 0,0 -0.492418,0.31227 -0.492418,0.31227 v 0 c -0.04679,-0.0329 -0.09358,-0.0658 -0.140375,-0.0987 -0.04554,-0.0196 -0.0895,-0.0433 -0.136632,-0.0587 -0.215393,-0.0701 -0.443123,-0.017 -0.651622,0.0487 -0.160494,0.0604 -0.314742,0.12826 -0.468312,0.20486 -0.06099,0.0304 -0.237349,0.13302 -0.181864,0.0934 0.09563,-0.0682 0.199573,-0.12428 0.303048,-0.17989 0.06747,-0.0363 -0.129925,0.0812 -0.194887,0.12176 -0.06186,0.0476 -0.126671,0.0917 -0.185584,0.14293 -0.310017,0.26965 -0.503004,0.62287 -0.577918,1.02584 -0.01104,0.0821 -0.02585,0.16367 -0.03311,0.24613 -0.03394,0.3858 0.01634,0.77441 0.09424,1.15175 0.106602,0.41071 0.234948,0.82386 0.474943,1.17845 0.303375,0.4383 0.654684,0.84222 1.064688,1.18484 0.07591,0.0564 0.149087,0.11665 0.227743,0.16915 0.389726,0.26009 0.837944,0.39799 1.300463,0.45415 0.22535,0.0146 0.323492,0.0291 0.549238,0.0116 0.361626,-0.028 0.713341,-0.12836 1.041314,-0.28117 -0.08477,0.0548 -0.183644,0.0924 -0.254311,0.16455 -0.06118,0.0624 0.152429,-0.086 0.225021,-0.13466 0.288775,-0.19373 0.525663,-0.44937 0.722348,-0.73451 0.247376,-0.40169 0.456481,-0.83219 0.473345,-1.31295 -0.02454,-0.488 -0.132698,-0.85752 -0.396396,-1.27399 -0.280734,-0.41342 -0.614525,-0.78879 -1.003334,-1.10446 -0.431501,-0.31877 -0.891543,-0.5859 -1.420613,-0.70664 -0.420656,-0.0903 -0.847163,-0.14849 -1.275829,-0.0726 0,0 0.472713,-0.35791 0.472713,-0.35791 z"
       inkscape:connector-curvature="0" />
    <path
       style="fill:#000000;fill-opacity:1;stroke:none;stroke-width:0.26458332;stroke-opacity:1"
       id="path1222"
       d="m 23.523798,270.99187 c 0.03275,0.3871 0.112148,0.76837 0.186765,1.14902 0.113467,0.59563 0.259348,1.18379 0.40913,1.77108 0.111964,0.48677 0.273073,0.96263 0.369211,1.45289 0.04507,0.21008 0.03565,0.41919 0.0016,0.62918 -0.07326,0.27031 -0.45856,0.5836 -0.605254,0.28054 -0.06833,-0.14118 -0.0862,-0.31646 -0.11417,-0.46781 -0.09856,-0.58098 -0.128392,-1.1706 -0.172108,-1.75749 -0.03964,-0.53764 -0.05598,-1.07654 -0.06663,-1.61541 -9e-4,-0.31626 -0.0183,-0.63319 -0.07407,-0.94473 -0.03887,-0.15077 -0.04207,-0.30769 -0.07095,-0.45979 -0.0239,-0.0736 -0.01948,-0.1509 -0.02482,-0.22691 0,0 0.52798,-0.27511 0.52798,-0.27511 v 0 c 0.0082,0.0743 -0.002,0.14946 0.02162,0.2215 0.03163,0.15256 0.02876,0.3115 0.06704,0.46351 0.05345,0.31639 0.06912,0.63763 0.06785,0.95833 0.0054,0.53923 0.01869,1.07853 0.05706,1.61656 0.0424,0.58339 0.07201,1.17014 0.179427,1.74612 0.03111,0.1567 0.03498,0.19972 0.0797,0.34475 0.01,0.0323 0.02132,0.0643 0.03483,0.0953 0.0031,0.007 0.02126,0.014 0.01476,0.0184 -0.15535,0.10607 -0.315742,0.20493 -0.478934,0.29849 -0.01219,0.007 0.01434,-0.0242 0.02151,-0.0362 0.04514,-0.20345 0.05637,-0.40876 0.01899,-0.6151 -0.08503,-0.49231 -0.242766,-0.96981 -0.354719,-1.45627 -0.149837,-0.5878 -0.298482,-1.17576 -0.414794,-1.77137 -0.07792,-0.37876 -0.159566,-0.75763 -0.207739,-1.1416 0,0 0.526713,-0.27786 0.526713,-0.27786 z"
       inkscape:connector-curvature="0" />
    <path
       style="fill:#000000;fill-opacity:1;stroke:none;stroke-width:0.26458332;stroke-opacity:1"
       id="path1230"
       d="m 24.159229,275.82723 c -0.149237,0.27507 -0.253423,0.57098 -0.371041,0.86021 -0.102278,0.27026 -0.21977,0.53415 -0.318175,0.80584 -0.122905,0.33966 -0.197452,0.69426 -0.262868,1.04871 -0.06237,0.41308 -0.09588,0.82979 -0.140959,1.24494 -0.04136,0.35392 -0.122026,0.7006 -0.210644,1.04512 -0.07972,0.32188 -0.123441,0.65189 -0.163741,0.98072 -0.01513,0.28233 -0.08248,0.55617 -0.150036,0.82931 -0.04743,0.20737 -0.102901,0.41251 -0.136212,0.62279 -0.03149,0.14263 -0.06259,0.28472 -0.0786,0.43002 5.02e-4,0.0183 -0.0028,0.076 0.01406,0.0947 0.0705,0.0784 0.291958,0.0906 0.385259,0.0983 0.338749,0.013 0.673768,-0.0536 1.008813,-0.0938 0.429326,-0.0424 0.858022,-0.0915 1.285891,-0.14673 0.521642,-0.072 1.040212,-0.16444 1.562472,-0.23176 0.474528,-0.0547 0.952378,-0.0835 1.429975,-0.0726 0.376306,0.0171 0.752464,0.0361 1.129025,0.0467 0.252357,0.0191 0.504663,0.0416 0.750014,0.10577 0.08236,0.0167 0.162047,0.051 0.244652,0.0663 0.01416,0.003 0.03025,0.008 0.04315,0.002 0.01125,-0.006 0.03024,-0.038 0.01894,-0.0325 -0.168275,0.0815 -0.330211,0.17551 -0.495316,0.26326 -0.04259,-0.2653 -0.195347,-0.49989 -0.336566,-0.72326 -0.279582,-0.42467 -0.502242,-0.88254 -0.749263,-1.3261 -0.316407,-0.57368 -0.667654,-1.12699 -1.015552,-1.68181 -0.321964,-0.50121 -0.650471,-0.99845 -0.988,-1.48931 -0.320824,-0.45351 -0.654483,-0.89721 -0.969648,-1.35476 -0.241525,-0.36942 -0.49337,-0.73113 -0.760568,-1.08242 -0.210867,-0.29413 -0.447341,-0.5678 -0.702507,-0.82405 -0.07223,-0.0816 -0.150183,-0.15564 -0.237473,-0.2205 0,0 0.501855,-0.31559 0.501855,-0.31559 v 0 c 0.08435,0.0708 0.162603,0.14748 0.234926,0.23081 0.252548,0.26178 0.4914,0.53619 0.702976,0.83257 0.264697,0.35406 0.516437,0.71652 0.756297,1.08792 0.31375,0.4584 0.64492,0.90377 0.966791,1.35642 0.337566,0.4918 0.665822,0.99007 0.986176,1.49327 0.346165,0.55695 0.699985,1.10968 1.018284,1.68332 0.249063,0.44115 0.475604,0.89593 0.759592,1.3164 0.149765,0.23378 0.302911,0.47555 0.36458,0.74971 -0.565714,0.42818 -0.366355,0.4332 -0.829376,0.3037 -0.242343,-0.0582 -0.490395,-0.0823 -0.738788,-0.0983 -0.374386,-0.0135 -0.748364,-0.0354 -1.12268,-0.0503 -0.474729,-0.007 -0.949624,0.0207 -1.421116,0.0767 -0.522845,0.0694 -1.042304,0.16156 -1.564848,0.23339 -0.429523,0.0551 -0.859668,0.10535 -1.290439,0.14971 -0.33857,0.0426 -0.678198,0.10817 -1.020854,0.0864 -0.138879,-0.0168 -0.332874,-0.0292 -0.428872,-0.15093 -0.02266,-0.0287 -0.02165,-0.0857 -0.02417,-0.11797 0.0139,-0.1468 0.04086,-0.29111 0.07899,-0.43364 0.03238,-0.21291 0.08926,-0.41993 0.138044,-0.62943 0.0667,-0.2719 0.142286,-0.54304 0.156079,-0.82442 0.04022,-0.33096 0.08392,-0.66308 0.160334,-0.98781 0.0911,-0.34245 0.172765,-0.68759 0.218472,-1.03947 0.04662,-0.41603 0.07972,-0.83372 0.138942,-1.24829 0.06179,-0.35628 0.135391,-0.71242 0.253396,-1.05484 0.09583,-0.27399 0.214564,-0.53839 0.318939,-0.80917 0.118148,-0.28753 0.221295,-0.58172 0.36023,-0.86017 0,0 0.541152,-0.24483 0.541152,-0.24483 z"
       inkscape:connector-curvature="0" />
    <path
       style="fill:#000000;fill-opacity:1;stroke:none;stroke-width:0.26458332;stroke-opacity:1"
       id="path1232"
       d="m 24.330604,285.05717 c -0.368788,0.31477 -0.789839,0.58507 -1.249148,0.74487 -0.20054,0.0617 -0.4055,0.10181 -0.612211,0.13523 -0.0014,-0.0202 -0.07442,0.0113 -0.08338,-0.0155 -0.07858,-0.23506 0.541049,-0.40459 0.790368,-0.48032 0.222512,-0.0711 0.45032,-0.1303 0.679987,-0.17252 0.259116,-0.0185 0.667741,-0.29528 -0.218314,0.19755 0.01333,-0.023 0.0308,-0.044 0.03999,-0.0689 0.08422,-0.22839 0.04081,-0.546 0.01959,-0.78206 -0.01819,-0.17056 -0.03967,-0.34074 -0.06019,-0.51102 0,0 0.518656,-0.2717 0.518656,-0.2717 v 0 c 0.01832,0.17132 0.03752,0.34255 0.05726,0.51372 0.02981,0.29402 0.06577,0.6048 -0.02438,0.89158 -0.381664,0.23365 -0.455302,0.34556 -0.805444,0.38861 -0.226854,0.0476 -0.453353,0.099 -0.672523,0.17554 -0.03828,0.013 -0.07693,0.025 -0.114828,0.0391 -0.275925,0.10252 -0.0305,0.0682 0.342793,-0.22557 0.01807,-0.0142 -0.04231,-0.0193 -0.06013,-0.0338 -0.01699,-0.0138 0.130117,0.038 0.06572,-10e-4 0.203383,-0.0308 0.403946,-0.0768 0.599756,-0.14037 0.178418,-0.0694 0.643493,-0.30744 -0.112989,0.10307 -0.04565,0.0248 0.08702,-0.0568 0.129583,-0.0865 0.04063,-0.0284 0.08077,-0.0576 0.119936,-0.088 0.03517,-0.0273 0.06864,-0.0567 0.102962,-0.0851 0,0 0.546938,-0.22655 0.546938,-0.22655 z"
       inkscape:connector-curvature="0" />
    <path
       style="fill:#000000;fill-opacity:1;stroke:none;stroke-width:0.26458332;stroke-opacity:1"
       id="path1234"
       d="m 26.992281,283.69091 c 0.01341,0.18658 0.03781,0.3721 0.0523,0.55864 0.0209,0.13377 -0.01262,0.27803 0.03669,0.40606 0.009,0.0132 0.01418,0.0302 0.02715,0.0396 0.01847,0.0134 0.04212,0.0175 0.06328,0.026 0.124846,0.0502 0.249406,0.0849 0.381211,0.11136 0.206457,0.0277 0.414258,0.034 0.621361,0.0565 0.188812,0.0113 0.374171,0.0468 0.559223,0.0842 0,0 -0.488256,0.33966 -0.488256,0.33966 v 0 c -0.181999,-0.039 -0.365356,-0.0694 -0.551228,-0.0825 -0.208944,-0.0211 -0.419687,-0.0229 -0.626695,-0.0605 -0.142777,-0.0325 -0.360172,-0.075 -0.472744,-0.17332 -0.01529,-0.0134 -0.02246,-0.0339 -0.0337,-0.0508 -0.05411,-0.13469 -0.02745,-0.28153 -0.04212,-0.42362 -0.01259,-0.18763 -0.03256,-0.37453 -0.05712,-0.56097 0,0 0.530657,-0.27039 0.530657,-0.27039 z"
       inkscape:connector-curvature="0" />
    <path
       style="fill:#000000;fill-opacity:1;stroke:none;stroke-width:0.26458332;stroke-opacity:1"
       id="path1236"
       d="m 22.756064,272.48636 c -0.140692,0.28611 -0.297494,0.56367 -0.439384,0.84922 -0.107639,0.20749 -0.215375,0.41528 -0.286021,0.63864 -0.04146,0.13715 -0.08552,0.27293 -0.132579,0.4082 -0.02981,0.0994 -0.06236,0.20069 -5.55e-4,0.29192 0.156218,0.18048 0.337306,0.33561 0.548487,0.44681 0.250439,0.12076 0.527592,0.16751 0.793696,0.24282 0.324815,0.0967 0.601157,0.28506 0.874182,0.47849 0.150951,0.10023 0.08011,0.0521 0.212821,0.14388 0,0 -0.497542,0.31661 -0.497542,0.31661 v 0 c -0.128812,-0.0934 -0.05939,-0.0443 -0.208793,-0.14652 -0.268228,-0.19055 -0.541968,-0.37208 -0.863161,-0.46152 -0.270746,-0.0739 -0.552305,-0.12216 -0.803617,-0.25224 -0.216192,-0.12156 -0.403375,-0.28377 -0.570406,-0.46697 -0.07623,-0.11587 -0.05899,-0.21107 -0.02385,-0.34026 0.04367,-0.13679 0.0975,-0.26968 0.136256,-0.40829 0.06756,-0.22863 0.175281,-0.44089 0.288146,-0.65027 0.140699,-0.28355 0.299297,-0.55803 0.431174,-0.84568 0,0 0.541153,-0.24484 0.541153,-0.24484 z"
       inkscape:connector-curvature="0" />
    <path
       style="fill:#000000;fill-opacity:1;stroke:none;stroke-width:0.26458332;stroke-opacity:1"
       id="path1238"
       d="m 25.159602,271.26792 c 0.397329,0.19143 0.799758,0.37155 1.193021,0.57131 0.485665,0.24943 0.947522,0.54019 1.402557,0.84083 0.202295,0.12721 0.39719,0.26549 0.597078,0.3963 0,0 -0.494197,0.31631 -0.494197,0.31631 v 0 c -0.196062,-0.13409 -0.388787,-0.27305 -0.588672,-0.40153 -0.450418,-0.30239 -0.910121,-0.59139 -1.393959,-0.83808 -0.397683,-0.19783 -0.802734,-0.38026 -1.211005,-0.55514 0,0 0.495177,-0.33 0.495177,-0.33 z"
       inkscape:connector-curvature="0" />
    <path
       style="fill:#000000;fill-opacity:1;stroke:none;stroke-width:0.26458332;stroke-opacity:1"
       id="path1240"
       d="m 24.348926,271.32794 c -0.210041,-0.14775 -0.423482,-0.29101 -0.658123,-0.3966 -0.129346,-0.0506 -0.266704,-0.0739 -0.401401,-0.10582 0,0 0.488454,-0.33755 0.488454,-0.33755 v 0 c 0.136598,0.0334 0.276293,0.0584 0.404804,0.11791 0.234603,0.11396 0.449222,0.26166 0.667746,0.40324 0,0 -0.50148,0.31882 -0.50148,0.31882 z"
       inkscape:connector-curvature="0" />
    <path
       style="fill:#000000;fill-opacity:1;stroke:none;stroke-width:0.26458332;stroke-opacity:1"
       id="path1242"
       d="m 25.020251,271.48314 c -0.201271,-0.10713 -0.422572,-0.16791 -0.635395,-0.24714 -0.164723,-0.0534 -0.325245,-0.11954 -0.494333,-0.15828 -0.117774,-0.0383 -0.232015,-0.0864 -0.35077,-0.12143 -0.131964,-0.05 -0.265781,-0.0964 -0.383437,-0.17557 -0.03622,-0.0166 -0.08795,-0.0685 -0.132358,-0.0695 -0.0042,-1e-4 -0.0062,0.0143 -0.0025,0.0124 0.186891,-0.097 0.359303,-0.22474 0.556071,-0.2997 0.03184,-0.0121 0.05743,0.0367 0.08615,0.055 0.207704,0.1634 0.41951,0.32049 0.636295,0.47155 0.196462,0.13455 0.396598,0.26497 0.610671,0.36982 0.176931,0.0816 0.337758,0.19242 0.507929,0.28641 0.06614,0.0265 0.126788,0.0637 0.19012,0.0959 0,0 -0.497327,0.32606 -0.497327,0.32606 v 0 c -0.06288,-0.0335 -0.1249,-0.0686 -0.189483,-0.0987 -0.167315,-0.0964 -0.328625,-0.20385 -0.504107,-0.28549 -0.213986,-0.11009 -0.415915,-0.24082 -0.613272,-0.37829 -0.215775,-0.15136 -0.425345,-0.31039 -0.637265,-0.467 -0.02935,-0.0176 -0.109234,-0.0259 -0.08804,-0.0528 0.33747,-0.42758 0.317528,-0.45702 0.576979,-0.28683 0.11652,0.0716 0.246589,0.11633 0.375086,0.16176 0.116531,0.038 0.230653,0.0832 0.347914,0.11914 0.168272,0.0446 0.330137,0.10961 0.494639,0.16607 0.215044,0.079 0.434816,0.14673 0.641573,0.24662 0,0 -0.495177,0.32999 -0.495177,0.32999 z"
       inkscape:connector-curvature="0" />
    <path
       style="fill:#000000;fill-opacity:1;stroke:none;stroke-width:0.26458332;stroke-opacity:1"
       id="path1244"
       d="m 32.983252,262.38573 c -0.184008,0.0449 -0.368494,0.0966 -0.55803,0.0653 -0.194625,-0.0624 -0.235448,-0.19426 -0.246584,-0.38252 0.01273,-0.35459 0.204893,-0.65164 0.41407,-0.92387 0.224764,-0.26482 0.502489,-0.4704 0.804984,-0.63774 0.765784,-0.42363 0.491345,-0.30966 0.993363,-0.49218 0.431823,-0.11608 0.886034,-0.15551 1.328271,-0.0751 0.08474,0.0154 0.167638,0.0396 0.251458,0.0594 0.42156,0.12625 0.814043,0.33202 1.143553,0.62564 0.07512,0.0669 0.14379,0.14076 0.215685,0.21114 0.465543,0.52399 0.746549,1.16633 0.969899,1.8225 0.106485,0.37132 0.195191,0.7605 0.152033,1.1497 -0.02572,0.23185 -0.06214,0.301 -0.136121,0.52194 -0.217659,0.48156 -0.556437,0.90921 -0.989271,1.21607 -0.09253,0.0656 -0.192408,0.12015 -0.288613,0.18023 -0.264467,0.13963 -0.522555,0.29208 -0.793404,0.41889 -0.101994,0.0478 -0.212918,0.0741 -0.321709,0.1032 -0.335412,0.0898 -0.682323,0.13176 -1.029457,0.11784 -0.116244,-0.005 -0.231725,-0.021 -0.347588,-0.0316 -0.536737,-0.0892 -1.055809,-0.28047 -1.474319,-0.6369 -0.07571,-0.0645 -0.143283,-0.13794 -0.214924,-0.20691 -0.265681,-0.29776 -0.457769,-0.65282 -0.565976,-1.03719 -0.06737,-0.23932 -0.07625,-0.37495 -0.108796,-0.62109 -0.03941,-0.55127 0.04562,-1.09952 0.253584,-1.61043 0.03007,-0.0508 0.05586,-0.10435 0.09021,-0.15233 0.187571,-0.26207 0.623671,-0.40889 0.855967,-0.52952 0,0 -0.463497,0.36023 -0.463497,0.36023 v 0 c 0.124542,-0.0808 0.251277,-0.15828 0.373621,-0.24235 0.03939,-0.0271 -0.08643,0.0422 -0.124503,0.0712 -0.105836,0.0803 -0.130752,0.13947 -0.20489,0.25057 -0.222817,0.49926 -0.311039,1.04188 -0.277218,1.58795 0.03062,0.23735 0.04018,0.37955 0.104431,0.6103 0.104696,0.37598 0.29364,0.72255 0.553175,1.01342 0.07024,0.0671 0.136486,0.1387 0.210722,0.20138 0.412555,0.34835 0.924616,0.53178 1.452648,0.61321 0.365233,0.0285 0.666289,0.0391 1.030173,-0.0274 0.112493,-0.0205 0.224139,-0.0465 0.334111,-0.0779 0.107577,-0.0307 0.208312,-0.13122 0.317743,-0.108 0.07342,0.0156 -0.118811,0.0917 -0.178218,0.1376 0.09691,-0.058 0.197318,-0.11047 0.290716,-0.17395 0.433195,-0.29441 0.772695,-0.71235 0.99612,-1.18343 0.07504,-0.21139 0.113691,-0.28405 0.14256,-0.50672 0.04964,-0.38286 -0.03263,-0.76815 -0.135221,-1.13477 -0.21644,-0.64964 -0.494289,-1.2838 -0.959845,-1.79701 -0.07147,-0.0685 -0.139798,-0.14038 -0.214397,-0.20542 -0.327022,-0.28512 -0.716055,-0.48285 -1.131567,-0.60283 -0.0825,-0.0183 -0.164142,-0.041 -0.247494,-0.0549 -0.438092,-0.0731 -0.886955,-0.0276 -1.311079,0.0966 -0.08429,0.0324 -0.244129,0.18696 -0.25287,0.0971 -0.0096,-0.0982 0.208896,-0.0726 0.246377,-0.16381 0.03396,-0.0827 -0.157591,0.0846 -0.233315,0.13202 -0.153776,0.0963 -0.276368,0.19046 -0.409078,0.31374 -0.05805,0.0539 -0.110942,0.11314 -0.166412,0.16971 -0.205629,0.25878 -0.399171,0.53916 -0.419536,0.88058 0.0052,0.1641 0.02564,0.27106 0.204575,0.31102 0.185923,0.015 0.367329,-0.0381 0.545595,-0.0859 0,0 -0.471712,0.3632 -0.471712,0.3632 z"
       inkscape:connector-curvature="0" />
    <path
       style="fill:#000000;fill-opacity:1;stroke:none;stroke-width:0.26458332;stroke-opacity:1"
       id="path1246"
       d="m 35.818196,267.2501 c 0.0223,0.34701 0.05,0.69357 0.07527,1.04039 0.03623,0.41332 0.03366,0.82661 0.015,1.24049 -0.02744,0.33832 -0.0204,0.67605 -0.0024,1.01443 0.01897,0.32924 0.02638,0.65893 0.03273,0.9886 0.01595,0.24535 0.0422,0.48984 0.05916,0.73512 0.0087,0.0773 5.29e-4,0.15586 0.0181,0.23213 0.0024,0.0104 0.02045,0.0252 0.01098,0.0301 -0.556464,0.29177 -0.583256,0.40323 -0.488098,0.16673 0.06259,-0.30952 0.09344,-0.62511 0.117864,-0.93971 0.02622,-0.48068 0.0058,-0.96368 -0.02072,-1.44404 -0.02241,-0.4939 -0.07408,-0.9856 -0.111072,-1.47845 -0.02746,-0.39373 -0.03052,-0.78824 -0.05428,-1.18217 -0.02865,-0.32218 -0.06511,-0.64635 -0.148844,-0.95951 -0.03208,-0.10557 -0.01532,-0.058 -0.04835,-0.1434 0,0 0.520131,-0.28846 0.520131,-0.28846 v 0 c 0.03168,0.0912 0.01553,0.0411 0.04704,0.15067 0.0805,0.31864 0.113393,0.64771 0.145442,0.97408 0.02458,0.39393 0.03111,0.78822 0.05278,1.1823 0.03364,0.49392 0.08264,0.98665 0.107519,1.48119 0.0287,0.4816 0.04984,0.96589 0.02905,1.44807 -0.01995,0.31627 -0.05336,0.63153 -0.100666,0.94486 -0.05313,0.28123 -7.94e-4,0.12249 -0.570767,0.37679 -0.0024,10e-4 -0.04754,-0.25886 -0.03097,-0.27963 -0.01384,-0.24703 -0.03841,-0.49313 -0.05613,-0.73987 -0.0031,-0.32937 -0.01077,-0.65872 -0.02967,-0.98761 -0.01812,-0.34041 -0.03019,-0.68013 0.0011,-1.02044 0.02132,-0.4121 0.02915,-0.82384 -0.0091,-1.23553 -0.02588,-0.34335 -0.05437,-0.68672 -0.08787,-1.0293 0,0 0.526714,-0.27786 0.526714,-0.27786 z"
       inkscape:connector-curvature="0" />
    <path
       style="fill:#000000;fill-opacity:1;stroke:none;stroke-width:0.26458332;stroke-opacity:1"
       id="path1248"
       d="m 35.398053,273.95033 c -0.110524,0.45251 -0.223493,0.90438 -0.32558,1.35891 -0.139057,0.6169 -0.248669,1.24005 -0.346361,1.86469 -0.07795,0.52898 -0.157567,1.05747 -0.251756,1.58384 -0.06346,0.39314 -0.143066,0.78347 -0.20561,1.17673 -0.03802,0.24875 -0.09058,0.49425 -0.143632,0.74 -0.03796,0.18688 -0.04115,0.37771 -0.06786,0.56615 -0.0029,0.0201 -0.02077,0.13991 -0.02278,0.16227 -0.0013,0.0157 7.93e-4,0.0629 -7.94e-4,0.0473 -0.0019,-0.0188 0.01736,-0.0634 -1.91e-4,-0.0565 -0.161075,0.0634 -0.297698,0.18206 -0.461446,0.23816 -0.03781,0.013 0.04226,-0.0679 0.06339,-0.10178 0.203004,-0.38511 0.302328,-0.80919 0.400089,-1.22993 0.135792,-0.54718 0.210119,-1.10565 0.278622,-1.66429 0.05517,-0.54771 0.12464,-1.09349 0.198679,-1.63888 0.05155,-0.50813 0.197487,-0.99485 0.360076,-1.4763 0.15715,-0.44275 0.278302,-0.89656 0.355685,-1.35978 0.04091,-0.29097 0.07005,-0.58361 0.122891,-0.87273 0.02196,-0.1511 0.06528,-0.2965 0.131943,-0.43359 0.09151,-0.17938 0.05871,-0.12556 0.5349,-0.19993 0.03509,-0.005 -0.01643,0.0691 -0.02543,0.10349 -0.03754,0.14326 -0.08275,0.28418 -0.127378,0.42534 -0.151119,0.42227 -0.241808,0.86181 -0.339587,1.29851 -0.135613,0.56578 -0.244264,1.13686 -0.349198,1.70892 -0.09976,0.58706 -0.184906,1.1766 -0.263808,1.76681 -0.08392,0.58937 -0.140022,1.18226 -0.228396,1.77098 -0.04802,0.37112 -0.132591,0.73544 -0.210505,1.10091 -0.04061,0.19094 -0.05774,0.38533 -0.06492,0.58003 -0.0024,0.12628 0.06762,0.15891 0.178708,0.17634 0.162279,0.0574 0.327779,0.0448 0.495353,0.0232 0.384458,-0.0386 0.758735,-0.13859 1.13725,-0.21187 0.539607,-0.12127 1.089361,-0.15885 1.640642,-0.1628 0.608713,0.0235 1.216154,0.0693 1.825527,0.0702 0.558204,-0.0109 1.115523,-0.0304 1.673741,-0.0148 0.374755,0.0267 0.748315,0.0663 1.123444,0.088 0.110078,-0.006 0.222938,-0.003 0.332153,-0.0213 0.19717,-0.0328 0.610624,-0.31234 -0.352147,0.22704 0.0054,-0.004 0.01765,-0.005 0.01627,-0.0112 -0.0087,-0.0399 -0.18387,-0.1548 -0.206666,-0.1706 -0.107091,-0.0743 -0.16699,-0.11411 -0.277085,-0.18838 -0.43066,-0.27647 -0.799164,-0.62931 -1.163947,-0.98482 -0.591077,-0.59594 -1.136148,-1.23558 -1.666936,-1.88514 -0.564984,-0.70218 -1.117423,-1.41429 -1.667978,-2.12779 -0.469829,-0.60852 -0.893509,-1.25047 -1.308741,-1.89689 -0.201713,-0.29643 -0.40554,-0.59124 -0.613116,-0.88356 -0.08616,-0.10954 -0.117589,-0.24769 -0.187928,-0.3657 -0.06945,-0.12442 -0.125336,-0.25651 -0.210254,-0.37173 0,0 0.512498,-0.30196 0.512498,-0.30196 v 0 c 0.08027,0.1197 0.143774,0.24968 0.213698,0.37533 0.0682,0.11789 0.09941,0.25356 0.180835,0.36454 0.202115,0.29656 0.397082,0.59781 0.596392,0.89627 0.405659,0.65015 0.824937,1.29276 1.29394,1.89955 0.550283,0.71295 1.10068,1.42591 1.665861,2.12717 0.531456,0.64729 1.077754,1.28434 1.674733,1.87268 0.367845,0.35006 0.740244,0.69593 1.171827,0.96777 0.129913,0.0858 0.474514,0.27887 0.536665,0.4233 0.0053,0.0123 -0.0037,0.0265 -0.0055,0.0397 -0.542006,0.31727 -0.495114,0.36716 -1.011126,0.35728 -0.37171,-0.0259 -0.741926,-0.0681 -1.11374,-0.0924 -0.556119,-0.0165 -1.111509,0.005 -1.667666,0.0122 -0.609687,-0.004 -1.217567,-0.0495 -1.826831,-0.0682 -0.550873,0.007 -1.099487,0.0515 -1.638115,0.17419 -0.382304,0.0773 -0.761362,0.17596 -1.150289,0.21562 -0.174152,0.0171 -0.343464,0.0203 -0.511831,-0.035 -0.130419,-0.0347 -0.216374,-0.10406 -0.219269,-0.24871 0.0071,-0.19873 0.02479,-0.39707 0.06557,-0.59206 0.08141,-0.36662 0.173906,-0.73107 0.224632,-1.10384 0.09333,-0.58846 0.149463,-1.18178 0.232674,-1.77169 0.07688,-0.59111 0.161613,-1.18143 0.261977,-1.76904 0.103889,-0.57193 0.210664,-1.14305 0.344419,-1.70895 0.09517,-0.4363 0.181129,-0.87619 0.328446,-1.29873 0.04313,-0.13887 0.0881,-0.27767 0.123542,-0.41879 0.0084,-0.0335 -0.0052,-0.0808 0.0227,-0.10113 0.172929,-0.12626 0.368824,-0.21772 0.55612,-0.32148 0.0067,-0.004 -0.0077,0.0132 -0.01156,0.0198 -0.08057,0.12638 -0.120145,0.27263 -0.145852,0.41915 -0.05811,0.2896 -0.09112,0.5831 -0.131784,0.87557 -0.07869,0.46659 -0.19962,0.92411 -0.356888,1.37059 -0.162113,0.47881 -0.313306,0.96164 -0.366382,1.46714 -0.07389,0.54544 -0.145732,1.09096 -0.200118,1.6388 -0.06894,0.55973 -0.140004,1.11992 -0.274251,1.6687 -0.09514,0.42235 -0.190225,0.8466 -0.379436,1.23913 -0.01865,0.0359 -0.02387,0.0831 -0.056,0.10771 -0.0093,0.007 -0.502619,0.50602 -0.614879,0.32248 -0.02273,-0.0371 0.02733,-0.17604 0.02336,-0.21879 0.02959,-0.18951 0.03318,-0.38085 0.067,-0.56973 0.05115,-0.24684 0.115313,-0.49086 0.151987,-0.7408 0.06347,-0.39468 0.146111,-0.78598 0.210521,-1.18053 0.09775,-0.527 0.180903,-1.05617 0.260062,-1.58623 0.09654,-0.62541 0.207904,-1.24882 0.343027,-1.86713 0.0985,-0.45069 0.21259,-0.89762 0.303421,-1.34999 0,0 0.536191,-0.25686 0.536191,-0.25686 z"
       inkscape:connector-curvature="0" />
    <path
       style="fill:#000000;fill-opacity:1;stroke:none;stroke-width:0.26458332;stroke-opacity:1"
       id="path1250"
       d="m 36.840302,283.24902 c -0.311597,0.35418 -0.737653,0.5914 -1.171739,0.76602 -0.229549,0.0914 -0.475596,0.11243 -0.719746,0.12637 -0.467174,0.007 -0.435557,0.0918 0.234588,-0.35507 0.312423,-0.0363 0.624377,-0.0736 0.938265,-0.0965 0.233487,-0.0278 0.471512,-0.006 0.704173,-0.0379 0.196628,-0.0373 0.605777,-0.17888 -0.321567,0.21845 -0.02529,0.0109 0.03124,-0.0465 0.03839,-0.073 0.01847,-0.0686 0.01098,-0.19352 0.01008,-0.25875 -0.03542,-0.37016 -0.09582,-0.73764 -0.153252,-1.10494 -0.0596,-0.33111 -0.123351,-0.66135 -0.186902,-0.99171 -0.02469,-0.14187 -0.01289,-0.0761 -0.03514,-0.19735 0,0 0.523481,-0.27763 0.523481,-0.27763 v 0 c 0.01812,0.1228 0.0081,0.0566 0.03027,0.1987 0.05872,0.33235 0.121502,0.66396 0.182245,0.99595 0.05822,0.36902 0.11594,0.73838 0.160832,1.10926 0.0019,0.043 0.02199,0.35149 -0.01693,0.38044 -0.284097,0.21122 -0.424934,0.32076 -0.707208,0.354 -0.2321,0.0179 -0.465923,0.009 -0.697947,0.031 -0.316433,0.0243 -0.63105,0.0622 -0.9453,0.10635 0.495387,-0.40559 0.275539,-0.33625 0.717206,-0.35104 0.240694,-0.0159 0.481401,-0.0444 0.705487,-0.14017 0.257607,-0.11108 0.177978,-0.0835 -0.253555,0.17512 -0.04023,0.0241 0.08137,-0.0469 0.119816,-0.0738 0.110223,-0.0771 0.208143,-0.17122 0.299805,-0.26906 0,0 0.544666,-0.23471 0.544666,-0.23471 z"
       inkscape:connector-curvature="0" />
    <path
       style="fill:#000000;fill-opacity:1;stroke:none;stroke-width:0.26458332;stroke-opacity:1"
       id="path1252"
       d="m 39.025136,282.43484 c 0.02379,0.3139 0.03716,0.62847 0.04899,0.94302 0.0087,0.0516 -0.01204,0.25182 0.03997,0.29176 0.04806,0.0369 0.288332,-0.02 0.33265,-0.0284 0.32598,-0.0899 0.655277,-0.16354 0.989814,-0.21278 0.06278,0.008 0.332309,-0.0678 0.378865,-0.0215 0.0099,0.01 0.01333,0.0246 0.02,0.0369 -0.183049,0.11161 -0.359576,0.23469 -0.549148,0.33483 -0.0231,0.0122 -0.0522,-0.002 -0.0783,-0.003 -0.141788,-0.006 -0.272953,-0.0172 -0.411232,-0.051 -0.227563,-0.068 -0.420417,-0.20581 -0.605605,-0.34966 -0.149304,-0.12965 -0.312607,-0.24188 -0.466224,-0.36592 -0.193432,-0.16847 -0.261523,-0.43304 -0.3281,-0.67106 -0.05951,-0.23791 -0.08956,-0.48142 -0.104142,-0.72579 0,0 0.526073,-0.27143 0.526073,-0.27143 v 0 c 0.01016,0.24127 0.03433,0.48228 0.09241,0.71729 0.06318,0.22755 0.127151,0.47829 0.316125,0.63574 0.153066,0.12341 0.312692,0.23882 0.461888,0.36716 0.180237,0.13843 0.369731,0.26871 0.592558,0.32742 0.134133,0.0274 0.268097,0.0427 0.405432,0.0371 0.231325,-0.009 0.277307,-0.14844 -0.379222,0.30524 0.0048,0.006 0.01574,0.009 0.01453,0.0166 -1.05e-4,5.3e-4 -0.02434,10e-4 -0.06114,0.004 -0.09849,0.007 -0.196831,0.0159 -0.294619,0.0297 -0.333764,0.0503 -0.66082,0.12935 -0.98775,0.21253 -0.114488,0.0168 -0.286057,0.0655 -0.383029,-0.0342 -0.07086,-0.0728 -0.02834,-0.22838 -0.04331,-0.31329 -0.0079,-0.31218 -0.01786,-0.62491 -0.05363,-0.93535 0,0 0.526127,-0.27545 0.526127,-0.27545 z"
       inkscape:connector-curvature="0" />
    <path
       style="fill:#000000;fill-opacity:1;stroke:none;stroke-width:0.26458332;stroke-opacity:1"
       id="path1254"
       d="m 34.57676,267.27081 c -0.248208,0.29339 -0.537937,0.54933 -0.830328,0.7976 -0.193739,0.14432 -0.359619,0.32318 -0.55104,0.46988 -0.188087,0.097 -0.36294,0.22583 -0.564266,0.29109 -0.03794,0.0123 -0.06174,-0.0507 -0.0898,-0.079 -0.03856,-0.0389 -0.07564,-0.0795 -0.109765,-0.12237 -0.165732,-0.20823 -0.308157,-0.43913 -0.456239,-0.6597 -0.482651,-0.74157 -0.942406,-1.49755 -1.425327,-2.23893 -0.41312,-0.60495 -0.850362,-1.19391 -1.305081,-1.76823 -0.09374,-0.11058 -0.174336,-0.23095 -0.258106,-0.34894 0,0 0.510553,-0.29927 0.510553,-0.29927 v 0 c 0.07611,0.12102 0.151532,0.24268 0.242282,0.35365 0.44147,0.58548 0.874874,1.17757 1.286671,1.78436 0.482703,0.74123 0.944618,1.49586 1.439072,2.22942 0.149952,0.21529 0.294216,0.44401 0.465701,0.64355 0.03382,0.0394 0.06998,0.077 0.10973,0.1104 0.02037,0.0171 0.08997,0.0231 0.06924,0.0397 -0.141867,0.11418 -0.312182,0.18761 -0.468276,0.28142 0.07813,-0.0468 0.135991,-0.10611 0.204385,-0.16592 0.118468,-0.10358 0.239996,-0.2041 0.361924,-0.30357 0.290438,-0.24147 0.574982,-0.49348 0.823497,-0.7787 0,0 0.545179,-0.23644 0.545179,-0.23644 z"
       inkscape:connector-curvature="0" />
    <path
       style="fill:#000000;fill-opacity:1;stroke:none;stroke-width:0.26458332;stroke-opacity:1"
       id="path1256"
       d="m 37.186713,267.32208 c 0.254334,0.37525 0.526122,0.73811 0.788345,1.10781 0.200422,0.30266 0.386837,0.61706 0.539266,0.94689 0.04346,0.075 0.07531,0.15561 0.111519,0.23403 0.0084,0.0183 0.01296,0.0399 0.02762,0.0537 0.0077,0.007 0.04078,-0.003 0.0315,0.002 -0.150067,0.0798 -0.305126,0.14974 -0.45769,0.22461 0.031,-0.0346 0.06477,-0.0669 0.093,-0.1038 0.144852,-0.18937 0.25827,-0.40681 0.376804,-0.61254 0.232479,-0.40352 0.112842,-0.19607 0.361698,-0.62708 0.458126,-0.82637 0.95789,-1.62737 1.464612,-2.42441 0.376843,-0.57407 0.750827,-1.15079 1.167434,-1.69714 0.155025,-0.19027 0.307581,-0.38575 0.498293,-0.54188 0,0 0.549936,-0.2188 0.549936,-0.2188 v 0 c -0.205645,0.14215 -0.356613,0.34595 -0.518615,0.53345 -0.428871,0.54446 -0.808151,1.12518 -1.191577,1.70197 -0.506778,0.79343 -1.007179,1.59056 -1.457093,2.41818 -0.257884,0.4545 -0.499398,0.92098 -0.793559,1.35328 -0.707218,0.38711 -0.547981,0.46948 -0.776608,-0.006 -0.14402,-0.32957 -0.325067,-0.64346 -0.522126,-0.94384 -0.261379,-0.37157 -0.532767,-0.73606 -0.803886,-1.10051 0,0 0.511127,-0.2995 0.511127,-0.2995 z"
       inkscape:connector-curvature="0" />
    <path
       style="fill:#000000;fill-opacity:1;stroke:none;stroke-width:0.26458332;stroke-opacity:1"
       id="path1258"
       d="m 17.284394,257.96402 c 0.364957,-0.13658 0.756676,-0.19667 1.146254,-0.17409 0.105288,0.006 0.209556,0.024 0.314334,0.036 0.657247,0.10268 1.239191,0.42477 1.770403,0.81041 0.310881,0.24823 0.593185,0.55472 0.696455,0.94993 0.01657,0.0634 0.02094,0.1294 0.03141,0.1941 0.02518,0.45117 -0.214371,0.83442 -0.462932,1.19003 -0.276552,0.35772 -0.577783,0.70662 -0.955052,0.96249 -0.07878,0.0534 -0.163486,0.0975 -0.24523,0.1463 -0.491154,0.28683 -0.797026,0.48634 -1.339346,0.47236 -0.360165,-0.009 -0.64178,-0.11987 -0.969625,-0.25379 -0.553828,-0.26957 -1.031283,-0.67165 -1.401447,-1.1636 -0.06592,-0.0876 -0.123441,-0.18124 -0.185161,-0.27186 -0.24593,-0.41562 -0.318947,-0.82357 -0.155955,-1.28522 0.02785,-0.0789 0.06777,-0.15297 0.101657,-0.22946 0.178564,-0.29637 0.386484,-0.62165 0.692058,-0.80497 0.210316,-0.12617 0.426479,-0.24233 0.639719,-0.36349 0.122932,-0.0536 0.23796,-0.052 0.366677,-0.0351 0,0 -0.480805,0.3426 -0.480805,0.3426 v 0 c -0.121526,-0.006 -0.230204,0.002 -0.342039,0.0587 0.119665,-0.0723 0.23669,-0.14916 0.358995,-0.2169 0.051,-0.0282 -0.09887,0.0622 -0.144708,0.0982 -0.233529,0.18354 -0.415326,0.42904 -0.56617,0.68193 -0.03525,0.0738 -0.07649,0.14505 -0.105754,0.22143 -0.170267,0.44445 -0.109103,0.83813 0.12584,1.24493 0.06023,0.0895 0.116264,0.18194 0.180704,0.26844 0.362849,0.48705 0.836095,0.88078 1.385577,1.13994 0.332361,0.12933 0.595671,0.23012 0.959371,0.22984 0.09979,-7e-5 0.199898,-0.009 0.298323,-0.0251 0.09506,-0.0159 0.236897,-0.15777 0.280123,-0.0716 0.04279,0.0853 -0.154592,0.11183 -0.231888,0.16775 0.08251,-0.0466 0.16811,-0.0881 0.24753,-0.13974 0.379651,-0.247 0.68071,-0.59178 0.958063,-0.94464 0.244811,-0.34119 0.488422,-0.71128 0.477292,-1.14784 -0.0084,-0.0616 -0.0106,-0.12435 -0.02523,-0.18476 -0.09332,-0.38549 -0.369791,-0.68431 -0.670191,-0.92524 -0.524906,-0.38203 -1.09996,-0.69583 -1.752287,-0.78661 -0.104004,-0.01 -0.20762,-0.0255 -0.312012,-0.0296 -0.393627,-0.0153 -0.786367,0.0564 -1.150665,0.20439 0,0 0.465709,-0.36622 0.465709,-0.36622 z"
       inkscape:connector-curvature="0" />
    <path
       style="fill:#000000;fill-opacity:1;stroke:none;stroke-width:0.26458332;stroke-opacity:1"
       id="path1262"
       d="m 24.829923,258.17805 c 0.3405,-0.27728 0.725571,-0.54688 1.162153,-0.63553 0.229101,-0.0465 0.315901,-0.0316 0.551696,-0.0275 0.54609,0.0556 1.040472,0.30099 1.458529,0.65054 0.07961,0.0666 0.153014,0.14021 0.229521,0.21032 0.316981,0.31381 0.544959,0.69338 0.609335,1.13923 0.01162,0.0804 0.01302,0.16193 0.01955,0.24289 -0.0098,0.46964 -0.131249,0.9298 -0.33918,1.35048 -0.04593,0.0929 -0.09966,0.1818 -0.149487,0.2727 -0.419118,0.68916 -0.782426,0.91985 -1.52632,1.28689 -0.08014,0.0395 -0.17063,0.0532 -0.255945,0.0798 -0.445682,0.082 -0.878981,-0.0156 -1.246176,-0.28238 -0.07793,-0.0566 -0.147775,-0.1236 -0.221662,-0.18539 -0.43608,-0.43659 -0.712734,-0.99275 -0.8852,-1.58042 -0.039,-0.1329 -0.06791,-0.26856 -0.101862,-0.40285 -0.08745,-0.48515 -0.23866,-1.13511 -0.03548,-1.6115 0.02775,-0.0651 0.07197,-0.12177 0.10796,-0.18266 0.270687,-0.27304 0.623093,-0.50665 1.012075,-0.54375 0.06707,-0.006 0.134745,-0.002 0.202118,-0.003 0,0 -0.468635,0.34297 -0.468635,0.34297 v 0 c -0.06548,0.004 -0.131575,0.001 -0.196453,0.0111 -0.06326,0.009 -0.227264,0.0949 -0.186333,0.0457 0.04031,-0.0484 0.594096,-0.3874 0.167819,-0.0868 -0.03901,0.0569 -0.08643,0.10886 -0.117043,0.17068 -0.225978,0.45629 -0.07758,1.11807 0.0053,1.59118 0.03329,0.13299 0.06126,0.26743 0.09986,0.39897 0.169549,0.57776 0.446898,1.12278 0.880608,1.54666 0.07276,0.0593 0.141415,0.12396 0.218268,0.17781 0.362246,0.25384 0.787398,0.33578 1.218187,0.24155 0.08318,-0.0286 0.240117,-0.17341 0.249544,-0.0859 0.01032,0.0958 -0.148764,0.18397 -0.241718,0.15857 -0.09014,-0.0246 0.156766,-0.10249 0.228709,-0.16213 0.233063,-0.19319 0.414745,-0.437 0.572648,-0.69295 0.05038,-0.0894 0.104632,-0.17665 0.151146,-0.26809 0.208865,-0.41057 0.329779,-0.86154 0.345556,-1.32203 -0.0052,-0.0789 -0.0054,-0.15827 -0.01572,-0.23665 -0.05727,-0.43449 -0.278908,-0.80513 -0.585655,-1.1113 -0.07523,-0.0689 -0.147281,-0.14138 -0.225706,-0.20659 -0.412641,-0.34309 -0.901663,-0.57707 -1.44077,-0.61804 -0.23629,0.003 -0.317227,-0.0107 -0.544897,0.0446 -0.07777,0.0189 -0.27315,0.14242 -0.227504,0.0767 0.06936,-0.0999 0.204743,-0.13133 0.308963,-0.19399 0.08412,-0.0506 -0.288623,0.17976 -0.238677,0.17244 0,0 -0.549099,0.22744 -0.549099,0.22744 z"
       inkscape:connector-curvature="0" />
    <path
       style="fill:#000000;fill-opacity:1;stroke:none;stroke-width:0.26458332;stroke-opacity:1"
       id="path1264"
       d="m 20.970835,254.24305 c 0.468926,-0.0365 0.937343,0.0578 1.377838,0.21556 0.121984,0.0437 0.24016,0.0973 0.36024,0.14601 0.523491,0.24753 1.05409,0.52993 1.460309,0.95264 0.05901,0.0614 0.109322,0.13064 0.163983,0.19596 0.204258,0.29861 0.284723,0.60186 0.104638,0.93633 -0.0317,0.0589 -0.07512,0.11063 -0.112687,0.16594 -0.05074,0.05 -0.0975,0.10442 -0.152214,0.15006 -0.05837,0.0487 -0.120395,0.0935 -0.185931,0.13204 -0.415109,0.24396 -0.775467,0.46424 -1.237121,0.57087 -0.09454,0.0218 -0.191104,0.0338 -0.286655,0.0506 -0.49305,0.0675 -1.009256,0.0387 -1.476673,-0.14544 -0.09221,-0.0363 -0.178933,-0.0853 -0.268398,-0.12795 -0.417396,-0.23542 -0.77178,-0.58704 -0.956467,-1.03589 -0.03465,-0.0842 -0.0554,-0.17348 -0.08311,-0.26022 -0.08443,-0.43243 -0.0182,-0.87535 0.205167,-1.25786 0.04115,-0.0705 0.09264,-0.13436 0.138954,-0.20154 0.05012,-0.0521 0.100246,-0.10411 0.150369,-0.15616 0,0 0.535017,-0.22133 0.535017,-0.22133 v 0 c -0.05225,0.0494 -0.104502,0.0988 -0.156753,0.14821 -0.0478,0.0647 -0.10079,0.12584 -0.143408,0.19405 -0.228609,0.36591 -0.301318,0.79668 -0.226482,1.21875 0.02615,0.084 0.04547,0.17051 0.07844,0.25212 0.177435,0.43927 0.525066,0.77946 0.934444,1.00483 0.08795,0.0405 0.17331,0.0872 0.26384,0.12152 0.464831,0.17634 0.974158,0.19619 1.460996,0.1226 0.264576,-0.0522 0.299003,-0.0489 0.551607,-0.13834 0.08503,-0.0301 0.276873,-0.18777 0.250891,-0.10139 -0.03104,0.10319 -0.180112,0.11848 -0.272644,0.17371 -0.123589,0.0738 0.475066,-0.2912 0.343074,-0.26218 0.03883,-0.0513 0.08318,-0.099 0.116503,-0.15404 0.188759,-0.31197 0.125064,-0.5943 -0.06874,-0.88333 -0.05232,-0.0639 -0.100339,-0.13147 -0.156959,-0.19154 -0.397066,-0.42122 -0.92206,-0.7 -1.440271,-0.9406 -0.119743,-0.047 -0.23759,-0.0991 -0.359229,-0.14084 -0.443137,-0.15224 -0.917449,-0.23913 -1.385259,-0.1766 0,0 0.472693,-0.35659 0.472693,-0.35659 z"
       inkscape:connector-curvature="0" />
    <path
       style="fill:#000000;fill-opacity:1;stroke:none;stroke-width:0.26458332;stroke-opacity:1"
       id="path1266"
       d="m 30.317286,254.44284 c 0.393192,-0.0547 0.796534,-0.039 1.182868,0.0548 0.105341,0.0256 0.208092,0.0609 0.312136,0.0913 0.539721,0.20811 1.042538,0.51377 1.485347,0.88604 0.08739,0.0735 0.168977,0.15358 0.253463,0.23037 0.340882,0.35003 0.631251,0.75586 0.728144,1.24363 0.01709,0.0861 0.02236,0.17412 0.03353,0.26118 0.0041,0.48618 -0.18747,0.94203 -0.495924,1.31454 -0.06796,0.0821 -0.146307,0.15498 -0.219461,0.23246 -0.08687,0.0706 -0.169323,0.14701 -0.260618,0.21178 -0.09521,0.0675 -0.195289,0.12845 -0.297756,0.18438 -0.467061,0.25496 -0.706943,0.43454 -1.176891,0.52132 -0.369115,0.0682 -0.431628,0.0373 -0.807662,0.006 -0.147018,-0.0387 -0.298032,-0.0646 -0.44105,-0.11616 -0.671618,-0.24213 -1.277239,-0.70902 -1.750597,-1.23625 -0.119636,-0.13325 -0.221699,-0.28129 -0.332549,-0.42194 -0.318106,-0.48426 -0.563256,-1.03123 -0.495636,-1.62497 0.03366,-0.29553 0.09602,-0.38079 0.214818,-0.64518 0.239855,-0.3433 0.107124,-0.18538 0.396324,-0.4753 0,0 0.527,-0.21738 0.527,-0.21738 v 0 c -0.295733,0.27795 -0.159417,0.12592 -0.407352,0.45754 -0.122754,0.25368 -0.188238,0.33964 -0.228579,0.62585 -0.08201,0.58184 0.154434,1.1219 0.462468,1.59965 0.108979,0.13906 0.208933,0.28569 0.326932,0.41718 0.468744,0.52234 1.073716,0.97914 1.743625,1.2061 0.142481,0.0483 0.292484,0.0706 0.438727,0.10583 0.373288,0.0223 0.434692,0.0513 0.799306,-0.0243 0.122301,-0.0254 0.235442,-0.12153 0.359379,-0.10605 0.06738,0.008 -0.220271,0.15207 -0.155562,0.1315 0.160009,-0.0509 0.431485,-0.28042 0.560861,-0.38131 0.07381,-0.075 0.152694,-0.14537 0.221416,-0.22508 0.307946,-0.35715 0.504437,-0.79951 0.51012,-1.27342 -0.0098,-0.0848 -0.01389,-0.17049 -0.02956,-0.25442 -0.08925,-0.4781 -0.372261,-0.87659 -0.704755,-1.21929 -0.08344,-0.0757 -0.163943,-0.15482 -0.250327,-0.22717 -0.438931,-0.36762 -0.938496,-0.66811 -1.475677,-0.86643 -0.103465,-0.0286 -0.205652,-0.0623 -0.310393,-0.0857 -0.389525,-0.0873 -0.796499,-0.0952 -1.188828,-0.0234 0,0 0.472712,-0.35791 0.472712,-0.35791 z"
       inkscape:connector-curvature="0" />
    <path
       style="fill:#000000;fill-opacity:1;stroke:none;stroke-width:0.26458332;stroke-opacity:1"
       id="path1268"
       d="m 18.773006,264.12978 c 0.02172,0.41105 0.03032,0.82269 0.05402,1.2336 0.01835,0.35706 0.04989,0.71247 0.12633,1.06199 0.04087,0.16584 0.07744,0.3308 0.06472,0.50198 -0.05183,0.43053 0.05686,0.24402 -0.587862,0.48752 -0.09725,-0.42772 -0.138828,-0.86613 -0.203088,-1.29972 -0.09284,-0.59329 -0.184442,-1.18678 -0.274094,-1.78056 -0.06449,-0.41885 -0.08887,-0.84181 -0.101455,-1.2649 -0.01528,-0.25281 -0.0388,-0.50515 -0.0635,-0.75721 0,0 0.526727,-0.27373 0.526727,-0.27373 v 0 c 0.01608,0.25527 0.04082,0.50988 0.05479,0.76529 0.0096,0.42202 0.03106,0.84411 0.09131,1.26238 0.08501,0.59484 0.172669,1.1894 0.270058,1.78234 0.06675,0.42584 0.113707,0.85666 0.217155,1.27551 -0.597117,0.41082 -0.512521,0.49203 -0.461994,0.0679 0.01903,-0.1664 -0.01292,-0.3264 -0.05131,-0.48879 -0.07273,-0.35451 -0.103065,-0.71407 -0.119606,-1.0754 -0.02449,-0.40947 -0.02953,-0.82019 -0.07138,-1.22856 0,0 0.529183,-0.26963 0.529183,-0.26963 z"
       inkscape:connector-curvature="0" />
    <path
       style="fill:#000000;fill-opacity:1;stroke:none;stroke-width:0.26458332;stroke-opacity:1"
       id="path1270"
       d="m 15.905885,262.1381 c -0.502295,-0.46845 -1.042481,-0.89326 -1.579816,-1.32017 -0.529312,-0.42497 -1.072602,-0.83116 -1.639821,-1.20398 -0.148609,-0.0929 -0.30146,-0.17988 -0.444884,-0.28069 0,0 0.499762,-0.31787 0.499762,-0.31787 v 0 c 0.14031,0.10099 0.287646,0.19205 0.431994,0.28712 0.557863,0.38417 1.09486,0.79654 1.624169,1.21911 0.542454,0.42812 1.084569,0.85666 1.610223,1.30544 0,0 -0.501627,0.31104 -0.501627,0.31104 z"
       inkscape:connector-curvature="0" />
    <path
       style="fill:#000000;fill-opacity:1;stroke:none;stroke-width:0.26458332;stroke-opacity:1"
       id="path1272"
       d="m 20.765619,262.09797 c 0.498156,-0.226 1.019428,-0.39233 1.542185,-0.55028 0.363278,-0.11508 0.732128,-0.21085 1.099003,-0.3135 0,0 -0.463999,0.35658 -0.463999,0.35658 v 0 c -0.362485,0.0985 -0.726863,0.1905 -1.084933,0.30454 -0.528474,0.16146 -1.055113,0.33311 -1.555421,0.57035 0,0 0.463165,-0.36769 0.463165,-0.36769 z"
       inkscape:connector-curvature="0" />
    <path
       style="fill:#000000;fill-opacity:1;stroke:none;stroke-width:0.26458332;stroke-opacity:1"
       id="path1278"
       d="m 22.253519,258.06338 c 0.0026,0.35131 0.02688,0.70202 0.04226,1.05292 0.01093,0.18453 0.01814,0.36952 -0.01444,0.55228 -0.179182,0.0717 -0.350071,0.16932 -0.537545,0.21521 -0.0276,0.007 0.0038,-0.0567 0.0058,-0.085 0.01075,-0.1534 0.01974,-0.3067 0.02609,-0.46034 -0.004,-0.13386 0.0161,-0.26178 0.06089,-0.38723 0,0 0.538253,-0.24833 0.538253,-0.24833 v 0 c -0.05539,0.11763 -0.07715,0.23955 -0.07304,0.37025 -0.0065,0.15328 -0.01473,0.30641 -0.02246,0.45962 -0.0013,0.0268 0.01792,0.0647 -0.0039,0.0803 -0.167887,0.11993 -0.358472,0.20439 -0.537708,0.30658 0.07942,-0.10428 0.03003,-0.41277 0.03835,-0.53591 -0.01239,-0.34908 -0.03281,-0.69773 -0.04779,-1.04667 0,0 0.525217,-0.27364 0.525217,-0.27364 z"
       inkscape:connector-curvature="0" />
    <path
       style="fill:#000000;fill-opacity:1;stroke:none;stroke-width:0.26458332;stroke-opacity:1"
       id="path1280"
       d="m 26.93762,264.12407 c 0.05349,0.29779 0.109429,0.59476 0.149344,0.89479 0.04145,0.389 0.131025,0.31674 -0.49775,0.5146 -0.02619,0.008 0.0054,-0.0547 0.0067,-0.0821 0.0021,-0.0431 0.0021,-0.0862 0.0034,-0.12931 -0.0047,-0.41992 -0.0556,-0.83699 -0.108138,-1.25301 -0.05496,-0.30488 -0.08377,-0.6195 -0.18146,-0.91501 0.0047,0.0139 5.02e-4,0.0475 0.014,0.0417 0.174237,-0.0745 0.323809,-0.20425 0.503889,-0.26329 0.03036,-0.01 0.0049,0.0637 0.0079,0.0955 0.0044,0.047 0.0087,0.094 0.01426,0.14087 0.02278,0.19024 0.02159,0.16244 0.0622,0.36106 0.111908,0.48874 0.245491,0.97194 0.37397,1.45644 0.05169,0.18459 0.102148,0.36947 0.150336,0.555 0,0 -0.514215,0.27802 -0.514215,0.27802 v 0 c -0.04461,-0.18688 -0.09158,-0.37315 -0.14279,-0.55837 -0.12451,-0.48597 -0.25935,-0.96929 -0.37912,-1.45651 -0.03775,-0.1677 -0.06439,-0.33194 -0.08817,-0.5019 -0.0047,-0.0333 -0.03957,-0.0765 -0.01532,-0.0999 0.464803,-0.44801 0.379708,-0.53076 0.533976,-0.33353 0.08238,0.30477 0.122153,0.61978 0.172627,0.93079 0.05186,0.4173 0.102516,0.83505 0.120217,1.25551 2.64e-4,0.0427 5.29e-4,0.0854 0.0011,0.12811 5.29e-4,0.0288 0.02593,0.0697 0.0024,0.0863 -0.642472,0.45607 -0.515242,0.40572 -0.559721,0.0219 -0.03534,-0.29831 -0.08743,-0.59351 -0.152726,-0.88674 0,0 0.523,-0.28105 0.523,-0.28105 z"
       inkscape:connector-curvature="0" />
    <path
       style="fill:#000000;fill-opacity:1;stroke:none;stroke-width:0.26458332;stroke-opacity:1"
       id="path1282"
       d="m 31.207503,261.38736 c 0.02985,0.35419 0.01873,0.70963 0.0091,1.06441 -0.0036,0.0428 -0.0062,0.0857 -0.01072,0.12843 -0.0026,0.024 -0.01561,0.13686 -0.03036,0.14702 -0.391864,0.27037 -0.509021,0.51204 -0.59391,0.17254 -0.04303,-0.42578 -0.03068,-0.8551 -0.01569,-1.28207 0.006,-0.36209 0.03358,-0.7319 -0.01931,-1.09202 -0.06621,-0.23095 -0.233365,-0.0851 0.489136,-0.2968 0.02818,-0.008 -0.01154,0.0577 -0.01381,0.087 -0.0061,0.0785 -5.29e-4,0.19965 0.0016,0.27502 0.0078,0.20044 0.04144,0.39805 0.07449,0.59541 0,0 -0.511156,0.27153 -0.511156,0.27153 v 0 c -0.03514,-0.19863 -0.07111,-0.39744 -0.08411,-0.5991 -0.0013,-0.0259 -0.02021,-0.36164 -0.0053,-0.37309 0.401338,-0.30828 0.500896,-0.52078 0.572616,-0.23573 0.04696,0.36615 0.01249,0.74137 0.0085,1.10886 -0.01521,0.41968 -0.0258,0.84176 0.02548,1.25959 0.04731,0.22756 0.04128,0.0713 -0.469898,0.35706 -0.01543,0.009 0.02156,-0.0287 0.02721,-0.0455 0.01651,-0.049 0.02801,-0.17252 0.03306,-0.21439 0.01453,-0.35074 0.03217,-0.70341 -0.01302,-1.05278 0,0 0.526127,-0.27545 0.526127,-0.27545 z"
       inkscape:connector-curvature="0" />
    <path
       style="fill:#000000;fill-opacity:1;stroke:none;stroke-width:0.26458332;stroke-opacity:1"
       id="path1286"
       d="m 32.499752,260.78954 c 0.200515,-0.31858 0.445913,-0.60335 0.692182,-0.8867 0.319651,-0.34681 0.653163,-0.68063 0.961181,-1.03796 0.280077,-0.31714 0.554672,-0.63897 0.850505,-0.94166 0.279755,-0.29346 0.574998,-0.57144 0.850242,-0.86919 0.17717,-0.19408 0.317547,-0.41646 0.456398,-0.63835 0.03118,-0.0154 0.02037,-0.0519 0.03587,-0.0748 0.0021,-0.003 0.0019,0.008 1.85e-4,0.0118 -0.01058,0.0211 -0.05802,0.0703 -0.03659,0.0605 0.245729,-0.11227 0.61069,-0.36502 0.316878,-0.1651 -0.290144,0.18279 -0.563848,0.38733 -0.826177,0.60778 -0.260559,0.22076 -0.491757,0.47304 -0.71192,0.73329 -0.18688,0.23912 -0.376637,0.47599 -0.562485,0.71591 -0.182544,0.22236 -0.364757,0.44499 -0.557234,0.65888 -0.161165,0.16608 -0.314179,0.33855 -0.452281,0.52426 -0.106365,0.14623 -0.197348,0.30272 -0.303192,0.44927 -0.07721,0.098 -0.132527,0.21057 -0.187375,0.32197 -0.166076,0.30937 -0.526372,0.4658 -0.856721,0.55138 -0.289851,0.0628 -0.584398,0.0708 -0.877956,0.0362 -0.21532,-0.0163 -0.407085,-0.11408 -0.603033,-0.19497 -0.12061,-0.0568 -0.243845,-0.10586 -0.365043,-0.1612 0,0 0.495673,-0.32826 0.495673,-0.32826 v 0 c 0.119473,0.0561 0.241972,0.10467 0.361418,0.1609 0.190617,0.0806 0.379545,0.16903 0.58955,0.18363 0.290354,0.0283 0.582242,0.0174 0.86604,-0.0561 0.266795,-0.0873 0.147542,-0.0577 -0.310338,0.2203 -0.01659,0.0101 0.03464,-0.0182 0.04938,-0.0308 0.02862,-0.0245 0.05321,-0.0535 0.07668,-0.083 0.01281,-0.0161 0.0222,-0.0346 0.0333,-0.0519 0.05227,-0.11531 0.109273,-0.2304 0.182436,-0.33388 0.115842,-0.13986 0.200493,-0.30237 0.306771,-0.44941 0.138102,-0.18787 0.286763,-0.36637 0.45258,-0.53078 0.19426,-0.21281 0.377735,-0.43469 0.562282,-0.65591 0.184426,-0.24113 0.375717,-0.47689 0.560372,-0.71786 0.221112,-0.2626 0.451107,-0.51919 0.711689,-0.74372 0.259096,-0.22174 0.528048,-0.43042 0.818002,-0.61084 0.244036,-0.17004 0.322937,-0.2288 0.694674,-0.42153 0.115827,-0.06 0.130302,0.0774 0.07845,0.13475 -0.13983,0.2268 -0.286753,0.45091 -0.46169,0.65257 -0.273818,0.30049 -0.571445,0.57728 -0.851374,0.87196 -0.298826,0.29944 -0.571558,0.6225 -0.852818,0.93822 -0.306642,0.35957 -0.6408,0.69388 -0.963142,1.03924 -0.242067,0.2779 -0.488378,0.55458 -0.677891,0.87239 0,0 -0.545468,0.23866 -0.545468,0.23866 z"
       inkscape:connector-curvature="0" />
    <path
       style="fill:#000000;fill-opacity:1;stroke:none;stroke-width:0.26458332;stroke-opacity:1"
       id="path1288"
       d="m 29.428471,260.97575 c -0.254015,0.16418 -0.503319,0.33591 -0.747437,0.51448 -0.227814,0.15782 -0.43429,0.34356 -0.638389,0.53034 -0.221917,0.20764 -0.397492,0.29897 -0.740302,0.35987 -0.04593,0.008 0.06454,-0.0674 0.09681,-0.10105 0.359526,-0.34815 0.752295,-0.65933 1.168852,-0.93594 0.533916,-0.32918 1.072581,-0.65754 1.649569,-0.90608 0.128161,-0.0571 0.258482,-0.10711 0.385095,-0.16748 0,0 -0.46147,0.36666 -0.46147,0.36666 v 0 c -0.126161,0.0559 -0.254365,0.10645 -0.380471,0.16246 -0.190481,0.0849 -0.146881,0.0626 -0.33987,0.16055 -0.06284,0.0319 -0.24429,0.13911 -0.187804,0.097 0.09169,-0.0684 0.197696,-0.11516 0.294296,-0.17639 0.139308,-0.0883 -0.585481,0.3477 -0.424373,0.25444 -0.415499,0.26885 -0.805522,0.57472 -1.161558,0.91915 -0.2427,0.24778 -0.0571,0.0806 -0.683596,0.36593 -0.01585,0.007 0.03162,-0.0148 0.04652,-0.0239 0.07011,-0.0426 0.128704,-0.0994 0.191757,-0.15121 0.203113,-0.1917 0.415187,-0.37682 0.642538,-0.53925 0.240146,-0.17781 0.485947,-0.34829 0.735375,-0.51268 0,0 0.554463,-0.21694 0.554463,-0.21694 z"
       inkscape:connector-curvature="0" />
  </g>
</svg>
