<?xml version="1.0" encoding="UTF-8" standalone="no"?>
<!-- Created with Inkscape (http://www.inkscape.org/) -->

<svg
   xmlns:dc="http://purl.org/dc/elements/1.1/"
   xmlns:cc="http://creativecommons.org/ns#"
   xmlns:rdf="http://www.w3.org/1999/02/22-rdf-syntax-ns#"
   xmlns:svg="http://www.w3.org/2000/svg"
   xmlns="http://www.w3.org/2000/svg"
   xmlns:sodipodi="http://sodipodi.sourceforge.net/DTD/sodipodi-0.dtd"
   xmlns:inkscape="http://www.inkscape.org/namespaces/inkscape"
   width="10mm"
   height="10mm"
   viewBox="0 0 10 10"
   version="1.1"
   id="svg8"
   sodipodi:docname="targetBoth.svg"
   inkscape:version="0.92.4 (5da689c313, 2019-01-14)">
  <defs
     id="defs2" />
  <sodipodi:namedview
     id="base"
     pagecolor="#ffffff"
     bordercolor="#666666"
     borderopacity="1.0"
     inkscape:pageopacity="0.0"
     inkscape:pageshadow="2"
     inkscape:zoom="22.4"
     inkscape:cx="18.424247"
     inkscape:cy="15.707075"
     inkscape:document-units="mm"
     inkscape:current-layer="layer1"
     showgrid="false"
     inkscape:window-width="1920"
     inkscape:window-height="1017"
     inkscape:window-x="-8"
     inkscape:window-y="-8"
     inkscape:window-maximized="1" />
  <metadata
     id="metadata5">
    <rdf:RDF>
      <cc:Work
         rdf:about="">
        <dc:format>image/svg+xml</dc:format>
        <dc:type
           rdf:resource="http://purl.org/dc/dcmitype/StillImage" />
        <dc:title></dc:title>
      </cc:Work>
    </rdf:RDF>
  </metadata>
  <g
     inkscape:label="Layer 1"
     inkscape:groupmode="layer"
     id="layer1"
     transform="translate(0,-287)">
    <path
       style="fill:#000000;fill-opacity:1;stroke:none;stroke-width:0.26458332;stroke-opacity:1"
       id="path874"
       d="m 1.6192469,293.13235 c 0.00934,-0.0349 0.022296,-0.0687 0.038377,-0.10104 0.016326,-0.0282 0.029023,-0.0579 0.039812,-0.0886 0.00959,-0.0297 0.016612,-0.06 0.025279,-0.09 0.00702,-0.0246 0.014458,-0.049 0.02109,-0.0737 0.00778,-0.0188 0.010485,-0.0389 0.016333,-0.0582 0.00918,-0.0289 0.027124,-0.0537 0.041988,-0.0798 0.016033,-0.0277 0.029579,-0.0567 0.040828,-0.0867 0.00871,-0.0259 0.01535,-0.0521 0.019317,-0.0792 0.00482,-0.0279 0.010105,-0.0557 0.012981,-0.084 0.00163,-0.0262 0.00763,-0.0519 0.010702,-0.078 0.00151,-0.026 0.00369,-0.0516 0.00812,-0.0773 0.00438,-0.0267 0.010654,-0.0532 0.017778,-0.0793 0.00594,-0.0269 0.0154,-0.0525 0.027782,-0.077 0.012663,-0.0225 0.0239,-0.0458 0.033273,-0.07 0.00754,-0.0234 0.013919,-0.0472 0.021543,-0.0706 0.00927,-0.0304 0.018057,-0.061 0.02716,-0.0914 0.00896,-0.0318 0.017602,-0.0638 0.027152,-0.0954 0.00768,-0.026 0.016741,-0.0514 0.02588,-0.0769 0.011839,-0.0327 0.023207,-0.0655 0.034184,-0.0985 0.00836,-0.0324 0.01861,-0.0641 0.030326,-0.0955 0.012573,-0.0321 0.028721,-0.0626 0.042762,-0.0941 0.015609,-0.0332 0.030111,-0.0668 0.04384,-0.10082 0.00934,-0.0281 0.020191,-0.0555 0.033208,-0.0821 0.014208,-0.0293 0.029905,-0.0578 0.041866,-0.0881 0.011398,-0.0326 0.016762,-0.0666 0.023146,-0.10032 0.00418,-0.0255 0.011619,-0.05 0.020043,-0.0743 0.00849,-0.0231 0.019271,-0.0453 0.029998,-0.0674 0.011204,-0.0245 0.025398,-0.0475 0.038856,-0.0708 0.014458,-0.0271 0.028702,-0.0543 0.044258,-0.0808 0.014,-0.0247 0.028708,-0.049 0.043457,-0.0733 0.015776,-0.0267 0.024202,-0.0568 0.034487,-0.0859 0.00923,-0.0278 0.022556,-0.0536 0.036749,-0.0791 0.013622,-0.02 0.01881,-0.0434 0.026498,-0.0659 0.00736,-0.0182 0.017052,-0.0354 0.024602,-0.0535 0.00496,-0.015 0.00377,-0.0305 -0.00405,-0.0442 -0.00892,-0.0163 -0.023565,-0.028 -0.03749,-0.0399 -0.028319,-0.0206 -0.057446,-0.0404 -0.089557,-0.0545 -0.025543,-0.0108 -0.051542,-0.0173 -0.079011,-0.0205 -0.025186,-0.007 -0.050845,-0.0107 -0.076797,-0.0126 -0.024856,-2.1e-4 -0.049463,-0.005 -0.073336,-0.0117 -0.028538,-0.008 -0.056843,-0.0175 -0.08538,-0.026 -0.029965,-0.008 -0.059914,-0.0164 -0.09,-0.0242 -0.031164,-0.007 -0.061707,-0.0178 -0.091411,-0.0296 -0.024138,-0.009 -0.049625,-0.0135 -0.074564,-0.02 -0.027941,-0.004 -0.055379,-0.01 -0.083183,-0.0141 -0.027039,-0.007 -0.054369,-0.013 -0.081372,-0.0204 -0.02442,-0.006 -0.048189,-0.0146 -0.072049,-0.0226 -0.022599,-0.008 -0.045095,-0.0161 -0.067081,-0.0255 -0.028805,-0.0126 -0.058977,-0.0216 -0.087706,-0.0343 -0.037892,-0.0138 -0.074989,-0.0296 -0.1123437,-0.0448 -0.034475,-0.0152 -0.068239,-0.032 -0.1036967,-0.0448 -0.037989,-0.0134 -0.075333,-0.0287 -0.1133682,-0.042 -0.045491,-0.0166 -0.091164,-0.0327 -0.1370348,-0.0482 -0.042411,-0.0147 -0.0836086,-0.0326 -0.12593699,-0.0475 -0.0438828,-0.0176 -0.089296,-0.0306 -0.13421262,-0.0451 -0.0364654,-0.0101 -0.0736239,-0.0176 -0.10788096,-0.0341 -0.0282749,-0.0171 -0.0581885,-0.0314 -0.0891966,-0.0428 -0.0333455,-0.013 -0.0650113,-0.0297 -0.0977251,-0.044 -0.0282059,-0.01 -0.0563269,-0.0197 -0.0856445,-0.0253 -0.022978,-0.002 -0.0430412,-0.0135 -0.0645634,-0.0204 -0.0224623,-0.004 -0.0444045,-0.009 -0.0667414,-0.0137 -0.0305426,-0.005 -0.0600116,-0.0163 -0.0891552,-0.0269 -0.0241002,-0.006 -0.0476046,-0.014 -0.0716182,-0.0204 -0.0120965,-0.001 -0.0269259,-0.008 -0.03883352,-0.002 -0.002435,10e-4 -0.0086532,0.006 -0.0063084,0.005 0.05180328,-0.0288 0.10318144,-0.0585 0.15477216,-0.0877 -0.019481,0.0212 -0.0136234,0.056 -0.0112312,0.0825 0.004415,0.035 1.865e-5,0.0703 -0.002047,0.10534 -0.0013,0.0409 0.005405,0.0811 0.011561,0.1213 0.006523,0.0289 0.0159943,0.057 0.0175267,0.0867 -0.002078,0.0349 -0.005314,0.0696 -0.006709,0.10449 -0.001266,0.036 -0.001428,0.0721 -0.001373,0.10814 -6.7919e-4,0.0304 0.001212,0.0608 -7.4216e-4,0.0911 -0.005199,0.0331 -0.0082,0.0664 -0.009883,0.0999 0.001031,0.0418 0.005208,0.0834 0.0106737,0.12475 0.007126,0.0375 0.008724,0.0747 0.005915,0.11263 -0.004942,0.0378 -0.003504,0.0756 -8.5698e-4,0.11348 0.004837,0.0468 0.01356,0.093 0.0199461,0.13952 0.005317,0.0552 0.011316,0.11029 0.0159089,0.16554 0.003568,0.0473 0.005194,0.0948 0.005869,0.14227 0.002323,0.0371 -0.002479,0.0739 -0.006347,0.11065 -0.003313,0.0365 -0.005482,0.0732 -0.004003,0.10986 0.00329,0.0383 0.008113,0.0763 0.006294,0.11477 -0.002891,0.031 -0.005154,0.0619 -0.006573,0.093 -0.001662,0.0534 0.003677,0.10672 0.006507,0.16001 0.002867,0.0538 0.003388,0.10762 0.003523,0.16145 0.002109,0.0555 0.008478,0.11067 0.008542,0.1662 -0.001982,0.0501 -0.005217,0.10008 -0.006813,0.15017 -0.001992,0.0485 0.003762,0.0968 0.007044,0.14509 0.003557,0.0342 0.00358,0.068 -6.9585e-4,0.102 -0.003809,0.0314 -0.011072,0.0621 -0.014868,0.0935 -0.004062,0.0414 -0.004153,0.0831 -0.004431,0.12468 -6.7204e-4,0.032 0.002299,0.0641 -0.0019,0.0959 -0.002625,0.0223 -0.009519,0.0437 -0.0145661,0.0654 0.001069,0.0102 -0.0104891,0.0211 -0.008153,0.0312 7.358e-4,0.003 0.006344,0.002 0.009589,0.002 0.0330545,0.005 0.0640894,0.0172 0.0959741,0.0267 0.0265763,0.0109 0.0535362,0.0204 0.0805099,0.0301 0.0308776,0.0121 0.0596462,0.0277 0.0878441,0.045 0.0345779,0.0247 0.0713483,0.0451 0.11002994,0.0625 0.045079,0.0215 0.0916634,0.0393 0.13807916,0.0577 0.0531176,0.02 0.10303256,0.0471 0.15396567,0.072 0.0511783,0.0256 0.10253565,0.052 0.15689025,0.0702 0.04229,0.0154 0.086241,0.0253 0.1290285,0.0391 0.042409,0.013 0.085055,0.0253 0.1272362,0.039 0.031773,0.009 0.063519,0.0176 0.095619,0.025 0.028331,0.004 0.054372,0.0152 0.080464,0.0263 0.023323,0.0106 0.046022,0.023 0.070045,0.032 0.020416,0.006 0.041898,0.006 0.063039,0.007 0.022385,-2.5e-4 0.044801,0.004 0.064994,-0.007 -0.2442177,0.14101 -0.1595091,0.11471 -0.1257358,0.0481 0.010825,-0.0214 0.018407,-0.0442 0.026082,-0.0668 0.013294,-0.0392 0.024165,-0.0791 0.036009,-0.11869 0.00606,-0.0217 0.01418,-0.0429 0.019569,-0.0648 0,0 0.1677505,-0.0818 0.1677505,-0.0818 v 0 c -0.00282,0.0234 -0.013227,0.0448 -0.019237,0.0675 -0.013664,0.0394 -0.023591,0.08 -0.037149,0.1194 -0.00994,0.0306 -0.020016,0.0612 -0.0344,0.09 -0.00304,0.006 -0.00383,0.0143 -0.00947,0.0181 -0.055247,0.0374 -0.113984,0.0693 -0.1709761,0.10398 -0.022744,0.004 -0.045972,0.002 -0.068976,0.002 -0.022761,-10e-4 -0.045692,-0.003 -0.066909,-0.0122 -0.023321,-0.0105 -0.046215,-0.022 -0.069533,-0.0325 -0.025502,-0.0108 -0.051794,-0.0185 -0.078984,-0.0238 -0.031831,-0.008 -0.063756,-0.0168 -0.095134,-0.0268 -0.042208,-0.0133 -0.084484,-0.0263 -0.1268351,-0.0391 -0.04314,-0.013 -0.0871062,-0.0235 -0.12918271,-0.0399 -0.054001,-0.0204 -0.10538515,-0.0472 -0.15720311,-0.0725 -0.0507088,-0.0247 -0.10084226,-0.0508 -0.15391132,-0.0703 -0.0467861,-0.0183 -0.0933352,-0.0371 -0.1389103,-0.0583 -0.0391643,-0.0181 -0.0762337,-0.0396 -0.11203456,-0.0637 -0.0276382,-0.0162 -0.0561143,-0.0305 -0.0862769,-0.0415 -0.0270258,-0.009 -0.0531163,-0.0204 -0.0800501,-0.0297 -0.0322675,-0.0106 -0.0647742,-0.0194 -0.0975733,-0.0281 -0.00488,-0.003 -0.0103425,-0.005 -0.01464075,-0.009 -0.01419185,-0.0125 -0.0057073,-0.0325 4.0349e-4,-0.0463 0.0040635,-0.0219 0.01168882,-0.0428 0.014917,-0.0648 0.006414,-0.031 0.004449,-0.0625 0.004845,-0.0941 2.4086e-4,-0.042 4.2863e-4,-0.0841 0.003053,-0.126 0.002739,-0.0316 0.009095,-0.0624 0.0142086,-0.0936 0.004091,-0.0332 0.007586,-0.066 0.003505,-0.0995 -0.002855,-0.0489 -0.008484,-0.0978 -0.007227,-0.1469 0.001303,-0.05 0.003858,-0.1 0.007038,-0.14993 0.001424,-0.0555 -0.005224,-0.11068 -0.008149,-0.16605 -4.191e-4,-0.0536 -7.7206e-4,-0.10722 -0.00302,-0.16078 -0.002543,-0.0535 -0.007954,-0.10691 -0.008826,-0.16046 3.5481e-4,-0.0312 0.001815,-0.0625 0.005866,-0.0935 0.003438,-0.0379 -3.1644e-4,-0.0752 -0.004667,-0.11293 -0.002916,-0.0374 -5.1012e-4,-0.075 0.002393,-0.11234 0.00341,-0.0363 0.009722,-0.0724 0.007666,-0.10905 -2.8602e-4,-0.0473 -6.8316e-4,-0.0946 -0.004012,-0.1418 -0.004126,-0.0549 -0.0107503,-0.10954 -0.0158698,-0.16434 -0.006566,-0.0468 -0.01532099,-0.0933 -0.02110471,-0.14023 -0.0030596,-0.0386 -0.0066112,-0.077 -0.0011308,-0.11562 0.0029673,-0.0368 0.0040906,-0.073 -0.0032404,-0.1096 -0.0058639,-0.0423 -0.01049324,-0.0847 -0.01258313,-0.1274 0.0010284,-0.0336 0.0024278,-0.0672 0.008209,-0.10042 0.0044886,-0.0296 8.4905e-4,-0.0598 0.0020757,-0.0896 2.7993e-4,-0.0363 5.3022e-4,-0.0727 0.00166,-0.10903 0.001283,-0.0344 0.0025622,-0.0688 0.0060788,-0.10313 0.001116,-0.0291 -0.0097851,-0.0567 -0.01526511,-0.0849 -0.0061612,-0.0414 -0.01304819,-0.0826 -0.01333154,-0.12459 0.0015013,-0.0342 0.0059609,-0.0686 0.0028305,-0.10268 -0.0033037,-0.0331 -0.0056701,-0.0655 0.0020733,-0.0983 0.10640057,-0.0623 0.12752588,-0.11681 0.21861051,-0.0908 0.0237643,0.007 0.0479206,0.0136 0.0713897,0.022 0.0287468,0.0105 0.058137,0.0191 0.0883431,0.0243 0.0227804,0.005 0.045971,0.009 0.0682393,0.0156 0.0205952,0.008 0.0409432,0.0161 0.062986,0.0188 0.0296543,0.007 0.0587209,0.0175 0.0870543,0.029 0.0321214,0.015 0.0640824,0.0303 0.0971383,0.0432 0.0310041,0.0125 0.0609864,0.0271 0.0901389,0.0435 0.0340622,0.0144 0.0702915,0.0221 0.1055279,0.0331 0.0451569,0.0144 0.0903835,0.0286 0.13467834,0.0455 0.041981,0.0155 0.083381,0.0326 0.1256415,0.0474 0.045696,0.0162 0.091658,0.0317 0.1372163,0.0483 0.038157,0.0138 0.076354,0.0275 0.1143509,0.0418 0.035026,0.0139 0.06883,0.0304 0.1033248,0.0456 0.037672,0.0151 0.075194,0.0306 0.1133511,0.0444 0.029145,0.0116 0.05877,0.0219 0.08777,0.0339 0.022246,0.008 0.044328,0.0171 0.066892,0.0245 0.023508,0.008 0.047304,0.0154 0.071356,0.0217 0.026436,0.007 0.053317,0.0129 0.079984,0.0191 0.028181,0.005 0.056531,0.009 0.084519,0.0151 0.025315,0.007 0.051206,0.0113 0.075294,0.022 0.029589,0.0108 0.059214,0.0216 0.090109,0.0281 0.030213,0.008 0.060538,0.0157 0.090525,0.0247 0.028233,0.009 0.05646,0.0176 0.08506,0.0249 0.023829,0.005 0.047669,0.009 0.072025,0.009 0.025954,0.003 0.051381,0.009 0.077008,0.0136 0.028443,0.005 0.055771,0.013 0.081952,0.0253 0.032328,0.0166 0.062476,0.0369 0.091877,0.0582 0.016571,0.0127 0.032234,0.0265 0.042336,0.0452 0.010218,0.0182 0.014028,0.0378 0.011062,0.0586 -0.00579,0.0187 -0.013787,0.037 -0.024635,0.0533 -0.00819,0.0233 -0.013314,0.0478 -0.025622,0.0695 -0.014814,0.0244 -0.028438,0.0493 -0.038477,0.076 -0.010448,0.0299 -0.020061,0.0603 -0.032539,0.0894 -0.015206,0.0239 -0.029642,0.0483 -0.043879,0.0728 -0.014961,0.0267 -0.031314,0.0525 -0.044154,0.0804 -0.012413,0.0238 -0.028197,0.0456 -0.038992,0.0702 -0.011421,0.0212 -0.021494,0.0433 -0.030466,0.0656 -0.010137,0.023 -0.017298,0.0473 -0.022256,0.0719 -0.00801,0.034 -0.011412,0.0691 -0.022148,0.10254 -0.00992,0.0314 -0.025695,0.0603 -0.040881,0.0894 -0.011482,0.0271 -0.026546,0.0526 -0.033948,0.0814 -0.013471,0.0344 -0.028126,0.0682 -0.043727,0.10168 -0.014118,0.0311 -0.02838,0.0619 -0.042881,0.0928 -0.011727,0.0312 -0.02411,0.0621 -0.030982,0.0949 -0.010618,0.033 -0.022003,0.0658 -0.03345,0.0985 -0.00852,0.0256 -0.018599,0.0507 -0.025936,0.0766 -0.011267,0.0312 -0.01901,0.0636 -0.028222,0.0954 -0.00909,0.0303 -0.017367,0.0608 -0.025824,0.0912 -0.00753,0.0236 -0.015152,0.0471 -0.021351,0.071 -0.00801,0.0251 -0.019087,0.0495 -0.032442,0.0722 -0.011973,0.0238 -0.024746,0.0471 -0.029431,0.0737 -0.00718,0.0256 -0.013821,0.0514 -0.01828,0.0775 -0.0044,0.0254 -0.00882,0.0504 -0.0089,0.0764 -0.00257,0.0261 -0.00772,0.0517 -0.010651,0.0777 -0.00244,0.0285 -0.00693,0.0567 -0.01312,0.0846 -0.0028,0.0283 -0.00883,0.0556 -0.017352,0.0826 -0.010134,0.0313 -0.024368,0.0613 -0.040565,0.0899 -0.01349,0.0256 -0.030137,0.0492 -0.041737,0.0757 -0.00194,0.006 -0.00475,0.0113 -0.00625,0.0172 -0.00348,0.0137 -0.00351,0.0285 -0.010248,0.0414 -0.00962,0.0234 -0.013043,0.0495 -0.021977,0.0733 -0.00894,0.0301 -0.016883,0.0605 -0.025279,0.0908 -0.010162,0.0316 -0.02179,0.0627 -0.038714,0.0915 -0.0173,0.0302 -0.031491,0.0628 -0.038805,0.0969 0,0 -0.1689434,0.0802 -0.1689434,0.0802 z"
       inkscape:connector-curvature="0" />
    <path
       style="fill:#000000;fill-opacity:1;stroke:none;stroke-width:0.26458332;stroke-opacity:1"
       id="path876"
       d="m 8.0460582,290.33874 c 0.0097,0.0382 0.024043,0.0749 0.037257,0.11194 0.011928,0.0343 0.024882,0.0683 0.038603,0.10191 0.014359,0.0338 0.024895,0.0688 0.032538,0.10468 0.0061,0.0316 0.016444,0.062 0.026506,0.0924 0.00903,0.0317 0.014523,0.0644 0.02037,0.0968 0.00444,0.0339 0.01034,0.0676 0.018703,0.10072 0.00655,0.0266 0.010552,0.0537 0.017881,0.0801 0.014909,0.0325 0.03438,0.0632 0.054109,0.093 0.019256,0.0268 0.033197,0.0559 0.04388,0.0871 0.010837,0.0373 0.023217,0.0737 0.039338,0.10908 0.018061,0.0401 0.037551,0.0795 0.051533,0.12132 0.015137,0.0485 0.023643,0.0988 0.035167,0.14831 0.011425,0.0479 0.024754,0.0952 0.03663,0.14296 0.013248,0.0439 0.02172,0.089 0.032022,0.13366 0.0095,0.0393 0.017177,0.079 0.027109,0.11811 0.00845,0.0376 0.019481,0.0744 0.033112,0.11035 0.015163,0.0458 0.033185,0.0905 0.052753,0.13455 0.021394,0.042 0.043235,0.0838 0.063487,0.12638 0.017576,0.0365 0.030651,0.0748 0.045493,0.11239 0.01239,0.036 0.023691,0.0722 0.038902,0.10706 0.022394,0.0463 0.041788,0.0937 0.059423,0.14197 0.015333,0.0464 0.029007,0.0932 0.043736,0.13978 0.012639,0.034 0.026494,0.0675 0.040479,0.10096 0.00918,0.0257 0.0181,0.0515 0.02426,0.0781 0.00746,0.026 0.017029,0.051 0.027751,0.0759 0.011893,0.0264 0.028119,0.0493 0.04665,0.0712 0.013541,0.0131 0.025061,0.03 0.045696,0.0283 0.03232,-0.002 0.064645,-0.004 0.097008,-0.005 0.038473,-8.4e-4 0.076484,-0.008 0.1143265,-0.0143 0.037521,-0.006 0.075499,-0.0105 0.1123119,-0.0201 0.036429,-0.009 0.07272,-0.0195 0.1088451,-0.03 0.042507,-0.014 0.086012,-0.0252 0.1298006,-0.0345 0.036689,-0.005 0.073612,-0.0102 0.1097592,-0.0187 0.029788,-0.005 0.058141,-0.0156 0.087812,-0.0213 0.021262,-0.003 0.045117,-1.8e-4 0.065258,0.007 0.017288,0.008 0.036776,0.007 0.054135,-2.1e-4 0.048813,-0.0468 0.00843,-0.007 -0.1464876,0.0818 -0.00235,10e-4 0.00479,-0.003 0.00699,-0.004 0.010306,-0.008 0.013515,-0.0188 0.01773,-0.0302 0.00901,-0.0289 0.011512,-0.059 0.013197,-0.089 0.00188,-0.0308 0.00893,-0.0607 0.015158,-0.0908 0.00745,-0.0401 0.00839,-0.081 0.00935,-0.12163 -2.646e-4,-0.0405 0.00408,-0.0808 0.011232,-0.12056 0.00447,-0.0311 0.011721,-0.0616 0.017616,-0.0924 0.00606,-0.0254 0.013372,-0.0503 0.014613,-0.0765 -4.762e-4,-0.0337 -0.00563,-0.067 -0.0113,-0.1001 -0.00774,-0.0369 -0.00372,-0.0742 -0.00111,-0.11135 6.35e-4,-0.0516 -0.00265,-0.10307 -0.00757,-0.15437 -0.00539,-0.0494 -0.00786,-0.0991 -0.013335,-0.14845 -0.00645,-0.0531 -0.012967,-0.10603 -0.016843,-0.15936 -0.00592,-0.0573 -0.00962,-0.1147 -0.017007,-0.1718 -0.00819,-0.0466 -0.016036,-0.0934 -0.026091,-0.13966 -0.012565,-0.0556 -0.021519,-0.11184 -0.029633,-0.16826 -0.00863,-0.0653 -0.014414,-0.13098 -0.023035,-0.19627 -0.00678,-0.0505 -0.012684,-0.10102 -0.018719,-0.15158 -0.00582,-0.0481 -0.00783,-0.0964 -0.00505,-0.14479 0.00212,-0.0383 0.010528,-0.0759 0.015319,-0.11389 0.00694,-0.0484 0.01407,-0.0969 0.020026,-0.14542 0.00617,-0.0567 0.017759,-0.11241 0.031235,-0.16776 0.01161,-0.0475 0.020219,-0.0956 0.02771,-0.14391 0.00525,-0.0421 -3.439e-4,-0.084 -0.00604,-0.12561 -0.00541,-0.0379 -0.00746,-0.0761 -0.00865,-0.11439 -7.937e-4,-0.0324 -8.731e-4,-0.0648 -0.00103,-0.0971 -0.00193,-0.0235 0.00183,-0.0463 0.00615,-0.0693 5.292e-4,-0.003 0.00108,-0.007 0.00161,-0.0101 0,0 0.1677721,-0.0826 0.1677721,-0.0826 v 0 c -4.23e-4,0.004 -8.73e-4,0.007 -0.0013,0.0107 -0.00362,0.0223 -0.010673,0.0438 -0.00826,0.0667 -2.062e-4,0.0324 -3.969e-4,0.0647 1.05e-4,0.0971 7.673e-4,0.0377 0.00246,0.0754 0.00738,0.11276 0.0059,0.0434 0.0121,0.0867 0.0079,0.13055 -0.007,0.049 -0.016383,0.0977 -0.027513,0.1459 -0.01461,0.0544 -0.026098,0.10959 -0.032417,0.16562 -0.00548,0.0483 -0.012012,0.0964 -0.018359,0.14454 -0.00399,0.0381 -0.013147,0.0754 -0.016476,0.11355 -0.00397,0.0474 -0.00246,0.0947 0.00302,0.14197 0.00574,0.0506 0.012406,0.1011 0.018074,0.15172 0.00784,0.0654 0.012695,0.1311 0.022254,0.19628 0.00827,0.0558 0.017658,0.11136 0.030421,0.16631 0.010594,0.0468 0.018227,0.0942 0.026492,0.14146 0.0067,0.0575 0.01067,0.11528 0.01703,0.17286 0.0036,0.053 0.01049,0.10555 0.0174,0.15821 0.0056,0.0496 0.0079,0.0994 0.01252,0.14915 0.0052,0.052 0.0092,0.10408 0.01033,0.15634 -0.0022,0.0357 -0.0071,0.0717 -1.98e-4,0.10723 0.0055,0.0341 0.01154,0.068 0.01294,0.10259 0.0014,0.0274 -0.0041,0.0535 -0.0128,0.0795 -0.0055,0.0311 -0.01445,0.0615 -0.01825,0.0929 -0.0081,0.0389 -0.01354,0.0784 -0.01349,0.11812 -6.08e-4,0.0414 -0.0011,0.0829 -0.0069,0.12391 -0.0051,0.0295 -0.01305,0.0584 -0.01611,0.0882 -9.27e-4,0.0314 -0.0037,0.0628 -0.01124,0.0934 -7.4e-4,0.003 -0.00684,0.0266 -0.00809,0.0301 -0.0013,0.004 -0.00645,0.0138 -0.010149,0.0161 -0.1600618,0.0963 -0.1054113,0.0824 -0.1770182,0.0993 -0.020807,0.002 -0.04031,7.4e-4 -0.059829,-0.008 -0.019775,-0.004 -0.039526,-0.006 -0.059235,-3.9e-4 -0.029055,0.007 -0.057717,0.0155 -0.087199,0.0207 -0.036292,0.007 -0.072889,0.0118 -0.1091964,0.0185 -0.043457,0.01 -0.086561,0.0216 -0.1289834,0.0353 -0.03657,0.0103 -0.072914,0.0216 -0.110056,0.0296 -0.037315,0.007 -0.074854,0.0132 -0.1124464,0.0189 -0.038446,0.007 -0.077228,0.0118 -0.1162703,0.0128 -0.033412,0.002 -0.066943,0.005 -0.1003689,0.003 -0.022122,-0.007 -0.037516,-0.0223 -0.052472,-0.0399 -0.019344,-0.0235 -0.036031,-0.0483 -0.04843,-0.0763 -0.011282,-0.0258 -0.023217,-0.0512 -0.030478,-0.0785 -0.00524,-0.0258 -0.014055,-0.0506 -0.022064,-0.0756 -0.013674,-0.0342 -0.027797,-0.0682 -0.040331,-0.10278 -0.014632,-0.0464 -0.027079,-0.0934 -0.042261,-0.13967 -0.017447,-0.0479 -0.037024,-0.0947 -0.060152,-0.14015 -0.015708,-0.035 -0.027346,-0.0713 -0.03959,-0.10761 -0.014467,-0.0373 -0.027042,-0.0754 -0.044081,-0.11166 -0.02041,-0.0427 -0.041784,-0.0849 -0.063243,-0.12704 -0.019862,-0.0442 -0.038458,-0.089 -0.05386,-0.13498 -0.014459,-0.0364 -0.026307,-0.0737 -0.034826,-0.11198 -0.00998,-0.0393 -0.017063,-0.0794 -0.026345,-0.1189 -0.010652,-0.0445 -0.018767,-0.0896 -0.031816,-0.1335 -0.011853,-0.0479 -0.024855,-0.0955 -0.036483,-0.14339 -0.011213,-0.049 -0.0201,-0.0986 -0.034804,-0.14659 -0.013388,-0.0413 -0.033434,-0.0796 -0.050808,-0.1193 -0.016711,-0.0357 -0.029865,-0.0725 -0.041078,-0.11032 -0.010041,-0.0297 -0.023363,-0.0574 -0.041278,-0.0832 -0.020518,-0.0316 -0.040554,-0.0638 -0.057418,-0.0975 -0.00813,-0.0265 -0.012544,-0.0537 -0.018076,-0.0808 -0.00822,-0.0336 -0.014528,-0.0677 -0.019182,-0.10194 -0.00535,-0.0316 -0.011253,-0.0633 -0.019119,-0.0944 -0.010327,-0.0312 -0.021098,-0.0622 -0.027379,-0.0945 -0.00655,-0.0349 -0.01701,-0.0687 -0.030561,-0.10159 -0.014414,-0.0338 -0.026854,-0.0683 -0.038979,-0.10295 -0.012869,-0.0374 -0.026624,-0.0746 -0.039322,-0.11205 0,0 0.1642179,-0.0895 0.1642179,-0.0895 z"
       inkscape:connector-curvature="0" />
    <path
       style="fill:#000000;fill-opacity:1;stroke:none;stroke-width:0.26458332;stroke-opacity:1"
       id="path878"
       d="m 9.7912718,289.95734 c 0.0014,-0.0352 0.00122,-0.0702 -0.00217,-0.10526 -0.00313,-0.0485 -0.015126,-0.0958 -0.02558,-0.14316 -0.011086,-0.0404 -0.02118,-0.0811 -0.027251,-0.12262 -0.00348,-0.0259 -0.00395,-0.0521 -0.00415,-0.0782 -0.00161,-0.0121 7.408e-4,-0.0167 -0.010755,-0.0115 -0.00457,0.002 -0.011581,0.003 -0.016269,0.004 -0.03161,0.009 -0.06466,0.0104 -0.096425,0.018 -0.026502,0.005 -0.051517,0.0145 -0.077972,0.0196 -0.02714,0.003 -0.054168,0.007 -0.080599,0.0143 -0.029553,0.005 -0.055401,0.0195 -0.081772,0.0328 0.038833,-0.0214 -0.075788,0.043 -0.036467,0.0205 0.2596086,-0.14898 0.1791753,-0.10371 0.1237163,-0.0703 -0.069691,0.0428 -0.012211,0.008 -0.186273,0.10749 -0.00946,0.005 -0.038027,0.0213 -0.028591,0.0159 0.1869059,-0.10812 0.1869485,-0.10823 0.1272807,-0.073 -0.090756,0.0574 -0.1836854,0.10969 -0.2809714,0.15424 -0.00803,0.004 -0.031092,0.0159 -0.039035,0.0203 -0.00615,0.003 -0.024307,0.0142 -0.018203,0.0107 0.046629,-0.0268 0.1867408,-0.10678 0.1397794,-0.0806 -0.2319377,0.12943 -0.1107273,0.0678 -0.1942674,0.11001 -0.038257,0.0208 -0.078677,0.0364 -0.1196515,0.0508 -0.044865,0.0107 -0.086913,0.0293 -0.1285139,0.0487 -0.053115,0.0228 -0.1017273,0.0545 -0.1526061,0.0816 -0.053015,0.0334 -0.1111078,0.0571 -0.1681769,0.0825 -0.049503,0.022 -0.098244,0.0456 -0.1468588,0.0695 -0.045183,0.0229 -0.09167,0.0435 -0.1389716,0.0616 -0.068603,0.0305 -0.2140471,0.11862 0.070602,-0.0452 -0.4605371,0.26508 -0.021627,0.0125 -0.023617,0.0136 -0.057796,0.0315 -0.1139258,0.0659 -0.1713835,0.0979 -0.050147,0.028 0.099553,-0.0573 0.1494493,-0.0857 0.00328,-0.002 -0.00631,0.004 -0.00958,0.006 -0.056536,0.0324 -0.11322,0.0646 -0.16983,0.0969 0.3303341,-0.18926 0.066052,-0.0381 -0.016663,0.0104 -0.050659,0.0297 0.1015143,-0.059 0.1525617,-0.088 0.00275,-0.002 -0.00518,0.004 -0.00762,0.006 -0.00736,0.006 -0.00749,0.007 -0.013793,0.0147 -0.022738,0.0305 -0.011565,0.0725 -0.00578,0.10709 0.00831,0.0345 0.018531,0.0684 0.02435,0.10341 0.00578,0.0828 -0.017746,0.0496 -0.1688507,0.10477 -0.00481,0.002 -0.00148,-0.0101 -0.00217,-0.0152 -9.261e-4,-0.007 -0.0018,-0.0135 -0.0027,-0.0202 -0.00523,-0.0449 -0.011171,-0.0898 -0.021765,-0.13383 -0.00862,-0.0381 -0.00533,-0.0501 0.021228,-0.0794 0.025569,-0.0249 0.053957,-0.0465 0.081147,-0.0695 0.069388,-0.0576 0.1500145,-0.0994 0.2301158,-0.14044 0.031236,-0.0102 0.061078,-0.0223 0.089696,-0.0386 0.076031,-0.0437 -0.083465,0.0483 -0.12544,0.0721 -0.00555,0.003 0.01075,-0.007 0.016071,-0.0103 0.01687,-0.0111 0.033394,-0.0227 0.050015,-0.0342 0.080049,-0.0499 0.1612231,-0.10033 0.2481506,-0.13768 0.025609,-0.0139 0.054161,-0.0208 0.081512,-0.0306 -0.00836,0.007 0.038706,-0.0203 0.029223,-0.0149 -0.048245,0.0277 -0.1929249,0.11076 -0.1448094,0.0829 0.057907,-0.0336 0.1160918,-0.0667 0.1741861,-0.0999 0.00502,-0.003 0.020172,-0.0113 0.015161,-0.008 -0.04798,0.0277 -0.096044,0.0552 -0.144067,0.0828 0.088089,-0.0673 0.1613162,-0.098 0.2568417,-0.1271 0.028573,-0.0103 0.058609,-0.0164 0.087321,-0.0262 0.026533,-0.006 0.051859,-0.0135 0.07738,-0.0226 0.027934,-0.01 0.055636,-0.02 0.083308,-0.0304 0.029358,-0.0101 0.058444,-0.0215 0.086114,-0.0356 0.1174887,-0.0591 -0.2140781,0.12388 -0.1009142,0.0588 0.057168,-0.0329 0.1143878,-0.0656 0.1715817,-0.0985 0.025942,-0.0137 0.054731,-0.024 0.083434,-0.0305 0.028299,-0.005 0.055914,-0.0131 0.083398,-0.0214 0.023588,-0.009 0.0487,-0.013 0.072412,-0.0212 0.016148,-0.004 0.031904,-0.008 0.046399,-0.0165 0.00383,-0.002 0.015049,-0.01 0.011168,-0.007 -0.049275,0.0279 -0.098249,0.0564 -0.1473734,0.0846 0.065017,-0.041 0.1336484,-0.0776 0.1999548,-0.11544 0.013203,-0.008 0.026159,-0.0136 0.04039,-0.0189 0.028217,-0.009 0.055277,-0.0212 0.082771,-0.0322 0.026424,-0.0101 0.053575,-0.0177 0.080663,-0.0259 0.025019,-0.007 0.051006,-0.009 0.076902,-0.0101 0.025588,-10e-4 0.050394,0.008 0.073392,0.018 0.022304,0.0124 0.039752,0.0285 0.052603,0.0505 0.010758,0.0218 0.011954,0.0462 0.016671,0.0697 0.00442,0.0278 0.00846,0.0556 0.01307,0.0834 0.00558,0.0327 0.00135,0.0659 -8.467e-4,0.0988 -0.00143,0.0286 -0.00382,0.0572 -0.00196,0.0858 0.00399,0.0309 0.00703,0.0618 0.009,0.0929 0.0022,0.025 0.00206,0.0496 -0.00249,0.0742 -0.010795,0.0595 -0.057029,0.0437 -0.1660221,0.0834 -0.00527,0.002 0.00291,-0.0108 0.00409,-0.0163 0.0013,-0.006 0.00225,-0.0122 0.00336,-0.0182 0.00495,-0.0382 0.00817,-0.0766 0.013393,-0.11476 0.00436,-0.0317 0.0059,-0.0636 0.00663,-0.0956 0.00164,-8e-4 -0.00101,-0.0365 -7.673e-4,-0.0366 0.17516,-0.0863 0.1416074,-0.13278 0.181736,-0.0636 0.01773,0.0331 0.02637,0.0692 0.02687,0.10653 -0.0012,0.026 -0.0084,0.051 -0.0164,0.0756 -0.152249,0.0787 -0.158291,0.13538 -0.1821178,0.0488 0,0 0.1636778,-0.0889 0.1636778,-0.0889 v 0 c 0.02088,0.0803 0.04352,0.01 -0.1542949,0.11414 0.01002,-0.005 0.00907,-0.0125 0.012356,-0.0224 0.00467,-0.0141 0.010237,-0.0278 0.011189,-0.043 9.261e-4,-0.0342 -0.00485,-0.0672 -0.022085,-0.0973 -0.041887,-0.0638 -0.010962,-0.008 0.1503279,-0.1082 9.53e-4,-5.8e-4 -0.0028,-10e-4 -0.0033,-2.2e-4 -0.0037,0.006 0.002,0.025 -10e-4,0.0311 -8.2e-4,0.0326 -0.0019,0.0653 -0.00632,0.0977 -0.005,0.0384 -0.010419,0.0767 -0.013224,0.11534 -0.00101,0.007 -0.0052,0.0356 -0.00552,0.0358 -0.054374,0.0363 -0.1122447,0.0672 -0.169816,0.0982 -0.0038,0.002 -0.00352,-0.008 -0.00308,-0.0126 2.551e-4,-0.002 0.00146,-0.005 0.00217,-0.007 0.00475,-0.0235 0.00852,-0.0463 0.00533,-0.0705 -0.00143,-0.0309 -0.00397,-0.0617 -0.00884,-0.0922 -0.0033,-0.0294 -5.557e-4,-0.0591 8.995e-4,-0.0885 0.00225,-0.0315 0.00705,-0.0635 0.00278,-0.095 -0.00444,-0.0275 -0.0096,-0.0548 -0.013295,-0.0825 -0.00451,-0.0215 -0.00581,-0.0438 -0.013875,-0.0643 -0.010697,-0.0184 -0.026651,-0.0312 -0.045897,-0.0403 -0.022236,-0.008 -0.044782,-0.014 -0.068716,-0.0111 -0.025051,0.002 -0.049928,0.005 -0.073824,0.0135 -0.026794,0.008 -0.053794,0.0162 -0.079663,0.0273 -0.027304,0.0115 -0.055298,0.0211 -0.082692,0.0323 -0.015809,0.007 -0.00959,0.004 -0.025461,0.0127 -0.00456,0.002 -0.018108,0.01 -0.01365,0.007 0.2591012,-0.15141 0.1751857,-0.1001 0.1184326,-0.0691 -0.084429,0.0497 -0.1434336,0.0991 -0.2313435,0.12137 -0.02436,0.006 -0.048086,0.0143 -0.072268,0.0211 -0.027494,0.008 -0.055553,0.014 -0.083365,0.0208 -0.027961,0.009 -0.055782,0.0188 -0.081059,0.034 0.049162,-0.0285 0.098266,-0.0571 0.1474873,-0.0855 0.00777,-0.004 -0.015573,0.009 -0.023334,0.0134 -0.066813,0.0387 -0.126528,0.0803 -0.1953133,0.11089 -0.028487,0.0125 -0.057319,0.0241 -0.086778,0.0341 -0.02789,0.0102 -0.055529,0.0212 -0.083789,0.0304 -0.025646,0.009 -0.052181,0.014 -0.078095,0.0221 -0.02919,0.008 -0.057758,0.0173 -0.086735,0.0257 -0.072432,0.0218 -0.2157719,0.0958 0.063379,-0.0533 -0.057905,0.0335 -0.1157404,0.0672 -0.1737135,0.1006 -0.00503,0.003 -0.020291,0.0113 -0.015282,0.008 0.047839,-0.028 0.1920626,-0.1107 0.1437804,-0.0835 -0.058194,0.0328 -0.1154407,0.0672 -0.173517,0.10025 -0.00851,0.005 -0.021788,0.01 -0.030883,0.013 -0.027433,0.009 -0.054996,0.0185 -0.080748,0.0321 -0.013536,0.006 -0.027146,0.0127 -0.040503,0.0195 -0.00506,0.003 -0.019979,0.0108 -0.015092,0.008 0.041736,-0.0246 0.20286,-0.11825 0.1256168,-0.0731 -0.083314,0.0563 -0.165444,0.11395 -0.2575155,0.15646 -0.029443,0.0147 -0.060528,0.0247 -0.090193,0.0388 -0.060092,0.0322 -0.052962,0.0286 0.1329539,-0.0784 0.00398,-0.002 -0.00751,0.005 -0.011316,0.008 -0.020902,0.0141 -0.0022,4e-4 -0.022556,0.0165 -0.00372,0.003 -0.00752,0.006 -0.011277,0.009 -0.028527,0.0213 -0.055016,0.0455 -0.08268,0.0679 -0.024482,0.0219 -0.035387,0.0279 -0.029145,0.0623 0.00977,0.0446 0.01556,0.09 0.022116,0.13521 0.00108,0.006 0.00204,0.0128 0.00329,0.0192 8.996e-4,0.005 0.00715,0.0112 0.00319,0.0137 -0.2953758,0.18769 -0.1659946,0.14011 -0.161226,0.0713 -0.00467,-0.0353 -0.013936,-0.0695 -0.022654,-0.10387 -0.00542,-0.0309 -0.015968,-0.0787 -0.00837,-0.10934 9.525e-4,-0.004 0.00368,-0.007 0.00552,-0.0104 0.049407,-0.071 0.061809,-0.0358 0.1860814,-0.12389 0.00531,-0.004 -0.4392475,0.25496 0.017084,-0.009 -0.050142,0.0291 -0.1002848,0.0581 -0.1504268,0.0872 -0.00329,0.002 0.00657,-0.004 0.00986,-0.006 0.056652,-0.0329 0.1135708,-0.0653 0.1699521,-0.0987 0.049064,-0.029 -0.1976842,0.1136 -0.1479991,0.0857 0.035692,-0.0201 0.3876497,-0.2241 0.023839,-0.0133 0.081554,-0.0472 0.1606495,-0.10027 0.2482607,-0.1359 0.046562,-0.0193 0.092912,-0.039 0.1376315,-0.0624 0.048609,-0.0237 0.097411,-0.047 0.1469337,-0.0687 0.05688,-0.0252 0.1137213,-0.0506 0.1668163,-0.0833 0.050967,-0.0282 0.1008163,-0.0588 0.1545849,-0.0816 0.042173,-0.0189 0.085224,-0.035 0.1297062,-0.0477 0.040701,-0.0149 0.080235,-0.0325 0.1184278,-0.053 0.00598,-0.003 0.023765,-0.0129 0.017936,-0.009 -0.046746,0.0275 -0.1878608,0.10837 -0.1406988,0.0816 0.077726,-0.0441 0.1534427,-0.0933 0.2345782,-0.1315 0.021905,-0.01 0.043381,-0.0203 0.064526,-0.0319 0.00683,-0.004 0.027152,-0.0152 0.020428,-0.0113 -0.061895,0.0361 -0.1960542,0.11324 -0.1214623,0.0703 0.072233,-0.0431 0.026899,-0.0161 0.1902761,-0.11029 0.00497,-0.003 0.010028,-0.006 0.015052,-0.008 0.00461,-0.003 0.018394,-0.0102 0.013851,-0.008 -0.1768067,0.10325 -0.1910088,0.11192 -0.1323501,0.0765 0.07509,-0.0482 0.1530453,-0.0922 0.2319322,-0.13395 0.026787,-0.0134 0.054916,-0.0233 0.084357,-0.0292 0.026944,-0.006 0.054081,-0.01 0.081144,-0.0145 0.02586,-0.006 0.051296,-0.0147 0.077683,-0.019 0.032762,-0.005 0.065509,-0.0108 0.097992,-0.0178 0.026194,-0.002 0.0405,0.007 0.043517,0.0347 -1.77e-5,0.0255 -5.45e-5,0.051 0.00238,0.0765 0.00462,0.0414 0.013507,0.082 0.024699,0.12213 0.010485,0.0478 0.023601,0.0954 0.027866,0.14432 0.00393,0.0354 0.00441,0.0706 0.00456,0.10618 0,0 -0.1667123,0.0849 -0.1667123,0.0849 z"
       inkscape:connector-curvature="0" />
    <path
       style="fill:#000000;fill-opacity:1;stroke:none;stroke-width:0.26458332;stroke-opacity:1"
       id="path880"
       d="m 7.4739478,290.49946 c -0.031329,-0.003 -0.061731,10e-4 -0.092517,0.006 -0.024085,0.004 -0.048474,0.005 -0.072818,0.005 -0.023045,-0.002 -0.042241,0.003 -0.06427,0.007 -0.021646,0.004 -0.043664,0.004 -0.065574,0.005 -0.023519,3.2e-4 -0.04704,2.2e-4 -0.070559,1.9e-4 -0.023598,-0.005 -0.04739,-0.009 -0.071443,-0.0104 -0.021204,-0.002 -0.041463,-0.009 -0.062705,-0.0111 -0.029441,-0.005 -0.05937,-0.0125 -0.08792,-0.0218 -0.026342,-0.007 -0.051082,-0.0177 -0.076147,-0.0279 -0.023738,-0.0106 -0.047131,-0.0213 -0.07048,-0.0328 -0.018304,-0.0109 -0.036123,-0.0234 -0.055892,-0.0315 -0.020865,-0.01 -0.041335,-0.0203 -0.062351,-0.0297 -0.032632,-0.021 -0.06618,-0.0404 -0.099554,-0.0601 -0.022513,-0.0119 -0.044966,-0.025 -0.063801,-0.0423 -0.015409,-0.0131 -0.032006,-0.0243 -0.050805,-0.0317 -0.023117,-0.01 -0.045661,-0.0211 -0.068706,-0.0312 -0.023823,-0.0115 -0.047127,-0.024 -0.071129,-0.0351 -0.023635,-0.0118 -0.046933,-0.0244 -0.070921,-0.0355 -0.024384,-0.0113 -0.045028,-0.0281 -0.066569,-0.0437 -0.021405,-0.0143 -0.045942,-0.0217 -0.070184,-0.0296 -0.031407,-0.0132 -0.063356,-0.025 -0.094995,-0.0377 -0.032324,-0.0129 -0.063825,-0.0277 -0.095732,-0.0416 -0.028588,-0.0135 -0.058848,-0.0238 -0.088759,-0.0341 -0.041182,-0.0163 -0.082792,-0.0315 -0.124133,-0.0474 -0.042512,-0.0138 -0.085605,-0.026 -0.1288433,-0.0374 -0.036943,-0.009 -0.073835,-0.0177 -0.1108872,-0.0261 -0.036496,-0.006 -0.072732,-0.0137 -0.1095144,-0.0181 -0.034274,-0.002 -0.067936,-0.008 -0.1020109,-0.0122 -0.029476,-0.007 -0.059486,-0.0116 -0.089718,-0.014 -0.034329,-6.1e-4 -0.068117,-0.007 -0.1022885,-0.01 -0.038654,-0.001 -0.076825,-0.005 -0.1151437,-0.01 -0.027884,-0.008 -0.056012,-0.0131 -0.084812,-0.0156 -0.027191,-0.004 -0.053778,0.003 -0.080707,0.006 -0.026858,-0.002 -0.053569,-0.005 -0.080427,-0.006 -0.023762,-0.001 -0.04756,-0.001 -0.071346,-0.001 -0.023344,9.7e-4 -0.047116,-0.002 -0.070082,0.002 -0.024529,0.003 -0.046685,0.0126 -0.069399,0.0214 -0.00381,0.002 -0.00761,0.004 -0.011419,0.006 0.00832,-0.003 -0.030938,0.018 -0.023188,0.0135 0.2550554,-0.14722 0.1836714,-0.10826 0.1293876,-0.0725 -0.019558,0.0135 -0.038273,0.0281 -0.057527,0.042 -0.018344,0.0132 -0.037281,0.0255 -0.05638,0.0376 -0.021026,0.0144 -0.040199,0.0318 -0.057507,0.0505 -0.01569,0.0188 -0.033168,0.0359 -0.051213,0.0525 -0.01773,0.0176 -0.036382,0.0344 -0.05606,0.0498 -0.024207,0.0178 -0.04605,0.0384 -0.069519,0.0571 -0.024985,0.0188 -0.047828,0.0401 -0.071139,0.0608 -0.019836,0.016 -0.041576,0.0293 -0.062044,0.0445 -0.021982,0.0184 -0.043632,0.037 -0.067449,0.0531 -0.022408,0.0138 -0.042884,0.0301 -0.063779,0.046 -0.021826,0.0178 -0.044512,0.0344 -0.066676,0.0517 -0.020333,0.0152 -0.039733,0.0317 -0.058457,0.0488 -0.016087,0.0129 -0.028526,0.0295 -0.040695,0.046 -0.013795,0.0203 -0.027089,0.041 -0.039773,0.0621 -0.013689,0.0234 -0.028017,0.0464 -0.041798,0.0697 -0.011099,0.0165 -0.021995,0.0332 -0.033206,0.0496 -0.010549,0.0195 -0.021423,0.0388 -0.032261,0.0581 -0.012367,0.024 -0.02586,0.0473 -0.039579,0.0706 -0.010398,0.0201 -0.023601,0.0383 -0.036476,0.0568 -0.01301,0.024 -0.017216,0.0523 -0.019391,0.0792 -2.336e-4,0.0274 0.00146,0.0548 0.00683,0.0817 0.00408,0.027 0.010372,0.0534 0.018905,0.0793 0.00771,0.0215 0.02069,0.0403 0.038971,0.0539 0.02208,0.0138 0.043879,0.0276 0.064307,0.044 0.02086,0.0154 0.04515,0.025 0.068968,0.0348 0.02644,0.0104 0.052661,0.0201 0.080768,0.0249 0.026218,0.005 0.051464,0.002 0.076973,-0.005 0.034922,-0.0105 0.068703,-0.024 0.1012865,-0.0404 0.028959,-0.0167 0.059627,-0.0302 0.089256,-0.0457 0.00559,-0.002 0.011224,-0.004 0.016753,-0.007 0.015341,-0.006 0.017785,-0.008 0.032422,-0.0159 0.00554,-0.003 0.022019,-0.0121 0.016584,-0.009 -0.1674238,0.0969 -0.1866111,0.10894 -0.1263142,0.0719 0.030511,-0.0192 0.060871,-0.0387 0.091044,-0.0585 0.037105,-0.0222 0.070695,-0.0489 0.1024951,-0.0781 0.0296,-0.0312 0.064235,-0.0553 0.100639,-0.0777 0.090633,-0.0564 0.1838267,-0.10772 0.2792315,-0.15506 0.033863,-0.0139 0.067648,-0.0282 0.1027776,-0.0386 0.037912,-0.007 0.074001,-0.0212 0.1112237,-0.0312 0.037835,-0.0152 0.078507,-0.0187 0.1180677,-0.0266 0.030124,-0.007 0.060716,-0.0101 0.091468,-0.0117 0.027531,-0.008 0.054898,-0.009 0.083216,-0.006 0.032393,3.4e-4 0.06306,0.009 0.093951,0.0177 0.030098,0.006 0.058092,0.0191 0.087699,0.0271 0.029511,0.01 0.058749,0.0202 0.087162,0.0329 0.03958,0.0151 0.080011,0.0276 0.1196134,0.0426 0.05041,0.018 0.096745,0.0442 0.1430308,0.0706 0.051333,0.0318 0.1045988,0.0602 0.1570006,0.0901 0.051424,0.0285 0.1009163,0.0603 0.1517825,0.0898 0.044702,0.0273 0.093293,0.0469 0.1416222,0.0666 0.050635,0.0195 0.098123,0.0446 0.1432459,0.0745 0.041049,0.0289 0.076644,0.0645 0.1167276,0.0947 0.043515,0.0298 0.090166,0.0547 0.1361138,0.0805 0.042675,0.026 0.086184,0.0504 0.1326293,0.069 0.03869,0.0154 0.077952,0.0294 0.1170749,0.0437 0.039835,0.0165 0.078033,0.0365 0.1167485,0.0555 0.030674,0.0155 0.06037,0.0327 0.089544,0.0509 0.025424,0.0149 0.04795,0.0343 0.073137,0.0494 0.027333,0.0165 0.05444,0.0333 0.081121,0.0508 0.03078,0.0163 0.060278,0.0347 0.090839,0.0514 0.030517,0.0149 0.060795,0.0302 0.091068,0.0456 0.037411,0.0219 0.076029,0.0416 0.1130159,0.0642 0.041308,0.0285 0.084607,0.0539 0.1276676,0.0796 0.038497,0.0243 0.076829,0.0489 0.1158512,0.0723 0.035397,0.0239 0.074255,0.0416 0.1108141,0.0635 0.032866,0.0168 0.064092,0.0364 0.094672,0.057 0.030169,0.0211 0.057429,0.046 0.085924,0.0692 0.033344,0.025 0.068471,0.0476 0.1034973,0.0702 0.035569,0.0181 0.068947,0.0401 0.1039826,0.0592 0.02949,0.0182 0.060296,0.034 0.089401,0.0528 0.02645,0.0159 0.055325,0.0273 0.084006,0.0384 0.024797,0.0122 0.050667,0.0219 0.075959,0.0329 0.02159,0.009 0.043024,0.0198 0.062171,0.0332 0.00779,0.003 0.037536,0.0276 0.042827,0.0271 0.00175,-1.7e-4 0.00188,-0.003 0.00283,-0.004 -0.2445843,0.1397 -0.1463797,0.13857 -0.1581653,0.0608 -0.00259,-0.017 -0.00799,-0.0337 -0.013025,-0.0501 -0.015981,-0.0459 -0.030875,-0.0921 -0.046441,-0.13812 -0.02018,-0.0576 -0.041029,-0.115 -0.067975,-0.16981 -0.030265,-0.0523 -0.055188,-0.10727 -0.081305,-0.16168 -0.027532,-0.0568 -0.051657,-0.11526 -0.075325,-0.17375 -0.028166,-0.0591 -0.053402,-0.11944 -0.076702,-0.18061 -0.023937,-0.06 -0.045469,-0.12099 -0.067784,-0.18165 -0.017118,-0.0497 -0.033845,-0.0994 -0.050116,-0.14938 -0.016505,-0.055 -0.030446,-0.11087 -0.043979,-0.16672 -0.0152,-0.0585 -0.02656,-0.11796 -0.040711,-0.17674 -0.012203,-0.0473 -0.02563,-0.0942 -0.034481,-0.14228 -0.00377,-0.0276 -0.00959,-0.055 -0.017381,-0.0818 -0.00616,-0.0252 -0.01365,-0.05 -0.019161,-0.0754 -0.00903,-0.0354 -0.018822,-0.0709 -0.032181,-0.10501 -0.011993,-0.023 -0.0382,-0.0279 -0.061373,-0.0344 -0.035339,-0.009 -0.071805,-0.0115 -0.1081034,-0.0128 -0.027462,-0.002 -0.051253,-2.9e-4 -0.078174,0.004 -0.028305,0.005 -0.056992,0.006 -0.085641,0.007 -0.0045,-6.1e-4 -0.009,-10e-4 -0.013494,-0.002 0,0 0.151816,-0.10844 0.151816,-0.10844 v 0 c 0.00396,7e-5 0.00793,1.5e-4 0.01189,2.2e-4 0.028357,-0.001 0.056606,-0.004 0.08461,-0.009 0.02658,-0.004 0.053332,-0.002 0.080059,-8.7e-4 0.037038,0.003 0.074152,0.007 0.1099793,0.0168 0.0297,0.009 0.057465,0.0181 0.071097,0.0485 0.013062,0.035 0.022236,0.0715 0.033082,0.10725 0.00655,0.0248 0.013568,0.0493 0.019381,0.0743 0.00799,0.0276 0.014584,0.0556 0.017391,0.0842 0.00718,0.0482 0.019926,0.095 0.031825,0.14214 0.014581,0.0587 0.025551,0.11819 0.040832,0.17672 0.013404,0.0553 0.02767,0.11049 0.043855,0.16507 0.016708,0.0496 0.032896,0.0994 0.049456,0.14913 0.021873,0.0608 0.042435,0.12202 0.066577,0.18198 0.023468,0.061 0.049132,0.12094 0.07741,0.17984 0.023363,0.0582 0.046847,0.11652 0.074355,0.17285 0.026588,0.0541 0.051607,0.109 0.08166,0.16137 0.027294,0.0555 0.048033,0.11372 0.069118,0.17177 0.016264,0.0458 0.031873,0.0919 0.048529,0.13751 0.00754,0.023 0.013941,0.0459 0.017616,0.0698 8.467e-4,0.005 0.00692,0.0131 0.00249,0.0164 -0.051727,0.0383 -0.1089805,0.0686 -0.1634709,0.1029 -0.017812,-0.009 -0.033775,-0.0221 -0.051096,-0.0324 -0.019058,-0.0118 -0.038977,-0.0224 -0.059893,-0.0306 -0.025453,-0.0103 -0.050289,-0.022 -0.075486,-0.0329 -0.029248,-0.0122 -0.058991,-0.0238 -0.085516,-0.0415 -0.029121,-0.0181 -0.059379,-0.0342 -0.08856,-0.0522 -0.034794,-0.02 -0.069227,-0.0407 -0.1041723,-0.0605 -0.035591,-0.023 -0.071356,-0.046 -0.1051086,-0.0716 -0.028069,-0.0229 -0.054951,-0.0473 -0.084926,-0.0677 -0.030548,-0.0201 -0.061956,-0.0387 -0.094013,-0.0563 -0.036661,-0.0215 -0.074967,-0.0402 -0.1103572,-0.0639 -0.038932,-0.0235 -0.077207,-0.0481 -0.1155763,-0.0725 -0.042933,-0.0259 -0.085923,-0.0516 -0.1275414,-0.0796 -0.037372,-0.0216 -0.075641,-0.0415 -0.1134104,-0.0624 -0.030658,-0.0151 -0.061083,-0.0306 -0.091512,-0.0462 -0.030841,-0.017 -0.060965,-0.0353 -0.091747,-0.0525 -0.026801,-0.0172 -0.053957,-0.0338 -0.081143,-0.0504 -0.024601,-0.0161 -0.048071,-0.0338 -0.073171,-0.0492 -0.028666,-0.0176 -0.057486,-0.0349 -0.08761,-0.05 -0.038173,-0.0187 -0.07577,-0.0388 -0.1155938,-0.0538 -0.039378,-0.0142 -0.078784,-0.0284 -0.1173599,-0.0446 -0.046141,-0.0203 -0.089904,-0.045 -0.1328576,-0.0713 -0.046689,-0.0263 -0.09462,-0.0509 -0.1382398,-0.0822 -0.039298,-0.0303 -0.074429,-0.0657 -0.1154067,-0.0939 -0.044805,-0.0285 -0.091777,-0.0525 -0.1414222,-0.0716 -0.049053,-0.02 -0.097811,-0.0409 -0.142962,-0.0689 -0.050499,-0.0298 -0.099742,-0.0617 -0.1511554,-0.09 -0.052474,-0.03 -0.105759,-0.0585 -0.1575195,-0.0897 -0.04571,-0.0259 -0.092009,-0.0506 -0.1418492,-0.0678 -0.040331,-0.0145 -0.081455,-0.0267 -0.1212728,-0.0426 -0.02827,-0.0115 -0.057041,-0.0218 -0.086183,-0.0309 -0.029147,-0.009 -0.05757,-0.0204 -0.087436,-0.0269 -0.030084,-0.008 -0.060437,-0.014 -0.091753,-0.0144 -0.027946,-7.2e-4 -0.054696,0.005 -0.082296,0.009 -0.03002,0.002 -0.05977,0.007 -0.089279,0.0128 -0.039483,0.007 -0.078759,0.0141 -0.1166379,0.0277 -0.037122,0.0111 -0.074029,0.0228 -0.1115827,0.0323 -0.03395,0.012 -0.06779,0.0243 -0.1002742,0.04 -0.067692,0.0332 -0.2435569,0.13334 0.037752,-0.0269 -0.036625,0.0215 -0.073238,0.0428 -0.1023348,0.0744 -0.031762,0.0292 -0.062862,0.0591 -0.1007848,0.0805 -0.029832,0.0203 -0.06022,0.0397 -0.090877,0.0587 -0.081257,0.0552 -0.1676423,0.10276 -0.2571138,0.14303 -0.029771,0.0152 -0.060068,0.0294 -0.089575,0.0451 -0.03376,0.015 -0.068124,0.0288 -0.1042019,0.0372 -0.027432,0.005 -0.054581,0.006 -0.081881,-0.001 -0.028395,-0.007 -0.055343,-0.0174 -0.082533,-0.0279 -0.025281,-0.0102 -0.050155,-0.0221 -0.071678,-0.0391 -0.020981,-0.0159 -0.043871,-0.0285 -0.065093,-0.044 -0.019796,-0.0173 -0.034856,-0.0385 -0.043923,-0.0633 -0.00868,-0.0266 -0.016288,-0.0533 -0.020106,-0.0811 -0.00598,-0.0284 -0.00823,-0.0571 -0.00836,-0.0862 7.143e-4,-0.0292 0.00588,-0.0587 0.014401,-0.0867 0.010086,-0.0206 0.027801,-0.0361 0.037056,-0.0574 0.014145,-0.0227 0.027479,-0.0458 0.039811,-0.0694 0.00989,-0.02 0.022831,-0.0383 0.031092,-0.059 0.010062,-0.0176 0.022098,-0.0337 0.033627,-0.0503 0.015899,-0.0216 0.027094,-0.0465 0.042435,-0.0686 0.011639,-0.0221 0.026297,-0.0422 0.038451,-0.0639 0.012483,-0.0172 0.024418,-0.0347 0.039029,-0.0502 0.020331,-0.0157 0.037388,-0.0353 0.059006,-0.0494 0.021574,-0.018 0.044856,-0.0336 0.066076,-0.0521 0.021069,-0.0161 0.041101,-0.0331 0.063591,-0.0472 0.023831,-0.0157 0.047649,-0.0312 0.06783,-0.0516 0.019706,-0.0164 0.041011,-0.0305 0.062641,-0.0441 0.024649,-0.0192 0.045756,-0.0426 0.070863,-0.0613 0.023757,-0.0183 0.045985,-0.0382 0.069195,-0.0572 0.019727,-0.0148 0.038395,-0.0306 0.056707,-0.0471 0.016002,-0.0184 0.036812,-0.0322 0.051804,-0.0517 0.01674,-0.0201 0.035509,-0.0382 0.055699,-0.0549 0.018341,-0.0132 0.038864,-0.0231 0.056005,-0.0379 0.020757,-0.0117 0.038478,-0.0277 0.057839,-0.0414 0.070425,-0.0508 0.1467128,-0.0946 0.2258214,-0.13034 0.023334,-0.009 0.047343,-0.0155 0.072307,-0.0178 0.023815,-10e-4 0.047663,-4e-4 0.071496,-4.2e-4 0.023992,2.4e-4 0.047999,6.3e-4 0.071936,0.002 0.025945,0.002 0.052015,0.006 0.078053,0.004 0.027714,-0.004 0.055249,-0.008 0.083174,-0.003 0.02864,0.004 0.056384,0.0106 0.084637,0.0163 0.037995,0.005 0.076073,0.007 0.1143051,0.01 0.034421,0.003 0.068695,0.008 0.103283,0.009 0.030121,0.003 0.059799,0.009 0.089609,0.0146 0.033905,0.004 0.067718,0.01 0.1017929,0.0126 0.037007,0.005 0.073837,0.0122 0.1104871,0.0195 0.03704,0.009 0.074133,0.0171 0.1109115,0.0269 0.043384,0.0121 0.086939,0.0239 0.1293355,0.0392 0.041612,0.0156 0.08318,0.0312 0.1249396,0.0464 0.030289,0.0109 0.061247,0.0204 0.090024,0.0351 0.031259,0.0145 0.062673,0.0286 0.094751,0.0412 0.031737,0.0122 0.063233,0.025 0.095192,0.0365 0.025657,0.009 0.051687,0.0176 0.073641,0.0343 0.020291,0.0155 0.041074,0.0302 0.064474,0.0408 0.023672,0.0117 0.047261,0.0237 0.070904,0.0355 0.023601,0.0117 0.047124,0.0235 0.070928,0.0347 0.022865,0.0106 0.045911,0.0208 0.068935,0.031 0.019555,0.01 0.037857,0.0216 0.05414,0.0363 0.018603,0.0156 0.03942,0.0283 0.060637,0.0401 0.032896,0.0196 0.065076,0.0407 0.09931,0.0579 0.020907,0.01 0.041925,0.0196 0.062873,0.0294 0.018981,0.01 0.037066,0.0215 0.05558,0.0322 0.022879,0.0115 0.046632,0.0209 0.069859,0.0317 0.024355,0.0103 0.049192,0.0192 0.074554,0.0268 0.028591,0.008 0.057655,0.0154 0.087223,0.0188 0.020661,0.004 0.040861,0.01 0.061939,0.0104 0.023548,0.003 0.046776,0.008 0.07043,0.009 0.023421,0 0.046847,6e-5 0.070257,-7.1e-4 0.021458,-9.5e-4 0.042935,-0.003 0.063929,-0.007 0.021812,-0.004 0.043685,-0.004 0.065878,-0.004 0.023865,-10e-4 0.047669,-0.003 0.071257,-0.007 0.031474,-0.004 0.062967,-0.005 0.094707,-0.004 0,0 -0.1513716,0.10998 -0.1513716,0.10998 z"
       inkscape:connector-curvature="0" />
    <path
       style="fill:#000000;fill-opacity:1;stroke:none;stroke-width:0.26458332;stroke-opacity:1"
       id="path882"
       d="m 3.3169815,290.31727 c -0.033907,0.0114 -0.066829,0.0265 -0.098566,0.043 -0.025101,0.0127 -0.050673,0.0242 -0.076997,0.0342 -0.023294,0.01 -0.04488,0.0218 -0.066776,0.0339 0.2800601,-0.15942 0.1568706,-0.0985 0.1016042,-0.0514 -0.017947,0.0129 -0.036693,0.0243 -0.053348,0.0389 -0.013909,0.0107 -0.024366,0.0252 -0.032419,0.0406 -0.0099,0.0171 -0.019944,0.034 -0.030586,0.0506 -0.018002,0.0263 -0.03209,0.0547 -0.045228,0.0837 -0.011536,0.0285 -0.022844,0.0569 -0.036484,0.0844 -0.014123,0.0253 -0.031311,0.0488 -0.047947,0.0725 -0.015978,0.0213 -0.026898,0.0454 -0.037902,0.0694 -0.00953,0.0224 -0.020894,0.0439 -0.032223,0.0654 -0.011922,0.0237 -0.02118,0.0486 -0.031515,0.0731 -0.011462,0.0269 -0.02136,0.0544 -0.034482,0.0806 -0.012719,0.0235 -0.028204,0.0452 -0.040514,0.069 -0.015295,0.0287 -0.029626,0.0579 -0.044948,0.0865 -0.01298,0.0239 -0.023106,0.0492 -0.034231,0.074 -0.00836,0.0255 -0.021476,0.0486 -0.035697,0.0712 -0.012742,0.019 -0.028099,0.0357 -0.039511,0.0556 -0.015166,0.0306 -0.027698,0.0625 -0.041586,0.0937 -0.016656,0.0342 -0.034396,0.0678 -0.051712,0.10164 -0.016487,0.0337 -0.032685,0.0677 -0.045444,0.10306 -0.012909,0.0371 -0.020342,0.0757 -0.030585,0.11356 -0.00923,0.0279 -0.013803,0.0569 -0.020765,0.0853 -0.00493,0.0258 -0.013951,0.0501 -0.025769,0.0734 -0.010924,0.0205 -0.025373,0.0387 -0.034741,0.06 -0.00998,0.0241 -0.01678,0.0492 -0.024785,0.074 -0.00847,0.026 -0.017142,0.052 -0.027514,0.0773 -0.010548,0.0254 -0.018138,0.0517 -0.026307,0.0778 -0.00697,0.0246 -0.011586,0.0497 -0.017341,0.0746 -0.00682,0.0232 -0.013402,0.0463 -0.016849,0.0703 -0.00419,0.0254 -0.00203,0.0505 0.00155,0.0758 0.00188,0.0287 0.00738,0.0564 0.015932,0.0838 0.00888,0.0249 0.020958,0.0483 0.032307,0.0721 0.012713,0.0185 0.020368,0.0397 0.03167,0.0589 0.00171,0.003 0.00329,0.006 0.00514,0.009 0.0016,0.003 0.00646,0.009 0.00647,0.006 1.539e-4,-0.0718 -0.1980355,0.14501 -0.1587798,0.0803 0.00144,-0.0258 0.00613,-0.0497 0.014298,-0.0743 0.011704,-0.03 0.022134,-0.0605 0.036299,-0.0894 0.011523,-0.0203 0.029139,-0.0358 0.046944,-0.0504 0.015358,-0.0146 0.030708,-0.0292 0.047223,-0.0425 0.5047244,-0.29116 -0.028013,0.0163 0.018185,-0.0109 0.2892995,-0.1702 0.096351,-0.066 0.1985384,-0.10685 0.022836,-0.006 0.044796,-0.0148 0.068191,-0.0192 0.024427,-0.002 0.048383,-0.005 0.072541,-0.009 0.026886,-0.004 0.054353,6.6e-4 0.081349,0.003 0.024913,0.007 0.050988,0.009 0.076176,0.0145 0.029892,0.006 0.059847,0.0103 0.089144,0.0188 0.03187,0.008 0.063708,0.0153 0.093423,0.0296 0.024649,0.01 0.047559,0.022 0.068118,0.0386 0.018373,0.0178 0.033671,0.039 0.048439,0.06 0.015169,0.0184 0.031272,0.0359 0.046269,0.0545 0.0099,0.009 0.020659,0.0288 0.035975,0.0201 0.00193,-8.2e-4 0.00382,-0.002 0.00582,-0.002 0.014425,-0.005 2.067e-4,0.002 0.01501,-0.006 0.00423,-0.002 0.016814,-0.009 0.01269,-0.007 -0.2201148,0.12673 -0.1858759,0.10671 -0.1303528,0.0741 0.078864,-0.0474 0.1565021,-0.0978 0.239201,-0.13803 0.025135,-0.0154 0.054533,-0.0208 0.083492,-0.0235 0.031816,-0.002 0.063743,-0.002 0.095617,-0.002 0.033946,-0.003 0.063903,0.002 0.096467,0.0108 0.030388,0.0113 0.06193,0.0188 0.091953,0.0312 0.028628,0.01 0.057377,0.0183 0.08494,0.0309 0.029835,0.0114 0.057919,0.0261 0.085147,0.0427 0.028316,0.0224 0.054945,0.047 0.08114,0.0719 0.016333,0.0166 0.029435,0.0354 0.041367,0.0553 0.00585,0.005 0.00556,0.0289 0.014489,0.0296 0.00201,1.6e-4 0.00864,-0.007 0.00865,-0.007 0.032699,-0.0213 0.067425,-0.0402 0.102979,-0.0565 0.030243,-0.0159 0.062922,-0.0271 0.09592,-0.0358 0.030851,-0.007 0.061368,-0.009 0.092865,-0.009 0.032704,-7.1e-4 0.063914,0.01 0.095425,0.0171 0.028817,0.0109 0.05974,0.0131 0.089298,0.0206 0.024583,0.004 0.047153,0.0125 0.068063,0.026 0.024694,0.0126 0.045336,0.0305 0.064041,0.0507 0.020169,0.0201 0.032428,0.0457 0.045263,0.0707 0.00998,0.0225 0.021434,0.0441 0.034272,0.065 0.013724,0.0181 0.022495,0.0393 0.036133,0.0574 0.00962,0.0163 0.025413,0.0252 0.043143,0.0302 0.036152,0.007 0.073056,0.005 0.1093746,0.009 0.032399,0.003 0.063575,0.0119 0.095638,0.0167 0.03499,0.008 0.06983,0.0161 0.1033446,0.029 0.037411,0.0153 0.071335,0.0377 0.1039728,0.0613 0.026567,0.0218 0.054388,0.0419 0.080791,0.0639 0.024127,0.0174 0.037829,0.0432 0.053858,0.0673 0.010409,0.0174 0.01656,0.0359 0.028563,0.0523 0.019481,0.0191 0.044737,0.0312 0.068976,0.0432 0.027017,0.0135 0.053822,0.027 0.080273,0.0415 0.00333,0.001 0.00678,0.003 0.00999,0.004 0.015237,0.008 0.00346,0.004 0.017878,0.0103 0.00868,0.004 0.01809,0.006 0.026979,0.01 0.023982,0.007 0.045269,0.0199 0.067136,0.0316 0.01737,0.0159 0.039194,0.0203 0.060443,0.0279 0.022857,0.006 0.044862,0.0144 0.068136,0.0189 0.019725,0.005 0.037615,0.0152 0.056844,0.0217 0.015518,0.01 0.033008,0.0147 0.049803,0.0216 0.025588,0.0136 0.05322,0.0235 0.080831,0.0322 0.030266,0.009 0.057951,0.0239 0.086042,0.0381 0.025993,0.0118 0.05402,0.0175 0.080393,0.0283 0.024791,0.01 0.049138,0.0207 0.072675,0.0332 0.02679,0.0155 0.049542,0.0367 0.071966,0.0578 0.025379,0.0246 0.055977,0.0421 0.084949,0.0618 0.024662,0.0138 0.043968,0.0344 0.070286,0.0452 0.00539,0.002 0.019664,0.006 0.025109,8.2e-4 0.00146,-10e-4 0.00335,-0.007 0.00156,-0.006 -0.1587204,0.0913 -0.1409764,0.15435 -0.1574782,0.0928 -9.525e-4,-0.002 -0.00188,-0.004 -0.00283,-0.005 0,0 0.1627505,-0.0934 0.1627505,-0.0934 v 0 c 0.0013,0.002 0.00259,0.005 0.00389,0.007 0.035581,0.0774 -0.1231337,0.1417 -0.1887832,0.10713 -0.025416,-0.0136 -0.046179,-0.0335 -0.07086,-0.0482 -0.029902,-0.0201 -0.060636,-0.039 -0.086784,-0.0641 -0.0215,-0.0198 -0.043422,-0.0397 -0.069627,-0.0531 -0.023437,-0.0114 -0.047063,-0.0226 -0.071576,-0.0316 -0.027133,-0.01 -0.055242,-0.0169 -0.081039,-0.03 -0.027503,-0.0135 -0.054804,-0.0273 -0.084295,-0.0361 -0.028036,-0.01 -0.056125,-0.0198 -0.082947,-0.0325 -0.016518,-0.007 -0.033627,-0.0125 -0.049414,-0.0212 -0.017962,-0.008 -0.035898,-0.0151 -0.054891,-0.0198 -0.023376,-0.006 -0.046245,-0.0136 -0.069354,-0.0204 -0.022416,-0.007 -0.042933,-0.0167 -0.061903,-0.0308 -0.021243,-0.0116 -0.043044,-0.0218 -0.06618,-0.0292 -0.019817,-0.007 -0.03791,-0.0165 -0.056164,-0.0268 -0.025762,-0.0149 -0.052652,-0.0276 -0.078953,-0.0415 -0.026432,-0.0139 -0.055161,-0.0268 -0.075092,-0.0497 -0.012123,-0.0169 -0.018624,-0.0354 -0.028492,-0.0535 -0.014547,-0.0229 -0.027523,-0.0468 -0.050322,-0.0629 -0.02617,-0.0215 -0.053085,-0.042 -0.079516,-0.0632 -0.031666,-0.0224 -0.064634,-0.0436 -0.1012856,-0.057 -0.033231,-0.0113 -0.067463,-0.0193 -0.1019501,-0.0258 -0.03147,-0.006 -0.06254,-0.0137 -0.094562,-0.016 -0.037723,-0.003 -0.076103,-0.002 -0.1129483,-0.012 -0.020098,-0.009 -0.038124,-0.0201 -0.049433,-0.0394 -0.013258,-0.019 -0.022619,-0.0403 -0.036574,-0.0588 -0.013118,-0.0213 -0.024421,-0.0436 -0.034676,-0.0664 -0.012126,-0.0234 -0.023146,-0.0477 -0.042498,-0.0662 -0.018042,-0.0187 -0.038412,-0.0341 -0.061642,-0.0461 -0.020257,-0.0109 -0.041994,-0.017 -0.064524,-0.0214 -0.029939,-0.006 -0.059725,-0.0123 -0.089049,-0.0209 -0.03052,-0.007 -0.061173,-0.0154 -0.092918,-0.0134 -0.030372,8e-4 -0.060478,0.005 -0.089847,0.013 -0.032053,0.0101 -0.06356,0.0218 -0.093293,0.0377 -0.035933,0.018 -0.06991,0.0407 -0.1079074,0.0539 -0.025022,-0.005 -0.027062,-0.0203 -0.035418,-0.0413 -0.010914,-0.0185 -0.022693,-0.0361 -0.037749,-0.0516 -0.025011,-0.0241 -0.050087,-0.0487 -0.078738,-0.0684 -0.026974,-0.0156 -0.054922,-0.0292 -0.083894,-0.0407 -0.027837,-0.0113 -0.056724,-0.0195 -0.084762,-0.0302 -0.029725,-0.011 -0.060169,-0.0198 -0.090378,-0.0293 -0.031021,-0.007 -0.06206,-0.008 -0.093871,-0.007 -0.031483,10e-5 -0.063102,10e-6 -0.094383,0.004 -0.028249,0.005 -0.055047,0.0135 -0.079659,0.0287 -0.056301,0.0312 -0.1381964,0.0785 0.1213337,-0.0709 0.00457,-0.003 -0.00891,0.006 -0.013449,0.008 -0.027641,0.0163 -5.821e-4,-8.7e-4 -0.028402,0.0173 -0.065784,0.0388 -0.086117,0.0509 -0.1887315,0.1084 -0.011885,0.007 -0.026146,0.01 -0.039659,0.01 -0.019267,-0.006 -0.031449,-0.0195 -0.044398,-0.0345 -0.01537,-0.0187 -0.031494,-0.0368 -0.046518,-0.0558 -0.013832,-0.0194 -0.02824,-0.0391 -0.045997,-0.055 -0.020074,-0.0148 -0.041948,-0.0259 -0.06503,-0.0353 -0.029527,-0.0123 -0.060708,-0.019 -0.091532,-0.0272 -0.029386,-0.007 -0.059229,-0.0114 -0.088816,-0.0175 -0.025101,-0.004 -0.050016,-0.009 -0.075113,-0.0126 -0.026222,-0.002 -0.052656,-0.005 -0.078638,9.5e-4 -0.023956,0.004 -0.048414,0.004 -0.07207,0.01 -0.022602,0.006 -0.044778,0.0138 -0.066938,0.0212 -0.00833,0.003 -0.011687,0.004 -0.019447,0.007 -0.00294,0.001 -0.011416,0.006 -0.0086,0.005 0.050374,-0.0293 0.2020166,-0.11621 0.1512759,-0.0876 -0.070112,0.0396 -0.3579826,0.20784 -0.018679,0.01 -0.018228,0.0105 -0.03328,0.0253 -0.048107,0.04 -0.015678,0.016 -0.035658,0.0274 -0.049388,0.0455 -0.018367,0.0261 -0.025774,0.0577 -0.039092,0.0864 -0.00796,0.0238 -0.015787,0.0457 -0.01321,0.0712 1.417e-4,0.0824 -0.1527524,0.16278 -0.1836733,0.0798 -0.011315,-0.0198 -0.019628,-0.0412 -0.032033,-0.0605 -0.011569,-0.0246 -0.024149,-0.0488 -0.033465,-0.0745 -0.00881,-0.0283 -0.015722,-0.0567 -0.017367,-0.0864 -0.00382,-0.0266 -0.00805,-0.0531 -0.00411,-0.0801 0.00259,-0.0246 0.00711,-0.0488 0.016153,-0.0719 0.00537,-0.0255 0.011664,-0.0506 0.017002,-0.0761 0.00813,-0.0265 0.015528,-0.0532 0.025462,-0.0791 0.010095,-0.0253 0.020767,-0.0503 0.028132,-0.0766 0.00915,-0.0243 0.013967,-0.05 0.024104,-0.074 0.0071,-0.0231 0.019315,-0.0431 0.03416,-0.062 0.011307,-0.0224 0.023704,-0.0443 0.027477,-0.0697 0.00738,-0.0288 0.012268,-0.0581 0.02142,-0.0864 0.011656,-0.0377 0.018317,-0.0767 0.030406,-0.11429 0.011218,-0.0365 0.027771,-0.071 0.044471,-0.10529 0.015894,-0.0344 0.035059,-0.0673 0.051735,-0.10124 0.014793,-0.0308 0.027191,-0.0628 0.040055,-0.0945 0.00405,-0.008 0.00708,-0.0158 0.011525,-0.0231 0.00758,-0.0126 0.019995,-0.0214 0.027066,-0.0343 0.016158,-0.02 0.029636,-0.043 0.037339,-0.0677 0.010714,-0.0256 0.022349,-0.0508 0.033967,-0.0759 0.016096,-0.0281 0.030027,-0.0573 0.045038,-0.0859 0.012059,-0.0238 0.02426,-0.0471 0.040114,-0.0688 0.013312,-0.0258 0.025575,-0.0519 0.035345,-0.0793 0.00995,-0.0247 0.020042,-0.0494 0.030603,-0.0736 0.00953,-0.0226 0.024408,-0.0423 0.032567,-0.0656 0.012044,-0.0241 0.020704,-0.0502 0.037002,-0.072 0.015401,-0.0241 0.033251,-0.0466 0.048751,-0.0707 0.014952,-0.0269 0.027014,-0.055 0.037619,-0.0839 0.013518,-0.029 0.025649,-0.0586 0.042673,-0.0857 0.011157,-0.0161 0.021659,-0.0324 0.030531,-0.0498 0.010816,-0.0149 0.0166,-0.0334 0.030189,-0.0466 0.017717,-0.0133 0.032629,-0.0305 0.053588,-0.0393 0.0097,-0.007 0.017581,-0.0161 0.027284,-0.0232 0.059004,-0.0427 0.1391775,-0.0662 0.1898124,-0.11229 0.021788,-0.0124 0.045031,-0.022 0.06803,-0.0318 0.025556,-0.0109 0.050833,-0.0222 0.075576,-0.0349 0.03287,-0.0154 0.066045,-0.0302 0.1003758,-0.0421 0,0 -0.1470023,0.11508 -0.1470023,0.11508 z"
       inkscape:connector-curvature="0" />
    <path
       style="fill:#000000;fill-opacity:1;stroke:none;stroke-width:0.26458332;stroke-opacity:1"
       id="path884"
       d="m 6.3833369,293.78685 c 0.026611,0.0164 0.054783,0.0302 0.081311,0.0466 0.018082,0.009 0.036826,0.0176 0.056181,0.0236 0.018685,0.005 0.036482,0.013 0.054647,0.0197 0.029823,0.0162 0.063296,0.022 0.095405,0.0316 0.024238,0.006 0.048309,0.0133 0.071238,0.0233 0.021741,0.008 0.042924,0.0162 0.065539,0.0209 0.023154,0.005 0.045484,0.004 0.068459,-2.3e-4 0.021548,-0.004 0.04167,-0.0145 0.060441,-0.0254 -0.2860019,0.15158 -0.1565034,0.1001 -0.103211,0.054 0.014446,-0.0139 0.023082,-0.0312 0.031544,-0.0491 0.00944,-0.0197 0.020151,-0.0385 0.027792,-0.0591 0.00894,-0.021 0.01298,-0.0434 0.01696,-0.0657 0.00347,-0.0231 2.006e-4,-0.0456 -0.00407,-0.0683 -0.00557,-0.0207 -0.014221,-0.0399 -0.023868,-0.0589 -0.0096,-0.0173 -0.023201,-0.0315 -0.035769,-0.0466 -0.018217,-0.0241 -0.033445,-0.0505 -0.04998,-0.0759 -0.015105,-0.0203 -0.025196,-0.0454 -0.045231,-0.0615 -0.015213,-0.0139 -0.032654,-0.0251 -0.049682,-0.0366 -0.021479,-0.0164 -0.045641,-0.0285 -0.068032,-0.0435 -0.021857,-0.014 -0.046438,-0.0223 -0.07016,-0.0324 -0.024262,-0.009 -0.048181,-0.0198 -0.071265,-0.0317 -0.022466,-0.0119 -0.042402,-0.0277 -0.064313,-0.0405 -0.018468,-0.0138 -0.037985,-0.0261 -0.055863,-0.0407 -0.017073,-0.0122 -0.037406,-0.0197 -0.057536,-0.0252 -0.024064,-0.01 -0.047505,-0.0219 -0.07035,-0.0345 -0.022969,-0.01 -0.045483,-0.0198 -0.067701,-0.031 -0.021799,-0.013 -0.042062,-0.0284 -0.063535,-0.0419 -0.021074,-0.0155 -0.043609,-0.0286 -0.06654,-0.0411 -0.018439,-0.0104 -0.035023,-0.0235 -0.055432,-0.0298 -0.023328,-0.004 -0.0466,-0.009 -0.068894,-0.0172 -0.034207,-0.0134 -0.065725,-0.0316 -0.096213,-0.0519 -0.0206,-0.016 -0.042542,-0.0303 -0.061747,-0.048 -0.015576,-0.011 -0.026931,-0.0265 -0.040996,-0.0392 -0.018341,-0.0177 -0.03886,-0.0326 -0.058854,-0.0482 -0.021516,-0.0133 -0.041581,-0.0294 -0.064495,-0.0403 -0.016571,-0.0126 -0.03617,-0.0196 -0.053974,-0.0298 -0.015965,-0.007 -0.029354,-0.0201 -0.045931,-0.0262 -0.00127,-6.6e-4 -0.00335,-0.003 -0.00379,-0.002 -6.88e-4,0.002 4.762e-4,0.008 0.00238,0.006 0.053813,-0.0348 0.1054894,-0.0727 0.1577565,-0.10981 0.00143,-10e-4 0.0018,-0.003 0.00309,-0.004 0.00363,-0.003 0.00728,-0.004 0.011843,-0.005 0.013375,-0.013 0.032836,-0.0144 0.050481,-0.0162 0.031774,-0.003 0.063471,0.003 0.095034,0.007 0.02996,0.004 0.056808,0.0165 0.082937,0.031 0.023252,0.0137 0.042786,0.0329 0.066286,0.0461 0.016142,0.0121 0.034719,0.0209 0.053951,0.0269 0.026997,0.0108 0.049704,0.0295 0.074261,0.0446 0.026019,0.0165 0.051037,0.0346 0.077206,0.0509 0.024101,0.0164 0.048757,0.0317 0.071759,0.0497 0.023384,0.016 0.045695,0.0334 0.070332,0.0474 0.030071,0.0175 0.062336,0.0305 0.093465,0.046 0.035224,0.0208 0.071667,0.0392 0.1070573,0.0597 0.029878,0.0206 0.060038,0.0406 0.091018,0.0596 0.031797,0.0169 0.065017,0.0309 0.098068,0.0452 0.033519,0.0126 0.065045,0.0292 0.096984,0.0451 0.029311,0.0177 0.060259,0.0319 0.091267,0.0462 0.032213,0.0168 0.065695,0.031 0.099057,0.0453 0.038996,0.0172 0.075907,0.0386 0.1126201,0.0601 0.037108,0.0198 0.075331,0.0366 0.1112528,0.0585 0.037452,0.0217 0.069683,0.0507 0.1052129,0.075 0.028191,0.019 0.057248,0.0371 0.089928,0.0471 0.025831,0.007 0.051354,0.005 0.076638,-0.003 0.00965,-0.003 0.016526,-0.004 0.025373,-0.009 0.00369,-0.002 0.01406,-0.01 0.010356,-0.007 -0.269055,0.1521 -0.1810427,0.1101 -0.1296207,0.0728 0.021976,-0.0199 0.036265,-0.0461 0.047657,-0.0731 0.011337,-0.0292 0.012679,-0.0606 0.01393,-0.0915 -7.7e-6,-0.0383 -0.011237,-0.075 -0.021492,-0.11156 -0.014288,-0.0437 -0.028486,-0.0876 -0.049723,-0.12856 -0.016981,-0.0306 -0.04075,-0.0563 -0.064773,-0.0814 -0.028028,-0.0266 -0.055944,-0.0534 -0.083363,-0.0807 -0.026043,-0.028 -0.053978,-0.054 -0.081101,-0.0808 -0.031023,-0.0278 -0.060716,-0.057 -0.09079,-0.0858 -0.039236,-0.0378 -0.082033,-0.0701 -0.1299049,-0.096 -0.039741,-0.0191 -0.082206,-0.0312 -0.1231188,-0.0472 -0.029994,-0.0114 -0.060344,-0.022 -0.089466,-0.0356 -0.030363,-0.012 -0.060386,-0.0254 -0.089099,-0.0409 -0.036912,-0.0198 -0.072265,-0.0419 -0.1061831,-0.0665 -0.03433,-0.0261 -0.069618,-0.0502 -0.1066932,-0.0722 -0.028611,-0.016 -0.058533,-0.0291 -0.089153,-0.0406 -0.025363,-0.006 -0.049989,-0.0142 -0.074475,-0.0232 -0.02422,-0.011 -0.049112,-0.0203 -0.070492,-0.0364 -0.017592,-0.0104 -0.033463,-0.023 -0.049978,-0.0349 -0.014518,-0.0142 -0.027526,-0.0303 -0.037486,-0.048 -0.043895,-0.0694 0.097955,-0.0912 0.155094,-0.12137 0.00442,-0.002 0.00895,0.004 0.013496,0.007 0.00479,0.002 0.00968,0.004 0.014515,0.006 0.034192,0.0175 0.068423,0.0348 0.1014259,0.0545 0.029803,0.0211 0.061941,0.0384 0.093646,0.0563 0.026714,0.0152 0.052071,0.0318 0.07581,0.0513 0.02462,0.023 0.050187,0.0445 0.078596,0.0626 0.030982,0.0215 0.065626,0.0366 0.097996,0.0558 0.034241,0.0204 0.067524,0.0423 0.099173,0.0665 0.031928,0.0236 0.063804,0.0473 0.09602,0.0706 0.028804,0.0206 0.061523,0.034 0.093253,0.0492 0.027221,0.0114 0.053256,0.0259 0.077739,0.0424 0.022429,0.0168 0.045846,0.0325 0.070653,0.0456 0.023154,0.0127 0.046515,0.0253 0.070511,0.0364 0.030354,0.014 0.060863,0.0275 0.090772,0.0426 0.040663,0.0153 0.078811,0.0364 0.1198356,0.0506 0.030428,0.0126 0.06254,0.0198 0.094146,0.0287 0.030193,0.009 0.061432,0.013 0.092076,0.0199 0.032387,0.006 0.064482,0.0125 0.096877,0.018 0.032625,0.004 0.065228,0.006 0.097784,0.0105 0.032615,0.006 0.065913,0.004 0.098542,0.009 0.030303,0.006 0.060048,0.008 0.090684,0.005 0.024614,-2.9e-4 0.046953,-0.0102 0.0708,-0.0148 0.066763,-0.0265 0.1630825,-0.0882 -0.1114177,0.0689 0.021177,-0.0127 0.034162,-0.0328 0.044178,-0.0547 0.011136,-0.031 0.014174,-0.0638 0.0099,-0.0963 -0.00554,-0.037 -0.021262,-0.0705 -0.040424,-0.10219 -0.019074,-0.0295 -0.043309,-0.055 -0.067622,-0.0801 -0.025215,-0.0238 -0.043686,-0.0533 -0.064638,-0.0806 -0.022405,-0.0272 -0.044902,-0.0544 -0.066177,-0.0826 -0.02373,-0.0303 -0.046189,-0.0616 -0.070543,-0.0914 -0.025752,-0.028 -0.052623,-0.0552 -0.080166,-0.0814 -0.028105,-0.024 -0.054044,-0.0499 -0.078557,-0.0775 -0.018706,-0.0193 -0.039893,-0.0357 -0.0646,-0.0464 -0.021516,-0.0102 -0.044153,-0.0169 -0.065177,-0.0283 -0.017219,-0.0111 -0.030903,-0.0263 -0.046212,-0.0396 -0.014131,-0.0106 -0.029372,-0.0188 -0.04572,-0.0256 -0.016925,-0.009 -0.033567,-0.0198 -0.051661,-0.0267 -0.021513,-0.005 -0.042442,-0.0113 -0.064431,-0.0144 -0.026747,-0.007 -0.053445,-0.0145 -0.079179,-0.0245 -0.022056,-0.007 -0.044026,-0.0151 -0.065167,-0.0247 -0.025091,-0.008 -0.04952,-0.018 -0.073267,-0.0295 -0.028344,-0.0147 -0.05786,-0.027 -0.085266,-0.0435 -0.02689,-0.0158 -0.054305,-0.0306 -0.081581,-0.0458 -0.027165,-0.0169 -0.056423,-0.0299 -0.082007,-0.0492 -0.018439,-0.014 -0.036842,-0.0278 -0.056115,-0.0406 -0.021497,-0.0127 -0.044122,-0.0233 -0.066061,-0.0352 -0.022609,-0.0112 -0.046894,-0.0183 -0.07024,-0.0276 -0.024366,-0.007 -0.04755,-0.0167 -0.071032,-0.026 -0.025347,-0.0128 -0.049087,-0.0289 -0.071956,-0.0457 -0.023185,-0.0187 -0.046145,-0.0378 -0.070824,-0.0545 -0.021058,-0.0152 -0.044952,-0.0265 -0.069648,-0.0344 -0.022127,-0.007 -0.043455,-0.0171 -0.065675,-0.0242 -0.022,-0.009 -0.043596,-0.0179 -0.062728,-0.0322 -0.017992,-0.0102 -0.0309,-0.0272 -0.048816,-0.0373 -0.015682,-0.012 -0.03276,-0.0224 -0.050463,-0.0312 -0.022394,-0.012 -0.044853,-0.024 -0.067919,-0.0347 -0.02799,-0.0124 -0.054176,-0.0281 -0.080884,-0.0429 -0.024731,-0.0129 -0.047411,-0.0292 -0.069721,-0.0459 -0.022085,-0.0133 -0.042397,-0.0292 -0.063461,-0.0441 -0.021127,-0.0108 -0.041437,-0.0233 -0.062714,-0.0339 -0.021728,-0.0137 -0.038154,-0.0338 -0.057692,-0.0502 -0.020513,-0.019 -0.044087,-0.0336 -0.067697,-0.0483 -0.021691,-0.0164 -0.046138,-0.0276 -0.070429,-0.0393 -0.021823,-0.008 -0.040583,-0.0225 -0.062324,-0.031 -0.011142,-0.004 -0.021228,-0.0108 -0.031971,-0.0155 -0.00849,-0.004 -0.018079,-0.004 -0.026844,-0.007 -0.017783,-0.004 -0.034288,-0.0105 -0.051709,-0.0153 -0.031051,-0.014 -0.062202,-0.0279 -0.092534,-0.0434 -0.025683,-0.0146 -0.050945,-0.03 -0.077389,-0.0432 -0.024334,-0.0124 -0.047974,-0.026 -0.071238,-0.0403 -0.02432,-0.0125 -0.046542,-0.0285 -0.070626,-0.0414 -0.022757,-0.01 -0.047149,-0.0136 -0.070115,-0.0228 -0.023553,-0.007 -0.043755,-0.021 -0.066103,-0.0305 -0.020124,-0.007 -0.041599,-0.007 -0.062677,-0.008 -0.027208,-0.003 -0.052304,0.004 -0.07851,0.01 -0.032355,0.009 -0.062544,0.0226 -0.093206,0.0356 0.037924,-0.0227 -0.077007,0.0417 -0.037352,0.0188 0.4959048,-0.2855 -0.3722286,0.21498 0.1238956,-0.0708 -0.448859,0.25844 -0.031306,0.0179 -0.023479,0.0135 0.00362,-0.002 -0.00718,0.004 -0.01065,0.007 -0.00941,0.006 -0.018314,0.0131 -0.027968,0.0191 -0.017746,0.0111 -0.032858,0.0254 -0.049057,0.0386 -0.024609,0.0198 -0.050189,0.0383 -0.075814,0.0568 -0.022045,0.0179 -0.04606,0.0331 -0.06923,0.0495 -0.3494325,0.20193 -0.1107903,0.0639 -0.018317,0.011 0.00283,-0.002 -0.00547,0.004 -0.00825,0.005 -0.00787,0.005 -0.015137,0.01 -0.022712,0.0153 -0.01733,0.0122 -0.031009,0.0285 -0.044936,0.0443 -0.017156,0.0198 -0.031801,0.0416 -0.047549,0.0625 -0.011499,0.0173 -0.02805,0.0299 -0.044761,0.0418 -0.022868,0.0141 -0.045694,0.0282 -0.068539,0.0424 -0.077585,0.0536 -0.1609826,0.0978 -0.2427293,0.14468 -0.02577,0.0121 -0.053081,0.0223 -0.081032,0.028 -0.03057,0.0107 -0.06292,0.0138 -0.094989,0.0162 -0.030661,8.2e-4 -0.060828,0.001 -0.091045,0.006 -0.025744,0.004 -0.052144,-9.8e-4 -0.078046,-0.003 -0.028438,-0.004 -0.055463,-0.0132 -0.080567,-0.0272 -0.023061,-0.0132 -0.04679,-0.0249 -0.071385,-0.0349 -0.02527,-0.007 -0.047997,-0.0194 -0.071134,-0.0312 -0.024664,-0.0147 -0.048916,-0.0299 -0.071598,-0.0475 -0.022879,-0.0189 -0.045411,-0.0378 -0.066272,-0.0589 -0.022257,-0.0216 -0.038512,-0.0482 -0.056722,-0.073 -0.02028,-0.0211 -0.037914,-0.0436 -0.050918,-0.0698 -0.012539,-0.0276 -0.018018,-0.0576 -0.025829,-0.0867 -0.00975,-0.0292 -0.021638,-0.0577 -0.031501,-0.0869 -0.00791,-0.0242 -0.010123,-0.0496 -0.011303,-0.0749 -8.7e-6,-0.0235 0.00571,-0.0461 0.013153,-0.0682 0.00913,-0.0235 0.016957,-0.0474 0.023894,-0.0716 0.00663,-0.0258 0.018878,-0.0494 0.032396,-0.0721 0.013647,-0.0201 0.030324,-0.038 0.046132,-0.0564 0.017738,-0.0233 0.035976,-0.0462 0.0573,-0.0663 0.06465,-0.0526 0.1477777,-0.0915 0.216648,-0.13022 0.050005,-0.0281 -0.099546,0.0571 -0.1493182,0.0857 0.06231,-0.0381 0.1261086,-0.0742 0.1894798,-0.11006 0.0098,-0.006 0.022524,-0.007 0.032997,-0.0114 0.022392,-0.008 0.046678,-0.0121 0.068017,-0.0226 -0.027094,0.0172 0.05774,-0.0279 0.029667,-0.0118 -0.2665923,0.15317 -0.1954511,0.10892 -0.1412726,0.0804 0.00356,-0.005 -0.066336,-0.0309 -0.072214,-0.0331 -0.038574,-0.0139 -0.077942,-0.0211 -0.1187479,-0.0229 -0.031088,-5.8e-4 -0.062186,1.1e-4 -0.093273,5.3e-4 -0.02435,0.001 -0.04799,4e-4 -0.071915,-0.004 0,0 0.1527796,-0.10732 0.1527796,-0.10732 v 0 c 0.023127,0.003 0.046359,0.002 0.069646,0.002 0.031167,-3e-4 0.062375,-10e-4 0.093501,10e-4 0.041699,0.004 0.082129,0.0132 0.1214416,0.0278 0.026093,0.01 0.069268,0.022 0.085468,0.0464 0.00204,0.003 0.00233,0.007 0.0035,0.0106 -4.233e-4,0.007 0.00108,0.0133 -0.00612,0.0176 -0.075005,0.0447 -0.126632,0.0819 -0.1993866,0.10853 -0.022852,0.007 -0.045626,0.0143 -0.068139,0.0223 -0.00863,0.003 -0.013211,0.004 -0.021373,0.008 -0.00337,0.002 -0.013107,0.007 -0.00988,0.005 0.2611821,-0.15231 0.185115,-0.10803 0.1298789,-0.0748 -0.056705,0.0328 -0.1133125,0.0659 -0.1701141,0.0985 -0.049386,0.0284 0.098548,-0.0572 0.1478669,-0.0857 0.00393,-0.002 -0.00775,0.005 -0.01171,0.007 -0.022204,0.0126 -0.00177,-3.2e-4 -0.023437,0.0142 -0.00384,0.003 -0.00772,0.005 -0.011586,0.008 -0.022,0.0188 -0.041763,0.0394 -0.058251,0.0633 -0.014094,0.0192 -0.030868,0.0367 -0.046696,0.0545 -0.014187,0.021 -0.027167,0.0429 -0.035048,0.0671 -0.00616,0.0244 -0.013063,0.049 -0.022942,0.0721 -0.0063,0.0208 -0.015057,0.0404 -0.016282,0.0625 6.879e-4,0.0237 0.00185,0.0476 0.00856,0.0705 0.00932,0.0297 0.021193,0.0585 0.031393,0.0879 0.00817,0.0278 0.013208,0.0566 0.024508,0.0833 0.012838,0.0251 0.02999,0.0465 0.048885,0.0674 0.017738,0.0241 0.034082,0.0495 0.055755,0.0703 0.020442,0.0202 0.042189,0.039 0.064771,0.0568 0.022304,0.0165 0.045854,0.0312 0.070109,0.0446 0.022749,0.0119 0.046317,0.0214 0.070473,0.03 0.024545,0.011 0.048457,0.0231 0.071949,0.0362 0.024043,0.0114 0.0496,0.0189 0.076245,0.0208 0.02527,0.002 0.050677,0.005 0.075747,-6.1e-4 0.030323,-0.004 0.060894,-0.002 0.091292,-0.005 0.031786,-0.003 0.063015,-0.009 0.093524,-0.0188 0.026718,-0.008 0.053437,-0.0172 0.077565,-0.0316 0.056383,-0.0319 0.08391,-0.0475 -0.1298088,0.0757 -0.00488,0.003 0.00959,-0.006 0.014319,-0.009 0.00897,-0.006 0.018074,-0.0114 0.026941,-0.0174 0.00461,-0.003 0.00901,-0.007 0.013507,-0.01 0.022161,-0.0146 0.045248,-0.0277 0.06734,-0.0424 0.017743,-0.009 0.033698,-0.0213 0.047929,-0.0349 0.015031,-0.0219 0.031983,-0.0423 0.046919,-0.0643 0.01429,-0.0161 0.02748,-0.0329 0.04287,-0.0478 0.097456,-0.0741 0.3787515,-0.215 0.049406,-0.0324 0.024127,-0.0151 0.047724,-0.0315 0.070245,-0.0489 0.024961,-0.0188 0.050893,-0.0362 0.075551,-0.0555 0.015925,-0.0135 0.031661,-0.0275 0.048239,-0.0398 0.01756,-0.014 -0.00122,10e-5 0.018558,-0.012 0.00719,-0.004 0.012729,-0.0112 0.019984,-0.0155 0.00776,-0.005 0.4121396,-0.23755 0.023648,-0.0131 0.057075,-0.0331 0.1143556,-0.0658 0.1712259,-0.0993 0.048965,-0.0288 -0.1970508,0.11314 -0.1475081,0.0853 0.070095,-0.0393 0.136066,-0.0848 0.209676,-0.11662 0.030708,-0.0133 0.062135,-0.0249 0.094773,-0.0325 0.027405,-0.006 0.054344,-0.01 0.082477,-0.007 0.022905,10e-4 0.045923,0.004 0.066919,0.0139 0.021257,0.0107 0.041996,0.0225 0.064943,0.0294 0.024074,0.008 0.049312,0.0129 0.071612,0.0254 0.02376,0.0138 0.046786,0.0288 0.070928,0.042 0.023196,0.0138 0.046568,0.0271 0.070621,0.0393 0.025847,0.014 0.051095,0.029 0.076786,0.0433 0.029904,0.0148 0.059991,0.0301 0.091926,0.04 0.017206,0.006 0.034693,0.0101 0.051971,0.0156 0.020825,0.006 0.03972,0.0156 0.059412,0.0244 0.021066,0.01 0.040736,0.0228 0.062382,0.0317 0.024958,0.0117 0.048675,0.0255 0.071451,0.0411 0.024381,0.0151 0.047816,0.0316 0.069252,0.0507 0.018071,0.016 0.034553,0.0343 0.055775,0.0463 0.021426,0.0117 0.042979,0.0233 0.063626,0.0362 0.021307,0.0148 0.042085,0.0304 0.06403,0.0443 0.02186,0.016 0.043621,0.0322 0.068025,0.0442 0.02617,0.0151 0.052793,0.0294 0.080482,0.0416 0.022982,0.0114 0.045916,0.0229 0.068524,0.0351 0.017875,0.01 0.035476,0.0201 0.051764,0.0324 0.016756,0.0121 0.031086,0.0273 0.048805,0.0381 0.018648,0.0121 0.039417,0.02 0.060142,0.0278 0.021722,0.008 0.043476,0.0166 0.065368,0.0245 0.025469,0.01 0.050159,0.0222 0.072092,0.0388 0.024172,0.0175 0.047403,0.0363 0.070915,0.0547 0.02218,0.0155 0.044699,0.0313 0.069794,0.0418 0.023286,0.01 0.047088,0.0174 0.070836,0.0256 0.024275,0.009 0.048484,0.0177 0.071428,0.0296 0.02273,0.0116 0.045598,0.0231 0.067299,0.0366 0.019558,0.0129 0.037508,0.0277 0.056308,0.0416 0.025376,0.018 0.053492,0.0315 0.080104,0.0475 0.02762,0.0149 0.055112,0.03 0.082148,0.046 0.027424,0.0154 0.056166,0.0282 0.084421,0.042 0.024103,0.0107 0.048868,0.0193 0.073515,0.0286 0.02132,0.008 0.042396,0.0172 0.064246,0.0241 0.025339,0.008 0.050715,0.0173 0.077168,0.0217 0.022924,0.004 0.045823,0.01 0.06771,0.0178 0.017441,0.008 0.034353,0.0181 0.051599,0.027 0.017566,0.008 0.034377,0.0176 0.049161,0.0304 0.013563,0.0128 0.026767,0.0263 0.043158,0.0356 0.02136,0.01 0.043683,0.0176 0.064735,0.0282 0.025577,0.0137 0.048507,0.0314 0.067952,0.053 0.024072,0.0272 0.049599,0.0528 0.077102,0.0766 0.027996,0.0269 0.055989,0.0541 0.081632,0.0833 0.024201,0.0301 0.046888,0.0615 0.070756,0.0919 0.021659,0.0279 0.044252,0.055 0.066595,0.0824 0.020418,0.0269 0.038542,0.0558 0.063467,0.0789 0.025098,0.0263 0.049886,0.0531 0.069372,0.0839 0.020161,0.0337 0.037544,0.0692 0.044089,0.10831 0.00641,0.0351 0.00437,0.0702 -0.00513,0.10472 -0.00774,0.0247 -0.019087,0.0471 -0.038482,0.0647 -0.060836,0.0353 -0.1351206,0.0939 -0.211846,0.11267 -0.023643,0.006 -0.047132,0.0118 -0.071742,0.0122 -0.031222,10e-4 -0.061779,-0.003 -0.092588,-0.008 -0.032873,-0.003 -0.065899,-0.004 -0.098524,-0.01 -0.032788,-0.004 -0.065927,-0.005 -0.098456,-0.0111 -0.032348,-0.006 -0.064761,-0.0119 -0.097033,-0.0185 -0.031372,-0.006 -0.062613,-0.0121 -0.093383,-0.0207 -0.031574,-0.009 -0.063481,-0.0175 -0.093814,-0.0306 -0.040895,-0.016 -0.080132,-0.036 -0.1209437,-0.0522 -0.030354,-0.0146 -0.061521,-0.0271 -0.091857,-0.0417 -0.02394,-0.0119 -0.047825,-0.024 -0.07105,-0.0374 -0.024598,-0.0143 -0.048223,-0.0301 -0.071223,-0.0468 -0.024342,-0.0153 -0.049701,-0.029 -0.076096,-0.0405 -0.032594,-0.0154 -0.065305,-0.0308 -0.094446,-0.0524 -0.032305,-0.0234 -0.064386,-0.0471 -0.096436,-0.0709 -0.031239,-0.0236 -0.064114,-0.0449 -0.097996,-0.0646 -0.032859,-0.0189 -0.06748,-0.0347 -0.098644,-0.0565 -0.028558,-0.0189 -0.054388,-0.0412 -0.08001,-0.0639 -0.023334,-0.0184 -0.048381,-0.034 -0.07406,-0.0489 -0.031662,-0.018 -0.062851,-0.0368 -0.093236,-0.0569 -0.032357,-0.0187 -0.065458,-0.0366 -0.1000617,-0.0507 -0.00445,-10e-4 -0.00878,-0.003 -0.013346,-0.003 -0.00276,3e-5 -0.00992,0.005 -0.00758,0.003 0.051491,-0.0323 0.1043,-0.0624 0.1551252,-0.0957 0.00228,-0.002 -0.0069,-0.006 -0.00461,-2.3e-4 8.996e-4,0.002 0.00238,0.004 0.00357,0.007 0.00863,0.0155 0.020206,0.0296 0.033571,0.0413 0.015896,0.0124 0.032602,0.0235 0.049211,0.0348 0.020992,0.0138 0.044572,0.0228 0.067715,0.0323 0.024514,0.009 0.05,0.0147 0.074509,0.0238 0.030806,0.0128 0.061102,0.0266 0.089793,0.0438 0.037227,0.0224 0.072066,0.048 0.1070703,0.0737 0.033726,0.0237 0.069183,0.0447 0.105791,0.0637 0.028921,0.0147 0.058696,0.0277 0.088802,0.0398 0.02912,0.0126 0.05885,0.0236 0.088416,0.0351 0.041379,0.0159 0.083653,0.0298 0.123149,0.0502 0.048434,0.0276 0.09192,0.0616 0.1326068,0.0997 0.030753,0.0285 0.061086,0.0574 0.092225,0.0854 0.027357,0.0266 0.053994,0.0538 0.080541,0.0812 0.028035,0.0271 0.055869,0.0543 0.084358,0.0809 0.025043,0.0266 0.049501,0.054 0.066857,0.0864 0.021302,0.0422 0.035629,0.0872 0.051091,0.13185 0.011306,0.038 0.023699,0.0762 0.025125,0.11615 -6.35e-4,0.0326 -0.0013,0.0657 -0.010914,0.0971 -0.010348,0.0292 -0.024241,0.0565 -0.043442,0.081 -0.00705,0.007 -0.00942,0.011 -0.018423,0.0163 -0.067472,0.0397 -0.1315228,0.0925 -0.2088364,0.11116 -0.028069,0.004 -0.055835,0.004 -0.08282,-0.006 -0.032811,-0.013 -0.062626,-0.032 -0.091472,-0.0521 -0.03462,-0.0249 -0.067598,-0.0522 -0.10462,-0.0737 -0.036134,-0.0211 -0.074589,-0.0376 -0.1109287,-0.0584 -0.036349,-0.021 -0.073026,-0.0417 -0.1117978,-0.0579 -0.033645,-0.0142 -0.067026,-0.0291 -0.099682,-0.0455 -0.031275,-0.0142 -0.061732,-0.03 -0.091669,-0.0469 -0.031441,-0.0163 -0.063535,-0.0309 -0.096344,-0.0443 -0.033429,-0.0151 -0.067739,-0.0285 -0.099365,-0.0473 -0.030798,-0.0189 -0.060326,-0.0395 -0.090549,-0.0592 -0.035177,-0.02 -0.070723,-0.0394 -0.1062466,-0.0587 -0.031952,-0.0152 -0.064882,-0.0285 -0.095348,-0.0467 -0.024527,-0.0153 -0.047802,-0.0325 -0.071282,-0.0493 -0.022979,-0.0171 -0.04726,-0.0324 -0.071009,-0.0484 -0.025625,-0.017 -0.050999,-0.0343 -0.076839,-0.0509 -0.023386,-0.015 -0.046195,-0.0318 -0.07284,-0.0406 -0.019812,-0.008 -0.03893,-0.0173 -0.056027,-0.0302 -0.022061,-0.0147 -0.041912,-0.0326 -0.065281,-0.0454 -0.0249,-0.0127 -0.050337,-0.023 -0.078532,-0.0254 -0.03089,-0.003 -0.062146,-0.008 -0.093026,-0.002 -0.017632,0.004 -0.03264,0.0121 -0.048981,0.0191 -0.087903,0.0323 0.079296,-0.16392 0.133532,-0.10345 0.015076,0.009 0.030189,0.0185 0.045717,0.027 0.018418,0.009 0.036426,0.0188 0.053752,0.0298 0.022712,0.0131 0.044172,0.0284 0.06574,0.0433 0.020701,0.0158 0.041358,0.0316 0.060513,0.0493 0.01343,0.0131 0.025887,0.0272 0.040645,0.0389 0.018936,0.0166 0.03937,0.0314 0.059694,0.0462 0.028789,0.0197 0.059613,0.0365 0.092915,0.0474 0.023519,0.006 0.047393,0.0105 0.070583,0.0175 0.020034,0.009 0.037688,0.0218 0.056843,0.0324 0.022662,0.0135 0.045278,0.0269 0.066779,0.0422 0.020696,0.0138 0.041101,0.0281 0.062891,0.0401 0.022056,0.0115 0.045408,0.0201 0.067503,0.0315 0.022352,0.0115 0.044689,0.0237 0.068716,0.0314 0.02168,0.008 0.043389,0.0161 0.061245,0.0309 0.017777,0.0135 0.036335,0.026 0.054629,0.0388 0.020915,0.0134 0.040923,0.0282 0.063199,0.0393 0.023159,0.011 0.046577,0.0215 0.070577,0.0306 0.024887,0.01 0.04941,0.0207 0.071881,0.0354 0.022863,0.0144 0.046563,0.0275 0.068435,0.0435 0.017936,0.0118 0.035983,0.0238 0.0515,0.0387 0.019373,0.0192 0.031494,0.0438 0.046635,0.0663 0.015811,0.0249 0.031315,0.0502 0.050063,0.073 0.013634,0.016 0.027149,0.0321 0.037442,0.0505 0.010549,0.0206 0.020302,0.0411 0.026435,0.0636 0.00462,0.0244 0.00955,0.0484 0.00678,0.0734 -0.00193,0.0236 -0.00778,0.0473 -0.014848,0.0698 -0.00421,0.0102 -0.00672,0.021 -0.011454,0.031 -0.012848,0.0272 0.00268,-0.008 -0.011115,0.0185 -0.00185,0.004 -0.00308,0.007 -0.00461,0.0111 -0.00926,0.018 -0.014835,0.0387 -0.029391,0.0533 -0.047427,0.0711 -0.187528,0.051 -0.2147245,0.13576 -0.020593,0.01 -0.041192,0.0189 -0.064282,0.0204 -0.024381,0.003 -0.048802,1.8e-4 -0.072638,-0.006 -0.022833,-0.006 -0.044988,-0.0148 -0.067164,-0.023 -0.022892,-0.008 -0.04576,-0.0165 -0.069456,-0.0222 -0.032944,-0.009 -0.065494,-0.019 -0.097034,-0.0323 -0.018031,-0.007 -0.036186,-0.0136 -0.054638,-0.0193 -0.019743,-0.008 -0.039722,-0.0158 -0.057741,-0.0271 -0.026223,-0.0156 -0.052378,-0.0316 -0.080212,-0.0442 0,0 0.1555615,-0.10366 0.1555615,-0.10366 z"
       inkscape:connector-curvature="0" />
    <path
       style="fill:#000000;fill-opacity:1;stroke:none;stroke-width:0.26458332;stroke-opacity:1"
       id="path886"
       d="m 2.3063089,292.8704 c 0.018367,-0.032 0.039004,-0.0625 0.059935,-0.0928 0.013678,-0.0237 0.030428,-0.044 0.051656,-0.0612 0.074481,-0.044 0.1481248,-0.0937 0.2277191,-0.12923 0.021836,-0.009 0.040404,-0.0212 0.064674,-0.0196 0.026509,0.002 0.049642,0.0158 0.073387,0.0264 0.028578,0.0139 0.058649,0.0243 0.087988,0.0364 0.027354,0.008 0.048728,0.027 0.067506,0.0478 0.028291,0.0299 0.046061,0.0667 0.061982,0.10413 0.016603,0.0375 0.026046,0.0772 0.031338,0.11773 0.00548,0.0462 1.923e-4,0.0925 -0.00832,0.13792 -0.00865,0.049 -0.022998,0.0964 -0.047089,0.13997 -0.024127,0.0382 -0.056349,0.0692 -0.093321,0.0946 -0.1094627,0.0697 -0.1593517,0.11183 -0.2703197,0.11988 -0.039345,2.9e-4 -0.07485,-0.0121 -0.1095437,-0.0294 -0.05217,-0.0301 -0.079287,-0.0845 -0.1060558,-0.13589 -0.031782,-0.0628 -0.055346,-0.12933 -0.070633,-0.19794 -0.00927,-0.0511 -0.0046,-0.10137 0.012905,-0.14993 0.010864,-0.0209 0.00481,-0.0113 0.017808,-0.0289 0,0 0.1716489,-0.0719 0.1716489,-0.0719 v 0 c -0.015519,0.0134 -0.00826,0.006 -0.021382,0.0234 -0.021366,0.0444 -0.026037,0.092 -0.019372,0.14073 0.013349,0.0674 0.035174,0.133 0.067063,0.19408 0.025851,0.0479 0.051797,0.0987 0.1026151,0.1242 0.033132,0.0149 0.06733,0.0244 0.1040881,0.0212 0.017918,-0.002 0.035571,-0.004 0.052907,-0.01 0.060622,-0.0183 0.1526948,-0.0879 -0.1039479,0.0673 0.00568,-0.004 0.031487,-0.0196 0.036677,-0.0236 0.023141,-0.0177 0.041517,-0.0413 0.059902,-0.0636 0.027219,-0.0403 0.041598,-0.0868 0.050481,-0.1344 0.00925,-0.0434 0.014324,-0.0877 0.00952,-0.13203 -0.00405,-0.039 -0.012033,-0.0775 -0.028272,-0.1135 -0.01469,-0.0357 -0.032056,-0.0701 -0.059623,-0.0978 -0.018203,-0.0183 -0.038261,-0.0333 -0.063281,-0.041 -0.029743,-0.0116 -0.059115,-0.0241 -0.088326,-0.037 -0.021836,-0.01 -0.044073,-0.0209 -0.068721,-0.0182 -0.021086,0.006 -0.040047,0.0164 -0.060126,0.0247 -0.01156,0.006 -0.023158,0.0117 -0.034537,0.018 -0.00381,0.002 -0.015143,0.009 -0.01139,0.006 0.158682,-0.0926 0.1964147,-0.11661 0.1377672,-0.0796 -0.023207,0.0134 -0.042293,0.0314 -0.054947,0.0553 -0.021063,0.0296 -0.04263,0.0587 -0.059721,0.0909 0,0 -0.1706347,0.0761 -0.1706347,0.0761 z"
       inkscape:connector-curvature="0" />
    <path
       style="fill:#000000;fill-opacity:1;stroke:none;stroke-width:0.26458332;stroke-opacity:1"
       id="path888"
       d="m 3.13418,292.95337 c 0.082264,-0.0493 0.1603677,-0.10825 0.2498588,-0.14378 0.02714,-0.0113 0.054945,-0.005 0.083055,-0.003 0.026536,0.008 0.054557,0.01 0.081313,0.0164 0.02989,0.003 0.055107,0.016 0.081202,0.0296 0.024217,0.0148 0.042839,0.0357 0.058534,0.059 0.018955,0.0293 0.024601,0.062 0.028017,0.0961 0.00622,0.053 0.010602,0.10617 0.013679,0.15944 0.00452,0.0501 -0.00108,0.1 -0.00789,0.14958 -0.00838,0.0543 -0.019743,0.10798 -0.031892,0.16151 -0.00904,0.0411 -0.022373,0.0807 -0.037948,0.11971 -0.012195,0.035 -0.029357,0.0677 -0.048043,0.0996 -0.018928,0.0331 -0.042042,0.0635 -0.064098,0.0946 -0.051975,0.071 -0.1368086,0.1252 -0.2225283,0.14209 -0.031241,0.004 -0.061953,0.004 -0.092493,-0.004 -0.044558,-0.01 -0.083037,-0.0352 -0.1190011,-0.0621 -0.038519,-0.0315 -0.070623,-0.0688 -0.095855,-0.11144 -0.025884,-0.0506 -0.035395,-0.1072 -0.045629,-0.16255 -0.00981,-0.0621 -0.020098,-0.12422 -0.027926,-0.18662 -0.00804,-0.0475 -6.35e-4,-0.0939 0.011062,-0.13998 0.016674,-0.0642 0.044007,-0.12445 0.074902,-0.18284 0.061237,-0.10481 0.1088194,-0.10433 0.2370992,-0.17634 0.00412,-0.002 0.00824,-0.003 0.012367,-0.005 0,0 -0.1466575,0.11521 -0.1466575,0.11521 v 0 c -0.00399,0.002 -0.00798,0.003 -0.011972,0.005 0.049176,-0.0287 0.098537,-0.0571 0.1475274,-0.0861 0.00429,-0.003 -0.00915,0.004 -0.013401,0.007 -0.00486,0.003 -0.0095,0.006 -0.013806,0.0101 -0.017941,0.0156 -0.030976,0.0357 -0.04412,0.0553 -0.031928,0.0565 -0.059932,0.11514 -0.075954,0.17832 -0.011544,0.0439 -0.020476,0.0883 -0.014078,0.13392 0.00654,0.0623 0.016013,0.12426 0.026014,0.18607 0.010618,0.053 0.019889,0.10722 0.044432,0.15599 0.023961,0.0405 0.054214,0.0762 0.091511,0.10527 0.035293,0.0249 0.072483,0.0476 0.1159187,0.0546 0.029173,0.004 0.059333,0.004 0.087963,-0.004 0.064328,-0.0258 0.00718,-0.003 -0.1386136,0.0826 -0.00362,0.002 0.00774,-0.003 0.011345,-0.005 0.012975,-0.008 0.022844,-0.0191 0.031442,-0.0314 0.022254,-0.0307 0.045873,-0.0606 0.065109,-0.0934 0.019238,-0.0308 0.037049,-0.0626 0.049167,-0.0969 0.015968,-0.0383 0.030813,-0.077 0.040187,-0.11756 0.012822,-0.053 0.024659,-0.10623 0.033026,-0.16015 0.00672,-0.0485 0.012925,-0.0972 0.00902,-0.14633 -0.00206,-0.053 -0.00586,-0.10587 -0.013573,-0.15835 -0.00334,-0.0309 -0.00809,-0.0605 -0.025151,-0.0873 -0.014116,-0.0208 -0.031202,-0.039 -0.053456,-0.0512 -0.024995,-0.0129 -0.050616,-0.0215 -0.078633,-0.0254 -0.026627,-0.005 -0.053189,-0.01 -0.079842,-0.0146 -0.026972,-0.002 -0.052269,-0.003 -0.077077,0.01 -0.063315,0.0313 -0.021749,0.0111 0.1295807,-0.0766 0.00535,-0.003 -0.010708,0.006 -0.015923,0.01 -0.024522,0.0156 -0.00675,0.006 -0.030743,0.02 -0.00421,0.003 -0.00856,0.005 -0.012838,0.007 0,0 -0.1741897,0.0682 -0.1741897,0.0682 z"
       inkscape:connector-curvature="0" />
    <path
       style="fill:#000000;fill-opacity:1;stroke:none;stroke-width:0.26458332;stroke-opacity:1"
       id="path890"
       d="m 3.9130152,293.08361 c 0.026836,-0.0283 0.058138,-0.0513 0.091342,-0.0714 0.085521,-0.051 0.1637448,-0.11084 0.2619454,-0.12676 0.033311,-0.005 0.066076,-0.004 0.098628,0.005 0.028708,0.007 0.054811,0.0204 0.082307,0.0304 0.027508,0.0111 0.050196,0.0293 0.06863,0.0523 0.02764,0.0421 0.04154,0.0906 0.051981,0.13933 0.00889,0.0552 0.014084,0.11091 0.019296,0.16653 0.00602,0.0564 0.00583,0.1129 2.646e-4,0.16928 -0.00709,0.0551 -0.023135,0.10809 -0.039526,0.16093 -0.014907,0.0509 -0.034304,0.10014 -0.057083,0.14797 -0.020085,0.0447 -0.05237,0.0815 -0.082794,0.1193 -0.027533,0.035 -0.053886,0.0709 -0.080108,0.10682 -0.023439,0.0348 -0.04898,0.068 -0.076452,0.0997 -0.074092,0.0732 -0.1705501,0.12386 -0.2689884,0.1573 -0.032675,0.0111 -0.065115,0.0159 -0.098661,0.007 -0.029541,-0.007 -0.053122,-0.0242 -0.072248,-0.047 -0.027328,-0.0398 -0.044162,-0.0857 -0.063253,-0.12971 -0.022646,-0.0483 -0.041357,-0.0977 -0.052481,-0.14992 -0.012676,-0.0585 -0.016531,-0.11828 -0.019206,-0.1779 -0.00288,-0.0589 -0.003,-0.1177 6.88e-4,-0.17653 0.00633,-0.0582 0.013203,-0.11631 0.023537,-0.17392 0.011769,-0.0534 0.032916,-0.10429 0.054619,-0.15434 0.021577,-0.05 0.047347,-0.0979 0.074442,-0.14507 0.00329,-0.005 0.00659,-0.0102 0.00988,-0.0153 0,0 0.1702229,-0.0739 0.1702229,-0.0739 v 0 c -0.00367,0.005 -0.00734,0.009 -0.011009,0.0141 -0.02848,0.0464 -0.055344,0.0938 -0.077079,0.14376 -0.021577,0.0489 -0.041589,0.0987 -0.055594,0.15035 -0.012083,0.0568 -0.017867,0.11453 -0.025037,0.17207 -0.0041,0.0583 -0.00426,0.11654 -0.00198,0.17493 0.00249,0.0586 0.00591,0.11737 0.018957,0.17473 0.010033,0.0511 0.028027,0.0997 0.050112,0.14684 0.018494,0.0422 0.035152,0.0862 0.062557,0.12354 0.017894,0.0194 0.03941,0.0323 0.065822,0.0366 0.03155,0.004 0.061747,-0.003 0.091417,-0.0141 0.064322,-0.0246 0.1427271,-0.0773 -0.097953,0.0647 -0.00613,0.004 0.012459,-0.007 0.018494,-0.0106 0.01901,-0.0118 0.015886,-0.0104 0.032248,-0.0257 0.027916,-0.031 0.054605,-0.063 0.077115,-0.0982 0.026635,-0.036 0.05291,-0.0724 0.080493,-0.10771 0.02932,-0.0377 0.063412,-0.0723 0.084367,-0.11577 0.024016,-0.0466 0.04376,-0.0952 0.058743,-0.1455 0.016073,-0.052 0.033093,-0.10377 0.04121,-0.15787 0.00679,-0.0552 0.007,-0.11051 0.00124,-0.16585 -0.00515,-0.055 -0.00993,-0.11015 -0.01791,-0.16482 -0.00975,-0.0457 -0.02259,-0.0916 -0.049887,-0.13023 -0.017478,-0.0201 -0.038713,-0.035 -0.063945,-0.0441 -0.026218,-0.0108 -0.052179,-0.0227 -0.080196,-0.0282 -0.031369,-0.005 -0.06284,-0.005 -0.094145,10e-4 -0.07822,0.0171 -0.2060557,0.10026 0.059088,-0.0518 -0.032636,0.0189 -0.065523,0.0383 -0.091255,0.0664 0,0 -0.1728454,0.0716 -0.1728454,0.0716 z"
       inkscape:connector-curvature="0" />
    <path
       style="fill:#000000;fill-opacity:1;stroke:none;stroke-width:0.26458332;stroke-opacity:1"
       id="path892"
       d="m 4.6697082,293.42584 c 0.068511,-0.0431 0.035015,-0.0223 0.188995,-0.10946 0.00581,-0.003 0.011808,-0.006 0.018084,-0.009 0.018899,-0.007 0.03958,-0.009 0.059405,-0.0109 0.039237,-4.2e-4 0.077429,0.008 0.1158627,0.0145 0.032036,0.002 0.06019,0.008 0.08475,0.0297 0.024426,0.0234 0.03456,0.0557 0.04342,0.0874 0.015653,0.0497 0.020262,0.10162 0.026138,0.15311 0.00835,0.0583 0.00855,0.11709 0.00434,0.17568 -0.00394,0.054 -0.017756,0.10656 -0.032152,0.15853 -0.018055,0.0636 -0.039271,0.12612 -0.06504,0.18701 -0.023807,0.0523 -0.051517,0.10258 -0.077561,0.15372 -0.021101,0.0424 -0.043439,0.0841 -0.070655,0.12297 -0.060681,0.071 -0.1472118,0.12786 -0.2394683,0.14576 -0.030334,0.002 -0.06031,0.002 -0.090425,0.007 -0.026904,0.005 -0.053742,-6.9e-4 -0.079749,-0.007 -0.03493,-0.0119 -0.048255,-0.0477 -0.059927,-0.0796 -0.016124,-0.05 -0.024971,-0.10197 -0.032196,-0.15385 -0.00754,-0.0595 -0.018365,-0.11859 -0.025853,-0.17813 -0.00647,-0.043 -0.00379,-0.0863 0.00307,-0.12898 0.010512,-0.0478 0.019534,-0.0959 0.026708,-0.14432 0.00714,-0.049 0.015917,-0.0978 0.029769,-0.1454 0.018746,-0.0529 0.03903,-0.10536 0.059646,-0.1576 0.016346,-0.0423 0.036954,-0.0824 0.067772,-0.11586 0.00362,-0.003 0.00724,-0.006 0.010853,-0.009 0,0 0.1739003,-0.067 0.1739003,-0.067 v 0 c -0.00429,0.002 -0.00857,0.003 -0.012861,0.005 -0.034767,0.0289 -0.056225,0.0683 -0.073425,0.10966 -0.020722,0.0515 -0.039458,0.10367 -0.058963,0.1556 -0.014973,0.0467 -0.024313,0.0948 -0.031924,0.14319 -0.00619,0.0483 -0.014335,0.0965 -0.024998,0.14401 -0.00699,0.0413 -0.012599,0.0831 -0.00686,0.12508 0.00664,0.0596 0.017018,0.11857 0.025561,0.17786 0.00699,0.0505 0.015515,0.10123 0.031708,0.14964 0.00994,0.0271 0.020185,0.0566 0.051516,0.0633 0.024913,0.005 0.050197,0.007 0.075426,0.002 0.029733,-0.003 0.060031,-0.002 0.08923,-0.009 0.059545,-0.02 0.1434534,-0.079 -0.1206982,0.0752 -0.00482,0.003 0.00978,-0.005 0.014348,-0.009 0.00499,-0.004 0.00976,-0.007 0.014261,-0.0115 0.0048,-0.004 0.00906,-0.009 0.013592,-0.014 0.028794,-0.0376 0.05237,-0.0783 0.073048,-0.12088 0.026622,-0.0509 0.0531,-0.10193 0.079249,-0.1531 0.026326,-0.0598 0.04784,-0.12127 0.065156,-0.18432 0.014293,-0.051 0.028296,-0.10257 0.033551,-0.15539 0.0056,-0.0573 0.00586,-0.11522 -0.00265,-0.17234 -0.00635,-0.0504 -0.00952,-0.10146 -0.0259,-0.14994 -0.00806,-0.0278 -0.016912,-0.0568 -0.039168,-0.0767 -0.022958,-0.017 -0.05099,-0.018 -0.078411,-0.0225 -0.037068,-0.007 -0.074536,-0.0138 -0.1123651,-0.01 -0.019484,0.003 -0.037548,0.007 -0.055619,0.0157 -0.00605,0.003 -0.023469,0.0128 -0.017706,0.009 0.1083136,-0.0634 0.193447,-0.11098 0.1293842,-0.0752 0,0 -0.17419,0.0682 -0.17419,0.0682 z"
       inkscape:connector-curvature="0" />
    <path
       style="fill:#000000;fill-opacity:1;stroke:none;stroke-width:0.26458332;stroke-opacity:1"
       id="path900"
       d="m 5.590619,294.18356 c 0.032443,0.005 0.065267,0.007 0.098061,0.009 0.026019,9e-4 0.052059,8.5e-4 0.078091,8.5e-4 0.018801,-0.007 0.040053,-0.006 0.058484,-0.0133 0.018367,-0.006 0.034981,-0.0134 0.054441,-0.0141 0.00111,1.4e-4 0.00259,-4.2e-4 0.0033,4.2e-4 0.043429,0.0532 -0.082099,0.0808 -0.1557259,0.12091 -0.00397,0.002 -0.00902,-6.6e-4 -0.013536,-6.1e-4 -0.0054,9e-5 -0.010776,7.2e-4 -0.016166,0.001 -0.032706,0.002 -0.065399,-0.003 -0.097977,-0.006 -0.025752,-0.002 -0.050655,-0.009 -0.076324,-0.0119 -0.022923,-0.002 -0.045974,-0.002 -0.06898,-0.002 -0.024418,10e-4 -0.048121,4e-5 -0.070995,-0.009 -0.019293,-0.006 -0.037489,-0.0145 -0.056692,-0.0206 -0.020071,-0.004 -0.039779,-0.005 -0.059515,-0.0106 -0.020812,-0.005 -0.040807,-0.0134 -0.057875,-0.0261 -0.079417,-0.052 0.078332,-0.13531 0.1549916,-0.11913 0.00278,4.3e-4 0.00564,4.8e-4 0.00832,10e-4 0.00592,0.002 0.01129,0.005 0.017137,0.007 0.00929,0.003 0.01851,0.005 0.027741,0.008 0.021101,0.005 0.041209,0.0124 0.062024,0.0181 0.021318,0.008 0.04271,0.0165 0.064735,0.0226 0.026249,0.005 0.052792,0.007 0.079237,0.0111 0.031722,0.004 0.062601,0.0125 0.094382,0.0165 0.024186,0.003 0.048539,0.003 0.072837,0.003 0.023733,-0.002 0.043989,-0.013 0.064718,-0.0237 0.020196,-0.009 0.040042,-0.0173 0.059987,-0.0262 -0.2923606,0.15398 -0.1666753,0.10831 -0.1173707,0.0608 0.015182,-0.0166 0.026183,-0.0366 0.03569,-0.0568 0.010684,-0.0218 0.01782,-0.0445 0.021632,-0.0684 0.00398,-0.0204 0.00954,-0.0404 0.0122,-0.0611 -3.969e-4,-0.0192 -0.00473,-0.0382 -0.00678,-0.0573 -0.0039,-0.023 -0.00888,-0.0456 -0.015412,-0.068 -0.00795,-0.0273 -0.015722,-0.0549 -0.027317,-0.081 -0.00687,-0.0159 -0.017113,-0.0304 -0.02967,-0.0423 -0.013343,-0.009 -0.02741,-0.0174 -0.041917,-0.0249 -0.016092,-0.007 -0.03143,-0.0154 -0.047095,-0.0234 -0.016642,-0.008 -0.032954,-0.0161 -0.050097,-0.023 -0.02005,-0.0102 -0.040095,-0.0201 -0.060039,-0.0305 -0.026762,-0.0185 -0.051678,-0.0396 -0.079004,-0.0573 -0.023429,-0.0152 -0.044956,-0.033 -0.067609,-0.0492 -0.018748,-0.0137 -0.034757,-0.0306 -0.05178,-0.0463 -0.016896,-0.0158 -0.037059,-0.0278 -0.057611,-0.0382 -0.017772,-0.0106 -0.035522,-0.0223 -0.054892,-0.0299 -0.019706,-0.008 -0.037143,-0.0201 -0.055908,-0.0299 -0.020069,-0.01 -0.037886,-0.023 -0.056149,-0.0357 -0.00952,-0.009 -0.00476,-0.005 -0.014166,-0.0123 0,0 0.1586992,-0.0994 0.1586992,-0.0994 v 0 c 0.00924,0.008 0.00477,0.004 0.01342,0.0114 0.017317,0.0128 0.035497,0.0241 0.05469,0.0339 0.018095,0.0102 0.036031,0.0207 0.055339,0.0285 0.018873,0.009 0.037066,0.0203 0.05511,0.0313 0.021527,0.012 0.042866,0.0248 0.06059,0.0422 0.016068,0.0156 0.032301,0.0312 0.050376,0.0446 0.021847,0.0168 0.0437,0.0336 0.066777,0.0488 0.026064,0.0183 0.050239,0.0394 0.078235,0.0549 0.019936,0.01 0.038909,0.021 0.059449,0.0294 0.017322,0.008 0.03431,0.0157 0.051239,0.0241 0.01555,0.008 0.031623,0.0157 0.047327,0.0237 0.015565,0.009 0.031536,0.0172 0.044868,0.0295 0.013308,0.0143 0.025281,0.0302 0.032611,0.0484 0.011583,0.0267 0.019058,0.0551 0.027673,0.0829 0.00829,0.0232 0.012674,0.0471 0.017986,0.0711 0.00191,0.0204 0.00591,0.0404 0.00851,0.0607 -0.0018,0.021 -0.00489,0.0418 -0.012171,0.0616 -0.00283,0.0252 -0.0078,0.05 -0.019598,0.0728 -0.00816,0.0222 -0.020005,0.0426 -0.032537,0.0626 -0.050805,0.0612 -0.1407589,0.0865 -0.2017485,0.12786 -0.019672,0.009 -0.040283,0.0164 -0.059554,0.0265 -0.021905,0.0104 -0.045511,0.0168 -0.069897,0.0166 -0.024736,-4.5e-4 -0.049528,-0.001 -0.074012,-0.005 -0.03128,-0.005 -0.062007,-0.0135 -0.093602,-0.0167 -0.0274,-0.003 -0.055326,-0.005 -0.081866,-0.0129 -0.021781,-0.007 -0.043307,-0.015 -0.065007,-0.0224 -0.020616,-0.007 -0.041505,-0.0122 -0.062225,-0.0186 -0.017169,-0.005 -0.033855,-0.0117 -0.051683,-0.0134 -0.077612,-0.003 0.2012511,-0.0522 0.1433428,-0.0998 -9.525e-4,-7.7e-4 0.01306,0.0108 0.012591,0.01 0.016727,0.0102 0.034918,0.0168 0.054146,0.0206 0.020095,0.005 0.041113,0.004 0.060546,0.012 0.018616,0.007 0.037312,0.014 0.056229,0.0203 0.02227,0.005 0.044839,0.005 0.067612,0.005 0.0235,3.7e-4 0.047065,9.3e-4 0.070364,0.004 0.02513,0.004 0.049886,0.0106 0.075434,0.0115 0.031709,0.003 0.063654,0.008 0.095478,0.003 0.070188,-0.0107 0.1289545,-0.0844 -0.1285156,0.0856 -0.00183,10e-4 0.021217,0.0149 0.010763,0.0156 -0.017759,0.004 -0.03428,0.0125 -0.052179,0.016 -0.020352,0.003 -0.040473,0.009 -0.061127,0.009 -0.026053,-1.4e-4 -0.052115,-4.2e-4 -0.07813,-0.002 -0.03338,-0.002 -0.06666,-0.005 -0.09986,-0.009 0,0 0.1529011,-0.1078 0.1529011,-0.1078 z"
       inkscape:connector-curvature="0" />
  </g>
</svg>
