<?xml version="1.0" encoding="UTF-8" standalone="no"?>
<!-- Created with Inkscape (http://www.inkscape.org/) -->

<svg
   xmlns:dc="http://purl.org/dc/elements/1.1/"
   xmlns:cc="http://creativecommons.org/ns#"
   xmlns:rdf="http://www.w3.org/1999/02/22-rdf-syntax-ns#"
   xmlns:svg="http://www.w3.org/2000/svg"
   xmlns="http://www.w3.org/2000/svg"
   xmlns:sodipodi="http://sodipodi.sourceforge.net/DTD/sodipodi-0.dtd"
   xmlns:inkscape="http://www.inkscape.org/namespaces/inkscape"
   width="50mm"
   height="50mm"
   viewBox="0 0 50 50"
   version="1.1"
   id="svg8"
   sodipodi:docname="work.svg"
   inkscape:version="0.92.4 (5da689c313, 2019-01-14)">
  <defs
     id="defs2" />
  <sodipodi:namedview
     id="base"
     pagecolor="#ffffff"
     bordercolor="#666666"
     borderopacity="1.0"
     inkscape:pageopacity="0.0"
     inkscape:pageshadow="2"
     inkscape:zoom="3.959798"
     inkscape:cx="80.971475"
     inkscape:cy="118.57642"
     inkscape:document-units="mm"
     inkscape:current-layer="layer1"
     showgrid="false"
     inkscape:window-width="1920"
     inkscape:window-height="1017"
     inkscape:window-x="-8"
     inkscape:window-y="-8"
     inkscape:window-maximized="1"
     showguides="false" />
  <metadata
     id="metadata5">
    <rdf:RDF>
      <cc:Work
         rdf:about="">
        <dc:format>image/svg+xml</dc:format>
        <dc:type
           rdf:resource="http://purl.org/dc/dcmitype/StillImage" />
        <dc:title></dc:title>
      </cc:Work>
    </rdf:RDF>
  </metadata>
  <g
     inkscape:label="Layer 1"
     inkscape:groupmode="layer"
     id="layer1"
     transform="translate(0,-247)">
    <path
       style="fill:#000000;fill-opacity:1;stroke:none;stroke-width:0.25904086;stroke-opacity:1"
       id="path916"
       d="m 11.971054,251.58401 c 0.138718,-0.17593 0.30677,-0.32077 0.490041,-0.44986 0.02685,-0.0174 0.05269,-0.0364 0.08055,-0.0521 0.322,-0.18218 0.64258,-0.36696 0.968875,-0.54163 0.02638,-0.0141 0.05817,-0.0149 0.08689,-0.0236 0.08162,-0.0246 0.163016,-0.0495 0.242632,-0.0798 0.129915,-0.0457 0.252758,-0.11399 0.371116,-0.18381 0.122692,-0.0624 0.256453,-0.0979 0.383247,-0.15003 0.09908,-0.0363 0.206921,-0.0375 0.30596,-0.0731 0.04849,-0.0175 0.09492,-0.04 0.14295,-0.0587 0.14137,-0.0767 0.299925,-0.11096 0.447651,-0.17375 -0.06746,0.0694 0.31212,-0.15675 0.213524,-0.10152 -1.442756,0.80819 -0.994358,0.5691 -0.686549,0.37861 0.163611,-0.10537 0.333868,-0.2002 0.500273,-0.30113 0.449717,-0.27871 0.915774,-0.53197 1.376529,-0.79207 -1.711118,0.98399 -0.357716,0.17984 0.24058,-0.13222 0.07206,-0.0375 0.148695,-0.064 0.222512,-0.0978 0.13337,-0.0516 0.274372,-0.0751 0.406075,-0.13139 0.131232,-0.0465 0.267508,-0.072 0.395411,-0.12787 0.145683,-0.0529 0.299034,-0.0842 0.444953,-0.13668 0.165206,-0.0451 0.319195,-0.11777 0.47726,-0.18123 0.171402,-0.0536 0.336646,-0.1242 0.508926,-0.17485 0.154167,-0.0386 0.305632,-0.0897 0.455562,-0.1423 0.178158,-0.0547 0.348464,-0.1312 0.529568,-0.17673 0.186585,-0.0464 0.373971,-0.0814 0.565415,-0.10133 0.160069,-0.027 0.314209,-0.0748 0.472963,-0.10679 0.173846,-0.0412 0.35187,-0.0617 0.52676,-0.0974 0.18105,-0.0462 0.369123,-0.045 0.552322,-0.0759 0.182888,-0.0281 0.366218,-0.045 0.548466,-0.0768 0.186496,-0.0339 0.376406,-0.0384 0.565445,-0.0433 0.211897,-0.003 0.423824,-0.003 0.635737,-0.003 0.212657,-0.004 0.423104,-0.002 0.634231,0.0232 0.200723,0.0207 0.40089,0.0351 0.600844,0.062 0.231777,0.0245 0.463674,0.0375 0.695065,0.0653 0.226734,0.0249 0.450172,0.0726 0.674056,0.11474 0.248815,0.0508 0.501342,0.0782 0.751958,0.11795 0.252244,0.0271 0.499904,0.0772 0.747109,0.13182 0.262489,0.0772 0.523346,0.1605 0.783444,0.24545 0.291347,0.0819 0.583049,0.16077 0.87371,0.24489 0.258045,0.0819 0.520044,0.15117 0.783326,0.21473 0.257124,0.0714 0.510306,0.15497 0.770925,0.21381 0.23847,0.0516 0.470452,0.12454 0.702087,0.19974 0.217915,0.0865 0.442869,0.15449 0.660089,0.24267 0.217113,0.0826 0.438786,0.1513 0.660525,0.22042 0.244742,0.0718 0.491452,0.13584 0.733118,0.21748 0.27562,0.1014 0.541747,0.22432 0.815229,0.33096 0.28531,0.11049 0.558959,0.24503 0.842743,0.35893 0.356297,0.13959 0.709175,0.28784 1.057893,0.44487 0.358974,0.16682 0.702761,0.36192 1.055539,0.54058 0.288181,0.14605 0.582176,0.28082 0.869143,0.42914 0.232521,0.14612 0.460551,0.2988 0.692698,0.44566 0.281155,0.17585 0.532641,0.39204 0.786613,0.60283 0.293836,0.27852 0.591043,0.55294 0.897051,0.81857 0.329398,0.26701 0.647951,0.54621 0.960555,0.8319 0.252279,0.24972 0.501547,0.50303 0.739689,0.76586 0.21607,0.23075 0.444725,0.4496 0.663439,0.6778 0.251262,0.27679 0.466748,0.58219 0.692297,0.87897 0.189964,0.28291 0.403784,0.54771 0.629384,0.80354 0.219303,0.26276 0.428699,0.53312 0.63312,0.80712 0.198331,0.27114 0.383794,0.551 0.57465,0.82716 0.202874,0.29095 0.346807,0.61416 0.503078,0.93005 0.149115,0.28864 0.27334,0.58875 0.386185,0.89256 0.0776,0.24842 0.167127,0.49288 0.250252,0.73954 0.06972,0.21338 0.146887,0.42412 0.226256,0.63417 0.105053,0.26772 0.239324,0.5227 0.358503,0.78449 0.139159,0.31514 0.261709,0.63687 0.384096,0.95853 0.0872,0.19348 0.150022,0.39559 0.21151,0.59795 0.06001,0.27643 0.149886,0.54472 0.232614,0.81501 0.103139,0.33604 0.201531,0.67311 0.295982,1.01161 0.08797,0.32072 0.154028,0.64667 0.203722,0.97506 0.02616,0.24715 0.07156,0.49185 0.122784,0.73502 0.0639,0.27687 0.116379,0.55588 0.168745,0.83504 0.04954,0.25537 0.06866,0.5142 0.0759,0.77358 -0.0027,0.31562 0.0097,0.63022 0.02982,0.94514 0.0224,0.30708 0.03163,0.61471 0.03632,0.92247 -0.0046,0.32675 -0.0594,0.64958 -0.0908,0.97431 -0.03422,0.39004 -0.04048,0.78174 -0.04331,1.17299 -0.0033,0.37812 -0.06545,0.75264 -0.159778,1.11837 -0.104961,0.34152 -0.229232,0.67632 -0.330331,1.01904 -0.108025,0.38982 -0.228092,0.77551 -0.371198,1.15427 -0.139111,0.36325 -0.285417,0.72379 -0.432313,1.08406 -0.149466,0.37719 -0.306121,0.75152 -0.463445,1.12561 -0.174503,0.40949 -0.391307,0.79987 -0.619477,1.18248 -0.231575,0.38209 -0.444877,0.77385 -0.647617,1.17125 -0.210069,0.42503 -0.40742,0.85588 -0.611656,1.28361 -0.201889,0.43359 -0.455281,0.84062 -0.697769,1.25277 -0.245005,0.42067 -0.480921,0.84607 -0.734787,1.26174 -0.28566,0.44711 -0.572993,0.8931 -0.861734,1.33832 -0.301678,0.45697 -0.603245,0.91401 -0.946474,1.34219 -0.323397,0.40546 -0.730608,0.73 -1.128221,1.06099 -0.416406,0.35686 -0.844061,0.70097 -1.293936,1.01637 -0.744164,0.50002 -1.539073,0.92247 -2.324656,1.35529 -0.525403,0.28372 -1.051235,0.56726 -1.582905,0.83947 -0.53214,0.2684 -1.077378,0.50884 -1.624908,0.74492 -0.529078,0.22483 -1.059619,0.4444 -1.575842,0.69691 -0.495701,0.27181 -1.006788,0.51451 -1.510235,0.77197 -0.49527,0.23565 -0.995661,0.46016 -1.482531,0.71238 -0.446925,0.24191 -0.901949,0.46646 -1.37225,0.66102 -0.42907,0.1683 -0.868649,0.30422 -1.315764,0.41687 -0.42682,0.0816 -0.85704,0.14443 -1.283996,0.2261 -0.398725,0.0772 -0.798982,0.13982 -1.205693,0.14977 -0.400372,0.012 -0.794068,-0.0556 -1.185986,-0.12519 -0.370024,-0.0798 -0.746269,-0.1252 -1.118833,-0.19128 -0.353056,-0.0487 -0.703485,-0.11152 -1.053072,-0.18007 -0.341211,-0.0701 -0.679706,-0.15188 -1.019647,-0.22748 -0.309937,-0.0588 -0.621236,-0.11057 -0.930494,-0.17278 -0.308047,-0.0738 -0.609869,-0.16985 -0.914261,-0.25655 -0.321437,-0.0947 -0.644921,-0.18325 -0.970783,-0.26204 -0.330296,-0.0722 -0.654429,-0.16694 -0.975591,-0.27141 -0.326394,-0.0958 -0.65971,-0.16389 -0.9855,-0.26168 -0.329884,-0.0971 -0.644984,-0.23127 -0.955357,-0.37605 -0.335563,-0.16025 -0.673065,-0.3182 -1.004301,-0.48709 -0.295075,-0.15632 -0.589652,-0.31319 -0.877921,-0.48133 -0.264875,-0.16752 -0.554373,-0.2913 -0.826478,-0.44557 -0.296674,-0.15889 -0.544466,-0.38151 -0.780514,-0.61537 -0.295342,-0.28931 -0.598579,-0.5702 -0.913644,-0.8387 -0.337817,-0.26786 -0.640699,-0.57297 -0.9428284,-0.87808 -0.3303717,-0.35823 -0.6707841,-0.70736 -1.0032548,-1.06365 -0.3404021,-0.37479 -0.6339116,-0.78688 -0.9470421,-1.18336 -0.3272551,-0.40612 -0.6729648,-0.79701 -1.0029926,-1.20085 -0.2385045,-0.31558 -0.4608659,-0.64207 -0.7112489,-0.94886 -0.2569898,-0.31583 -0.5216096,-0.62554 -0.7764659,-0.94307 -0.2702932,-0.35182 -0.5499694,-0.69657 -0.8187839,-1.04949 -0.237785,-0.3209 -0.4572074,-0.65429 -0.6807466,-0.98475 -0.2039561,-0.30679 -0.4213133,-0.60465 -0.6214733,-0.91391 -0.1677367,-0.28388 -0.3379711,-0.5675 -0.4788758,-0.86542 -0.1031882,-0.25321 -0.2326441,-0.49429 -0.3551121,-0.73863 -0.1057009,-0.22541 -0.1849731,-0.46049 -0.2631417,-0.69604 -0.09292,-0.30297 -0.209756,-0.59712 -0.3416839,-0.8855 -0.1098205,-0.22831 -0.2044764,-0.46227 -0.2865143,-0.70137 -0.081256,-0.24831 -0.1714,-0.49344 -0.2590498,-0.73958 -0.085044,-0.23415 -0.1799587,-0.46451 -0.26428553,-0.69896 -0.0751561,-0.20575 -0.12192187,-0.41943 -0.17338395,-0.63156 -0.0463587,-0.21759 -0.0927828,-0.43539 -0.12741694,-0.65516 -0.021207,-0.18572 -0.0472147,-0.37076 -0.0802729,-0.55483 -0.0433382,-0.25165 -0.0981644,-0.50157 -0.15781964,-0.75 -0.0548292,-0.24509 -0.10208076,-0.49213 -0.14511332,-0.73951 -0.0365752,-0.21017 -0.0439172,-0.42367 -0.0479326,-0.63641 -0.001838,-0.24201 -4.4181e-4,-0.48403 -0.001206,-0.72606 -0.001492,-0.20931 -9.595e-4,-0.41862 -8.627e-5,-0.62794 0.001087,-0.2447 0.001413,-0.48941 0.001631,-0.73412 8.5227e-4,-0.23906 0.0467242,-0.47264 0.10508997,-0.70355 0.0617222,-0.21367 0.15238349,-0.41723 0.21330996,-0.63121 0.0601615,-0.24677 0.0659352,-0.5015 0.0931032,-0.75287 0.0154577,-0.23522 0.0502165,-0.46713 0.0999712,-0.69748 0.060916,-0.27855 0.1022354,-0.55943 0.1263399,-0.84319 0.0177373,-0.27657 0.0655003,-0.54727 0.14679719,-0.81232 0.0808068,-0.22164 0.17287093,-0.43893 0.27098273,-0.65366 0.1094332,-0.22866 0.2049119,-0.46327 0.3242009,-0.68728 0.116636,-0.19728 0.2401615,-0.3898 0.3491194,-0.59143 0.1151557,-0.2195 0.238381,-0.43423 0.3448397,-0.65802 0.098611,-0.2128 0.2126638,-0.41818 0.3119957,-0.63062 0.082709,-0.1713 0.1689324,-0.34079 0.2477546,-0.51394 0.090872,-0.19595 0.190241,-0.38805 0.2878747,-0.58085 0.1125133,-0.20471 0.2173508,-0.41393 0.3439177,-0.61073 0.1283002,-0.17902 0.2738288,-0.34497 0.403367,-0.52316 0.1225998,-0.201 0.2274001,-0.41163 0.3461453,-0.61488 0.1190787,-0.19305 0.2216015,-0.39514 0.3357649,-0.59097 0.1165537,-0.1893 0.2515962,-0.36692 0.3940078,-0.53805 0.1785822,-0.20216 0.3354379,-0.42065 0.4976181,-0.63526 0.160313,-0.21832 0.3267924,-0.43212 0.5137499,-0.62916 0.1649855,-0.14648 0.3181035,-0.30072 0.4514724,-0.47553 0.1227086,-0.17078 0.2456639,-0.34135 0.3710453,-0.51026 0.1444812,-0.18331 0.2993836,-0.35831 0.4463308,-0.5397 0.113349,-0.1454 0.2274661,-0.28878 0.3559829,-0.42159 0.1278498,-0.12745 0.2599601,-0.25035 0.380622,-0.3845 0.1267699,-0.13357 0.2349717,-0.28213 0.3537883,-0.42213 0.116976,-0.11992 0.2422876,-0.23209 0.3683963,-0.34269 0.1198689,-0.0974 0.2232232,-0.21193 0.3405388,-0.31208 0.1159948,-0.10472 0.2496344,-0.18589 0.3820975,-0.26827 0.143314,-0.0923 0.2726522,-0.20373 0.3936775,-0.32246 0.1151791,-0.11746 0.2074116,-0.25307 0.3073716,-0.38253 0.10606,-0.12778 0.236733,-0.23311 0.360035,-0.34425 0.13492,-0.12229 0.265783,-0.24878 0.396323,-0.37554 0.382027,-0.3421 0.901272,-0.57219 1.32971,-0.81453 0.397747,-0.22387 -0.497687,0.28288 -0.747662,0.42238 -0.02425,0.0135 0.04699,-0.0294 0.07025,-0.0447 0.0657,-0.0427 0.131115,-0.0857 0.195129,-0.13069 0.112902,-0.0911 0.227693,-0.17946 0.345282,-0.26461 0.427333,-0.29769 0.898426,-0.54085 1.348733,-0.7972 -0.269007,0.15235 -1.07615,0.60919 -0.80702,0.45705 0.325255,-0.18386 0.649208,-0.36997 0.975394,-0.55225 0.0286,-0.016 0.05948,-0.0276 0.08876,-0.0424 0.02847,-0.0143 0.112161,-0.0605 0.08447,-0.0448 -0.269023,0.15274 -1.077575,0.60847 -0.808486,0.45583 0.322047,-0.18268 0.644904,-0.36397 0.967355,-0.54595 -1.52604,0.87311 -0.83698,0.49181 -0.508108,0.26312 0.08821,-0.0684 0.168588,-0.14509 0.26164,-0.20749 0.0758,-0.0509 0.152552,-0.0998 0.223761,-0.15674 0,0 0.96359,-0.39159 0.96359,-0.39159 v 0 c -0.06207,0.0733 -0.132971,0.12282 -0.214362,0.17397 -0.09431,0.0618 -0.183679,0.121 -0.265352,0.19836 -0.356844,0.33165 -0.967273,0.40542 -1.270572,0.76155 0.270643,-0.15377 1.084484,-0.61178 0.811929,-0.46131 -0.32558,0.17976 -0.646729,0.36714 -0.971013,0.54914 -1.015478,0.5699 2.812603,-1.60815 -0.339395,0.18507 1.545474,-0.88135 0.768168,-0.44609 0.42695,-0.22301 -0.115014,0.088 -0.235141,0.16847 -0.346412,0.26129 -0.06135,0.0551 -0.125161,0.0929 -0.193545,0.13861 -0.352398,0.23524 -0.728091,0.43535 -1.101469,0.6377 1.572664,-0.89647 0.765323,-0.46873 0.440784,-0.21697 -0.130261,0.12721 -0.260586,0.25443 -0.394113,0.37836 -0.120695,0.11098 -0.245003,0.21799 -0.365806,0.32882 -0.104713,0.12805 -0.193399,0.26725 -0.304386,0.39037 -0.112384,0.1298 -0.245661,0.24112 -0.383057,0.34477 -0.127962,0.0873 -0.269605,0.15482 -0.3863667,0.25747 -0.1214714,0.097 -0.2307147,0.20428 -0.3412416,0.31317 -0.1329449,0.10007 -0.2476343,0.22147 -0.3736483,0.32973 -0.1327116,0.12872 -0.2270822,0.28937 -0.3578032,0.42048 -0.1178178,0.13687 -0.2423008,0.26617 -0.3755579,0.3889 -0.1318801,0.13025 -0.2559415,0.26534 -0.3654842,0.41448 -0.1460084,0.18071 -0.2951086,0.35886 -0.4473295,0.53459 -0.1222443,0.17072 -0.2503516,0.33732 -0.3702681,0.5097 -0.1271535,0.18398 -0.2729518,0.35053 -0.4490177,0.49168 -0.1959509,0.18687 -0.3627918,0.40015 -0.5214367,0.61803 -0.1646644,0.21233 -0.3150025,0.43505 -0.4916911,0.63836 -0.1440877,0.16606 -0.2771628,0.34047 -0.3998486,0.52239 -0.1189975,0.19358 -0.2188894,0.39712 -0.3364764,0.5914 -0.1243665,0.20182 -0.2335733,0.4117 -0.3433157,0.62142 -0.1231497,0.18242 -0.2640397,0.35098 -0.4035401,0.52139 -0.1345709,0.18943 -0.2355935,0.3972 -0.3478777,0.59985 -0.1010185,0.18879 -0.1931763,0.38259 -0.2878842,0.57437 -0.077125,0.17482 -0.1589068,0.347 -0.2494149,0.51542 -0.095891,0.21554 -0.2147031,0.41966 -0.3141382,0.63359 -0.1077037,0.22387 -0.2223144,0.44317 -0.3419371,0.6612 -0.1057609,0.20417 -0.2233868,0.40033 -0.3484332,0.59362 -0.1280373,0.21863 -0.2210188,0.45287 -0.3295808,0.68101 -0.097689,0.21151 -0.1854605,0.42665 -0.2736364,0.64201 -0.088712,0.25813 -0.1485488,0.52152 -0.1635915,0.79457 -0.022307,0.28602 -0.057105,0.56987 -0.1135678,0.85145 -0.04864,0.22808 -0.096609,0.45584 -0.107174,0.68962 -0.028522,0.25526 -0.036742,0.51267 -0.084786,0.76538 -0.052863,0.21619 -0.1377376,0.42048 -0.2114525,0.63005 -0.060444,0.22389 -0.1156148,0.44933 -0.1201617,0.68243 2.144e-4,0.2442 5.545e-4,0.48839 0.00151,0.73259 7.143e-4,0.20958 9.169e-4,0.41916 -0.00128,0.62873 -0.00141,0.24115 -0.00167,0.48235 0.00182,0.72349 0.00395,0.20831 0.00863,0.41723 0.040394,0.62365 0.039807,0.24606 0.084543,0.49174 0.137304,0.73536 0.061631,0.24888 0.1173046,0.49942 0.1664048,0.75091 0.038322,0.18464 0.065246,0.37152 0.08138,0.55926 0.030184,0.21757 0.077793,0.43207 0.1229413,0.647 0.05144,0.20872 0.095025,0.41963 0.1662826,0.62319 0.085074,0.23453 0.1750048,0.46716 0.2617148,0.70108 0.086758,0.24651 0.1804991,0.49063 0.2619555,0.73894 0.081771,0.23602 0.1715263,0.46873 0.2764259,0.696 0.1322172,0.2916 0.2484421,0.58931 0.348644,0.89305 0.08009,0.23003 0.1589038,0.46012 0.2605592,0.68214 0.1213619,0.246 0.2451019,0.49096 0.3484833,0.74501 0.1368015,0.29502 0.3088311,0.57264 0.4718074,0.85418 0.1971997,0.31007 0.4110278,0.60932 0.6158853,0.9145 0.2216626,0.32945 0.4402524,0.66121 0.6755219,0.98157 0.2654311,0.3539 0.5443047,0.6979 0.8147393,1.04812 0.2571199,0.31613 0.5258977,0.62282 0.7831792,0.93884 0.2487563,0.30792 0.467602,0.63634 0.7031002,0.95391 0.3254728,0.40735 0.6681942,0.80061 0.9977763,1.20478 0.3145033,0.3924 0.6079006,0.80146 0.9464418,1.17459 0.3321456,0.35545 0.671172,0.70472 1.004947,1.05871 0.303186,0.30056 0.605249,0.60283 0.939561,0.87075 0.316859,0.27062 0.62364,0.55205 0.923306,0.84095 0.233056,0.22574 0.480301,0.43613 0.770085,0.59001 0.274562,0.15089 0.561615,0.27979 0.826689,0.44764 0.286229,0.16647 0.578955,0.32186 0.870668,0.47877 0.331879,0.16612 0.666565,0.32767 1.003708,0.48314 0.308031,0.14057 0.621962,0.26856 0.948364,0.36284 0.327245,0.0952 0.661709,0.1631 0.987555,0.26323 0.319675,0.10147 0.641916,0.19437 0.969833,0.26676 0.326977,0.0825 0.653221,0.16782 0.976538,0.26326 0.300682,0.0893 0.601226,0.18071 0.907502,0.25001 0.310982,0.0596 0.62344,0.11142 0.933734,0.17448 0.336677,0.0795 0.67294,0.16071 1.012449,0.2279 0.35008,0.0653 0.701007,0.12479 1.053207,0.17801 0.372381,0.0645 0.747088,0.11603 1.117229,0.19262 0.386731,0.0683 0.776452,0.12638 1.171032,0.10906 0.403697,-0.0202 0.80094,-0.0862 1.197322,-0.16233 0.425296,-0.0771 0.854168,-0.13617 1.276285,-0.22881 0.443592,-0.11523 0.879682,-0.25591 1.304471,-0.42694 0.466073,-0.19771 0.916607,-0.42594 1.362833,-0.66352 0.488605,-0.24782 0.989098,-0.47131 1.481667,-0.71129 0.504858,-0.25527 1.012859,-0.50436 1.511823,-0.77065 0.517594,-0.24725 1.048182,-0.46473 1.575409,-0.69113 0.546666,-0.23628 1.089841,-0.47987 1.620248,-0.75 0.530199,-0.27544 1.058103,-0.55536 1.582013,-0.84217 0.08569,-0.0471 0.341078,-0.19121 0.257077,-0.14127 -0.201441,0.11977 -0.406371,0.23378 -0.609496,0.35078 -0.08053,0.0464 0.161269,-0.0924 0.241703,-0.13894 0.19868,-0.11495 0.291617,-0.16773 0.485103,-0.29084 0.07978,-0.0507 0.158115,-0.10367 0.237172,-0.15552 0.451576,-0.30859 0.878328,-0.64986 1.291894,-1.00596 0.395484,-0.33081 0.809529,-0.6456 1.138221,-1.04465 0.350136,-0.42096 0.649177,-0.87792 0.951423,-1.33267 0.28805,-0.443 0.572479,-0.88799 0.856593,-1.33342 0.256329,-0.41451 0.494747,-0.83869 0.737921,-1.26067 0.238624,-0.41186 0.494525,-0.81492 0.699517,-1.24463 0.204585,-0.42765 0.402467,-0.85821 0.608851,-1.28502 0.202229,-0.39889 0.410379,-0.79441 0.64353,-1.17706 0.229119,-0.37873 0.447767,-0.76504 0.62595,-1.16973 0.155202,-0.37274 0.308838,-0.74603 0.45634,-1.12177 0.149625,-0.35979 0.296675,-0.72066 0.437902,-1.0837 0.144221,-0.37561 0.267537,-0.75739 0.371824,-1.14571 0.09784,-0.34208 0.214339,-0.67753 0.326258,-1.01534 0.103188,-0.35801 0.17207,-0.72663 0.179419,-1.09952 0.0036,-0.39249 0.0016,-0.78562 0.03264,-1.17723 0.02991,-0.32116 0.07997,-0.64037 0.09188,-0.96287 -0.0036,-0.30688 -0.01077,-0.6138 -0.02986,-0.92019 -0.01984,-0.31472 -0.04207,-0.62896 -0.03834,-0.94455 -0.0082,-0.25472 -0.0211,-0.50974 -0.06663,-0.76119 -0.05072,-0.27826 -0.104229,-0.55579 -0.169102,-0.83122 -0.05544,-0.24505 -0.104806,-0.49213 -0.124553,-0.74278 -0.04119,-0.32608 -0.107092,-0.64846 -0.190409,-0.96668 -0.09605,-0.33699 -0.192947,-0.67345 -0.29915,-1.00752 -0.08202,-0.26944 -0.179086,-0.53466 -0.24164,-0.80959 -0.06359,-0.20035 -0.121338,-0.40269 -0.202827,-0.59708 -0.11285,-0.32259 -0.233074,-0.6428 -0.375069,-0.95431 -0.121736,-0.26284 -0.263708,-0.51613 -0.371583,-0.78492 -0.08097,-0.21119 -0.158299,-0.42355 -0.227628,-0.63871 -0.07919,-0.24702 -0.170374,-0.49016 -0.244069,-0.73892 -0.109745,-0.30141 -0.227967,-0.60048 -0.374237,-0.88695 -0.154121,-0.31143 -0.299969,-0.62847 -0.49977,-0.91524 -0.189918,-0.27517 -0.372851,-0.55508 -0.57001,-0.82542 -0.203866,-0.27137 -0.412955,-0.5391 -0.632343,-0.79859 -0.225419,-0.25893 -0.437176,-0.52786 -0.628815,-0.81218 -0.222146,-0.29429 -0.435139,-0.59717 -0.688916,-0.8666 -0.222909,-0.22596 -0.449873,-0.44801 -0.665727,-0.68062 -0.235433,-0.26034 -0.479605,-0.51345 -0.727859,-0.762 -0.311209,-0.28604 -0.630673,-0.56279 -0.959145,-0.82966 -0.305173,-0.26572 -0.601311,-0.54052 -0.898935,-0.81423 -0.253607,-0.20704 -0.506316,-0.41752 -0.788363,-0.58702 -0.228912,-0.1461 -0.452896,-0.29971 -0.685825,-0.43936 -0.285297,-0.14843 -0.577194,-0.28433 -0.862522,-0.43277 -0.349376,-0.18074 -0.691134,-0.37565 -1.050236,-0.53783 -0.349077,-0.15646 -0.704064,-0.29991 -1.061029,-0.43806 -0.283657,-0.11487 -0.559831,-0.24607 -0.845649,-0.35593 -0.271298,-0.10737 -0.535265,-0.23221 -0.812049,-0.32593 -0.243342,-0.0772 -0.491601,-0.13751 -0.735296,-0.21376 -0.224583,-0.0682 -0.447119,-0.14235 -0.666125,-0.22642 -0.216642,-0.0833 -0.437346,-0.15625 -0.654746,-0.23769 -0.230483,-0.0718 -0.461059,-0.14228 -0.697325,-0.19384 -0.258637,-0.0654 -0.512343,-0.14744 -0.7703,-0.21528 -0.263348,-0.0673 -0.526603,-0.13537 -0.785188,-0.21898 -0.289696,-0.0876 -0.583088,-0.16115 -0.872942,-0.24823 -0.259869,-0.0818 -0.519268,-0.16662 -0.78341,-0.23409 -0.244675,-0.0549 -0.491632,-0.0963 -0.740641,-0.12734 -0.25299,-0.0355 -0.505504,-0.0721 -0.756533,-0.11966 -0.221964,-0.0421 -0.444337,-0.0846 -0.669171,-0.10903 -0.232237,-0.0257 -0.465826,-0.0355 -0.697663,-0.0652 -0.199818,-0.0245 -0.400906,-0.0339 -0.600625,-0.0595 -0.208563,-0.0202 -0.417743,-0.0145 -0.6271,-0.0146 -0.211505,1.6e-4 -0.423071,-9.2e-4 -0.634495,0.006 -0.187093,0.007 -0.373989,0.0205 -0.558172,0.0553 -0.182812,0.0292 -0.367543,0.0438 -0.550125,0.0747 -0.183703,0.0211 -0.36798,0.0377 -0.548604,0.079 -0.176568,0.03 -0.352193,0.0635 -0.52713,0.10178 -0.158133,0.0376 -0.315707,0.0789 -0.477795,0.0975 -0.187723,0.0247 -0.372203,0.0648 -0.554749,0.11447 -0.176779,0.057 -0.349905,0.12449 -0.52686,0.18114 -0.1518,0.0501 -0.303754,0.0998 -0.45822,0.14153 -0.168262,0.0574 -0.335905,0.11703 -0.501905,0.18043 -0.158515,0.0667 -0.319362,0.12707 -0.484466,0.17658 -0.148887,0.043 -0.298238,0.0857 -0.44276,0.14157 -0.131829,0.0431 -0.266878,0.0761 -0.395854,0.12734 -0.134453,0.0431 -0.273046,0.0751 -0.400931,0.13573 -0.07363,0.0318 -0.144646,0.0654 -0.215372,0.10319 -0.02618,0.0139 -0.104152,0.0567 -0.07843,0.042 0.480069,-0.27476 1.8621,-1.0563 -0.161875,0.0895 1.562952,-0.88854 0.75325,-0.43268 0.400358,-0.2187 -0.161911,0.10636 -0.334341,0.19566 -0.497921,0.29955 -0.417076,0.27601 -0.845522,0.54864 -1.316007,0.72632 -0.151212,0.0543 -0.302919,0.10667 -0.449134,0.17326 -0.147535,0.0541 -0.302906,0.0773 -0.449951,0.13271 -0.128502,0.0447 -0.255471,0.0956 -0.374083,0.16191 -0.123145,0.0639 -0.245346,0.13023 -0.380111,0.16827 -0.08063,0.0257 -0.163109,0.0487 -0.24208,0.0791 -0.02666,0.0101 -0.103284,0.0481 -0.07872,0.0337 0.416175,-0.24433 1.128273,-0.64027 0.727672,-0.41728 -0.181595,0.12122 -0.363258,0.2438 -0.493056,0.42165 0,0 -0.961855,0.40118 -0.961855,0.40118 z"
       inkscape:connector-curvature="0" />
    <path
       style="fill:#000000;fill-opacity:1;stroke:none;stroke-width:0.26458332;stroke-opacity:1"
       id="path1186"
       d="m 24.616451,259.04602 c 0.100793,-0.19614 0.212314,-0.38574 0.350852,-0.5576 0.133135,-0.13923 0.255779,-0.28788 0.376348,-0.438 0.117385,-0.17711 0.273575,-0.31353 0.450665,-0.42772 0.355291,-0.26535 0.717465,-0.40204 1.125405,-0.52639 0.210582,-0.0728 0.420624,-0.14652 0.639871,-0.18846 0.254672,-0.0486 0.510554,-0.0117 0.763837,0.0248 0.280225,0.0466 0.553116,0.12422 0.824708,0.20596 0.310767,0.0985 0.609579,0.2387 0.88419,0.41402 0.245499,0.15401 0.467037,0.33649 0.657479,0.55453 0.160605,0.23193 0.258027,0.50103 0.371372,0.75796 0.118031,0.26315 0.195403,0.53727 0.238162,0.82175 0.03985,0.26296 0.02839,0.52662 0.0061,0.79019 -0.02199,0.22318 -0.03103,0.44721 -0.03634,0.6713 0.01439,0.23541 -0.05627,0.45162 -0.144896,0.66557 -0.102384,0.24998 -0.25413,0.47422 -0.411102,0.69245 -0.134056,0.18434 -0.244324,0.38441 -0.380952,0.56679 -0.266518,0.32846 -0.662083,0.50186 -1.020863,0.70935 -0.174996,0.10219 -0.358201,0.18974 -0.541431,0.27603 -0.186129,0.0914 -0.378745,0.16329 -0.582347,0.2025 -0.233008,0.0488 -0.459746,0.0327 -0.688671,-0.0241 -0.254775,-0.084 -0.494432,-0.20847 -0.729258,-0.33682 -0.24598,-0.13832 -0.495399,-0.26927 -0.731982,-0.42338 -0.230156,-0.14625 -0.435957,-0.32777 -0.63097,-0.51746 -0.187607,-0.17925 -0.355637,-0.3766 -0.505884,-0.58782 -0.152972,-0.21514 -0.291915,-0.44095 -0.414269,-0.67482 -0.09917,-0.19969 -0.196765,-0.40007 -0.274053,-0.60938 -0.06787,-0.16396 -0.05914,-0.33286 -0.04682,-0.50529 0.02378,-0.18173 4.5e-4,-0.3634 -0.01484,-0.5447 -0.01443,-0.18447 -0.0038,-0.37244 0.02789,-0.55475 0.01942,-0.12028 0.06805,-0.22867 0.123471,-0.33576 0.06136,-0.10725 0.141374,-0.20289 0.233417,-0.28492 0.07175,-0.0579 0.135492,-0.12605 0.188201,-0.20161 0,0 0.544825,-0.2413 0.544825,-0.2413 v 0 c -0.04472,0.0853 -0.110883,0.156 -0.181055,0.22127 -0.0984,0.0708 -0.172309,0.16367 -0.242968,0.26133 -0.05149,0.10512 -0.112667,0.20435 -0.131342,0.32233 -0.04303,0.17468 -0.04752,0.36204 -0.03817,0.54075 0.01525,0.18372 0.04433,0.36784 0.02071,0.55213 -0.01248,0.16443 -0.02982,0.32623 0.03393,0.48369 0.07519,0.20747 0.16855,0.4072 0.267357,0.6044 0.12016,0.232 0.258733,0.45473 0.409752,0.66791 0.149109,0.20793 0.315708,0.40164 0.500869,0.57856 0.192289,0.18709 0.396092,0.36499 0.623441,0.50857 0.236125,0.1524 0.485736,0.28087 0.73024,0.41913 0.231476,0.12534 0.468016,0.2475 0.72105,0.32316 0.225332,0.0482 0.44903,0.0535 0.675278,0.002 0.200141,-0.0468 0.39022,-0.12302 0.574447,-0.21403 0.181848,-0.0883 0.364768,-0.17501 0.538417,-0.27897 -0.888395,0.51763 -0.129091,0.10537 0.01976,-0.10566 0.143867,-0.17736 0.249232,-0.38101 0.383175,-0.56577 0.158498,-0.21345 0.311729,-0.43397 0.416166,-0.67976 0.08875,-0.20681 0.167669,-0.41533 0.153495,-0.645 0.0042,-0.2254 0.01238,-0.45087 0.03554,-0.67524 0.02328,-0.25972 0.04041,-0.51904 0.0013,-0.77869 -0.03947,-0.28001 -0.113456,-0.54959 -0.229336,-0.80842 -0.111268,-0.2513 -0.207417,-0.51429 -0.364466,-0.74135 -0.187293,-0.21271 -0.404051,-0.39222 -0.644753,-0.54257 -0.273166,-0.17024 -0.569356,-0.30606 -0.877787,-0.39907 -0.269927,-0.0796 -0.540964,-0.15627 -0.819748,-0.19869 -0.250917,-0.0343 -0.504221,-0.0617 -0.754737,-0.006 -0.216506,0.0481 -0.425145,0.12261 -0.635379,0.19254 -0.107578,0.035 -0.215032,0.0708 -0.321798,0.10812 -0.195575,0.0684 -0.590863,0.29071 0.212963,-0.1551 -0.180289,0.10181 -0.343502,0.23212 -0.45703,0.40787 -0.120601,0.1508 -0.240079,0.30336 -0.376794,0.43994 -0.144721,0.1626 -0.258768,0.34927 -0.351499,0.54602 0,0 -0.543169,0.24213 -0.543169,0.24213 z"
       inkscape:connector-curvature="0" />
    <path
       style="fill:#000000;fill-opacity:1;stroke:none;stroke-width:0.26458332;stroke-opacity:1"
       id="path1188"
       d="m 23.348103,263.45413 c -0.236438,-0.14644 -0.473517,-0.29116 -0.702704,-0.44889 -0.256448,-0.17539 -0.505097,-0.36245 -0.750617,-0.55282 -0.160065,-0.11794 -0.324928,-0.23013 -0.501236,-0.32242 -0.183008,-0.0946 -0.357282,-0.20422 -0.531811,-0.31327 -0.162244,-0.10576 -0.323461,-0.21457 -0.506781,-0.27986 -0.117071,-0.0553 -0.240873,-0.0929 -0.358215,-0.14759 -0.120487,-0.0642 -0.241239,-0.11425 -0.375769,-0.14072 -0.134525,-0.0256 -0.272273,-0.0118 -0.406752,-0.0337 -0.128552,-0.017 -0.25312,-0.054 -0.382623,-0.0605 -0.118463,-10e-4 -0.236925,0.002 -0.355376,0.004 -0.133738,-0.001 -0.265205,-0.0344 -0.398271,-0.0493 -0.128222,-0.002 -0.243741,0.0418 -0.364111,0.077 -0.148447,0.0232 -0.292923,0.0614 -0.441883,0.0825 -0.157467,0.0268 -0.303262,0.0888 -0.450206,0.14818 -0.180402,0.10009 -0.519653,0.26896 0.30423,-0.17499 0.02466,-0.0133 -0.04535,0.0329 -0.068,0.0494 -0.110886,0.0807 -0.02209,0.0165 -0.133438,0.0968 -0.285415,0.22361 -0.612055,0.38436 -0.925194,0.56483 0.805728,-0.47373 0.439832,-0.26361 0.275233,-0.13715 -0.07503,0.0577 -0.145364,0.12042 -0.215564,0.18374 -0.132724,0.10358 -0.255067,0.21694 -0.37477,0.33492 -0.119647,0.10595 -0.236331,0.2143 -0.347456,0.32912 -0.09894,0.0957 -0.169527,0.21306 -0.24243,0.32835 -0.07525,0.10492 -0.132067,0.21941 -0.184143,0.33704 -0.04802,0.13331 -0.0993,0.26529 -0.157509,0.3945 -0.05203,0.13483 -0.133966,0.25297 -0.22084,0.3672 -0.09089,0.11613 -0.165223,0.24328 -0.237444,0.37144 -0.07112,0.13135 -0.136723,0.26554 -0.20442,0.39865 -0.06877,0.12919 -0.126812,0.263 -0.181987,0.39841 -0.04794,0.12265 -0.107348,0.23894 -0.18204,0.34728 -0.09233,0.13983 -0.166143,0.28981 -0.237757,0.44098 -0.06635,0.1518 -0.108579,0.3132 -0.149497,0.47344 -0.03268,0.13078 -0.04382,0.26253 -0.02677,0.39597 0.01508,0.16455 0.108093,0.29929 0.199641,0.43132 0.101132,0.14242 0.231478,0.25267 0.363559,0.36378 0.09828,0.0793 0.217799,0.11867 0.332391,0.16656 0.123248,0.0519 0.255329,0.0682 0.387468,0.0776 0.128197,0.01 0.25266,0.0106 0.377826,-0.0183 0.183088,-0.0946 0.456156,-0.24826 -0.374508,0.21837 -0.01789,0.0101 0.035,-0.0215 0.05181,-0.0332 0.04576,-0.032 0.06996,-0.054 0.113233,-0.0904 0.137871,-0.12395 0.240924,-0.27596 0.329539,-0.43718 0.08794,-0.16495 0.154016,-0.33952 0.219963,-0.51399 0.06908,-0.19109 0.113974,-0.38944 0.162829,-0.58629 0.03515,-0.16935 0.10422,-0.32795 0.16286,-0.48971 0.06321,-0.15597 0.107864,-0.31885 0.147568,-0.48217 0.03936,-0.15256 0.08822,-0.30226 0.13258,-0.45334 0.03937,-0.12627 0.105204,-0.24142 0.160927,-0.36067 0.074,-0.15751 0.129408,-0.32258 0.187577,-0.48629 0.03991,-0.13421 0.10308,-0.25371 0.19482,-0.35872 0.105087,-0.11894 0.233119,-0.21282 0.355577,-0.31247 0.282403,-0.21019 0.58288,-0.41034 0.908344,-0.54509 0.118393,-0.0283 0.227449,-0.0831 0.350463,-0.0797 0.113373,0.005 0.215349,0.0598 0.310479,0.11736 0.117681,0.0845 0.243114,0.15727 0.367527,0.23135 0.156989,0.0913 0.309566,0.18671 0.452087,0.29957 0.142251,0.12979 0.292108,0.24909 0.448777,0.3608 0.117606,0.0972 0.269069,0.15957 0.358115,0.28657 0.08381,0.17019 -0.02364,0.32968 -0.09794,0.48326 -0.121418,0.23728 -0.259755,0.46534 -0.388576,0.69864 -0.128237,0.23509 -0.288299,0.45116 -0.449993,0.66401 -0.12362,0.14011 -0.251028,0.27697 -0.376582,0.41548 -0.118009,0.12536 -0.191901,0.28128 -0.282808,0.42555 -0.07754,0.1313 -0.169381,0.25319 -0.257222,0.37755 -0.08195,0.11703 -0.1615,0.23583 -0.249611,0.34838 -0.06855,0.0925 -0.147969,0.17535 -0.229266,0.25653 -0.0983,0.10475 -0.211711,0.19265 -0.319507,0.28705 -0.168861,0.14832 -0.321225,0.31223 -0.465896,0.48373 -0.12089,0.15501 -0.216438,0.32757 -0.325214,0.49098 -0.09962,0.1769 -0.204925,0.34896 -0.329197,0.50964 -0.09428,0.12791 -0.201253,0.24555 -0.30252,0.36791 -0.103713,0.13716 -0.204085,0.27688 -0.302158,0.41813 -0.127093,0.18666 -0.237087,0.38434 -0.339867,0.58523 -0.08387,0.16505 -0.161117,0.33298 -0.227044,0.50594 -0.06428,0.169 -0.119641,0.34022 -0.164978,0.51524 -0.06268,0.24454 -0.130164,0.48816 -0.210048,0.72768 -0.06257,0.1832 -0.12825,0.36545 -0.204747,0.54334 -0.06924,0.15997 -0.14758,0.31572 -0.213219,0.47724 -0.08765,0.20657 -0.166885,0.41646 -0.247516,0.62584 -0.08929,0.22818 -0.205128,0.44501 -0.322811,0.65955 -0.138871,0.22695 -0.248415,0.46906 -0.349137,0.7148 -0.0969,0.23071 -0.186143,0.46407 -0.266094,0.70114 -0.07241,0.21488 -0.132662,0.43316 -0.189604,0.65254 -0.05379,0.22903 -0.09199,0.46106 -0.139273,0.69142 -0.03979,0.20592 -0.08487,0.41088 -0.132272,0.6152 -0.03939,0.18193 -0.08425,0.36262 -0.132658,0.54234 -0.05941,0.2273 -0.09641,0.45792 -0.118879,0.69151 -0.0065,0.25532 0.01673,0.51024 0.03135,0.76496 -0.0035,0.18687 0.03797,0.3698 0.0462,0.5556 -0.0053,0.20234 -0.01824,0.40436 -0.02519,0.60667 -0.01189,0.19087 -8.47e-4,0.38175 0.03893,0.5688 0.02574,0.14247 0.07862,0.27491 0.134219,0.40738 0.05849,0.14057 0.132113,0.27322 0.20927,0.40421 0.05507,0.11035 0.131997,0.21185 0.238836,0.27564 0.115453,0.0251 0.22496,-0.0167 0.335917,-0.0428 0.234805,-0.0611 0.799147,-0.40601 -0.07269,0.089 0.195082,-0.12937 0.355726,-0.29863 0.506439,-0.47579 0.205054,-0.25014 0.361915,-0.53239 0.510776,-0.81803 0.132731,-0.26726 0.264697,-0.53484 0.420564,-0.78952 0.16124,-0.23783 0.32172,-0.47331 0.452291,-0.72978 0.162726,-0.33893 0.274005,-0.69785 0.390744,-1.05411 0.111949,-0.32312 0.236711,-0.64128 0.34713,-0.96493 0.09193,-0.26951 0.197953,-0.53362 0.303745,-0.79782 0.105785,-0.23145 0.166644,-0.47786 0.224115,-0.72451 0.05245,-0.26161 0.112337,-0.52084 0.191468,-0.77566 0.07093,-0.20127 0.168106,-0.39161 0.236298,-0.59388 0.06002,-0.15409 0.07692,-0.32498 0.176564,-0.4603 0.399612,-0.36828 0.522025,-0.39138 0.904725,-0.2764 0.167473,0.0418 0.327612,0.10368 0.487665,0.16707 0.157154,0.0836 0.313672,0.16918 0.469587,0.25552 0.187585,0.0893 0.374753,0.17917 0.561152,0.27106 0.190553,0.095 0.380512,0.18606 0.555946,0.30775 0.15066,0.0937 0.27531,0.21932 0.408162,0.33478 0.109937,0.0902 0.169532,0.20744 0.222891,0.33545 0.07178,0.20648 0.135714,0.41531 0.17646,0.63019 0.05174,0.24941 0.08237,0.50238 0.136704,0.75126 0.04934,0.2357 0.09335,0.47291 0.129818,0.71099 0.02933,0.28316 0.06086,0.56623 0.08398,0.85005 0.01454,0.26551 0.05515,0.52851 0.07747,0.79338 0.01237,0.2147 0.04836,0.42713 0.08517,0.63872 0.04057,0.24974 0.11343,0.48841 0.210133,0.72154 0.08615,0.22295 0.18976,0.43775 0.31647,0.64036 0.09521,0.13982 0.207346,0.27037 0.345546,0.36901 0.137634,0.0946 0.298486,0.15235 0.45623,0.20464 0.198826,0.061 0.407708,0.0703 0.614063,0.0778 0.204071,0.0193 0.398236,-0.004 0.596039,-0.0512 0.178489,-0.06 0.343093,-0.15255 0.520589,-0.21578 0.249283,-0.0687 0.809672,-0.39732 -0.108127,0.1237 0.140338,-0.0788 0.177324,-0.23089 0.21307,-0.37698 0.06323,-0.30985 0.0314,-0.62576 -0.0011,-0.93703 -0.04294,-0.35914 -0.148893,-0.70627 -0.228915,-1.05804 -0.07932,-0.35187 -0.15199,-0.70528 -0.22138,-1.05925 -0.06392,-0.29161 -0.12551,-0.58377 -0.191731,-0.87487 -0.05037,-0.22461 -0.09074,-0.45182 -0.126043,-0.67932 -0.03517,-0.229 -0.07042,-0.45735 -0.09159,-0.68818 -0.02273,-0.22666 -0.06602,-0.44997 -0.104193,-0.67424 -0.04478,-0.18958 -0.08153,-0.38061 -0.103348,-0.57419 -0.03238,-0.13355 -0.057,-0.26734 -0.07001,-0.40418 0.0019,-0.12906 -0.02873,-0.2532 -0.05143,-0.37914 -0.0075,-0.11868 -0.06214,-0.219 -0.118005,-0.32057 -0.109783,-0.17396 -0.248593,-0.32541 -0.388811,-0.47489 -0.128967,-0.16094 -0.303561,-0.26895 -0.458895,-0.40014 -0.162213,-0.14014 -0.302867,-0.30321 -0.432838,-0.47313 -0.112166,-0.14493 -0.216954,-0.29511 -0.306229,-0.45523 -0.101498,-0.16974 -0.177014,-0.3526 -0.274624,-0.52437 -0.06988,-0.1426 -0.174704,-0.26232 -0.272707,-0.38555 -0.07722,-0.073 -0.140867,-0.15542 -0.205621,-0.2388 -0.08109,-0.10358 -0.07651,-0.2038 -0.04179,-0.324 0.07349,-0.197 0.163713,-0.38753 0.256993,-0.57585 0.06864,-0.14614 0.144875,-0.28944 0.242268,-0.41851 0.08293,-0.10227 0.161419,-0.20764 0.235887,-0.31624 0.06448,-0.10291 0.117473,-0.21284 0.16703,-0.32362 0.05457,-0.11687 0.100044,-0.23758 0.153912,-0.35471 0.03805,-0.10255 0.07177,-0.205 0.12729,-0.2998 0.11695,-0.18955 0.559326,-0.508 0.672095,-0.33415 0.01553,0.0239 0.02365,0.052 0.03548,0.0779 0.08029,0.19172 0.122922,0.39588 0.152389,0.60078 0.0048,0.13966 0.03717,0.27461 0.06193,0.41136 0.01123,0.12704 0.04274,0.25051 0.06468,0.37584 0.01969,0.13435 0.05557,0.26519 0.07531,0.39966 0.01553,0.13369 0.01519,0.26749 0.03773,0.4003 0.01683,0.13577 0.05656,0.26665 0.08347,0.40044 0.03493,0.11298 0.07793,0.22487 0.129834,0.33118 0.0419,0.0901 0.101911,0.17227 0.172526,0.24207 0.113395,0.12888 0.209417,0.27207 0.301441,0.41663 0.09561,0.15346 0.220763,0.28232 0.312743,0.43839 0.07311,0.13173 0.169538,0.24986 0.275059,0.3569 0.111887,0.10449 0.237643,0.19285 0.354181,0.29241 0.138558,0.13262 0.293631,0.24617 0.431804,0.37903 0.10526,0.12469 0.232687,0.2169 0.372985,0.29668 0.111172,0.0606 0.21688,0.11923 0.341729,0.1456 0.126532,0.0205 0.252804,-0.019 0.373243,-0.0543 0.202421,-0.0502 0.527806,-0.24948 -0.340052,0.21852 -0.01485,0.008 0.02764,-0.0197 0.0392,-0.032 0.0396,-0.0421 0.03951,-0.0544 0.06198,-0.1066 0.04477,-0.17966 0.02333,-0.36386 -0.0099,-0.54326 -0.04187,-0.23218 -0.117191,-0.4561 -0.186355,-0.68105 -0.08586,-0.26186 -0.180145,-0.52113 -0.276258,-0.77944 -0.10029,-0.27251 -0.173086,-0.55345 -0.24607,-0.83412 -0.07746,-0.26948 -0.150734,-0.54003 -0.231761,-0.80846 -0.0751,-0.20583 -0.121937,-0.41957 -0.1664,-0.63359 -0.03369,-0.24029 -0.07159,-0.47948 -0.119246,-0.71747 -0.05763,-0.23927 -0.113825,-0.47898 -0.175382,-0.71724 -0.06572,-0.21983 -0.0804,-0.44809 -0.104059,-0.67476 -0.02682,-0.28883 -0.05516,-0.57716 -0.08936,-0.86525 -0.03547,-0.21382 -0.03022,-0.42845 0.0013,-0.64204 0.05258,-0.23554 0.06796,-0.47354 0.0602,-0.71397 -0.02047,-0.26916 -0.02368,-0.53707 -0.006,-0.80627 0.01368,-0.17624 0.07003,-0.3415 0.137153,-0.50334 0.07053,-0.13808 0.117045,-0.28626 0.152064,-0.43684 0.03826,-0.15982 -0.07552,-0.23395 -0.193117,-0.3196 -0.189042,-0.13615 -0.398933,-0.23825 -0.608309,-0.33843 -0.161763,-0.0823 -0.317868,-0.17573 -0.491518,-0.23077 -0.102565,-0.0181 -0.206305,-0.044 -0.310068,-0.0513 0,0 0.486786,-0.34455 0.486786,-0.34455 v 0 c 0.105355,0.0185 0.212181,0.0312 0.314643,0.063 0.172077,0.0626 0.329181,0.15651 0.492343,0.23871 0.211998,0.10217 0.422699,0.20943 0.613872,0.34788 0.132509,0.0981 0.264825,0.19417 0.230485,0.37654 -0.03025,0.15344 -0.07694,0.30756 -0.148156,0.44708 -0.06616,0.15777 -0.131483,0.31539 -0.148812,0.48779 -0.02139,0.26754 -0.02387,0.53386 9.79e-4,0.80158 0.0101,0.24278 0.0025,0.48453 -0.05143,0.72272 -0.03762,0.20823 -0.04311,0.41963 -0.01244,0.62941 0.03187,0.28821 0.06258,0.57626 0.09044,0.86486 0.02673,0.22337 0.03715,0.44951 0.101327,0.66682 0.06161,0.23943 0.115923,0.48076 0.176027,0.72062 0.04714,0.23772 0.08878,0.47597 0.120481,0.71626 0.04415,0.2125 0.08903,0.42531 0.162859,0.62994 0.07838,0.27006 0.152284,0.54128 0.23028,0.81145 0.073,0.2786 0.144457,0.5578 0.243769,0.82856 0.09703,0.2591 0.191186,0.5195 0.279225,0.78174 0.06987,0.22671 0.148127,0.45161 0.191191,0.68557 0.03814,0.18769 0.0597,0.37826 0.0274,0.56885 -0.0859,0.32655 -0.463183,0.45071 -0.77026,0.53491 -0.127663,0.0346 -0.260659,0.0621 -0.391954,0.0301 -0.125946,-0.0345 -0.235997,-0.0978 -0.349937,-0.16031 -0.143127,-0.083 -0.269317,-0.18497 -0.378735,-0.31005 -0.13787,-0.13159 -0.292103,-0.24454 -0.430837,-0.37536 -0.118837,-0.0997 -0.247244,-0.18808 -0.358447,-0.29638 -0.10776,-0.11137 -0.205396,-0.23447 -0.28099,-0.37005 -0.09124,-0.15526 -0.2177,-0.28309 -0.309936,-0.43771 -0.08975,-0.14179 -0.186014,-0.27961 -0.300246,-0.40301 -0.07257,-0.0768 -0.137609,-0.16233 -0.181273,-0.25902 -0.05403,-0.11103 -0.09919,-0.22751 -0.136427,-0.34521 -0.02559,-0.13455 -0.06752,-0.26521 -0.08405,-0.40148 -0.02407,-0.13351 -0.02766,-0.26698 -0.0387,-0.40204 -0.01806,-0.13432 -0.05408,-0.26442 -0.07461,-0.39806 -0.02087,-0.12545 -0.05557,-0.24811 -0.06514,-0.37526 -0.02356,-0.13812 -0.05854,-0.2739 -0.05998,-0.41503 -0.02538,-0.19966 -0.06303,-0.39969 -0.146237,-0.58435 -0.0073,-0.0159 -0.01132,-0.0337 -0.02181,-0.0477 -0.0081,-0.0108 -0.05189,0.01 -0.04034,0.003 0.9712,-0.58416 0.550251,-0.3655 0.416822,-0.23348 -0.05499,0.0943 -0.105056,0.18707 -0.13071,0.29486 -0.05364,0.11743 -0.103102,0.23603 -0.153959,0.35479 -0.05287,0.11205 -0.101594,0.22549 -0.163322,0.33314 -0.07548,0.10954 -0.149564,0.21865 -0.234866,0.32042 -0.103442,0.12246 -0.181822,0.26312 -0.249183,0.40834 -0.09596,0.18463 -0.184787,0.37382 -0.259869,0.56787 -0.03958,0.0989 -0.05224,0.18232 0.01803,0.27066 0.06345,0.0838 0.130119,0.16327 0.203728,0.23885 0.09919,0.12604 0.203177,0.2501 0.273875,0.39537 0.09757,0.17197 0.174381,0.35435 0.275942,0.5242 0.08759,0.15771 0.192142,0.30482 0.301093,0.44842 0.126693,0.16701 0.265553,0.32583 0.425589,0.46188 0.159333,0.1302 0.331472,0.24452 0.461997,0.40698 0.142786,0.15362 0.28467,0.30937 0.400457,0.48496 0.05921,0.10669 0.120128,0.21235 0.128087,0.33746 0.02194,0.12781 0.05614,0.25329 0.05253,0.38421 0.01175,0.13684 0.03571,0.27056 0.06867,0.40391 0.01882,0.19308 0.05282,0.38378 0.09923,0.57222 0.03761,0.22597 0.08138,0.45069 0.105652,0.67876 0.01918,0.22992 0.05575,0.4567 0.09009,0.68462 0.0345,0.22648 0.07543,0.45233 0.122564,0.67646 0.06612,0.29213 0.123917,0.58615 0.188711,0.87861 0.06776,0.35375 0.140612,0.70665 0.219749,1.05802 0.0802,0.354 0.186728,0.70308 0.23223,1.06406 0.03362,0.31553 0.07032,0.63486 0.0167,0.95055 -0.03076,0.15084 -0.06099,0.32037 -0.189223,0.41989 -0.36006,0.20525 -0.558722,0.338 -0.914026,0.45479 -0.175298,0.0685 -0.341355,0.16148 -0.524399,0.2087 -0.200374,0.0435 -0.399605,0.0544 -0.604465,0.0381 -0.210662,-0.009 -0.423436,-0.0234 -0.624925,-0.0909 -0.162568,-0.0568 -0.328539,-0.11613 -0.468723,-0.21849 -0.139999,-0.10797 -0.255774,-0.2431 -0.353271,-0.3903 -0.127341,-0.20587 -0.233675,-0.423 -0.319619,-0.64947 -0.09941,-0.23651 -0.174314,-0.47877 -0.217852,-0.73216 -0.03799,-0.21312 -0.07688,-0.42708 -0.0876,-0.64368 -0.02054,-0.26554 -0.05898,-0.52925 -0.07419,-0.79515 -0.02213,-0.28227 -0.05639,-0.56324 -0.08493,-0.84485 -0.03568,-0.23704 -0.07996,-0.47302 -0.127448,-0.70791 -0.05483,-0.24929 -0.08592,-0.50265 -0.138509,-0.75239 -0.03865,-0.21075 -0.09992,-0.41598 -0.174995,-0.61664 -0.05061,-0.11991 -0.103779,-0.22918 -0.208753,-0.31284 -0.128827,-0.11622 -0.253541,-0.23785 -0.40192,-0.33006 -0.174157,-0.11817 -0.362845,-0.20669 -0.550518,-0.30095 -0.187798,-0.091 -0.375553,-0.18182 -0.563305,-0.27291 -0.155153,-0.084 -0.308981,-0.17127 -0.467526,-0.2483 -0.157807,-0.0636 -0.317903,-0.11992 -0.482778,-0.16271 -0.07948,-0.0206 -0.162724,-0.0455 -0.245935,-0.0434 -0.01418,2.7e-4 -0.05377,0.0156 -0.04177,0.008 0.346283,-0.21841 0.646061,-0.36509 0.419832,-0.25323 -0.126778,0.11121 -0.129308,0.29019 -0.191092,0.43902 -0.06264,0.20478 -0.160157,0.39529 -0.237991,0.59441 -0.08184,0.25324 -0.145644,0.5104 -0.19472,0.77214 -0.05781,0.24823 -0.111322,0.49939 -0.219409,0.73195 -0.104143,0.26517 -0.217712,0.52679 -0.308852,0.79709 -0.110921,0.3237 -0.232841,0.64303 -0.348684,0.96499 -0.119073,0.35725 -0.228484,0.71815 -0.386365,1.06104 -0.12434,0.26 -0.280552,0.49795 -0.445928,0.73341 -0.161115,0.2518 -0.294792,0.51897 -0.42659,0.78701 -0.148179,0.28743 -0.301379,0.57297 -0.50222,0.82806 -0.147403,0.1813 -0.305359,0.35314 -0.495569,0.4909 -0.311406,0.18285 -0.601,0.39396 -0.951589,0.48625 -0.121472,0.029 -0.245844,0.0615 -0.364647,0.004 -0.108582,-0.0766 -0.192878,-0.1806 -0.250852,-0.30025 -0.07866,-0.13318 -0.15352,-0.26814 -0.214073,-0.41067 -0.05729,-0.13573 -0.112075,-0.27139 -0.138228,-0.41753 -0.04312,-0.19113 -0.05411,-0.38733 -0.04376,-0.58283 0.0059,-0.20105 0.01803,-0.40179 0.02545,-0.60278 -0.0022,-0.18593 -0.05167,-0.36827 -0.04379,-0.55529 -0.01201,-0.2578 -0.03346,-0.5154 -0.03262,-0.77361 0.01936,-0.23577 0.05394,-0.4685 0.110343,-0.69841 0.04635,-0.18002 0.09688,-0.35905 0.134388,-0.5413 0.04784,-0.20411 0.09403,-0.40875 0.133872,-0.6145 0.04932,-0.2306 0.08767,-0.46305 0.137813,-0.69351 0.05526,-0.22138 0.117594,-0.4406 0.189341,-0.65727 0.07959,-0.23827 0.166121,-0.47354 0.264959,-0.70467 0.09988,-0.24751 0.206081,-0.49325 0.346034,-0.72121 0.118995,-0.21118 0.232429,-0.42696 0.324481,-0.65133 0.08105,-0.20913 0.158758,-0.41944 0.246951,-0.62568 0.06069,-0.16384 0.139352,-0.31965 0.210283,-0.4791 0.0811,-0.17539 0.144898,-0.35799 0.209615,-0.53992 0.08439,-0.23629 0.150652,-0.4791 0.211341,-0.72244 0.04196,-0.17747 0.09527,-0.35044 0.160351,-0.52072 0.06519,-0.17544 0.140351,-0.34607 0.226669,-0.51232 0.09845,-0.20452 0.213739,-0.40131 0.335972,-0.59242 0.09593,-0.14307 0.198269,-0.28141 0.297418,-0.42222 0.102196,-0.12224 0.207912,-0.24137 0.305001,-0.3674 0.127559,-0.15742 0.239191,-0.32528 0.331681,-0.50591 0.111908,-0.16268 0.207166,-0.33591 0.322124,-0.49642 0.14559,-0.17305 0.294767,-0.34194 0.464705,-0.49206 0.103419,-0.0956 0.214954,-0.18173 0.315237,-0.27993 0.0759,-0.0858 0.168207,-0.15657 0.231175,-0.25402 0.0964,-0.10481 0.168614,-0.22884 0.253147,-0.3431 0.08384,-0.1274 0.183352,-0.24448 0.259521,-0.37695 0.09526,-0.14396 0.164988,-0.30305 0.278469,-0.43433 0.126547,-0.13839 0.25029,-0.2791 0.382096,-0.41251 0.163564,-0.20992 0.323859,-0.42465 0.455231,-0.65644 0.127185,-0.23303 0.263934,-0.46066 0.387854,-0.69538 0.117437,-0.23562 -0.0065,0.0176 0.09802,-0.20942 0.03579,-0.0778 0.06099,-0.1317 0.02291,-0.21456 -0.08399,-0.12001 -0.236518,-0.17588 -0.344072,-0.27167 -0.156667,-0.11299 -0.305776,-0.23477 -0.450466,-0.36272 -0.141674,-0.10989 -0.293583,-0.2026 -0.448453,-0.29265 -0.125178,-0.0733 -0.249303,-0.14817 -0.369466,-0.2295 -0.09112,-0.0503 -0.18541,-0.0963 -0.292593,-0.089 -0.11501,0.0125 -0.224867,0.0612 -0.334202,0.0963 -0.210739,0.10351 -0.135977,0.0687 0.374845,-0.22432 0.02294,-0.0132 -0.04456,0.0285 -0.06707,0.0424 -0.111047,0.0685 -0.02582,0.0113 -0.134494,0.0891 -0.02221,0.0159 -0.04458,0.0316 -0.06686,0.0474 -0.120134,0.10024 -0.249645,0.18951 -0.356877,0.30419 -0.09504,0.0978 -0.169275,0.20436 -0.205996,0.33818 -0.06166,0.16294 -0.111326,0.33085 -0.18523,0.48896 -0.04847,0.12069 -0.117705,0.23161 -0.164032,0.35349 -0.04182,0.15152 -0.09425,0.29981 -0.135222,0.45166 -0.03801,0.16474 -0.08011,0.33055 -0.143707,0.4873 -0.05551,0.16219 -0.132025,0.31735 -0.167511,0.48614 -0.05212,0.19765 -0.0925,0.39866 -0.159584,0.59229 -0.0681,0.17546 -0.128745,0.35375 -0.216467,0.52091 -0.08831,0.16517 -0.184578,0.32325 -0.319363,0.45594 -0.235648,0.21185 -0.510874,0.39458 -0.815237,0.48786 -0.128125,0.0213 -0.257744,0.0128 -0.386869,0.004 -0.136343,-0.0134 -0.271257,-0.037 -0.397712,-0.0923 -0.120639,-0.0479 -0.241783,-0.0976 -0.342204,-0.18238 -0.135631,-0.11445 -0.263965,-0.23375 -0.367857,-0.37934 -0.09717,-0.13895 -0.200129,-0.27954 -0.217299,-0.45341 -0.0207,-0.14021 -0.01616,-0.27776 0.01722,-0.4164 0.03932,-0.16422 0.08567,-0.3281 0.147461,-0.4852 0.07018,-0.1525 0.142164,-0.30478 0.22929,-0.44766 0.07226,-0.10737 0.14493,-0.21255 0.188954,-0.33607 0.05339,-0.13772 0.111785,-0.27288 0.179813,-0.40403 0.07039,-0.13225 0.133509,-0.26821 0.203509,-0.40068 0.07398,-0.12892 0.143703,-0.26031 0.23366,-0.37929 0.08812,-0.10954 0.1753,-0.22289 0.226394,-0.355 0.06174,-0.12677 0.113195,-0.2586 0.157822,-0.39228 0.04946,-0.12123 0.104075,-0.23953 0.179319,-0.34722 0.08027,-0.11256 0.139066,-0.24067 0.239,-0.33925 0.114235,-0.11165 0.221809,-0.23014 0.346851,-0.33076 0.124472,-0.1134 0.234685,-0.24193 0.376115,-0.33661 0.28626,-0.26543 0.584968,-0.47261 0.948194,-0.64289 0.225096,-0.12695 0.09569,-0.0544 -0.354318,0.20772 -0.160746,0.0937 0.432634,-0.25112 0.267964,-0.18199 0.288503,-0.2105 0.587169,-0.41131 0.914783,-0.55649 0.148171,-0.0602 0.299201,-0.1127 0.458041,-0.1368 0.147364,-0.0244 0.293104,-0.0587 0.438887,-0.0906 0.123029,-0.0382 0.24772,-0.0678 0.377931,-0.0567 0.130943,0.0169 0.261223,0.0482 0.393908,0.0426 0.119753,-0.002 0.239754,-0.007 0.359399,4.8e-4 0.128667,0.0146 0.254471,0.0483 0.383225,0.0635 0.136463,0.0129 0.27492,0.008 0.409555,0.0381 0.135463,0.0326 0.258739,0.0884 0.382892,0.15057 0.117727,0.0503 0.239119,0.0915 0.355246,0.14561 0.182429,0.0742 0.345185,0.18471 0.510012,0.29129 0.174359,0.1079 0.349326,0.21479 0.531696,0.30884 0.176637,0.097 0.343832,0.20956 0.50295,0.33325 0.243217,0.19087 0.489772,0.37824 0.74605,0.55129 0.230427,0.15586 0.467183,0.30148 0.708798,0.43938 0,0 -0.498605,0.32411 -0.498605,0.32411 z"
       inkscape:connector-curvature="0" />
    <path
       style="fill:#000000;fill-opacity:1;stroke:none;stroke-width:0.26458332;stroke-opacity:1"
       id="path1192"
       d="m 25.41711,282.1711 c 0.122808,-0.19046 0.252694,-0.37632 0.388143,-0.55798 0.115947,-0.14884 0.224145,-0.30415 0.360631,-0.43504 0.130097,-0.10915 0.242835,-0.2365 0.35864,-0.36016 0.126045,-0.13437 0.255352,-0.26562 0.384963,-0.39654 0.09534,-0.10649 0.193686,-0.21039 0.286039,-0.31951 0.07303,-0.10153 0.156808,-0.19414 0.228237,-0.29686 0.07743,-0.11145 0.154236,-0.22276 0.246417,-0.32262 0.11216,-0.11449 0.245859,-0.20326 0.372155,-0.30073 0.127564,-0.10023 0.242904,-0.21524 0.354656,-0.33257 0.0953,-0.10532 0.18965,-0.21147 0.284326,-0.31738 0.100706,-0.11631 0.189521,-0.2403 0.264663,-0.37436 0.06416,-0.11445 0.0917,-0.24339 0.146804,-0.36186 0.140586,-0.26619 0.473104,-0.36975 0.713486,-0.50847 0.160578,-0.0579 0.26747,-0.0172 0.418706,0.0477 0.198146,0.0886 0.358597,0.22768 0.507037,0.38246 0.113577,0.13369 0.21255,0.27754 0.31097,0.4222 0.07195,0.0728 0.14089,0.24463 0.232423,0.28892 0.04799,-0.20537 -0.0044,0.0443 -0.485098,0.23679 -0.02339,0.009 0.01675,-0.0476 0.02291,-0.072 0.02535,-0.1003 0.02503,-0.19863 0.02492,-0.30133 -0.0076,-0.23549 -0.01855,-0.47083 -0.02577,-0.70633 0.0048,-0.16288 0.03178,-0.32387 0.04644,-0.48598 0.01336,-0.13415 0.0064,-0.26927 0.01979,-0.40326 0.01259,-0.1269 0.05213,-0.24719 0.09606,-0.36606 0.05204,-0.11793 0.117626,-0.22873 0.202261,-0.32597 0.242496,-0.20156 0.524028,-0.36103 0.818041,-0.47691 0.138105,-0.0516 0.284356,-0.0686 0.430377,-0.0786 0.142732,-0.007 0.285708,-0.006 0.428572,-0.006 0.166378,-0.009 0.329639,0.0259 0.494242,0.0442 0.183994,0.0248 0.354338,0.0963 0.524859,0.16587 0.259292,0.111 0.503629,0.25287 0.744469,0.39876 0.297907,0.19475 0.588573,0.39921 0.864711,0.62381 0.288398,0.22496 0.565319,0.46413 0.823156,0.72354 0.33084,0.35239 0.659016,0.7067 0.996854,1.05249 0.432007,0.4251 0.830316,0.88229 1.228815,1.33838 0.335095,0.39905 0.696037,0.77514 1.039771,1.16664 0.317198,0.37815 0.626787,0.76234 0.952619,1.13315 0.215561,0.24836 0.479861,0.44951 0.690848,0.70148 0.03529,0.0579 0.11104,0.13933 0.08602,0.21752 -0.02302,0.0719 -0.08362,0.11543 -0.145542,0.15052 -0.205891,0.11667 -0.415853,0.22601 -0.623779,0.33902 -0.321725,0.10897 -0.659003,0.0724 -0.990354,0.0451 -0.51322,-0.0643 -1.025019,-0.14023 -1.537501,-0.2106 -0.596255,-0.0798 -1.197859,-0.10549 -1.797849,-0.14206 -0.665941,-0.0392 -1.333093,-0.0476 -1.999989,-0.0538 -0.745378,-0.0217 -1.490575,-0.0458 -2.235517,-0.0792 -0.761185,-0.0351 -1.523119,-0.0471 -2.284997,-0.0533 -0.579374,0.003 -1.159378,-0.0154 -1.738434,0.008 -0.327996,0.0196 -0.656191,0.0331 -0.982017,0.0765 -0.288534,0.057 -0.57934,0.10756 -0.873055,0.12576 -0.27075,-10e-4 -0.545813,0.0246 -0.815273,-0.01 -0.190845,-0.0353 -0.138896,-0.14773 -0.07989,-0.28711 0.09881,-0.23931 0.198255,-0.47804 0.319726,-0.70686 0.08044,-0.16574 0.213467,-0.28725 0.34654,-0.40932 0,0 0.548617,-0.22459 0.548617,-0.22459 v 0 c -0.131285,0.12124 -0.27656,0.22913 -0.358662,0.39342 -0.12531,0.22473 -0.225493,0.4612 -0.318522,0.70095 -0.05362,0.1164 -0.131477,0.16814 0.02512,0.19093 0.265885,0.0261 0.535129,0.0127 0.801629,0.006 0.294362,-0.0251 0.584774,-0.0792 0.875403,-0.13127 0.323995,-0.0384 0.65016,-0.0487 0.975849,-0.0653 0.576564,-0.0158 1.1536,7.9e-4 1.730293,10e-4 0.761214,0.009 1.52245,0.0227 2.283008,0.0572 0.745593,0.0325 1.491483,0.0553 2.237518,0.0753 0.668551,0.006 1.337341,0.0142 2.004911,0.0539 0.601634,0.0362 1.204849,0.062 1.80253,0.14393 0.51395,0.0689 1.026985,0.14639 1.54241,0.20296 0.329514,0.0231 0.665099,0.0515 0.980019,-0.0722 -0.12918,0.0796 -0.259977,0.15659 -0.387543,0.23873 -0.0532,0.0343 0.122383,-0.0487 0.163057,-0.0972 0.04559,-0.0543 -0.03913,-0.1415 -0.05983,-0.18053 -0.206494,-0.25356 -0.466659,-0.45768 -0.678495,-0.707 -0.323951,-0.37228 -0.634421,-0.75568 -0.951865,-1.13347 -0.343527,-0.39129 -0.702273,-0.76915 -1.035354,-1.16954 -0.396862,-0.45624 -0.794502,-0.9127 -1.228373,-1.33463 -0.340567,-0.34383 -0.670029,-0.69765 -1.004676,-1.04712 -0.258279,-0.25629 -0.53407,-0.49366 -0.820502,-0.71805 -0.275326,-0.22204 -0.564618,-0.42492 -0.862515,-0.61564 -0.239967,-0.144 -0.484373,-0.28249 -0.744451,-0.38739 -0.16782,-0.066 -0.335751,-0.13318 -0.5168,-0.15226 -0.163306,-0.0193 -0.32599,-0.0474 -0.491188,-0.0381 -0.142142,2.1e-4 -0.284491,-2.5e-4 -0.426347,0.01 -0.143375,0.0135 -0.286097,0.0363 -0.419468,0.0935 -0.02072,0.009 -0.04171,0.0172 -0.06214,0.0267 -0.01675,0.008 -0.06528,0.0347 -0.04936,0.0253 0.833934,-0.49189 0.53482,-0.31482 0.357769,-0.20768 -0.01707,0.0103 -0.03234,0.0233 -0.04851,0.035 -0.08901,0.0894 -0.155905,0.19236 -0.211206,0.30573 -0.04812,0.11309 -0.08667,0.2308 -0.103063,0.35284 -0.02074,0.13254 -0.0066,0.26788 -0.02111,0.40135 -0.01363,0.16105 -0.04008,0.32049 -0.05264,0.48161 0.005,0.23594 0.0146,0.4717 0.02537,0.70745 0.0056,0.24905 -0.01664,1.02793 -0.592432,0.72618 -0.09831,-0.0861 -0.156363,-0.21048 -0.238873,-0.31032 -0.09556,-0.14254 -0.194406,-0.28228 -0.304914,-0.41397 -0.143455,-0.1489 -0.298717,-0.28213 -0.492593,-0.36198 -0.136208,-0.0506 -0.259279,-0.0756 -0.393007,-0.003 0.942231,-0.55305 0.404079,-0.30108 0.29496,-0.10871 -0.07064,0.11248 -0.08678,0.24642 -0.148519,0.36347 -0.0758,0.13683 -0.157922,0.26666 -0.259426,0.38656 -0.09527,0.10543 -0.187823,0.21316 -0.283954,0.31743 -0.106537,0.12381 -0.229095,0.23498 -0.351904,0.34227 -0.123856,0.0992 -0.25796,0.18473 -0.373829,0.29365 -0.09879,0.0918 -0.170741,0.20348 -0.250561,0.31116 -0.06647,0.10837 -0.153646,0.19874 -0.225028,0.30304 -0.09205,0.11202 -0.192915,0.21529 -0.287136,0.32549 -0.129474,0.13045 -0.258787,0.26109 -0.384948,0.39476 -0.116279,0.12384 -0.226766,0.2547 -0.356978,0.36423 -0.141883,0.12485 -0.252053,0.27573 -0.365909,0.42627 -0.139663,0.17558 -0.267738,0.36156 -0.385574,0.55245 0,0 -0.545468,0.23866 -0.545468,0.23866 z"
       inkscape:connector-curvature="0" />
    <path
       style="fill:#000000;fill-opacity:1;stroke:none;stroke-width:0.26458332;stroke-opacity:1"
       id="path1194"
       d="m 11.649865,264.86915 c -0.22236,-0.0766 -0.430158,-0.18889 -0.649441,-0.27241 -0.01543,-0.007 -0.06076,-0.0129 -0.04627,-0.0219 0.183989,-0.11435 0.372654,-0.22451 0.573463,-0.30578 0.03345,-0.0135 0.06911,0.0208 0.103479,0.0318 0.132816,0.0425 0.263293,0.0911 0.394171,0.13915 0.302101,0.10347 0.584108,0.25255 0.853709,0.42204 0.169084,0.1263 0.345862,0.24268 0.51487,0.36888 0.08479,0.0765 0.214753,0.1321 0.21721,0.26002 -0.63498,0.38135 -0.341413,0.41479 -0.606203,0.27884 -0.07326,-0.0376 -0.143987,-0.0701 -0.212431,-0.11631 0,0 0.50096,-0.32064 0.50096,-0.32064 v 0 c 0.33197,0.21973 0.456202,-0.0175 -0.225124,0.41079 0.07957,-0.0244 -0.157616,-0.1704 -0.175644,-0.1955 -0.167365,-0.12478 -0.337981,-0.24561 -0.506719,-0.36851 -0.266542,-0.16769 -0.54652,-0.31199 -0.845994,-0.41205 -0.131438,-0.0467 -0.262484,-0.0935 -0.396045,-0.13394 -0.03529,-0.0107 -0.129164,-0.002 -0.106189,-0.031 0.330355,-0.41471 0.260256,-0.43477 0.454982,-0.33522 0.215374,0.0935 0.425979,0.19793 0.650232,0.26987 0,0 -0.493013,0.33185 -0.493013,0.33185 z"
       inkscape:connector-curvature="0" />
    <path
       style="fill:#000000;fill-opacity:1;stroke:none;stroke-width:0.26458332;stroke-opacity:1"
       id="path1196"
       d="m 16.457759,267.98842 c -0.203461,-0.17046 -0.432071,-0.3057 -0.650675,-0.4547 -0.01148,-0.007 -0.09037,-0.0578 -0.117999,-0.0609 -0.0058,-6.6e-4 -0.01803,0.0145 -0.01288,0.0118 0.176736,-0.0933 0.340946,-0.2138 0.528128,-0.28384 0.02736,-0.0102 0.03961,0.043 0.06022,0.0637 0.02669,0.0268 0.05444,0.0526 0.08166,0.0788 0.169588,0.1506 0.353518,0.28347 0.536802,0.41662 0.351098,0.22614 0.214623,0.12731 -0.34967,0.43901 -0.183197,-0.16416 -0.381398,-0.31026 -0.574763,-0.46198 -0.07012,-0.0602 -0.152166,-0.1012 -0.233009,-0.14419 0,0 0.498503,-0.32433 0.498503,-0.32433 v 0 c 0.07984,0.048 0.160483,0.0951 0.232029,0.15544 0.191727,0.15125 0.384723,0.30099 0.578268,0.44984 -0.561145,0.40031 -0.324153,0.42233 -0.65142,0.20327 -0.183848,-0.13586 -0.365754,-0.27473 -0.538587,-0.42447 -0.02829,-0.0266 -0.05707,-0.0527 -0.08487,-0.0798 -0.02366,-0.0231 -0.09174,-0.0463 -0.06947,-0.0707 0.381652,-0.4183 0.348809,-0.45885 0.614248,-0.28572 0.217272,0.15042 0.440382,0.29248 0.652408,0.45055 0,0 -0.498927,0.32153 -0.498927,0.32153 z"
       inkscape:connector-curvature="0" />
    <path
       style="fill:#000000;fill-opacity:1;stroke:none;stroke-width:0.26458332;stroke-opacity:1"
       id="path1198"
       d="m 17.744587,268.27207 c 0.229135,0.10728 0.452859,0.22529 0.671008,0.35334 0.175443,0.11841 0.360354,0.22059 0.54377,0.32563 0.154279,0.0994 0.308389,0.19925 0.45309,0.31238 0.143556,0.13664 0.304357,0.24729 0.472356,0.35099 0.150491,0.0885 0.293789,0.18543 0.432862,0.29081 0.137957,0.0941 0.288378,0.1666 0.434448,0.24664 0.192885,0.10142 0.387733,0.19879 0.580088,0.30146 0.221566,0.10131 0.443545,0.20187 0.663893,0.30574 0.175039,0.0884 0.334288,0.20611 0.484225,0.33174 0.09113,0.0776 0.183129,0.15181 0.284194,0.21617 0.05147,0.0437 0.02552,0.0235 0.07759,0.0611 0,0 -0.503814,0.31908 -0.503814,0.31908 v 0 c -0.05178,-0.0393 -0.02659,-0.0197 -0.07561,-0.0585 -0.100243,-0.0684 -0.19405,-0.14331 -0.285102,-0.2235 -0.146609,-0.12203 -0.301039,-0.23711 -0.47317,-0.32088 -0.221038,-0.10409 -0.443544,-0.20508 -0.664964,-0.30837 -0.193386,-0.10184 -0.389362,-0.19829 -0.582505,-0.30047 -0.149499,-0.0798 -0.302457,-0.15472 -0.441145,-0.25297 -0.137665,-0.10364 -0.279003,-0.2 -0.427365,-0.2879 -0.169116,-0.10551 -0.329984,-0.22008 -0.476996,-0.35531 -0.143444,-0.11011 -0.294741,-0.20971 -0.447813,-0.30582 -0.183703,-0.10404 -0.36516,-0.21118 -0.541076,-0.32819 -0.219434,-0.12794 -0.444783,-0.24491 -0.676565,-0.34901 0,0 0.498606,-0.32412 0.498606,-0.32412 z"
       inkscape:connector-curvature="0" />
    <path
       style="fill:#000000;fill-opacity:1;stroke:none;stroke-width:0.26458332;stroke-opacity:1"
       id="path1200"
       d="m 28.170719,274.70753 c 0.233728,0.21996 0.488707,0.41477 0.747279,0.60418 0.195146,0.14051 0.408932,0.25249 0.596836,0.40317 0.08101,0.0616 0.170662,0.13835 0.207097,0.23679 0.01431,0.2456 0.02095,0.13402 -0.586761,0.27288 -0.0387,0.009 -0.0609,-0.0509 -0.09171,-0.076 -0.128051,-0.10396 -0.259522,-0.20368 -0.389049,-0.30578 -0.270177,-0.20441 -0.532286,-0.42135 -0.813263,-0.61098 -0.242006,-0.17037 -0.276627,-0.0904 0.419394,-0.36913 0.0024,-0.001 0.206187,0.17502 0.278585,0.23125 0.309205,0.22512 0.633455,0.42805 0.948293,0.64509 0.303744,0.20006 0.600538,0.41087 0.908082,0.60507 0.08527,0.0511 0.180054,0.0917 0.256262,0.1571 0.03962,0.034 0.04856,0.0646 0.04618,0.0659 -0.185311,0.10227 -0.380177,0.18618 -0.570264,0.27927 -0.30026,-0.19408 -0.57844,-0.41919 -0.868892,-0.62706 -0.34545,-0.24058 -0.709996,-0.45212 -1.06944,-0.67085 -0.247306,-0.16689 -0.50156,-0.32827 -0.732388,-0.51794 -0.103767,-0.0841 -0.206126,-0.17225 -0.296241,-0.27107 -0.08031,-0.0828 -0.182091,-0.13641 -0.280199,-0.19453 -0.117327,-0.0602 -0.235836,-0.11839 -0.345212,-0.19248 0.04419,-0.006 -0.04683,-0.007 -0.03556,-0.0128 0.186639,-0.0931 0.364349,-0.21002 0.563488,-0.27204 5.29e-4,-1.7e-4 0.252481,0.21543 0.272283,0.23254 0.205438,0.16382 0.411331,0.32643 0.612481,0.49559 0.23314,0.18685 0.463097,0.37753 0.700408,0.55911 0.224983,0.16176 0.442637,0.33262 0.661315,0.50267 0.22021,0.1819 0.455893,0.34363 0.691875,0.50407 0.172098,0.12053 0.338082,0.2508 0.496776,0.38844 0.344874,0.27752 0.262602,0.1469 -0.355904,0.44873 -0.189598,-0.17733 -0.387022,-0.3459 -0.591421,-0.50584 -0.01516,-0.0171 -0.350067,-0.2432 -0.306625,-0.27506 0.171699,-0.12596 0.361979,-0.2244 0.542967,-0.33659 0.267936,0.0554 0.515141,0.17392 0.758844,0.29396 0.24166,0.13004 0.491537,0.25336 0.691594,0.4444 0.167309,0.19684 0.123063,0.11575 -0.535165,0.30072 -0.03509,0.01 -0.05518,-0.0476 -0.08263,-0.0716 -0.08631,-0.0754 -0.171368,-0.14504 -0.266102,-0.20961 -0.281459,-0.19709 -0.183785,-0.14442 0.401574,-0.4184 0.02106,-0.01 0.03967,0.0243 0.06008,0.0355 0.02387,0.0131 0.04844,0.0247 0.07266,0.0371 0.125132,0.0766 0.237397,0.17536 0.337074,0.28281 0.03745,0.0312 0.06666,0.0694 0.103232,0.10141 0,0 -0.508354,0.31364 -0.508354,0.31364 v 0 c -0.03485,-0.035 -0.06686,-0.0725 -0.103468,-0.10572 -0.09593,-0.10169 -0.201018,-0.19821 -0.32379,-0.26635 -0.02482,-0.0123 -0.04939,-0.025 -0.07443,-0.0367 -0.01889,-0.009 -0.07316,-0.0115 -0.05737,-0.0252 0.507404,-0.43844 0.33383,-0.42171 0.590613,-0.23527 0.09407,0.0673 0.180515,0.13978 0.268803,0.21435 0.02777,0.0235 0.107133,0.0413 0.08409,0.0694 -0.382685,0.46699 -0.330038,0.50746 -0.471061,0.32409 -0.19253,-0.1889 -0.44028,-0.30545 -0.674844,-0.43307 -0.233648,-0.11251 -0.48197,-0.2437 -0.745649,-0.25352 0.151228,-0.10507 0.297969,-0.21692 0.453684,-0.31522 0.0073,-0.005 5.29e-4,0.0183 0.0055,0.0254 0.0118,0.0167 0.02786,0.0299 0.0432,0.0434 0.07447,0.0654 0.160719,0.11586 0.234209,0.18256 0.202851,0.16213 0.396476,0.33494 0.594895,0.50242 -0.548325,0.44467 -0.322742,0.44769 -0.649404,0.18152 -0.156488,-0.13621 -0.318791,-0.2665 -0.48886,-0.38545 -0.23568,-0.16283 -0.471604,-0.326 -0.693783,-0.50713 -0.217887,-0.17043 -0.436364,-0.33962 -0.659397,-0.50332 -0.237665,-0.1826 -0.468508,-0.37358 -0.702746,-0.56051 -0.202653,-0.16794 -0.409139,-0.33065 -0.614231,-0.49553 -0.08352,-0.0715 -0.105015,-0.0908 -0.189717,-0.16 -0.02843,-0.0232 -0.108844,-0.0402 -0.0859,-0.0689 0.350536,-0.43773 0.28421,-0.46709 0.477197,-0.35129 0.108392,0.073 0.226494,0.12869 0.341376,0.19043 0.103579,0.06 0.208291,0.12022 0.291055,0.20848 0.08925,0.0955 0.186539,0.18399 0.287327,0.26713 0.226994,0.18845 0.474226,0.3533 0.719799,0.51613 0.359386,0.22092 0.724588,0.43338 1.070567,0.67517 0.288661,0.20723 0.565383,0.43409 0.875515,0.60931 -0.997263,0.73033 -0.312846,0.44061 -0.47325,0.3013 -0.07427,-0.0645 -0.166325,-0.10479 -0.248076,-0.15798 -0.303657,-0.1996 -0.600482,-0.40949 -0.903584,-0.60997 -0.31696,-0.21674 -0.64271,-0.42028 -0.954323,-0.64476 -0.02106,-0.0158 -0.298683,-0.22358 -0.292563,-0.22944 0.437952,-0.41967 0.350483,-0.43817 0.586079,-0.2615 0.274801,0.19893 0.538871,0.4125 0.809503,0.61702 0.131085,0.10142 0.262655,0.20228 0.394909,0.30217 0.03058,0.0231 0.119663,0.0413 0.0925,0.0683 -0.132498,0.13191 -0.320077,0.19452 -0.469439,0.30698 -0.01011,0.008 0.01897,0.0167 0.02847,0.025 0.01101,-0.0496 -0.145209,-0.17738 -0.180991,-0.20473 -0.186349,-0.1494 -0.395661,-0.26492 -0.588129,-0.40587 -0.259212,-0.19259 -0.513379,-0.39132 -0.757653,-0.60273 0,0 0.503846,-0.3141 0.503846,-0.3141 z"
       inkscape:connector-curvature="0" />
    <path
       style="fill:#000000;fill-opacity:1;stroke:none;stroke-width:0.26458332;stroke-opacity:1"
       id="path1202"
       d="m 11.526655,264.08535 c 0.250758,0.23868 0.548665,0.42214 0.843501,0.60089 0.128404,0.0836 0.262721,0.1565 0.399703,0.22473 0.02942,0.0147 0.05968,0.0277 0.08832,0.0438 0.01741,0.01 0.06515,0.0214 0.04949,0.0338 -0.164416,0.13036 -0.351186,0.22974 -0.526779,0.34461 -0.356262,-0.0976 -0.707077,-0.21564 -1.054853,-0.34002 -0.242347,-0.10018 -0.52428,-0.14727 -0.725211,-0.32593 -0.01751,-0.53493 0.689602,-0.37059 0.964534,-0.29622 0.291034,0.0854 0.560278,0.22563 0.82031,0.37917 0.139721,0.084 0.275399,0.16789 0.343733,0.32022 0,0 -0.519338,0.28962 -0.519338,0.28962 v 0 c -0.04674,-0.14494 -0.195715,-0.21241 -0.314595,-0.29202 -0.257728,-0.15057 -0.526244,-0.28453 -0.815801,-0.36243 -0.100238,-0.0243 -0.202507,-0.0513 -0.306151,-0.0564 -0.02625,-0.001 -0.09966,0.0187 -0.0788,0.003 0.404531,-0.30996 0.631431,-0.24828 0.411133,-0.2982 0.192964,0.17142 0.470375,0.21314 0.700131,0.31538 0.205882,0.0735 0.41211,0.14368 0.621504,0.20669 0.0622,0.0187 0.261871,0.0785 0.337326,0.0922 0.03101,0.006 0.06286,0.005 0.09429,0.007 -0.151232,0.11127 -0.293711,0.23554 -0.453695,0.33381 -0.01449,0.009 -0.02693,-0.0209 -0.04155,-0.0296 -0.159321,-0.0946 -0.33113,-0.16864 -0.4824,-0.27727 -0.298951,-0.18374 -0.598377,-0.37256 -0.861554,-0.60602 0,0 0.506759,-0.31054 0.506759,-0.31054 z"
       inkscape:connector-curvature="0" />
  </g>
</svg>
